<svg  xmlns="http://www.w3.org/2000/svg" viewBox="0 0 559 569" width="559" height="569" preserveAspectRatio="xMidYMid meet" style="width:100%;height:100%;transform:translate3d(0,0,0);content-visibility:visible"><defs ><clipPath id="__object__lottie_element_7"><path  d="M0 0h559v569H0z"></path></clipPath></defs><g  clip-path="url(#__object__lottie_element_7)"><g  transform="translate(-.621 -.945)" opacity="1" style="display:block"><g  opacity="1" transform="translate(287.594 280.004)"><path  class="anim-color-1" fill="#353535" fill-opacity="1" d="M102.229 221.436h-222.497c-14.848 0-26.884-12.036-26.884-26.884v-389.104c0-14.847 12.036-26.884 26.884-26.884H96.657l13.341 1.496c21.157 2.371 37.154 20.261 37.154 41.551v354.901c0 24.811-20.112 44.924-44.923 44.924z"></path><path  stroke-linecap="round" stroke-linejoin="round" fill-opacity="0" class="anim-color-1" stroke="#353535" stroke-opacity="1" stroke-width="1" d="M102.229 221.436h-222.497c-14.848 0-26.884-12.036-26.884-26.884v-389.104c0-14.847 12.036-26.884 26.884-26.884H96.657l13.341 1.496c21.157 2.371 37.154 20.261 37.154 41.551v354.901c0 24.811-20.112 44.924-44.923 44.924z"></path></g><g  opacity="1" transform="translate(147.087 479.807)"><path  class="anim-color-1" fill="#353535" fill-opacity="1" d="M-26.528-21.456v4.265c0 21.344 17.303 38.648 38.646 38.648h14.41"></path><path  stroke-linecap="round" stroke-linejoin="round" fill-opacity="0" class="anim-color-1" stroke="#353535" stroke-opacity="1" stroke-width="1" d="M-26.528-21.456v4.265c0 21.344 17.303 38.648 38.646 38.648h14.41"></path></g><g  opacity="1" transform="translate(267.608 276.82)"><path  class="anim-color-2" fill="#FFEBD5" fill-opacity="1" d="M109.502 218.429h-219.003c-20.794 0-37.65-16.857-37.65-37.651v-361.556c0-20.794 16.856-37.651 37.65-37.651h219.003c20.794 0 37.65 16.857 37.65 37.651v361.556c0 20.794-16.856 37.651-37.65 37.651z"></path><path  stroke-linecap="round" stroke-linejoin="round" fill-opacity="0" class="anim-color-1" stroke="#353535" stroke-opacity="1" stroke-width="1" d="M109.502 218.429h-219.003c-20.794 0-37.65-16.857-37.65-37.651v-361.556c0-20.794 16.856-37.651 37.65-37.651h219.003c20.794 0 37.65 16.857 37.65 37.651v361.556c0 20.794-16.856 37.651-37.65 37.651z"></path></g><g  opacity="1" transform="translate(269.023 126.485)"><path  class="anim-color-1" fill="#353535" fill-opacity="1" d="M96.038 46.869H-96.038c-13.968 0-25.291-11.323-25.291-25.292v-43.155c0-13.968 11.323-25.291 25.291-25.291H96.038c13.969 0 25.291 11.323 25.291 25.291v43.155c0 13.969-11.322 25.292-25.291 25.292z"></path></g><g  opacity="1" transform="translate(282.462 114.016)"><path  stroke-linecap="round" stroke-linejoin="round" fill-opacity="0" class="anim-color-2" stroke="#FFEBD5" stroke-opacity="1" stroke-width="1" d="M109.836 43.774H-89.836c-13.681 0-24.77-11.09-24.77-24.771v-58.169a4.608 4.608 0 0 1 4.608-4.608h219.991a4.609 4.609 0 0 1 4.609 4.617l-.159 78.332a4.606 4.606 0 0 1-4.607 4.599z"></path></g><g  opacity="1" transform="translate(183.403 227.43)"><path  class="anim-color-1" fill="#353535" fill-opacity="1" d="M20.606 29.318h-45.41a6.254 6.254 0 0 1-6.255-6.255v-46.125c0-3.455 2.8-6.256 6.255-6.256h44.113l3.106.347a9.73 9.73 0 0 1 8.644 9.67v38.166c0 5.774-4.68 10.453-10.453 10.453z"></path><path  stroke-linecap="round" stroke-linejoin="round" fill-opacity="0" class="anim-color-1" stroke="#353535" stroke-opacity="1" stroke-width="1" d="M20.606 29.318h-45.41a6.254 6.254 0 0 1-6.255-6.255v-46.125c0-3.455 2.8-6.256 6.255-6.256h44.113l3.106.347a9.73 9.73 0 0 1 8.644 9.67v38.166c0 5.774-4.68 10.453-10.453 10.453z"></path></g><g  opacity="1" transform="translate(178.753 226.689)"><path  class="anim-color-2" fill="#FFEBD5" fill-opacity="1" d="M22.298 28.619h-44.597a8.76 8.76 0 0 1-8.761-8.761v-39.716a8.761 8.761 0 0 1 8.761-8.761h44.597a8.762 8.762 0 0 1 8.762 8.761v39.716a8.761 8.761 0 0 1-8.762 8.761z"></path><path  stroke-linecap="round" stroke-linejoin="round" fill-opacity="0" class="anim-color-1" stroke="#353535" stroke-opacity="1" stroke-width="1" d="M22.298 28.619h-44.597a8.76 8.76 0 0 1-8.761-8.761v-39.716a8.761 8.761 0 0 1 8.761-8.761h44.597a8.762 8.762 0 0 1 8.762 8.761v39.716a8.761 8.761 0 0 1-8.762 8.761z"></path></g><g  opacity="1" transform="translate(256.983 227.43)"><path  class="anim-color-1" fill="#353535" fill-opacity="1" d="M20.606 29.318h-45.409a6.255 6.255 0 0 1-6.256-6.255v-46.125a6.256 6.256 0 0 1 6.256-6.256h44.112l3.105.347a9.73 9.73 0 0 1 8.645 9.67v38.166c0 5.774-4.68 10.453-10.453 10.453z"></path><path  stroke-linecap="round" stroke-linejoin="round" fill-opacity="0" class="anim-color-1" stroke="#353535" stroke-opacity="1" stroke-width="1" d="M20.606 29.318h-45.409a6.255 6.255 0 0 1-6.256-6.255v-46.125a6.256 6.256 0 0 1 6.256-6.256h44.112l3.105.347a9.73 9.73 0 0 1 8.645 9.67v38.166c0 5.774-4.68 10.453-10.453 10.453z"></path></g><g  opacity="1" transform="translate(252.332 226.689)"><path  class="anim-color-2" fill="#FFEBD5" fill-opacity="1" d="M22.298 28.619h-44.596a8.76 8.76 0 0 1-8.761-8.761v-39.716a8.761 8.761 0 0 1 8.761-8.761h44.596a8.761 8.761 0 0 1 8.761 8.761v39.716a8.76 8.76 0 0 1-8.761 8.761z"></path><path  stroke-linecap="round" stroke-linejoin="round" fill-opacity="0" class="anim-color-1" stroke="#353535" stroke-opacity="1" stroke-width="1" d="M22.298 28.619h-44.596a8.76 8.76 0 0 1-8.761-8.761v-39.716a8.761 8.761 0 0 1 8.761-8.761h44.596a8.761 8.761 0 0 1 8.761 8.761v39.716a8.76 8.76 0 0 1-8.761 8.761z"></path></g><g  opacity="1" transform="translate(180.204 291.767)"><path  class="anim-color-1" fill="#353535" fill-opacity="1" d="M18.76 26.692h-41.341a5.695 5.695 0 0 1-5.696-5.694v-41.994a5.697 5.697 0 0 1 5.696-5.696h40.16l2.827.316a8.859 8.859 0 0 1 7.871 8.804v34.747a9.516 9.516 0 0 1-9.517 9.517z"></path><path  stroke-linecap="round" stroke-linejoin="round" fill-opacity="0" class="anim-color-1" stroke="#353535" stroke-opacity="1" stroke-width="1" d="M18.76 26.692h-41.341a5.695 5.695 0 0 1-5.696-5.694v-41.994a5.697 5.697 0 0 1 5.696-5.696h40.16l2.827.316a8.859 8.859 0 0 1 7.871 8.804v34.747a9.516 9.516 0 0 1-9.517 9.517z"></path></g><g  opacity="1" transform="translate(175.971 291.093)"><path  class="anim-color-2" fill="#FFEBD5" fill-opacity="1" d="M20.3 26.055h-40.601a7.977 7.977 0 0 1-7.976-7.977v-36.156a7.976 7.976 0 0 1 7.976-7.977H20.3a7.977 7.977 0 0 1 7.977 7.977v36.156a7.978 7.978 0 0 1-7.977 7.977z"></path><path  stroke-linecap="round" stroke-linejoin="round" fill-opacity="0" class="anim-color-1" stroke="#353535" stroke-opacity="1" stroke-width="1" d="M20.3 26.055h-40.601a7.977 7.977 0 0 1-7.976-7.977v-36.156a7.976 7.976 0 0 1 7.976-7.977H20.3a7.977 7.977 0 0 1 7.977 7.977v36.156a7.978 7.978 0 0 1-7.977 7.977z"></path></g><g  opacity="1" transform="translate(240.752 291.767)"><path  class="anim-color-1" fill="#353535" fill-opacity="1" d="M18.76 26.692h-41.342a5.694 5.694 0 0 1-5.695-5.694v-41.994a5.696 5.696 0 0 1 5.695-5.696h40.161l2.827.316a8.859 8.859 0 0 1 7.871 8.804v34.747a9.516 9.516 0 0 1-9.517 9.517z"></path><path  stroke-linecap="round" stroke-linejoin="round" fill-opacity="0" class="anim-color-1" stroke="#353535" stroke-opacity="1" stroke-width="1" d="M18.76 26.692h-41.342a5.694 5.694 0 0 1-5.695-5.694v-41.994a5.696 5.696 0 0 1 5.695-5.696h40.161l2.827.316a8.859 8.859 0 0 1 7.871 8.804v34.747a9.516 9.516 0 0 1-9.517 9.517z"></path></g><g  opacity="1" transform="translate(236.518 291.093)"><path  class="anim-color-2" fill="#FFEBD5" fill-opacity="1" d="M20.301 26.055h-40.602a7.977 7.977 0 0 1-7.976-7.977v-36.156a7.976 7.976 0 0 1 7.976-7.977h40.602a7.976 7.976 0 0 1 7.976 7.977v36.156a7.977 7.977 0 0 1-7.976 7.977z"></path><path  stroke-linecap="round" stroke-linejoin="round" fill-opacity="0" class="anim-color-1" stroke="#353535" stroke-opacity="1" stroke-width="1" d="M20.301 26.055h-40.602a7.977 7.977 0 0 1-7.976-7.977v-36.156a7.976 7.976 0 0 1 7.976-7.977h40.602a7.976 7.976 0 0 1 7.976 7.977v36.156a7.977 7.977 0 0 1-7.976 7.977z"></path></g><g  opacity="1" transform="translate(301.297 291.767)"><path  class="anim-color-1" fill="#353535" fill-opacity="1" d="M18.759 26.692h-41.341a5.694 5.694 0 0 1-5.695-5.694v-41.994a5.696 5.696 0 0 1 5.695-5.696h40.161l2.826.316a8.86 8.86 0 0 1 7.872 8.804v34.747a9.517 9.517 0 0 1-9.518 9.517z"></path><path  stroke-linecap="round" stroke-linejoin="round" fill-opacity="0" class="anim-color-1" stroke="#353535" stroke-opacity="1" stroke-width="1" d="M18.759 26.692h-41.341a5.694 5.694 0 0 1-5.695-5.694v-41.994a5.696 5.696 0 0 1 5.695-5.696h40.161l2.826.316a8.86 8.86 0 0 1 7.872 8.804v34.747a9.517 9.517 0 0 1-9.518 9.517z"></path></g><g  opacity="1" transform="translate(297.063 291.093)"><path  class="anim-color-2" fill="#FFEBD5" fill-opacity="1" d="M20.3 26.055h-40.601a7.977 7.977 0 0 1-7.976-7.977v-36.156a7.976 7.976 0 0 1 7.976-7.977H20.3a7.976 7.976 0 0 1 7.977 7.977v36.156a7.977 7.977 0 0 1-7.977 7.977z"></path><path  stroke-linecap="round" stroke-linejoin="round" fill-opacity="0" class="anim-color-1" stroke="#353535" stroke-opacity="1" stroke-width="1" d="M20.3 26.055h-40.601a7.977 7.977 0 0 1-7.976-7.977v-36.156a7.976 7.976 0 0 1 7.976-7.977H20.3a7.976 7.976 0 0 1 7.977 7.977v36.156a7.977 7.977 0 0 1-7.977 7.977z"></path></g><g  opacity="1" transform="translate(361.838 291.767)"><path  class="anim-color-1" fill="#353535" fill-opacity="1" d="M18.76 26.692h-41.342a5.694 5.694 0 0 1-5.695-5.694v-41.994a5.696 5.696 0 0 1 5.695-5.696h40.161l2.827.316a8.86 8.86 0 0 1 7.871 8.804v34.747a9.516 9.516 0 0 1-9.517 9.517z"></path><path  stroke-linecap="round" stroke-linejoin="round" fill-opacity="0" class="anim-color-1" stroke="#353535" stroke-opacity="1" stroke-width="1" d="M18.76 26.692h-41.342a5.694 5.694 0 0 1-5.695-5.694v-41.994a5.696 5.696 0 0 1 5.695-5.696h40.161l2.827.316a8.86 8.86 0 0 1 7.871 8.804v34.747a9.516 9.516 0 0 1-9.517 9.517z"></path></g><g  opacity="1" transform="translate(357.604 291.093)"><path  class="anim-color-2" fill="#FFEBD5" fill-opacity="1" d="M20.301 26.055h-40.603a7.976 7.976 0 0 1-7.975-7.977v-36.156a7.975 7.975 0 0 1 7.975-7.977h40.603a7.976 7.976 0 0 1 7.976 7.977v36.156a7.977 7.977 0 0 1-7.976 7.977z"></path><path  stroke-linecap="round" stroke-linejoin="round" fill-opacity="0" class="anim-color-1" stroke="#353535" stroke-opacity="1" stroke-width="1" d="M20.301 26.055h-40.603a7.976 7.976 0 0 1-7.975-7.977v-36.156a7.975 7.975 0 0 1 7.975-7.977h40.603a7.976 7.976 0 0 1 7.976 7.977v36.156a7.977 7.977 0 0 1-7.976 7.977z"></path></g><g  opacity="1" transform="translate(344.967 227.43)"><path  class="anim-color-1" fill="#353535" fill-opacity="1" d="M34.932 29.318H-39.13a6.254 6.254 0 0 1-6.255-6.255v-46.125c0-3.455 2.8-6.256 6.255-6.256h72.765l3.105.347a9.731 9.731 0 0 1 8.645 9.67v38.166c0 5.774-4.68 10.453-10.453 10.453z"></path><path  stroke-linecap="round" stroke-linejoin="round" fill-opacity="0" class="anim-color-1" stroke="#353535" stroke-opacity="1" stroke-width="1" d="M34.932 29.318H-39.13a6.254 6.254 0 0 1-6.255-6.255v-46.125c0-3.455 2.8-6.256 6.255-6.256h72.765l3.105.347a9.731 9.731 0 0 1 8.645 9.67v38.166c0 5.774-4.68 10.453-10.453 10.453z"></path></g><g  opacity="1" transform="translate(340.316 226.689)"><path  class="anim-color-1" fill="#353535" fill-opacity="1" d="M36.625 28.619h-73.25a8.76 8.76 0 0 1-8.76-8.761v-39.716a8.76 8.76 0 0 1 8.76-8.761h73.25a8.76 8.76 0 0 1 8.76 8.761v39.716a8.76 8.76 0 0 1-8.76 8.761z"></path><path  stroke-linecap="round" stroke-linejoin="round" fill-opacity="0" class="anim-color-2" stroke="#FFEBD5" stroke-opacity="1" stroke-width="1" d="M36.625 28.619h-73.25a8.76 8.76 0 0 1-8.76-8.761v-39.716a8.76 8.76 0 0 1 8.76-8.761h73.25a8.76 8.76 0 0 1 8.76 8.761v39.716a8.76 8.76 0 0 1-8.76 8.761z"></path></g><g  opacity="1" transform="translate(210.508 353.671)"><path  class="anim-color-1" fill="#353535" fill-opacity="1" d="M49.004 26.693H-52.825a5.696 5.696 0 0 1-5.696-5.696v-41.994a5.696 5.696 0 0 1 5.696-5.696H47.823l2.827.318a8.855 8.855 0 0 1 7.871 8.802v34.747c0 5.257-4.26 9.519-9.517 9.519z"></path><path  stroke-linecap="round" stroke-linejoin="round" fill-opacity="0" class="anim-color-1" stroke="#353535" stroke-opacity="1" stroke-width="1" d="M49.004 26.693H-52.825a5.696 5.696 0 0 1-5.696-5.696v-41.994a5.696 5.696 0 0 1 5.696-5.696H47.823l2.827.318a8.855 8.855 0 0 1 7.871 8.802v34.747c0 5.257-4.26 9.519-9.517 9.519z"></path></g><g  opacity="1" transform="translate(206.274 352.996)"><path  class="anim-color-2" fill="#FFEBD5" fill-opacity="1" d="M50.544 26.055H-50.545a7.976 7.976 0 0 1-7.976-7.977v-36.156a7.976 7.976 0 0 1 7.976-7.977H50.544a7.977 7.977 0 0 1 7.977 7.977v36.156a7.977 7.977 0 0 1-7.977 7.977z"></path><path  stroke-linecap="round" stroke-linejoin="round" fill-opacity="0" class="anim-color-1" stroke="#353535" stroke-opacity="1" stroke-width="1" d="M50.544 26.055H-50.545a7.976 7.976 0 0 1-7.976-7.977v-36.156a7.976 7.976 0 0 1 7.976-7.977H50.544a7.977 7.977 0 0 1 7.977 7.977v36.156a7.977 7.977 0 0 1-7.977 7.977z"></path></g><g  opacity="1" transform="translate(221.77 350.441)"><path  class="anim-color-2" fill="#FFEBD5" fill-opacity="1" d="M26.914 19.402 4.299-12.985l-28.707-6.417c-2.335.192-2.506 3.548-.201 3.975L-4.741-2.555l6.049 7.349"></path><path  stroke-linecap="round" stroke-linejoin="round" fill-opacity="0" class="anim-color-1" stroke="#353535" stroke-opacity="1" stroke-width="1" d="M26.914 19.402 4.299-12.985l-28.707-6.417c-2.335.192-2.506 3.548-.201 3.975L-4.741-2.555l6.049 7.349"></path></g><g  opacity="1" transform="translate(186.04 351.533)"><path  class="anim-color-2" fill="#FFEBD5" fill-opacity="1" d="m-23.148 20.221 15.85-29.698 27.443-10.59c2.338-.155 3.003 3.14.787 3.903L3.184-.497l-4.895 8.161"></path><path  stroke-linecap="round" stroke-linejoin="round" fill-opacity="0" class="anim-color-1" stroke="#353535" stroke-opacity="1" stroke-width="1" d="m-23.148 20.221 15.85-29.698 27.443-10.59c2.338-.155 3.003 3.14.787 3.903L3.184-.497l-4.895 8.161"></path></g><g  opacity="1" transform="translate(209.743 348.061)"><path  class="anim-color-2" fill="#FFEBD5" fill-opacity="1" d="M19.841 5.763 11.372-6.365l-28.707-6.416c-2.335.191-2.506 3.547-.201 3.975L2.332 4.065l6.463 8.716"></path><path  stroke-linecap="round" stroke-linejoin="round" fill-opacity="0" class="anim-color-1" stroke="#353535" stroke-opacity="1" stroke-width="1" d="M19.841 5.763 11.372-6.365l-28.707-6.416c-2.335.191-2.506 3.547-.201 3.975L2.332 4.065l6.463 8.716"></path></g><g  opacity="1" transform="translate(196.198 349.423)"><path  class="anim-color-2" fill="#FFEBD5" fill-opacity="1" d="m-18.514 9.342 6.582-13.247 27.444-10.59c2.338-.155 3.002 3.139.786 3.902L-1.45 5.074l-5.102 9.576"></path><path  stroke-linecap="round" stroke-linejoin="round" fill-opacity="0" class="anim-color-1" stroke="#353535" stroke-opacity="1" stroke-width="1" d="m-18.514 9.342 6.582-13.247 27.444-10.59c2.338-.155 3.002 3.139.786 3.902L-1.45 5.074l-5.102 9.576"></path></g><g  opacity="1" transform="translate(208.864 355.369)"><path  class="anim-color-2" fill="#FFEBD5" fill-opacity="1" d="M19.236 1.733 11.658-7.27l-28.12-8.631c-2.343.009-2.774 3.341-.51 3.946L1.834 2.425l8.45 13.476"></path><path  stroke-linecap="round" stroke-linejoin="round" fill-opacity="0" class="anim-color-1" stroke="#353535" stroke-opacity="1" stroke-width="1" d="M19.236 1.733 11.658-7.27l-28.12-8.631c-2.343.009-2.774 3.341-.51 3.946L1.834 2.425l8.45 13.476"></path></g><g  opacity="1" transform="translate(197.605 356.605)"><path  class="anim-color-2" fill="#FFEBD5" fill-opacity="1" d="m-17.968 5.184 6.163-10.024L14.73-17.535c2.32-.337 3.238 2.895 1.088 3.829L-.656 3.295-7.02 17.872"></path><path  stroke-linecap="round" stroke-linejoin="round" fill-opacity="0" class="anim-color-1" stroke="#353535" stroke-opacity="1" stroke-width="1" d="m-17.968 5.184 6.163-10.024L14.73-17.535c2.32-.337 3.238 2.895 1.088 3.829L-.656 3.295-7.02 17.872"></path></g><g  opacity="1" transform="translate(205.276 361.145)"><path  class="anim-color-2" fill="#FFEBD5" fill-opacity="1" d="m14.411 15.962-1.008-2.789L5.059-1.663l-20.147-10.588c-2.133-.41-1.99-3.543.168-3.711l26.421 6.718 5.72 8.242"></path><path  stroke-linecap="round" stroke-linejoin="round" fill-opacity="0" class="anim-color-1" stroke="#353535" stroke-opacity="1" stroke-width="1" d="m14.411 15.962-1.008-2.789L5.059-1.663l-20.147-10.588c-2.133-.41-1.99-3.543.168-3.711l26.421 6.718 5.72 8.242"></path></g><g  opacity="1" transform="translate(201.797 361.66)"><path  class="anim-color-2" fill="#FFEBD5" fill-opacity="1" d="m-10.95 17.392.65-1.629L-4.239-.143 14.12-13.594c2.049-.721 1.447-3.798-.714-3.646L-11.731-6.69l-4.439 8.997"></path><path  stroke-linecap="round" stroke-linejoin="round" fill-opacity="0" class="anim-color-1" stroke="#353535" stroke-opacity="1" stroke-width="1" d="m-10.95 17.392.65-1.629L-4.239-.143 14.12-13.594c2.049-.721 1.447-3.798-.714-3.646L-11.731-6.69l-4.439 8.997"></path></g><g  opacity="1" transform="translate(301.297 353.671)"><path  class="anim-color-1" fill="#353535" fill-opacity="1" d="M18.759 26.693h-41.341a5.696 5.696 0 0 1-5.695-5.696v-41.994a5.696 5.696 0 0 1 5.695-5.696h40.161l2.826.318a8.856 8.856 0 0 1 7.872 8.802v34.747c0 5.257-4.261 9.519-9.518 9.519z"></path><path  stroke-linecap="round" stroke-linejoin="round" fill-opacity="0" class="anim-color-1" stroke="#353535" stroke-opacity="1" stroke-width="1" d="M18.759 26.693h-41.341a5.696 5.696 0 0 1-5.695-5.696v-41.994a5.696 5.696 0 0 1 5.695-5.696h40.161l2.826.318a8.856 8.856 0 0 1 7.872 8.802v34.747c0 5.257-4.261 9.519-9.518 9.519z"></path></g><g  opacity="1" transform="translate(297.063 352.996)"><path  class="anim-color-2" fill="#FFEBD5" fill-opacity="1" d="M20.3 26.055h-40.601a7.976 7.976 0 0 1-7.976-7.977v-36.156a7.976 7.976 0 0 1 7.976-7.977H20.3a7.976 7.976 0 0 1 7.977 7.977v36.156a7.976 7.976 0 0 1-7.977 7.977z"></path><path  stroke-linecap="round" stroke-linejoin="round" fill-opacity="0" class="anim-color-1" stroke="#353535" stroke-opacity="1" stroke-width="1" d="M20.3 26.055h-40.601a7.976 7.976 0 0 1-7.976-7.977v-36.156a7.976 7.976 0 0 1 7.976-7.977H20.3a7.976 7.976 0 0 1 7.977 7.977v36.156a7.976 7.976 0 0 1-7.977 7.977z"></path></g><g  opacity="1" transform="translate(361.838 353.671)"><path  class="anim-color-1" fill="#353535" fill-opacity="1" d="M18.76 26.693h-41.342a5.696 5.696 0 0 1-5.695-5.696v-41.994a5.696 5.696 0 0 1 5.695-5.696h40.161l2.827.318a8.856 8.856 0 0 1 7.871 8.802v34.747c0 5.257-4.261 9.519-9.517 9.519z"></path><path  stroke-linecap="round" stroke-linejoin="round" fill-opacity="0" class="anim-color-1" stroke="#353535" stroke-opacity="1" stroke-width="1" d="M18.76 26.693h-41.342a5.696 5.696 0 0 1-5.695-5.696v-41.994a5.696 5.696 0 0 1 5.695-5.696h40.161l2.827.318a8.856 8.856 0 0 1 7.871 8.802v34.747c0 5.257-4.261 9.519-9.517 9.519z"></path></g><g  opacity="1" transform="translate(357.604 352.996)"><path  class="anim-color-2" fill="#FFEBD5" fill-opacity="1" d="M20.301 26.055h-40.603a7.975 7.975 0 0 1-7.975-7.977v-36.156a7.975 7.975 0 0 1 7.975-7.977h40.603a7.976 7.976 0 0 1 7.976 7.977v36.156a7.976 7.976 0 0 1-7.976 7.977z"></path><path  stroke-linecap="round" stroke-linejoin="round" fill-opacity="0" class="anim-color-1" stroke="#353535" stroke-opacity="1" stroke-width="1" d="M20.301 26.055h-40.603a7.975 7.975 0 0 1-7.975-7.977v-36.156a7.975 7.975 0 0 1 7.975-7.977h40.603a7.976 7.976 0 0 1 7.976 7.977v36.156a7.976 7.976 0 0 1-7.976 7.977z"></path></g><g  opacity="1" transform="translate(180.204 415.573)"><path  class="anim-color-1" fill="#353535" fill-opacity="1" d="M18.76 26.692h-41.341a5.696 5.696 0 0 1-5.696-5.696v-41.992a5.696 5.696 0 0 1 5.696-5.696h40.16l2.827.316a8.858 8.858 0 0 1 7.871 8.804v34.747a9.516 9.516 0 0 1-9.517 9.517z"></path><path  stroke-linecap="round" stroke-linejoin="round" fill-opacity="0" class="anim-color-1" stroke="#353535" stroke-opacity="1" stroke-width="1" d="M18.76 26.692h-41.341a5.696 5.696 0 0 1-5.696-5.696v-41.992a5.696 5.696 0 0 1 5.696-5.696h40.16l2.827.316a8.858 8.858 0 0 1 7.871 8.804v34.747a9.516 9.516 0 0 1-9.517 9.517z"></path></g><g  opacity="1" transform="translate(175.971 414.899)"><path  class="anim-color-2" fill="#FFEBD5" fill-opacity="1" d="M20.3 26.056h-40.601a7.976 7.976 0 0 1-7.976-7.977v-36.157a7.976 7.976 0 0 1 7.976-7.977H20.3a7.977 7.977 0 0 1 7.977 7.977v36.157a7.977 7.977 0 0 1-7.977 7.977z"></path><path  stroke-linecap="round" stroke-linejoin="round" fill-opacity="0" class="anim-color-1" stroke="#353535" stroke-opacity="1" stroke-width="1" d="M20.3 26.056h-40.601a7.976 7.976 0 0 1-7.976-7.977v-36.157a7.976 7.976 0 0 1 7.976-7.977H20.3a7.977 7.977 0 0 1 7.977 7.977v36.157a7.977 7.977 0 0 1-7.977 7.977z"></path></g><g  opacity="1" transform="translate(240.752 415.573)"><path  class="anim-color-1" fill="#353535" fill-opacity="1" d="M18.76 26.692h-41.342a5.696 5.696 0 0 1-5.695-5.696v-41.992a5.696 5.696 0 0 1 5.695-5.696h40.161l2.827.316a8.858 8.858 0 0 1 7.871 8.804v34.747a9.516 9.516 0 0 1-9.517 9.517z"></path><path  stroke-linecap="round" stroke-linejoin="round" fill-opacity="0" class="anim-color-1" stroke="#353535" stroke-opacity="1" stroke-width="1" d="M18.76 26.692h-41.342a5.696 5.696 0 0 1-5.695-5.696v-41.992a5.696 5.696 0 0 1 5.695-5.696h40.161l2.827.316a8.858 8.858 0 0 1 7.871 8.804v34.747a9.516 9.516 0 0 1-9.517 9.517z"></path></g><g  opacity="1" transform="translate(236.518 414.899)"><path  class="anim-color-2" fill="#FFEBD5" fill-opacity="1" d="M20.301 26.056h-40.602a7.976 7.976 0 0 1-7.976-7.977v-36.157a7.976 7.976 0 0 1 7.976-7.977h40.602a7.976 7.976 0 0 1 7.976 7.977v36.157a7.976 7.976 0 0 1-7.976 7.977z"></path><path  stroke-linecap="round" stroke-linejoin="round" fill-opacity="0" class="anim-color-1" stroke="#353535" stroke-opacity="1" stroke-width="1" d="M20.301 26.056h-40.602a7.976 7.976 0 0 1-7.976-7.977v-36.157a7.976 7.976 0 0 1 7.976-7.977h40.602a7.976 7.976 0 0 1 7.976 7.977v36.157a7.976 7.976 0 0 1-7.976 7.977z"></path></g><g  opacity="1" transform="translate(301.297 415.573)"><path  class="anim-color-1" fill="#353535" fill-opacity="1" d="M18.759 26.692h-41.341a5.696 5.696 0 0 1-5.695-5.696v-41.992a5.696 5.696 0 0 1 5.695-5.696h40.161l2.826.316a8.859 8.859 0 0 1 7.872 8.804v34.747a9.517 9.517 0 0 1-9.518 9.517z"></path><path  stroke-linecap="round" stroke-linejoin="round" fill-opacity="0" class="anim-color-1" stroke="#353535" stroke-opacity="1" stroke-width="1" d="M18.759 26.692h-41.341a5.696 5.696 0 0 1-5.695-5.696v-41.992a5.696 5.696 0 0 1 5.695-5.696h40.161l2.826.316a8.859 8.859 0 0 1 7.872 8.804v34.747a9.517 9.517 0 0 1-9.518 9.517z"></path></g><g  opacity="1" transform="translate(297.063 414.899)"><path  class="anim-color-2" fill="#FFEBD5" fill-opacity="1" d="M20.3 26.056h-40.601a7.976 7.976 0 0 1-7.976-7.977v-36.157a7.976 7.976 0 0 1 7.976-7.977H20.3a7.976 7.976 0 0 1 7.977 7.977v36.157a7.976 7.976 0 0 1-7.977 7.977z"></path><path  stroke-linecap="round" stroke-linejoin="round" fill-opacity="0" class="anim-color-1" stroke="#353535" stroke-opacity="1" stroke-width="1" d="M20.3 26.056h-40.601a7.976 7.976 0 0 1-7.976-7.977v-36.157a7.976 7.976 0 0 1 7.976-7.977H20.3a7.976 7.976 0 0 1 7.977 7.977v36.157a7.976 7.976 0 0 1-7.977 7.977z"></path></g><g  opacity="1" transform="translate(361.838 415.573)"><path  class="anim-color-1" fill="#353535" fill-opacity="1" d="M18.76 26.692h-41.342a5.696 5.696 0 0 1-5.695-5.696v-41.992a5.696 5.696 0 0 1 5.695-5.696h40.161l2.827.316a8.859 8.859 0 0 1 7.871 8.804v34.747a9.516 9.516 0 0 1-9.517 9.517z"></path><path  stroke-linecap="round" stroke-linejoin="round" fill-opacity="0" class="anim-color-1" stroke="#353535" stroke-opacity="1" stroke-width="1" d="M18.76 26.692h-41.342a5.696 5.696 0 0 1-5.695-5.696v-41.992a5.696 5.696 0 0 1 5.695-5.696h40.161l2.827.316a8.859 8.859 0 0 1 7.871 8.804v34.747a9.516 9.516 0 0 1-9.517 9.517z"></path></g><g  opacity="1" transform="translate(357.604 414.899)"><path  class="anim-color-2" fill="#FFEBD5" fill-opacity="1" d="M20.301 26.056h-40.603a7.975 7.975 0 0 1-7.975-7.977v-36.157a7.975 7.975 0 0 1 7.975-7.977h40.603a7.976 7.976 0 0 1 7.976 7.977v36.157a7.976 7.976 0 0 1-7.976 7.977z"></path><path  stroke-linecap="round" stroke-linejoin="round" fill-opacity="0" class="anim-color-1" stroke="#353535" stroke-opacity="1" stroke-width="1" d="M20.301 26.056h-40.603a7.975 7.975 0 0 1-7.975-7.977v-36.157a7.975 7.975 0 0 1 7.975-7.977h40.603a7.976 7.976 0 0 1 7.976 7.977v36.157a7.976 7.976 0 0 1-7.976 7.977z"></path></g><g  opacity="1" transform="translate(268.302 467.305)"><path  class="anim-color-1" fill="#353535" fill-opacity="1" d="M111.261 9.197H-111.26A9.197 9.197 0 0 1-120.457 0a9.197 9.197 0 0 1 9.197-9.197h222.521A9.197 9.197 0 0 1 120.457 0a9.197 9.197 0 0 1-9.196 9.197z"></path><path  stroke-linecap="round" stroke-linejoin="round" fill-opacity="0" class="anim-color-3" stroke="#F3E7D6" stroke-opacity="1" stroke-width="1" d="M111.261 9.197H-111.26A9.197 9.197 0 0 1-120.457 0a9.197 9.197 0 0 1 9.197-9.197h222.521A9.197 9.197 0 0 1 120.457 0a9.197 9.197 0 0 1-9.196 9.197z"></path></g><g  opacity="1" transform="translate(296.975 290.792)"><path  class="anim-color-1" fill="#353535" fill-opacity="1" d="M16.728-5.818H5.818v-10.91H-5.819v10.91h-10.909V5.818h10.909v10.91H5.818V5.818h10.91V-5.818z"></path></g><g  opacity="1" transform="translate(175.475 290.792)"><path  class="anim-color-1" fill="#353535" fill-opacity="1" d="M15.943 7.714 8.227 0l7.716-7.714-8.229-8.228L0-8.228l-7.715-7.714-8.228 8.228L-8.229 0l-7.714 7.714 8.228 8.228L0 8.228l7.714 7.714 8.229-8.228z"></path></g><g  opacity="1" transform="translate(357.808 290.739)"><path  class="anim-color-1" fill="#353535" fill-opacity="1" d="M-16.625-5.783h33.25V5.783h-33.25V-5.783z"></path></g><g  opacity="1" transform="translate(175.99 406.633)"><path  class="anim-color-2" fill="#FFEBD5" fill-opacity="1" d="M-14.857-5.167h29.714V5.167h-29.714V-5.167z"></path><path  stroke-linecap="round" stroke-linejoin="round" fill-opacity="0" class="anim-color-1" stroke="#353535" stroke-opacity="1" stroke-width="1" d="M-14.857-5.167h29.714V5.167h-29.714V-5.167z"></path></g><g  opacity="1" transform="translate(175.99 423.873)"><path  class="anim-color-2" fill="#FFEBD5" fill-opacity="1" d="M-14.857-5.168h29.714V5.168h-29.714V-5.168z"></path><path  stroke-linecap="round" stroke-linejoin="round" fill-opacity="0" class="anim-color-1" stroke="#353535" stroke-opacity="1" stroke-width="1" d="M-14.857-5.168h29.714V5.168h-29.714V-5.168z"></path></g><g  opacity="1" transform="translate(236.832 290.71)"><path  class="anim-color-1" fill="#353535" fill-opacity="1" d="m-7.873 11.988-5.74-7.474L7.873-11.988l5.74 7.474-21.486 16.502z"></path></g><g  opacity="1" transform="translate(229.198 280.77)"><path  class="anim-color-1" fill="#353535" fill-opacity="1" d="M3.928-3.017a4.952 4.952 0 1 1-7.855 6.033 4.952 4.952 0 0 1 7.855-6.033z"></path></g><g  opacity="1" transform="translate(244.466 300.649)"><path  class="anim-color-1" fill="#353535" fill-opacity="1" d="M-3.927 3.016a4.95 4.95 0 1 1 7.854-6.032 4.951 4.951 0 1 1-7.854 6.032z"></path></g><g  opacity="1" transform="translate(178.456 246.216)"><path  class="anim-color-1" fill="#353535" fill-opacity="1" d="m.018.004-.019-.008-.017.008h.036z"></path></g><g  opacity="1" transform="translate(166.645 227.521)"><path  class="anim-color-1" fill="#353535" fill-opacity="1" d="M9.882-14.269a12.304 12.304 0 0 0-9.528-4.393c-6.81.053-12.288 5.615-12.236 12.425 0 0-.881 5.251 6.72 12.736 8.32 8.194 16.603 12.023 16.974 12.192l.952-8.253L8.14-.551l3.831-7.871-2.089-5.847z"></path></g><g  opacity="1" transform="translate(179.207 246.216)"><path  class="anim-color-1" fill="#353535" fill-opacity="1" d="M.018.004 0-.004l-.018.008h.036z"></path></g><g  opacity="1" transform="translate(191.012 227.52)"><path  class="anim-color-1" fill="#353535" fill-opacity="1" d="M-10.313-13.72A12.307 12.307 0 0 1-.35-18.661c6.81.052 12.288 5.614 12.236 12.424 0 0 .881 5.251-6.719 12.737-6.24 6.145-12.459 9.835-15.334 11.367-.958.512-1.545.784-1.638.826l2.729-8.284L-12.767-.29l4.215-7.662"></path></g><g  opacity="1" transform="translate(296.634 413.913)"><path  class="anim-color-1" fill="#353535" fill-opacity="1" d="M16.604 0C16.604 9.17 9.17 16.604 0 16.604-9.169 16.604-16.604 9.17-16.604 0c0-9.17 7.435-16.604 16.604-16.604C9.17-16.604 16.604-9.17 16.604 0z"></path></g><g  opacity="1" transform="translate(296.634 420.939)"><path  class="anim-color-1" fill="#353535" fill-opacity="1" d="M-6.629 1.276A11.017 11.017 0 0 1 .439-1.276c2.293 0 4.423.697 6.19 1.891"></path><path  stroke-linecap="round" stroke-linejoin="round" fill-opacity="0" class="anim-color-2" stroke="#FFEBD5" stroke-opacity="1" stroke-width="1" d="M-6.629 1.276A11.017 11.017 0 0 1 .439-1.276c2.293 0 4.423.697 6.19 1.891"></path></g><g  opacity="1" transform="translate(289.735 409.195)"><path  class="anim-color-2" fill="#FFEBD5" fill-opacity="1" d="M0 2.306a1.152 1.152 0 0 1-1.152-1.153v-2.306a1.152 1.152 0 1 1 2.304 0v2.306C1.152 1.79.637 2.306 0 2.306z"></path></g><g  opacity="1" transform="translate(304.033 409.195)"><path  class="anim-color-2" fill="#FFEBD5" fill-opacity="1" d="M.001 2.306a1.153 1.153 0 0 1-1.153-1.153v-2.306a1.153 1.153 0 1 1 2.304 0v2.306c0 .637-.514 1.153-1.151 1.153z"></path></g><g  opacity="1" transform="translate(252.226 227.004)"><path  class="anim-color-1" fill="#353535" fill-opacity="1" d="M1.587-16.133c3.174 0 6.876.75 9.433 2.778L6.788-8.198c-1.41-1.234-3.305-1.764-5.201-1.853v7.011l4.231 1.233C9.697-.661 12.21 2.072 12.21 6.172c0 6.171-4.849 9.389-10.623 9.962v3.085h-2.909v-3.085c-3.879 0-7.979-.925-10.888-3.57l4.672-5.246c1.543 1.895 3.835 2.557 6.216 2.733V2.602l-3.218-.971c-4.452-1.41-6.833-3.79-6.833-8.242 0-5.554 4.849-8.905 10.051-9.522v-3.086h2.909v3.086zm-2.909 6.216c-1.632.352-3.174 1.145-3.174 2.996 0 2.645 2.424 2.91 3.174 3.175v-6.171zM1.587 9.962c1.807-.353 3.747-1.233 3.747-3.261 0-1.896-1.367-2.468-2.91-3.042l-.837-.309v6.612z"></path></g><g  opacity="1" transform="translate(296.64 357.195)"><path  class="anim-color-1" fill="#353535" fill-opacity="1" d="M19.604-9.802C19.604 1.025 10.827 9.802 0 9.802c-10.828 0-19.604-8.777-19.604-19.604h39.208z"></path></g><g  opacity="1" transform="translate(296.64 351.078)"><path  class="anim-color-2" fill="#FFEBD5" fill-opacity="1" d="M5.189 3.133H-5.189a6.266 6.266 0 0 1-6.266-6.266h22.91a6.266 6.266 0 0 1-6.266 6.266z"></path></g><g  opacity="1" transform="translate(356.594 357.195)"><path  class="anim-color-1" fill="#353535" fill-opacity="1" d="M-19.604 9.802C-19.604-1.025-10.827-9.802 0-9.802c10.828 0 19.604 8.777 19.604 19.604h-39.208z"></path></g><g  opacity="1" transform="translate(356.594 363.312)"><path  class="anim-color-2" fill="#FFEBD5" fill-opacity="1" d="M-5.189-3.133H5.189a6.266 6.266 0 0 1 6.266 6.266h-22.91a6.266 6.266 0 0 1 6.266-6.266z"></path></g><g  opacity="1" transform="translate(340.89 226.06)"><path  class="anim-color-1" fill="#353535" fill-opacity="1" d="M18.399 7.617 5.686-14.404a6.41 6.41 0 0 0-11.103 0L-18.348 7.995a6.408 6.408 0 0 0 5.552 9.615h25.879a6.41 6.41 0 0 0 5.316-9.993zM2.88 9.764c0 1.512-1.164 2.675-2.737 2.675-1.574 0-2.74-1.163-2.74-2.675V9.7c0-1.511 1.166-2.674 2.74-2.674 1.573 0 2.737 1.163 2.737 2.674v.064zM2.944-8.27 1.589 3.564c-.093.85-.66 1.385-1.446 1.385-.787 0-1.355-.535-1.448-1.385L-2.659-8.27c-.093-.912.408-1.604 1.259-1.604h3.083c.851 0 1.353.692 1.261 1.604z"></path><path  stroke-linecap="round" stroke-linejoin="round" fill-opacity="0" class="anim-color-2" stroke="#FFEBD5" stroke-opacity="1" stroke-width="1" d="M18.399 7.617 5.686-14.404a6.41 6.41 0 0 0-11.103 0L-18.348 7.995a6.408 6.408 0 0 0 5.552 9.615h25.879a6.41 6.41 0 0 0 5.316-9.993zM2.88 9.764c0 1.512-1.164 2.675-2.737 2.675-1.574 0-2.74-1.163-2.74-2.675V9.7c0-1.511 1.166-2.674 2.74-2.674 1.573 0 2.737 1.163 2.737 2.674v.064zM2.944-8.27 1.589 3.564c-.093.85-.66 1.385-1.446 1.385-.787 0-1.355-.535-1.448-1.385L-2.659-8.27c-.093-.912.408-1.604 1.259-1.604h3.083c.851 0 1.353.692 1.261 1.604z"></path></g><g  opacity="1" transform="translate(357.097 414.823)"><path  class="anim-color-1" fill="#353535" fill-opacity="1" d="M3.967-17.132H-3.97c-7.175 0-13.012 5.839-13.012 13.014V.46c0 4.265 2.069 8.22 5.558 10.661v.675a5.342 5.342 0 0 0 5.335 5.336H6.089a5.342 5.342 0 0 0 5.335-5.336v-.677A12.976 12.976 0 0 0 16.982.46v-4.578c0-7.175-5.838-13.014-13.015-13.014zM-6.461-6.772a3.942 3.942 0 0 1 3.938 3.937 3.943 3.943 0 0 1-3.938 3.938 3.943 3.943 0 0 1-3.938-3.938 3.942 3.942 0 0 1 3.938-3.937zM2.664 8.286a.848.848 0 0 1-.732.421h-3.864a.85.85 0 0 1-.733-.422.848.848 0 0 1 0-.844l1.933-3.346A.849.849 0 0 1 0 3.671c.301 0 .582.163.732.424l1.932 3.344c.15.262.15.585 0 .847zm7.734-11.121A3.943 3.943 0 0 1 6.46 1.103a3.943 3.943 0 0 1-3.937-3.938A3.942 3.942 0 0 1 6.46-6.772a3.942 3.942 0 0 1 3.938 3.937z"></path></g><g  opacity="1" transform="translate(226.919 410.683)"><path  class="anim-color-2" fill="#FFEBD5" fill-opacity="1" d="M.006-15.202S-2.14-5.74-4.795 4.24c-2.917 10.962 12.507 10.331 9.602 0C2.012-5.702.006-15.202.006-15.202z"></path><path  stroke-linecap="round" stroke-linejoin="round" fill-opacity="0" class="anim-color-1" stroke="#353535" stroke-opacity="1" stroke-width="1" d="M.006-15.202S-2.14-5.74-4.795 4.24c-2.917 10.962 12.507 10.331 9.602 0C2.012-5.702.006-15.202.006-15.202z"></path></g><g  opacity="1" transform="translate(245.461 421.151)"><path  class="anim-color-1" fill="#353535" fill-opacity="1" d="M.006-15.202S-2.139-5.74-4.795 4.24c-2.917 10.962 12.507 10.331 9.603 0C2.012-5.702.006-15.202.006-15.202z"></path><path  stroke-linecap="round" stroke-linejoin="round" fill-opacity="0" class="anim-color-1" stroke="#353535" stroke-opacity="1" stroke-width="1" d="M.006-15.202S-2.139-5.74-4.795 4.24c-2.917 10.962 12.507 10.331 9.603 0C2.012-5.702.006-15.202.006-15.202z"></path></g></g></g></svg>