<svg  xmlns="http://www.w3.org/2000/svg" viewBox="0 0 602 830" width="602" height="830" preserveAspectRatio="xMidYMid meet" style="width:100%;height:100%;transform:translate3d(0,0,0);content-visibility:visible"><defs ><clipPath id="__partner__lottie_element_12"><path  d="M0 0h602v830H0z"></path></clipPath></defs><g  clip-path="url(#__partner__lottie_element_12)"><g  transform="translate(125.17 224.301)" opacity="1" style="display:block"><g  opacity="1" transform="translate(157.625 161.758)"><path  class="anim-color-1" fill="#353535" fill-opacity="1" d="M92.229-43.782C112.762 7.437 96.394 69.227 45.628 89.614-5.576 110.177-62.516 93.88-87.761 43.011-112.762-7.368-92.93-71.288-41.16-90.384c53.661-19.793 111.319-8.453 133.389 46.602z"></path></g><g  opacity="1" transform="translate(213.389 147.828)"><path  stroke-linecap="round" stroke-linejoin="round" fill-opacity="0" class="anim-color-3" stroke="#F3E7D6" stroke-opacity="1" stroke-width="1" d="M4.563-1.167S-1.268 1.167-4.563.529"></path></g><g  opacity="1" transform="translate(162.5 100.64)"><path  stroke-linecap="round" stroke-linejoin="round" fill-opacity="0" class="anim-color-3" stroke="#F3E7D6" stroke-opacity="1" stroke-width="1" d="M-1.563 4.755C.794 1.96.221-3.515 1.563-4.755"></path></g><g  opacity="1" transform="translate(207.758 169.745)"><path  stroke-linecap="round" stroke-linejoin="round" fill-opacity="0" class="anim-color-3" stroke="#F3E7D6" stroke-opacity="1" stroke-width="1" d="M6.147 1.432S-4.102 1.229-6.147-1.432"></path></g><g  opacity="1" transform="translate(123.341 213.999)"><path  stroke-linecap="round" stroke-linejoin="round" fill-opacity="0" class="anim-color-3" stroke="#F3E7D6" stroke-opacity="1" stroke-width="1" d="M4.149-7.066C1.785-4.277-2.803 5.829-4.149 7.066"></path></g><g  opacity="1" transform="translate(140.948 183.676)"><path  stroke-linecap="round" stroke-linejoin="round" fill-opacity="0" class="anim-color-3" stroke="#F3E7D6" stroke-opacity="1" stroke-width="1" d="M3.64-5.239C1.276-2.45-2.294 4.001-3.64 5.239"></path></g><g  opacity="1" transform="translate(114.25 191.67)"><path  stroke-linecap="round" stroke-linejoin="round" fill-opacity="0" class="anim-color-3" stroke="#F3E7D6" stroke-opacity="1" stroke-width="1" d="M5.304-5.838C1.862-4.606-3.52 5.44-5.304 5.838"></path></g><g  opacity="1" transform="translate(147.395 212.445)"><path  stroke-linecap="round" stroke-linejoin="round" fill-opacity="0" class="anim-color-3" stroke="#F3E7D6" stroke-opacity="1" stroke-width="1" d="M1.73-5.509C.073-2.25-.706 3.994-1.73 5.509"></path></g><g  opacity="1" transform="translate(205.67 194.571)"><path  stroke-linecap="round" stroke-linejoin="round" fill-opacity="0" class="anim-color-3" stroke="#F3E7D6" stroke-opacity="1" stroke-width="1" d="m-2.719-1.224 5.438 2.448"></path></g><g  opacity="1" transform="translate(195.955 214.264)"><path  stroke-linecap="round" stroke-linejoin="round" fill-opacity="0" class="anim-color-3" stroke="#F3E7D6" stroke-opacity="1" stroke-width="1" d="m-2.457-1.689 4.914 3.378"></path></g><g  opacity="1" transform="translate(178.985 193.911)"><path  stroke-linecap="round" stroke-linejoin="round" fill-opacity="0" class="anim-color-3" stroke="#F3E7D6" stroke-opacity="1" stroke-width="1" d="M2.83 3.613S-2.173-.322-2.83-3.613"></path></g><g  opacity="1" transform="translate(178.176 166.089)"><path  stroke-linecap="round" stroke-linejoin="round" fill-opacity="0" class="anim-color-3" stroke="#F3E7D6" stroke-opacity="1" stroke-width="1" d="M2.188 4.035S-2.089-.68-2.188-4.035"></path></g><g  opacity="1" transform="translate(165.515 223.431)"><path  stroke-linecap="round" stroke-linejoin="round" fill-opacity="0" class="anim-color-3" stroke="#F3E7D6" stroke-opacity="1" stroke-width="1" d="M.277-6.54S-.369 3.469.37 6.54"></path></g><g  opacity="1" transform="translate(115.678 116.896)"><path  stroke-linecap="round" stroke-linejoin="round" fill-opacity="0" class="anim-color-3" stroke="#F3E7D6" stroke-opacity="1" stroke-width="1" d="M5.544 4.697C4.312 1.255-5.146-2.912-5.544-4.697"></path></g><g  opacity="1" transform="translate(139.527 111.274)"><path  stroke-linecap="round" stroke-linejoin="round" fill-opacity="0" class="anim-color-3" stroke="#F3E7D6" stroke-opacity="1" stroke-width="1" d="M-1.489-4.433S1.489 1.138.851 4.433"></path></g><g  opacity="1" transform="translate(162.915 130.492)"><path  stroke-linecap="round" stroke-linejoin="round" fill-opacity="0" class="anim-color-3" stroke="#F3E7D6" stroke-opacity="1" stroke-width="1" d="M-1.236 4.415s.253-6.312 2.472-8.83"></path></g><g  opacity="1" transform="translate(136.275 135.655)"><path  stroke-linecap="round" stroke-linejoin="round" fill-opacity="0" class="anim-color-3" stroke="#F3E7D6" stroke-opacity="1" stroke-width="1" d="M-1.489-4.433S1.489 1.138.851 4.433"></path></g><g  opacity="1" transform="translate(102.087 136.396)"><path  stroke-linecap="round" stroke-linejoin="round" fill-opacity="0" class="anim-color-3" stroke="#F3E7D6" stroke-opacity="1" stroke-width="1" d="M-4.122-1.839S2.076-.821 4.122 1.839"></path></g><g  opacity="1" transform="translate(118.301 152.592)"><path  stroke-linecap="round" stroke-linejoin="round" fill-opacity="0" class="anim-color-3" stroke="#F3E7D6" stroke-opacity="1" stroke-width="1" d="M-4.122-1.839S2.076-.822 4.122 1.839"></path></g><g  opacity="1" transform="translate(29.379 82.23)"><path  stroke-linecap="round" stroke-linejoin="round" fill-opacity="0" class="anim-color-1" stroke="#353535" stroke-opacity="1" stroke-width="1" d="M7.804 3.888C2.096-2.703-5.381-.264-7.804-3.888"></path></g><g  opacity="1" transform="translate(47.174 66.845)"><path  stroke-linecap="round" stroke-linejoin="round" fill-opacity="0" class="anim-color-1" stroke="#353535" stroke-opacity="1" stroke-width="1" d="m2.227 2.128-4.454-4.256"></path></g><g  opacity="1" transform="translate(61.545 48.508)"><path  stroke-linecap="round" stroke-linejoin="round" fill-opacity="0" class="anim-color-1" stroke="#353535" stroke-opacity="1" stroke-width="1" d="M4.521 5.224S-2.05 2.39-4.521-5.224"></path></g><g  opacity="1" transform="translate(83.038 31.581)"><path  stroke-linecap="round" stroke-linejoin="round" fill-opacity="0" class="anim-color-1" stroke="#353535" stroke-opacity="1" stroke-width="1" d="M4.813 7.271C3.167-1.292-4.527-2.92-4.813-7.271"></path></g><g  opacity="1" transform="translate(104.938 26.55)"><path  stroke-linecap="round" stroke-linejoin="round" fill-opacity="0" class="anim-color-1" stroke="#353535" stroke-opacity="1" stroke-width="1" d="m1.269 2.807-2.538-5.614"></path></g><g  opacity="1" transform="translate(126.415 16.771)"><path  stroke-linecap="round" stroke-linejoin="round" fill-opacity="0" class="anim-color-1" stroke="#353535" stroke-opacity="1" stroke-width="1" d="M-1.729-6.899S1.729-.634-.978 6.899"></path></g><g  opacity="1" transform="translate(10.99 124.596)"><path  stroke-linecap="round" stroke-linejoin="round" fill-opacity="0" class="anim-color-1" stroke="#353535" stroke-opacity="1" stroke-width="1" d="M8.491 2.548C1.416-2.549-5.297 1.549-8.491-1.418"></path></g><g  opacity="1" transform="translate(22.827 105.817)"><path  stroke-linecap="round" stroke-linejoin="round" fill-opacity="0" class="anim-color-1" stroke="#353535" stroke-opacity="1" stroke-width="1" d="m2.658 1.557-5.316-3.114"></path></g><g  opacity="1" transform="translate(154.591 15.696)"><path  stroke-linecap="round" stroke-linejoin="round" fill-opacity="0" class="anim-color-1" stroke="#353535" stroke-opacity="1" stroke-width="1" d="M-.991 5.432S.992 2.074.374-5.432"></path></g><g  opacity="1" transform="translate(182.678 11.135)"><path  stroke-linecap="round" stroke-linejoin="round" fill-opacity="0" class="anim-color-1" stroke="#353535" stroke-opacity="1" stroke-width="1" d="M-2.098 8.635C2.342 1.131-2.342-5.187.327-8.635"></path></g><g  opacity="1" transform="translate(201.528 21.879)"><path  stroke-linecap="round" stroke-linejoin="round" fill-opacity="0" class="anim-color-1" stroke="#353535" stroke-opacity="1" stroke-width="1" d="M-.91 2.943.91-2.943"></path></g><g  opacity="1" transform="translate(223.08 27.889)"><path  stroke-linecap="round" stroke-linejoin="round" fill-opacity="0" class="anim-color-1" stroke="#353535" stroke-opacity="1" stroke-width="1" d="M4.289-5.416S2.73 1.568-4.289 5.416"></path></g><g  opacity="1" transform="translate(289.013 246.688)"><path  stroke-linecap="round" stroke-linejoin="round" fill-opacity="0" class="anim-color-1" stroke="#353535" stroke-opacity="1" stroke-width="1" d="M-7.804-3.889C-2.096 2.702 5.381.265 7.804 3.889"></path></g><g  opacity="1" transform="translate(271.219 262.073)"><path  stroke-linecap="round" stroke-linejoin="round" fill-opacity="0" class="anim-color-1" stroke="#353535" stroke-opacity="1" stroke-width="1" d="m-2.227-2.128 4.454 4.256"></path></g><g  opacity="1" transform="translate(256.848 280.41)"><path  stroke-linecap="round" stroke-linejoin="round" fill-opacity="0" class="anim-color-1" stroke="#353535" stroke-opacity="1" stroke-width="1" d="M-4.521-5.225S2.049-2.39 4.52 5.224"></path></g><g  opacity="1" transform="translate(235.355 297.337)"><path  stroke-linecap="round" stroke-linejoin="round" fill-opacity="0" class="anim-color-1" stroke="#353535" stroke-opacity="1" stroke-width="1" d="M-4.813-7.271C-3.167 1.292 4.527 2.92 4.813 7.271"></path></g><g  opacity="1" transform="translate(213.455 302.368)"><path  stroke-linecap="round" stroke-linejoin="round" fill-opacity="0" class="anim-color-1" stroke="#353535" stroke-opacity="1" stroke-width="1" d="m-1.268-2.807 2.536 5.614"></path></g><g  opacity="1" transform="translate(191.978 312.147)"><path  stroke-linecap="round" stroke-linejoin="round" fill-opacity="0" class="anim-color-1" stroke="#353535" stroke-opacity="1" stroke-width="1" d="M1.73 6.898S-1.73.635.977-6.898"></path></g><g  opacity="1" transform="translate(307.402 204.321)"><path  stroke-linecap="round" stroke-linejoin="round" fill-opacity="0" class="anim-color-1" stroke="#353535" stroke-opacity="1" stroke-width="1" d="M-8.49-2.549C-1.415 2.548 5.296-1.548 8.49 1.419"></path></g><g  opacity="1" transform="translate(295.566 223.101)"><path  stroke-linecap="round" stroke-linejoin="round" fill-opacity="0" class="anim-color-1" stroke="#353535" stroke-opacity="1" stroke-width="1" d="m-2.657-1.557 5.314 3.114"></path></g><g  opacity="1" transform="translate(163.802 313.222)"><path  stroke-linecap="round" stroke-linejoin="round" fill-opacity="0" class="anim-color-1" stroke="#353535" stroke-opacity="1" stroke-width="1" d="M.992-5.432S-.992-2.075-.374 5.432"></path></g><g  opacity="1" transform="translate(256.932 52.07)"><path  stroke-linecap="round" stroke-linejoin="round" fill-opacity="0" class="anim-color-1" stroke="#353535" stroke-opacity="1" stroke-width="1" d="m-2.128 2.227 4.256-4.454"></path></g><g  opacity="1" transform="translate(275.268 66.442)"><path  stroke-linecap="round" stroke-linejoin="round" fill-opacity="0" class="anim-color-1" stroke="#353535" stroke-opacity="1" stroke-width="1" d="M-5.224 4.52S-2.39-2.049 5.224-4.52"></path></g><g  opacity="1" transform="translate(292.194 87.935)"><path  stroke-linecap="round" stroke-linejoin="round" fill-opacity="0" class="anim-color-1" stroke="#353535" stroke-opacity="1" stroke-width="1" d="M-7.27 4.813C1.293 3.167 2.919-4.528 7.27-4.813"></path></g><g  opacity="1" transform="translate(297.224 109.837)"><path  stroke-linecap="round" stroke-linejoin="round" fill-opacity="0" class="anim-color-1" stroke="#353535" stroke-opacity="1" stroke-width="1" d="m-2.807 1.268 5.614-2.536"></path></g><g  opacity="1" transform="translate(307.003 131.315)"><path  stroke-linecap="round" stroke-linejoin="round" fill-opacity="0" class="anim-color-1" stroke="#353535" stroke-opacity="1" stroke-width="1" d="M6.898-1.73S.634 1.73-6.898-.977"></path></g><g  opacity="1" transform="translate(308.078 159.492)"><path  stroke-linecap="round" stroke-linejoin="round" fill-opacity="0" class="anim-color-1" stroke="#353535" stroke-opacity="1" stroke-width="1" d="M-5.432-.992S-2.075.992 5.432.374"></path></g><g  opacity="1" transform="translate(61.713 276.126)"><path  stroke-linecap="round" stroke-linejoin="round" fill-opacity="0" class="anim-color-1" stroke="#353535" stroke-opacity="1" stroke-width="1" d="m2.128-2.227-4.256 4.454"></path></g><g  opacity="1" transform="translate(43.377 261.754)"><path  stroke-linecap="round" stroke-linejoin="round" fill-opacity="0" class="anim-color-1" stroke="#353535" stroke-opacity="1" stroke-width="1" d="M5.225-4.521S2.389 2.05-5.225 4.521"></path></g><g  opacity="1" transform="translate(26.451 240.261)"><path  stroke-linecap="round" stroke-linejoin="round" fill-opacity="0" class="anim-color-1" stroke="#353535" stroke-opacity="1" stroke-width="1" d="M7.271-4.814C-1.291-3.167-2.92 4.528-7.271 4.814"></path></g><g  opacity="1" transform="translate(21.421 218.359)"><path  stroke-linecap="round" stroke-linejoin="round" fill-opacity="0" class="anim-color-1" stroke="#353535" stroke-opacity="1" stroke-width="1" d="m2.807-1.269-5.614 2.538"></path></g><g  opacity="1" transform="translate(11.641 196.881)"><path  stroke-linecap="round" stroke-linejoin="round" fill-opacity="0" class="anim-color-1" stroke="#353535" stroke-opacity="1" stroke-width="1" d="M-6.898 1.729S-.634-1.729 6.898.978"></path></g><g  opacity="1" transform="translate(10.567 168.704)"><path  stroke-linecap="round" stroke-linejoin="round" fill-opacity="0" class="anim-color-1" stroke="#353535" stroke-opacity="1" stroke-width="1" d="M5.432.991S2.075-.992-5.432-.374"></path></g><g  opacity="1" transform="translate(135.715 317.783)"><path  stroke-linecap="round" stroke-linejoin="round" fill-opacity="0" class="anim-color-1" stroke="#353535" stroke-opacity="1" stroke-width="1" d="M2.098-8.635c-4.44 7.504.244 13.821-2.425 17.27"></path></g><g  opacity="1" transform="translate(116.865 307.039)"><path  stroke-linecap="round" stroke-linejoin="round" fill-opacity="0" class="anim-color-1" stroke="#353535" stroke-opacity="1" stroke-width="1" d="M.91-2.943-.91 2.943"></path></g><g  opacity="1" transform="translate(95.313 301.029)"><path  stroke-linecap="round" stroke-linejoin="round" fill-opacity="0" class="anim-color-1" stroke="#353535" stroke-opacity="1" stroke-width="1" d="M-4.289 5.416S-2.73-1.568 4.289-5.416"></path></g><g  opacity="1" transform="translate(80.098 73.888)"><path  stroke-linecap="round" stroke-linejoin="round" fill-opacity="0" class="anim-color-1" stroke="#353535" stroke-opacity="1" stroke-width="1" d="M4.991 4.648c-2.819-6.211-8.969-6.04-9.982-9.296"></path></g><g  opacity="1" transform="translate(96.86 66.297)"><path  stroke-linecap="round" stroke-linejoin="round" fill-opacity="0" class="anim-color-1" stroke="#353535" stroke-opacity="1" stroke-width="1" d="m1.198 2.09-2.396-4.18"></path></g><g  opacity="1" transform="translate(111.708 55.732)"><path  stroke-linecap="round" stroke-linejoin="round" fill-opacity="0" class="anim-color-1" stroke="#353535" stroke-opacity="1" stroke-width="1" d="M2.232 4.922s-4.3-3.585-4.464-9.844"></path></g><g  opacity="1" transform="translate(131.544 47.804)"><path  stroke-linecap="round" stroke-linejoin="round" fill-opacity="0" class="anim-color-1" stroke="#353535" stroke-opacity="1" stroke-width="1" d="M2.04 6.521C2.705-.267-2.705-3.195-1.954-6.521"></path></g><g  opacity="1" transform="translate(149.131 48.89)"><path  stroke-linecap="round" stroke-linejoin="round" fill-opacity="0" class="anim-color-1" stroke="#353535" stroke-opacity="1" stroke-width="1" d="m.329 2.387-.658-4.774"></path></g><g  opacity="1" transform="translate(166.999 46.02)"><path  stroke-linecap="round" stroke-linejoin="round" fill-opacity="0" class="anim-color-1" stroke="#353535" stroke-opacity="1" stroke-width="1" d="M.646-5.258S1.851.208-1.851 5.258"></path></g><g  opacity="1" transform="translate(56.778 102.012)"><path  stroke-linecap="round" stroke-linejoin="round" fill-opacity="0" class="anim-color-1" stroke="#353535" stroke-opacity="1" stroke-width="1" d="M5.929 3.372C1.753-2.022-4.192-.437-5.929-3.372"></path></g><g  opacity="1" transform="translate(69.949 90.128)"><path  stroke-linecap="round" stroke-linejoin="round" fill-opacity="0" class="anim-color-1" stroke="#353535" stroke-opacity="1" stroke-width="1" d="m1.648 1.758-3.296-3.516"></path></g><g  opacity="1" transform="translate(188.553 51.698)"><path  stroke-linecap="round" stroke-linejoin="round" fill-opacity="0" class="anim-color-1" stroke="#353535" stroke-opacity="1" stroke-width="1" d="M-1.717 3.923S.515 1.845 1.717-3.923"></path></g><g  opacity="1" transform="translate(210.201 54.381)"><path  stroke-linecap="round" stroke-linejoin="round" fill-opacity="0" class="anim-color-1" stroke="#353535" stroke-opacity="1" stroke-width="1" d="M-2.825 6.208C2.171 1.564.058-4.213 2.825-6.208"></path></g><g  opacity="1" transform="translate(222.621 66.821)"><path  stroke-linecap="round" stroke-linejoin="round" fill-opacity="0" class="anim-color-1" stroke="#353535" stroke-opacity="1" stroke-width="1" d="m-1.335 2.005 2.67-4.01"></path></g><g  opacity="1" transform="translate(237.454 76.111)"><path  stroke-linecap="round" stroke-linejoin="round" fill-opacity="0" class="anim-color-1" stroke="#353535" stroke-opacity="1" stroke-width="1" d="M4.419-3.111s-2.72 4.893-8.838 6.222"></path></g><g  opacity="1" transform="translate(238.363 254.868)"><path  stroke-linecap="round" stroke-linejoin="round" fill-opacity="0" class="anim-color-1" stroke="#353535" stroke-opacity="1" stroke-width="1" d="M-4.991-4.649c2.819 6.211 8.969 6.042 9.982 9.298"></path></g><g  opacity="1" transform="translate(221.6 262.46)"><path  stroke-linecap="round" stroke-linejoin="round" fill-opacity="0" class="anim-color-1" stroke="#353535" stroke-opacity="1" stroke-width="1" d="m-1.198-2.091 2.396 4.182"></path></g><g  opacity="1" transform="translate(206.752 273.026)"><path  stroke-linecap="round" stroke-linejoin="round" fill-opacity="0" class="anim-color-1" stroke="#353535" stroke-opacity="1" stroke-width="1" d="M-2.231-4.922s4.299 3.585 4.462 9.844"></path></g><g  opacity="1" transform="translate(186.917 280.954)"><path  stroke-linecap="round" stroke-linejoin="round" fill-opacity="0" class="anim-color-1" stroke="#353535" stroke-opacity="1" stroke-width="1" d="M-2.04-6.522C-2.705.266 2.705 3.195 1.954 6.522"></path></g><g  opacity="1" transform="translate(169.33 279.866)"><path  stroke-linecap="round" stroke-linejoin="round" fill-opacity="0" class="anim-color-1" stroke="#353535" stroke-opacity="1" stroke-width="1" d="m-.328-2.387.656 4.774"></path></g><g  opacity="1" transform="translate(151.462 282.737)"><path  stroke-linecap="round" stroke-linejoin="round" fill-opacity="0" class="anim-color-1" stroke="#353535" stroke-opacity="1" stroke-width="1" d="M-.646 5.258S-1.851-.208 1.851-5.258"></path></g><g  opacity="1" transform="translate(261.682 226.745)"><path  stroke-linecap="round" stroke-linejoin="round" fill-opacity="0" class="anim-color-1" stroke="#353535" stroke-opacity="1" stroke-width="1" d="M-5.928-3.372C-1.753 2.021 4.191.438 5.928 3.372"></path></g><g  opacity="1" transform="translate(248.512 238.629)"><path  stroke-linecap="round" stroke-linejoin="round" fill-opacity="0" class="anim-color-1" stroke="#353535" stroke-opacity="1" stroke-width="1" d="m-1.648-1.758 3.296 3.516"></path></g><g  opacity="1" transform="translate(129.908 277.059)"><path  stroke-linecap="round" stroke-linejoin="round" fill-opacity="0" class="anim-color-1" stroke="#353535" stroke-opacity="1" stroke-width="1" d="M1.718-3.923S-.515-1.845-1.718 3.924"></path></g><g  opacity="1" transform="translate(257.482 101.762)"><path  stroke-linecap="round" stroke-linejoin="round" fill-opacity="0" class="anim-color-1" stroke="#353535" stroke-opacity="1" stroke-width="1" d="m-2.09 1.198 4.181-2.396"></path></g><g  opacity="1" transform="translate(268.047 116.612)"><path  stroke-linecap="round" stroke-linejoin="round" fill-opacity="0" class="anim-color-1" stroke="#353535" stroke-opacity="1" stroke-width="1" d="M-4.922 2.231s3.584-4.298 9.844-4.462"></path></g><g  opacity="1" transform="translate(275.974 136.447)"><path  stroke-linecap="round" stroke-linejoin="round" fill-opacity="0" class="anim-color-1" stroke="#353535" stroke-opacity="1" stroke-width="1" d="M-6.521 2.04c6.788.665 9.716-4.746 13.042-3.995"></path></g><g  opacity="1" transform="translate(274.887 154.036)"><path  stroke-linecap="round" stroke-linejoin="round" fill-opacity="0" class="anim-color-1" stroke="#353535" stroke-opacity="1" stroke-width="1" d="m-2.386.328 4.772-.656"></path></g><g  opacity="1" transform="translate(277.757 171.904)"><path  stroke-linecap="round" stroke-linejoin="round" fill-opacity="0" class="anim-color-1" stroke="#353535" stroke-opacity="1" stroke-width="1" d="M5.258.646S-.208 1.851-5.258-1.851"></path></g><g  opacity="1" transform="translate(272.079 193.46)"><path  stroke-linecap="round" stroke-linejoin="round" fill-opacity="0" class="anim-color-1" stroke="#353535" stroke-opacity="1" stroke-width="1" d="M-3.923-1.718S-1.844.515 3.923 1.718"></path></g><g  opacity="1" transform="translate(61.328 226.509)"><path  stroke-linecap="round" stroke-linejoin="round" fill-opacity="0" class="anim-color-1" stroke="#353535" stroke-opacity="1" stroke-width="1" d="m2.091-1.198-4.182 2.396"></path></g><g  opacity="1" transform="translate(50.763 211.66)"><path  stroke-linecap="round" stroke-linejoin="round" fill-opacity="0" class="anim-color-1" stroke="#353535" stroke-opacity="1" stroke-width="1" d="M4.922-2.232s-3.584 4.3-9.844 4.464"></path></g><g  opacity="1" transform="translate(42.836 191.824)"><path  stroke-linecap="round" stroke-linejoin="round" fill-opacity="0" class="anim-color-1" stroke="#353535" stroke-opacity="1" stroke-width="1" d="M6.522-2.04C-.266-2.705-3.196 2.705-6.522 1.955"></path></g><g  opacity="1" transform="translate(43.923 174.236)"><path  stroke-linecap="round" stroke-linejoin="round" fill-opacity="0" class="anim-color-1" stroke="#353535" stroke-opacity="1" stroke-width="1" d="m2.387-.329-4.774.658"></path></g><g  opacity="1" transform="translate(41.052 156.367)"><path  stroke-linecap="round" stroke-linejoin="round" fill-opacity="0" class="anim-color-1" stroke="#353535" stroke-opacity="1" stroke-width="1" d="M-5.258-.646S.208-1.851 5.258 1.852"></path></g><g  opacity="1" transform="translate(46.73 134.812)"><path  stroke-linecap="round" stroke-linejoin="round" fill-opacity="0" class="anim-color-1" stroke="#353535" stroke-opacity="1" stroke-width="1" d="M3.923 1.717S1.844-.515-3.923-1.717"></path></g><g  opacity="1" transform="translate(108.26 274.376)"><path  stroke-linecap="round" stroke-linejoin="round" fill-opacity="0" class="anim-color-1" stroke="#353535" stroke-opacity="1" stroke-width="1" d="M2.826-6.209C-2.17-1.565-.059 4.213-2.826 6.208"></path></g><g  opacity="1" transform="translate(95.839 261.936)"><path  stroke-linecap="round" stroke-linejoin="round" fill-opacity="0" class="anim-color-1" stroke="#353535" stroke-opacity="1" stroke-width="1" d="m1.336-2.005-2.672 4.011"></path></g><g  opacity="1" transform="translate(81.006 252.645)"><path  stroke-linecap="round" stroke-linejoin="round" fill-opacity="0" class="anim-color-1" stroke="#353535" stroke-opacity="1" stroke-width="1" d="M-4.419 3.111S-1.7-1.782 4.419-3.111"></path></g><g  opacity="1" transform="translate(194.257 84.789)"><path  stroke-linecap="round" stroke-linejoin="round" fill-opacity="0" class="anim-color-3" stroke="#F3E7D6" stroke-opacity="1" stroke-width="1" d="M-2.399 6.285C1.226 2.621.373-4.693 2.399-6.285"></path></g><g  opacity="1" transform="translate(212.706 93.084)"><path  stroke-linecap="round" stroke-linejoin="round" fill-opacity="0" class="anim-color-3" stroke="#F3E7D6" stroke-opacity="1" stroke-width="1" d="m-1.333 3.044 2.666-6.088"></path></g><g  opacity="1" transform="translate(228.903 110.489)"><path  stroke-linecap="round" stroke-linejoin="round" fill-opacity="0" class="anim-color-3" stroke="#F3E7D6" stroke-opacity="1" stroke-width="1" d="M-5.862 4.027C-.891 2.668 3.311-3.66 5.862-4.027"></path></g><g  opacity="1" transform="translate(238.126 125.886)"><path  stroke-linecap="round" stroke-linejoin="round" fill-opacity="0" class="anim-color-3" stroke="#F3E7D6" stroke-opacity="1" stroke-width="1" d="m-1.596.875 3.192-1.75"></path></g><g  opacity="1" transform="translate(244.021 142.997)"><path  stroke-linecap="round" stroke-linejoin="round" fill-opacity="0" class="anim-color-3" stroke="#F3E7D6" stroke-opacity="1" stroke-width="1" d="M6.505-1.324S-1.943 1.324-6.505.071"></path></g><g  opacity="1" transform="translate(175.565 76.864)"><path  stroke-linecap="round" stroke-linejoin="round" fill-opacity="0" class="anim-color-3" stroke="#F3E7D6" stroke-opacity="1" stroke-width="1" d="M-1.341 6.96C1.341 2.559-.637-4.943.966-6.96"></path></g><g  opacity="1" transform="translate(248.666 168.429)"><path  stroke-linecap="round" stroke-linejoin="round" fill-opacity="0" class="anim-color-3" stroke="#F3E7D6" stroke-opacity="1" stroke-width="1" d="M-7.179-2.374C-2.555-.098 5.026.958 7.179 2.374"></path></g><g  opacity="1" transform="translate(239.484 195.438)"><path  stroke-linecap="round" stroke-linejoin="round" fill-opacity="0" class="anim-color-3" stroke="#F3E7D6" stroke-opacity="1" stroke-width="1" d="M6.607 2.417S-4.02 1.544-6.607-2.417"></path></g><g  opacity="1" transform="translate(113.551 242.745)"><path  stroke-linecap="round" stroke-linejoin="round" fill-opacity="0" class="anim-color-3" stroke="#F3E7D6" stroke-opacity="1" stroke-width="1" d="M4.3-6.477C.675-2.813-2.275 4.884-4.3 6.477"></path></g><g  opacity="1" transform="translate(95.429 226.946)"><path  stroke-linecap="round" stroke-linejoin="round" fill-opacity="0" class="anim-color-3" stroke="#F3E7D6" stroke-opacity="1" stroke-width="1" d="M2.874-2.901s-1.374 4-5.748 5.802"></path></g><g  opacity="1" transform="translate(86.267 214.041)"><path  stroke-linecap="round" stroke-linejoin="round" fill-opacity="0" class="anim-color-3" stroke="#F3E7D6" stroke-opacity="1" stroke-width="1" d="M5.855-4.175c-4.971 1.359-9.16 7.983-11.71 8.35"></path></g><g  opacity="1" transform="translate(75.908 189.578)"><path  stroke-linecap="round" stroke-linejoin="round" fill-opacity="0" class="anim-color-3" stroke="#F3E7D6" stroke-opacity="1" stroke-width="1" d="M-6.114 1.91S1.552-1.911 6.114-.658"></path></g><g  opacity="1" transform="translate(144.312 251.913)"><path  stroke-linecap="round" stroke-linejoin="round" fill-opacity="0" class="anim-color-3" stroke="#F3E7D6" stroke-opacity="1" stroke-width="1" d="M2.198-6.439C-.484-2.038-.594 4.422-2.198 6.439"></path></g><g  opacity="1" transform="translate(131.461 245.95)"><path  stroke-linecap="round" stroke-linejoin="round" fill-opacity="0" class="anim-color-3" stroke="#F3E7D6" stroke-opacity="1" stroke-width="1" d="m1.298-2.849-2.596 5.698"></path></g><g  opacity="1" transform="translate(228.129 215.137)"><path  stroke-linecap="round" stroke-linejoin="round" fill-opacity="0" class="anim-color-3" stroke="#F3E7D6" stroke-opacity="1" stroke-width="1" d="m-3.271-2.64 6.542 5.28"></path></g><g  opacity="1" transform="translate(209.431 237.332)"><path  stroke-linecap="round" stroke-linejoin="round" fill-opacity="0" class="anim-color-3" stroke="#F3E7D6" stroke-opacity="1" stroke-width="1" d="M-4.194-5.769C-2.835-.798 3.827 3.218 4.194 5.769"></path></g><g  opacity="1" transform="translate(185.739 249.671)"><path  stroke-linecap="round" stroke-linejoin="round" fill-opacity="0" class="anim-color-3" stroke="#F3E7D6" stroke-opacity="1" stroke-width="1" d="M1.162 4.048S-1.161.515.092-4.048"></path></g><g  opacity="1" transform="translate(167.724 250.984)"><path  stroke-linecap="round" stroke-linejoin="round" fill-opacity="0" class="anim-color-3" stroke="#F3E7D6" stroke-opacity="1" stroke-width="1" d="M.548-5.197S-.548.802.157 5.197"></path></g><g  opacity="1" transform="translate(93.627 101.401)"><path  stroke-linecap="round" stroke-linejoin="round" fill-opacity="0" class="anim-color-3" stroke="#F3E7D6" stroke-opacity="1" stroke-width="1" d="M2.902 2.873S-1.1 1.501-2.902-2.873"></path></g><g  opacity="1" transform="translate(110.368 90.655)"><path  stroke-linecap="round" stroke-linejoin="round" fill-opacity="0" class="anim-color-3" stroke="#F3E7D6" stroke-opacity="1" stroke-width="1" d="M4.912 5.384C3.553.413-4.546-2.833-4.912-5.384"></path></g><g  opacity="1" transform="translate(133.972 81.009)"><path  stroke-linecap="round" stroke-linejoin="round" fill-opacity="0" class="anim-color-3" stroke="#F3E7D6" stroke-opacity="1" stroke-width="1" d="M-1.791-6.357S1.791 1.795.538 6.357"></path></g><g  opacity="1" transform="translate(150.404 78.618)"><path  stroke-linecap="round" stroke-linejoin="round" fill-opacity="0" class="anim-color-3" stroke="#F3E7D6" stroke-opacity="1" stroke-width="1" d="M.362 5.111S.343-.715-.362-5.111"></path></g><g  opacity="1" transform="translate(75.303 145.903)"><path  stroke-linecap="round" stroke-linejoin="round" fill-opacity="0" class="anim-color-3" stroke="#F3E7D6" stroke-opacity="1" stroke-width="1" d="M3.7.648-3.7-.648"></path></g><g  opacity="1" transform="translate(80.444 125.12)"><path  stroke-linecap="round" stroke-linejoin="round" fill-opacity="0" class="anim-color-3" stroke="#F3E7D6" stroke-opacity="1" stroke-width="1" d="M-5.594-3.031s8.602 2.1 11.188 6.062"></path></g><g  opacity="1" transform="translate(194.252 126.771)"><path  stroke-linecap="round" stroke-linejoin="round" fill-opacity="0" class="anim-color-3" stroke="#F3E7D6" stroke-opacity="1" stroke-width="1" d="m-3.666 3.666 7.332-7.332"></path></g><g  opacity="1" transform="translate(94.923 169.104)"><path  stroke-linecap="round" stroke-linejoin="round" fill-opacity="0" class="anim-color-3" stroke="#F3E7D6" stroke-opacity="1" stroke-width="1" d="M5-.667-5 .667"></path></g></g></g></svg>