<svg xmlns="http://www.w3.org/2000/svg" style="width:100%;height:100%;content-visibility:visible" viewBox="0 0 1120 820"><defs><clipPath id="a"><path d="M0 0h1120v820H0z"/></clipPath><clipPath id="b"><path d="M0 0h1120v820H0z"/></clipPath><clipPath id="f"><path d="M0 0h1120v820H0z"/></clipPath><clipPath id="e"><path d="M0 0h1120v820H0z"/></clipPath><clipPath id="d"><path d="M0 0h1120v820H0z"/></clipPath><mask id="c"><path fill="#fff" d="M935.374 795.374H184.626V44.626h750.748v750.748"/></mask></defs><g clip-path="url(#a)"><g clip-path="url(#b)" display="block"><g mask="url(#c)"><path fill="#353535" d="M431.358 351.684s19.568 79.093 144.324 80.724c115.007 1.504 143.509-60.339 154.926-88.062 11.415-27.724-99.479-54.632-165.526-54.632-66.046 0-133.724 61.97-133.724 61.97z" class="anim-color-1" display="block"/><g display="block"><path fill="#353535" d="M493.849 438.01s32.777-8.332 86.666-4.443c53.888 3.888 82.219 4.443 82.219 4.443s9.446 73.889-78.886 69.444c-88.332-4.444-89.999-69.444-89.999-69.444z" class="anim-color-1"/><path fill="#FFEBD5" d="M631.625 515.171H522.737V406.283h108.888v108.888z" class="anim-color-2"/><path fill="none" stroke="#353535" stroke-linecap="round" stroke-linejoin="round" stroke-width="2" d="M631.625 515.171H522.737V406.283h108.888v108.888z" class="anim-color-1"/><g><path fill="#353535" d="m631.625 442.501-108.934-20.314.047-11.214h108.887v31.528z" class="anim-color-1"/></g></g><g display="block"><path fill="#FFEBD5" d="M728.597 295.701c-1.546 68.793-29.373 128.312-152.273 128.312-114.399 0-148.99-60.484-145.897-130.05 3.535-79.552 50.307-118.844 137.394-118.844s162.673 36.124 160.776 120.582z" class="anim-color-2"/><path fill="none" stroke="#353535" stroke-linecap="round" stroke-linejoin="round" stroke-width="2" d="M728.597 295.701c-1.546 68.793-29.373 128.312-152.273 128.312-114.399 0-148.99-60.484-145.897-130.05 3.535-79.552 50.307-118.844 137.394-118.844s162.673 36.124 160.776 120.582zM631.218 392.281l52.672-19.348M637.134 382.253l5.084 13.842M655.204 375.615l5.084 13.842M673.274 368.977l5.084 13.842M493.458 235.131l65.124 17.364M505.815 230.795l-3.798 14.248M528.157 236.752 524.359 251" class="anim-color-1"/><g><path fill="none" stroke="#353535" stroke-linecap="round" stroke-linejoin="round" stroke-width="2" d="m550.5 242.709-3.8 14.248" class="anim-color-1"/></g></g><g display="block"><path fill="#FFEBD5" d="m529.663 345.234-.104-4.314a9.276 9.276 0 1 1 18.552 0l-.101 6.148" class="anim-color-2"/><path fill="none" stroke="#353535" stroke-linecap="round" stroke-linejoin="round" stroke-width="2" d="m529.663 345.234-.104-4.314a9.276 9.276 0 1 1 18.552 0l-.101 6.148" class="anim-color-1"/><path fill="#FFEBD5" d="M618.836 343.11v-2.19a9.276 9.276 0 0 0-9.275-9.276c-5.123 0-9.277 4.153-9.277 9.276l.012 6.454" class="anim-color-2"/><path fill="none" stroke="#353535" stroke-linecap="round" stroke-linejoin="round" stroke-width="2" d="M618.836 343.11v-2.19a9.276 9.276 0 0 0-9.275-9.276c-5.123 0-9.277 4.153-9.277 9.276l.012 6.454" class="anim-color-1"/><path fill="none" stroke="#353535" stroke-linecap="round" stroke-linejoin="round" stroke-width="2" d="M515.645 343.238s31.305 5.797 61.451 5.797c30.145 0 52.175-8.116 52.175-8.116" class="anim-color-1"/><g><path fill="#FFEBD5" d="M437.19 328.165s34.371-19.71 138.747-19.71c108.987 0 145.703 22.802 145.703 22.802" class="anim-color-2"/><path fill="none" stroke="#353535" stroke-linecap="round" stroke-linejoin="round" stroke-width="2" d="M437.19 328.165s34.371-19.71 138.747-19.71c108.987 0 145.703 22.802 145.703 22.802" class="anim-color-1"/></g><g><path fill="#FFEBD5" d="M554.889 360.522s9.173-11.008 21.71-11.62c12.536-.611 18.958 3.365 18.958 3.365" class="anim-color-2"/><path fill="none" stroke="#353535" stroke-linecap="round" stroke-linejoin="round" stroke-width="2" d="M554.889 360.522s9.173-11.008 21.71-11.62c12.536-.611 18.958 3.365 18.958 3.365" class="anim-color-1"/></g></g><g display="block"><path fill="#353535" d="M686.496 250.237c.909 4.184 38.599 22.654 41.147 41.658 2.549 19.005-3.055 33.41-3.055 33.41s-31.834-17.37-48.943-18.86c-17.108-1.489 10.851-56.208 10.851-56.208z" class="anim-color-1"/><path fill="none" stroke="#353535" stroke-linecap="round" stroke-linejoin="round" d="M686.496 250.237c.909 4.184 38.599 22.654 41.147 41.658 2.549 19.005-3.055 33.41-3.055 33.41s-31.834-17.37-48.943-18.86c-17.108-1.489 10.851-56.208 10.851-56.208z" class="anim-color-1"/><path fill="#353535" d="M665.99 249.164v-.01l14.732-1.236.508-.043.151 3.786c12.726 5.764 19.975 19.924 16.56 34-2.034 8.386-14.297 22.687-14.297 22.687s-15.735.015-17.633-.187l-.237-.001v-.025a30.069 30.069 0 0 1-3.655-.641c-15.921-3.863-25.695-19.901-21.832-35.822 3.036-12.512 13.594-21.225 25.703-22.508z" class="anim-color-1"/><path fill="none" stroke="#353535" stroke-linecap="round" stroke-linejoin="round" d="M665.99 249.164v-.01l14.732-1.236.508-.043.151 3.786c12.726 5.764 19.975 19.924 16.56 34-2.034 8.386-14.297 22.687-14.297 22.687s-15.735.015-17.633-.187l-.237-.001v-.025a30.069 30.069 0 0 1-3.655-.641c-15.921-3.863-25.695-19.901-21.832-35.822 3.036-12.512 13.594-21.225 25.703-22.508z" class="anim-color-1"/><path fill="#FFEBD5" d="M651.97 270.926c-3.954 16.295 6.051 32.711 22.347 36.665 16.296 3.954 32.711-6.051 36.665-22.347 3.954-16.296-6.051-32.711-22.347-36.665-16.296-3.954-32.711 6.051-36.665 22.347z" class="anim-color-2"/><path fill="none" stroke="#353535" stroke-linecap="round" stroke-linejoin="round" stroke-width="2" d="M651.97 270.926c-3.954 16.295 6.051 32.711 22.347 36.665 16.296 3.954 32.711-6.051 36.665-22.347 3.954-16.296-6.051-32.711-22.347-36.665-16.296-3.954-32.711 6.051-36.665 22.347z" class="anim-color-1"/><g><path fill="#353535" d="M661.707 273.288c-2.649 10.918 4.054 21.918 14.972 24.567 10.918 2.649 21.918-4.054 24.567-14.972 2.649-10.919-4.055-21.918-14.973-24.568-10.918-2.649-21.917 4.055-24.566 14.973z" class="anim-color-1"/></g><g><path fill="none" stroke="#FFEBD5" stroke-linecap="round" stroke-linejoin="round" stroke-width="2" d="M684.624 299.196c4.805-2.66 10.791-8.73 12.188-14.488 2.649-10.918-4.054-21.917-14.972-24.566-3.485-.845-10.123-1.004-13.351-.111" class="anim-color-2"/></g></g><g display="block"><path fill="#353535" d="M494.34 287.129c-5.846-.153-10.461-5.015-10.308-10.861l.207-7.939c.153-5.846 5.016-10.461 10.861-10.308 5.846.153 10.462 5.016 10.309 10.861l-.208 7.939c-.153 5.846-5.015 10.461-10.861 10.308z" class="anim-color-1"/><path fill="none" stroke="#353535" stroke-linecap="round" stroke-linejoin="round" stroke-width="2" d="M521.238 273.268c-.201 7.708-12.238 13.647-26.884 13.264-14.646-.383-26.356-6.942-26.155-14.65.202-7.708 12.239-13.647 26.885-13.264 14.646.382 26.356 6.942 26.154 14.65z" class="anim-color-1"/></g><g display="block"><path fill="#353535" d="M579.423 96.572h-.597c-35.48 0-69.114 10.039-97.457 27.358l.077.055v11.35h-11.35l-.81 12.16-15.404.811-2.432 8.918-7.916-2.436c-26.978 29.026-43.615 66.813-43.615 108.568 0 30.193 19.121 82.666 35.632 110.038 4.248 7.044 15.031 2.05 12.596-5.807-6.574-21.205-19.851-61.098-18.41-78.389 3.594-43.123 60.101-84.683 149.686-84.683 89.586 0 145.496 41.56 149.09 84.683 1.384 16.608-11.475 55.396-17.64 75.868-1.423 4.728 1.694 8.378 5.443 9.256 2.83.665 6.021-.252 7.89-3.477 15.643-26.992 34.125-78.226 34.125-107.489 0-93.208-82.734-166.784-178.908-166.784z" class="anim-color-1"/><path fill="#353535" d="M585.941 163.475c-165.761-3.047-156.204 125.723-156.204 125.723 3.594-43.123 60.101-84.683 149.686-84.683 89.585 0 145.497 41.56 149.09 84.683 0 0 19.637-122.741-142.572-125.723z" class="anim-color-1"/><path fill="none" stroke="#F3E7D6" stroke-linecap="round" stroke-linejoin="round" stroke-width="2" d="M585.941 163.475c-165.761-3.047-156.204 125.723-156.204 125.723 3.594-43.123 60.101-84.683 149.686-84.683 89.585 0 145.497 41.56 149.09 84.683 0 0 19.637-122.741-142.572-125.723z" class="anim-color-3"/></g><g display="block"><path fill="#FFEBD5" d="M773.027 519.667c53.33 36.664 73.328 96.66 103.326 209.986 5.985 22.607 14.736 49.252 24.643 77.696.004-.35-216.996.65-217.109 0-7.343-55.027-10.854-103.924-10.854-117.693" class="anim-color-2"/><path fill="none" stroke="#353535" stroke-linecap="round" stroke-linejoin="round" stroke-width="2" d="M773.027 519.667c53.33 36.664 73.328 96.66 103.326 209.986 5.985 22.607 14.736 49.252 24.643 77.696.004-.35-216.996.65-217.109 0-7.343-55.027-10.854-103.924-10.854-117.693" class="anim-color-1"/><path fill="#353535" d="M828.868 807.349c-10.624-46.299-16.183-78.812-17.258-84.421-.021-.114-.188-.101-.188.015.039 5.998.257 41.492.819 84.406h16.627z" class="anim-color-1"/><path fill="#FFEBD5" d="M376.432 758.795c-.717 22.753 24.567 48.554 24.567 48.554s-198.046.545-198.156 0c12.032-44.915 25.381-97.021 39.11-133.148C279.962 574.175 367.47 525.786 367.47 525.786s329.624 8.28 391.237 53.679" class="anim-color-2"/><path fill="none" stroke="#353535" stroke-linecap="round" stroke-linejoin="round" stroke-width="2" d="M376.432 758.795c-.717 22.753 24.567 48.554 24.567 48.554s-198.046.545-198.156 0c12.032-44.915 25.381-97.021 39.11-133.148C279.962 574.175 367.47 525.786 367.47 525.786s329.624 8.28 391.237 53.679" class="anim-color-1"/><path fill="#353535" d="M373.894 807.349c-2.568-35.949-5.528-69.034-5.528-69.034s-5.732 31.207-13.604 69.034h19.132z" class="anim-color-1"/><path fill="#FFEBD5" d="M812.009 721.34s5.957 35.279 14.438 86.009c.553-.093-469.447-.761-468.925 0 8.893-53.488 15.216-86.009 15.216-86.009" class="anim-color-2"/><path fill="none" stroke="#353535" stroke-linecap="round" stroke-linejoin="round" stroke-width="2" d="M812.009 721.34s5.957 35.279 14.438 86.009c.553-.093-469.447-.761-468.925 0 8.893-53.488 15.216-86.009 15.216-86.009" class="anim-color-1"/><path fill="#353535" d="M705.318 811.5c50.892-121.459 100.236-265.435 100.236-265.435l-134.032-59.791h-186.81l-118.385 38.064S433.08 682.265 498.551 811.5h206.767z" class="anim-color-1"/><path fill="#FFEBD5" d="M695.636 811.5c53.192-120.091 107.573-274.813 107.573-274.813s-36.394-26.942-72.552-42.751c-36.548-15.981-61.481-17.038-61.481-17.038h-186.81s-20.657.804-60.913 16.633c-23.9 9.398-56.749 30.807-56.749 30.807S438.572 687.267 507.337 811.5h188.299z" class="anim-color-2"/><path fill="none" stroke="#353535" stroke-linecap="round" stroke-linejoin="round" stroke-width="2" d="M695.636 811.5c53.192-120.091 107.573-274.813 107.573-274.813s-36.394-26.942-72.552-42.751c-36.548-15.981-61.481-17.038-61.481-17.038h-186.81s-20.657.804-60.913 16.633c-23.9 9.398-56.749 30.807-56.749 30.807S438.572 687.267 507.337 811.5h188.299z" class="anim-color-1"/><path fill="#353535" d="M291.48 591.156a52.175 52.175 0 0 1 12.302-1.463c28.755 0 52.065 23.311 52.065 52.066 0 28.754-23.31 52.064-52.065 52.064-25.859 0-47.315-18.853-51.373-43.563 0 0 8.488-18.11 19.306-33.07 10.817-14.96 19.765-26.034 19.765-26.034z" class="anim-color-1"/><path fill="none" stroke="#353535" stroke-linecap="round" stroke-linejoin="round" stroke-width="2" d="M302.179 579.149c.533-.013 1.068-.02 1.604-.02 34.589 0 62.629 28.041 62.629 62.629 0 34.589-28.04 62.629-62.629 62.629-26.36 0-48.917-16.286-58.157-39.344" class="anim-color-1"/><path fill="#FFEBD5" d="M344.603 625.224s-17.118 7.045-30.126.24c-13.009-6.805-16.982-24.885-16.982-24.885s16.706-6.26 29.715.545c13.009 6.806 17.393 24.1 17.393 24.1z" class="anim-color-2"/><path fill="none" stroke="#353535" stroke-linecap="round" stroke-linejoin="round" stroke-width="2" d="M344.603 625.224s-17.118 7.045-30.126.24c-13.009-6.805-16.982-24.885-16.982-24.885s16.706-6.26 29.715.545c13.009 6.806 17.393 24.1 17.393 24.1z" class="anim-color-1"/><g><path fill="#353535" d="M326.875 601.282s3.562 8.654.122 15.231c-3.441 6.577-12.581 8.585-12.581 8.585s-3.165-8.446.275-15.022c3.441-6.576 12.184-8.794 12.184-8.794z" class="anim-color-1"/></g><g><path fill="#FFEBD5" d="M309.194 681.374s-14.761 6.075-25.979.207c-11.218-5.869-14.645-21.459-14.645-21.459s14.407-5.398 25.624.47c11.218 5.869 15 20.782 15 20.782z" class="anim-color-2"/><path fill="none" stroke="#353535" stroke-linecap="round" stroke-linejoin="round" stroke-width="2" d="M309.194 681.374s-14.761 6.075-25.979.207c-11.218-5.869-14.645-21.459-14.645-21.459s14.407-5.398 25.624.47c11.218 5.869 15 20.782 15 20.782z" class="anim-color-1"/></g><g><path fill="#353535" d="M293.906 660.728s3.071 7.462.104 13.134c-2.966 5.671-10.848 7.403-10.848 7.403s-2.729-7.283.238-12.955c2.966-5.671 10.506-7.582 10.506-7.582z" class="anim-color-1"/></g><g><path fill="#FFEBD5" d="M325.165 653.455s-14.761 6.075-25.979.207c-11.218-5.869-14.645-21.459-14.645-21.459s14.407-5.398 25.624.47c11.218 5.869 15 20.782 15 20.782z" class="anim-color-2"/><path fill="none" stroke="#353535" stroke-linecap="round" stroke-linejoin="round" stroke-width="2" d="M325.165 653.455s-14.761 6.075-25.979.207c-11.218-5.869-14.645-21.459-14.645-21.459s14.407-5.398 25.624.47c11.218 5.869 15 20.782 15 20.782z" class="anim-color-1"/></g><g><path fill="#353535" d="M309.878 632.809s3.07 7.462.103 13.134c-2.966 5.671-10.847 7.403-10.847 7.403s-2.73-7.283.238-12.955c2.966-5.671 10.506-7.582 10.506-7.582z" class="anim-color-1"/></g></g><g clip-path="url(#d)" display="block"><g display="block"><path fill="#353535" d="M493.848 438.927s-14.668.482-22.222 13.333c-10.666 18.146 22.09 29.98 22.09 29.98l-26.535-9.98s-19.2 17.307-6.74 45.636c12.459 28.33 39.005 45.916 46.271 105.634 7.267 59.717 49.812 76.455 49.812 76.455s11.32 47.372 41.612 74.134c0 0 5.091-38.474 22.476-64.52 15.668-23.326 14.376-76.286 14.376-76.286s27-32.787 32.053-67.133c3.25-22.092-3.685-38.754-3.685-38.754s20.49-14.229 19.378-38.304c-1.045-22.637-20-51.11-20-51.11s-20.113 43.142-78.168 28.889c-63.088-15.756-90.718-27.974-90.718-27.974z" class="anim-color-1"/><path fill="none" stroke="#F3E7D6" stroke-linecap="round" stroke-linejoin="round" stroke-width="2" d="M493.848 438.927s-14.668.482-22.222 13.333c-10.666 18.146 22.09 29.98 22.09 29.98l-26.535-9.98s-19.2 17.307-6.74 45.636c12.459 28.33 39.005 45.916 46.271 105.634 7.267 59.717 49.812 76.455 49.812 76.455s11.32 47.372 41.612 74.134c0 0 5.091-38.474 22.476-64.52 15.668-23.326 14.376-76.286 14.376-76.286s27-32.787 32.053-67.133c3.25-22.092-3.685-38.754-3.685-38.754s20.49-14.229 19.378-38.304c-1.045-22.637-20-51.11-20-51.11s-20.113 43.142-78.168 28.889c-63.088-15.756-90.718-27.974-90.718-27.974z" class="anim-color-3"/><path fill="none" stroke="#FFEBD5" stroke-linecap="round" stroke-linejoin="round" stroke-width="2" d="M634.53 633.313s-9.477 7.863-18.842 8.305M662.899 527.425s-14.813 5.936-23.397 6.342" class="anim-color-2"/><g><path fill="none" stroke="#FFEBD5" stroke-linecap="round" stroke-linejoin="round" stroke-width="2" d="M556.185 699.93s4.999-.453 7.54-2.953" class="anim-color-2"/></g></g></g><g clip-path="url(#e)" display="block"><path fill="#353535" d="M659.939 448.448s-2.887-22.953 12.374-37.17c11.565-9.201 28.734-19.255 40.79-22.64 19.3-5.055 39.548 2.383 35.786 16.203-2.026 8.801-10.565 9.01-23.642 10.173-11.434 1.392-22.474 7.117-32.975 15.65-8.333 6.799-18.034 15.885-18.034 15.885" class="anim-color-1" display="block"/></g><g clip-path="url(#f)" display="block"><path fill="#353535" d="M662.388 441.096s32.548-8.907 54.829 4.557c11.224 7.502 25.723 23.915 29.736 33.69 8.245 23.277 10.453 48.03-3.269 54.53-17.311 7.95-22.703-8.988-28.795-23.907-4.95-11.49-11.543-27.725-19.988-36.259-14.789-15.583-28.436-21.592-28.436-21.592" class="anim-color-1" display="block"/></g></g></g></g></svg>