<svg  xmlns="http://www.w3.org/2000/svg" viewBox="0 0 559 390" width="559" height="390" preserveAspectRatio="xMidYMid meet" style="width:100%;height:100%;transform:translate3d(0,0,0);content-visibility:visible"><defs ><clipPath id="__vehicle__lottie_element__12"><path  d="M0 0h559v390H0z"></path></clipPath></defs><g  clip-path="url(#__vehicle__lottie_element__12)"><g  transform="translate(-.622 -.643)" opacity="1" style="display:block"><g  opacity="1"><path  stroke-linecap="round" stroke-linejoin="round" fill-opacity="0" class="anim-color-1" stroke="#353535" stroke-opacity="1" stroke-width="1" d="M12.19 292.112h536"></path></g><g  opacity="1" transform="translate(435.928 155.969)"><path  class="anim-color-3" fill="#F3E7D6" fill-opacity="1" d="M6.287 7.691C2.641 9.24-2.25 5.941-4.638.321-6.109-3.14-6.287-6.674-5.356-9.24"></path><path  stroke-linecap="round" stroke-linejoin="round" fill-opacity="0" class="anim-color-1" stroke="#353535" stroke-opacity="1" stroke-width="1" d="M6.287 7.691C2.641 9.24-2.25 5.941-4.638.321-6.109-3.14-6.287-6.674-5.356-9.24"></path></g><g  opacity="1" transform="translate(438.371 152.946)"><path  class="anim-color-1" fill="#353535" fill-opacity="1" d="M5.495-2.001c1.992 4.686 2.541 8.857.367 9.862-5.237 2.42-9.392.173-11.635-5.073C-8.037-2.513-6.19-7.323-1.349-9.109c3.174-1.171 4.853 2.422 6.844 7.108z"></path><path  stroke-linecap="round" stroke-linejoin="round" fill-opacity="0" class="anim-color-1" stroke="#353535" stroke-opacity="1" stroke-width="1" d="M5.495-2.001c1.992 4.686 2.541 8.857.367 9.862-5.237 2.42-9.392.173-11.635-5.073C-8.037-2.513-6.19-7.323-1.349-9.109c3.174-1.171 4.853 2.422 6.844 7.108z"></path></g><g  opacity="1" transform="translate(440.375 152.429)"><path  class="anim-color-2" fill="#FFEBD5" fill-opacity="1" d="M5.505-2.34C7.496 2.346 6.647 7.192 3.607 8.484c-3.04 1.292-7.12-1.46-9.111-6.146-1.991-4.686-1.14-9.532 1.9-10.824 3.039-1.291 7.118 1.46 9.109 6.146z"></path><path  stroke-linecap="round" stroke-linejoin="round" fill-opacity="0" class="anim-color-1" stroke="#353535" stroke-opacity="1" stroke-width="1" d="M5.505-2.34C7.496 2.346 6.647 7.192 3.607 8.484c-3.04 1.292-7.12-1.46-9.111-6.146-1.991-4.686-1.14-9.532 1.9-10.824 3.039-1.291 7.118 1.46 9.109 6.146z"></path></g><g  opacity="1" transform="translate(417.445 235.448)"><path  class="anim-color-1" fill="#353535" fill-opacity="1" d="M56.752 0c0 31.047-25.409 56.215-56.752 56.215-31.343 0-56.752-25.168-56.752-56.215 0-31.047 25.409-56.215 56.752-56.215 31.343 0 56.752 25.168 56.752 56.215z"></path><path  stroke-linecap="round" stroke-linejoin="round" fill-opacity="0" class="anim-color-1" stroke="#353535" stroke-opacity="1" stroke-width="1" d="M56.752 0c0 31.047-25.409 56.215-56.752 56.215-31.343 0-56.752-25.168-56.752-56.215 0-31.047 25.409-56.215 56.752-56.215 31.343 0 56.752 25.168 56.752 56.215z"></path></g><g  opacity="1" transform="translate(395.126 284.38)"><path  class="anim-color-1" fill="#353535" fill-opacity="1" d="M22.32 7.283H-2.172a13.482 13.482 0 0 1-9.53-3.948L-22.32-7.283 22.32 7.283z"></path><path  stroke-linecap="round" stroke-linejoin="round" fill-opacity="0" class="anim-color-1" stroke="#353535" stroke-opacity="1" stroke-width="1" d="M22.32 7.283H-2.172a13.482 13.482 0 0 1-9.53-3.948L-22.32-7.283 22.32 7.283z"></path></g><g  opacity="1" transform="translate(271.63 193.807)"><path  class="anim-color-1" fill="#353535" fill-opacity="1" d="m176.702-29.388 44.451 86.003-440.797.745s-1.51-24.491 4.935-35.893c4.478-7.923 7.6-10.521 7.6-10.521 3.307-4.352 67.633-59.878 132.578-64.092 64.945-4.214 251.233 23.758 251.233 23.758z"></path></g><g  opacity="1" transform="translate(487.82 262.434)"><path  class="anim-color-2" fill="#FFEBD5" fill-opacity="1" d="M-18.096-6.28C-12.74 6.892-3.35 16.317-3.35 16.317h25.42S12.68 6.892 7.325-6.28L3.859-16.317l-25.929 1.636"></path><path  stroke-linecap="round" stroke-linejoin="round" fill-opacity="0" class="anim-color-1" stroke="#353535" stroke-opacity="1" stroke-width="1" d="M-18.096-6.28C-12.74 6.892-3.35 16.317-3.35 16.317h25.42S12.68 6.892 7.325-6.28L3.859-16.317l-25.929 1.636"></path></g><g  opacity="1" transform="translate(472.393 255.712)"><path  class="anim-color-2" fill="#FFEBD5" fill-opacity="1" d="M.221 10.397h6.154S-8.522-4.557-11.492-23.118c0 0 2.816 24.527 6.713 33.894 3.897 9.368 6.102 11.895 6.102 11.895l10.169.447"></path><path  stroke-linecap="round" stroke-linejoin="round" fill-opacity="0" class="anim-color-1" stroke="#353535" stroke-opacity="1" stroke-width="1" d="M.221 10.397h6.154S-8.522-4.557-11.492-23.118c0 0 2.816 24.527 6.713 33.894 3.897 9.368 6.102 11.895 6.102 11.895l10.169.447"></path></g><g  opacity="1" transform="translate(495.255 249.351)"><path  class="anim-color-2" fill="#FFEBD5" fill-opacity="1" d="M-7.389 16.758H8.933S-5.964 1.804-8.933-16.757"></path><path  stroke-linecap="round" stroke-linejoin="round" fill-opacity="0" class="anim-color-1" stroke="#353535" stroke-opacity="1" stroke-width="1" d="M-7.389 16.758H8.933S-5.964 1.804-8.933-16.757"></path></g><g  opacity="1" transform="translate(101.073 251.84)"><path  class="anim-color-1" fill="#353535" fill-opacity="1" d="M39.427 0c0 21.993-17.652 39.822-39.427 39.822S-39.427 21.993-39.427 0c0-21.993 17.652-39.822 39.427-39.822S39.427-21.993 39.427 0z"></path><path  stroke-linecap="round" stroke-linejoin="round" fill-opacity="0" class="anim-color-1" stroke="#353535" stroke-opacity="1" stroke-width="1" d="M39.427 0c0 21.993-17.652 39.822-39.427 39.822S-39.427 21.993-39.427 0c0-21.993 17.652-39.822 39.427-39.822S39.427-21.993 39.427 0z"></path></g><g  opacity="1" transform="translate(89.918 251.84)"><path  class="anim-color-2" fill="#FFEBD5" fill-opacity="1" d="M39.427 0c0 21.993-17.652 39.822-39.427 39.822S-39.427 21.993-39.427 0c0-21.993 17.652-39.822 39.427-39.822S39.427-21.993 39.427 0z"></path><path  stroke-linecap="round" stroke-linejoin="round" fill-opacity="0" class="anim-color-1" stroke="#353535" stroke-opacity="1" stroke-width="1" d="M39.427 0c0 21.993-17.652 39.822-39.427 39.822S-39.427 21.993-39.427 0c0-21.993 17.652-39.822 39.427-39.822S39.427-21.993 39.427 0z"></path></g><g  opacity="1" transform="translate(89.918 251.841)"><path  class="anim-color-1" fill="#353535" fill-opacity="1" d="M21.821-.001c0 12.172-9.77 22.04-21.821 22.04-12.051 0-21.821-9.868-21.821-22.04 0-12.172 9.77-22.038 21.821-22.038 12.051 0 21.821 9.866 21.821 22.038z"></path><path  stroke-linecap="round" stroke-linejoin="round" fill-opacity="0" class="anim-color-3" stroke="#F3E7D6" stroke-opacity="1" stroke-width="1" d="M21.821-.001c0 12.172-9.77 22.04-21.821 22.04-12.051 0-21.821-9.868-21.821-22.04 0-12.172 9.77-22.038 21.821-22.038 12.051 0 21.821 9.866 21.821 22.038z"></path></g><g  opacity="1" transform="translate(89.918 251.84)"><path  class="anim-color-2" fill="#FFEBD5" fill-opacity="1" d="M8.746 0c0 4.879-3.915 8.833-8.745 8.833-4.83 0-8.747-3.954-8.747-8.833 0-4.878 3.917-8.833 8.747-8.833S8.746-4.878 8.746 0z"></path><path  stroke-linecap="round" stroke-linejoin="round" fill-opacity="0" class="anim-color-1" stroke="#353535" stroke-opacity="1" stroke-width="1" d="M8.746 0c0 4.879-3.915 8.833-8.745 8.833-4.83 0-8.747-3.954-8.747-8.833 0-4.878 3.917-8.833 8.747-8.833S8.746-4.878 8.746 0z"></path></g><g  opacity="1" transform="translate(276.788 171.988)"><path  class="anim-color-2" fill="#FFEBD5" fill-opacity="1" d="M173.558-3.972c-1.447-2.718-3.133-5.887-5.094-9.579a38.743 38.743 0 0 0-34.214-20.563H61.074s-10.117-8.252-17.419-17.669a69.956 69.956 0 0 0-55.264-27.082l-56.487-.011a109.096 109.096 0 0 0-88.096 44.749l-.01.013-22.372 8.894c-14.883 5.916-27.251 18.459-31.519 33.895-2.409 8.711-5.113 18.818-7.563 28.738 3.838-3.546 18.51-6.362 26.958-5.82 24.415 1.566 41.152 21.206 54.018 34.523 8.389 8.684 21.159 11.629 31.109 12.505h-7.478H15.732c6.092-2.277 26.523-10.879 41.031-39.894C72.765 6.722 98.686-4.653 120.291-4.697c23.763-.049 61.5 19.53 64.93 50.059 2.892 25.741 11.834 31.651 11.8 33.259l20.635.255s-8.745-14.953-10.488-33.514c-2.872-30.587-20.688-49.278-38.902-50.059-3.389-.145-11.616.162-16.781.053"></path><path  stroke-linecap="round" stroke-linejoin="round" fill-opacity="0" class="anim-color-1" stroke="#353535" stroke-opacity="1" stroke-width="1" d="M173.558-3.972c-1.447-2.718-3.133-5.887-5.094-9.579a38.743 38.743 0 0 0-34.214-20.563H61.074s-10.117-8.252-17.419-17.669a69.956 69.956 0 0 0-55.264-27.082l-56.487-.011a109.096 109.096 0 0 0-88.096 44.749l-.01.013-22.372 8.894c-14.883 5.916-27.251 18.459-31.519 33.895-2.409 8.711-5.113 18.818-7.563 28.738 3.838-3.546 18.51-6.362 26.958-5.82 24.415 1.566 41.152 21.206 54.018 34.523 8.389 8.684 21.159 11.629 31.109 12.505h-7.478H15.732c6.092-2.277 26.523-10.879 41.031-39.894C72.765 6.722 98.686-4.653 120.291-4.697c23.763-.049 61.5 19.53 64.93 50.059 2.892 25.741 11.834 31.651 11.8 33.259l20.635.255s-8.745-14.953-10.488-33.514c-2.872-30.587-20.688-49.278-38.902-50.059-3.389-.145-11.616.162-16.781.053"></path></g><g  opacity="1" transform="translate(161.343 194.018)"><path  class="anim-color-1" fill="#353535" fill-opacity="1" d="m-97.914-1.612-1.115 3.224L99.029-1.487l-196.943-.125z"></path></g><g  opacity="1" transform="translate(174.295 206.895)"><path  class="anim-color-1" fill="#353535" fill-opacity="1" d="M-74.096 1.598 78.393-1.598H-78.393l4.297 3.196z"></path></g><g  opacity="1" transform="translate(447.434 209.005)"><path  class="anim-color-1" fill="#353535" fill-opacity="1" d="m1.091 41.604 49.636.255S41.983 26.906 40.239 8.345C37.367-22.242 19.551-40.934 1.337-41.714c-3.388-.145-46.872.109-52.036 0h-.028c18.214.78 37.861 19.355 38.902 50.059.848 25 11.834 31.651 11.8 33.259h50.752"></path><path  stroke-linecap="round" stroke-linejoin="round" fill-opacity="0" class="anim-color-1" stroke="#353535" stroke-opacity="1" stroke-width="1" d="m1.091 41.604 49.636.255S41.983 26.906 40.239 8.345C37.367-22.242 19.551-40.934 1.337-41.714c-3.388-.145-46.872.109-52.036 0h-.028c18.214.78 37.861 19.355 38.902 50.059.848 25 11.834 31.651 11.8 33.259h50.752"></path></g><g  opacity="1" transform="translate(478.835 205.932)"><path  class="anim-color-1" fill="#353535" fill-opacity="1" d="M9.804-2.909c3.393 11.433 1.754 22.003-3.661 23.61C.728 22.308-6.412 14.342-9.804 2.909c-3.393-11.432-1.754-22.003 3.661-23.61C-.728-22.308 6.411-14.342 9.804-2.909z"></path><path  stroke-linecap="round" stroke-linejoin="round" fill-opacity="0" class="anim-color-2" stroke="#FFEBD5" stroke-opacity="1" stroke-width="1" d="M9.804-2.909c3.393 11.433 1.754 22.003-3.661 23.61C.728 22.308-6.412 14.342-9.804 2.909c-3.393-11.432-1.754-22.003 3.661-23.61C-.728-22.308 6.411-14.342 9.804-2.909z"></path></g><g  opacity="1" transform="translate(479.697 205.503)"><path  class="anim-color-2" fill="#FFEBD5" fill-opacity="1" d="M6.956-1.892c2.398 8.082 3.004 14.903.266 15.844C.622 16.219-4.53 11.37-7.232 2.318-9.96-6.829-7.554-13.94-1.464-15.317c3.992-.903 6.022 5.342 8.42 13.425z"></path><path  stroke-linecap="round" stroke-linejoin="round" fill-opacity="0" class="anim-color-2" stroke="#FFEBD5" stroke-opacity="1" stroke-width="1" d="M6.956-1.892c2.398 8.082 3.004 14.903.266 15.844C.622 16.219-4.53 11.37-7.232 2.318-9.96-6.829-7.554-13.94-1.464-15.317c3.992-.903 6.022 5.342 8.42 13.425z"></path></g><g  opacity="1" transform="translate(482.258 204.916)"><path  class="anim-color-1" fill="#353535" fill-opacity="1" d="M6.932-2.057C9.33 6.026 8.171 13.499 4.344 14.634.516 15.77-4.533 10.139-6.931 2.057-9.33-6.026-8.17-13.498-4.341-14.635-.514-15.77 4.534-10.139 6.932-2.057z"></path><path  stroke-linecap="round" stroke-linejoin="round" fill-opacity="0" class="anim-color-2" stroke="#FFEBD5" stroke-opacity="1" stroke-width="1" d="M6.932-2.057C9.33 6.026 8.171 13.499 4.344 14.634.516 15.77-4.533 10.139-6.931 2.057-9.33-6.026-8.17-13.498-4.341-14.635-.514-15.77 4.534-10.139 6.932-2.057z"></path></g><g  opacity="1" transform="translate(484.277 237.312)"><path  class="anim-color-2" fill="#FFEBD5" fill-opacity="1" d="M3.801 5.747H1.838A5.638 5.638 0 0 1-3.801.109v-.216a5.64 5.64 0 0 1 5.639-5.64h1.963V5.747z"></path><path  stroke-linecap="round" stroke-linejoin="round" fill-opacity="0" class="anim-color-2" stroke="#FFEBD5" stroke-opacity="1" stroke-width="1" d="M3.801 5.747H1.838A5.638 5.638 0 0 1-3.801.109v-.216a5.64 5.64 0 0 1 5.639-5.64h1.963V5.747z"></path></g><g  opacity="1" transform="translate(488.916 237.312)"><path  class="anim-color-1" fill="#353535" fill-opacity="1" d="M0 5.747A5.59 5.59 0 0 1-5.59.158v-.314a5.59 5.59 0 1 1 11.18 0v.314A5.589 5.589 0 0 1 0 5.747z"></path><path  stroke-linecap="round" stroke-linejoin="round" fill-opacity="0" class="anim-color-2" stroke="#FFEBD5" stroke-opacity="1" stroke-width="1" d="M0 5.747s0 0 0 0A5.59 5.59 0 0 1-5.59.158v-.314a5.59 5.59 0 1 1 11.18 0v.314A5.589 5.589 0 0 1 0 5.747z"></path></g><g  opacity="1" transform="translate(363.038 130.801)"><path  class="anim-color-2" fill="#FFEBD5" fill-opacity="1" d="M-46.768-13.49h59.322c14.33 0 27.49 7.909 34.214 20.563l-77.837 6.417"></path></g><g  opacity="1" transform="translate(363.038 127.593)"><path  class="anim-color-2" fill="#FFEBD5" fill-opacity="1" d="M-46.768-10.281h59.322c14.33 0 27.49 7.908 34.214 20.562"></path><path  stroke-linecap="round" stroke-linejoin="round" fill-opacity="0" class="anim-color-1" stroke="#353535" stroke-opacity="1" stroke-width="1" d="M-46.768-10.281h59.322c14.33 0 27.49 7.908 34.214 20.562"></path></g><g  opacity="1" transform="translate(195.64 178.874)"><path  class="anim-color-2" fill="#FFEBD5" fill-opacity="1" d="M-111.616-13.538c-9.894 3.419-18.85 12.903-23.542 27.076h270.316"></path><path  stroke-linecap="round" stroke-linejoin="round" fill-opacity="0" class="anim-color-1" stroke="#353535" stroke-opacity="1" stroke-width="1" d="M-111.616-13.538c-9.894 3.419-18.85 12.903-23.542 27.076h270.316"></path></g><g  opacity="1" transform="translate(166.81 181.004)"><path  class="anim-color-1" fill="#353535" fill-opacity="1" d="m-100.034-1.611-2.231 3.222 204.531-3.098-202.3-.124z"></path></g><g  opacity="1" transform="translate(201.961 165.163)"><path  class="anim-color-2" fill="#FFEBD5" fill-opacity="1" d="M-106.994-14.235c-12.585.54-24.952 10.903-30.768 28.47h275.524"></path><path  stroke-linecap="round" stroke-linejoin="round" fill-opacity="0" class="anim-color-1" stroke="#353535" stroke-opacity="1" stroke-width="1" d="M-106.994-14.235c-12.585.54-24.952 10.903-30.768 28.47h275.524"></path></g><g  opacity="1"><path  class="anim-color-3" fill="#F3E7D6" fill-opacity="1" d="M94.69 205.424h229.044"></path><path  stroke-linecap="round" stroke-linejoin="round" fill-opacity="0" class="anim-color-1" stroke="#353535" stroke-opacity="1" stroke-width="1" d="M94.69 205.424h229.044"></path></g><g  opacity="1" transform="translate(186.194 219.537)"><path  class="anim-color-1" fill="#353535" fill-opacity="1" d="M-62.569 1.597 66.494-1.597H-66.494l3.925 3.194z"></path></g><g  opacity="1"><path  class="anim-color-3" fill="#F3E7D6" fill-opacity="1" d="M119.602 218.067H312.58"></path><path  stroke-linecap="round" stroke-linejoin="round" fill-opacity="0" class="anim-color-1" stroke="#353535" stroke-opacity="1" stroke-width="1" d="M119.602 218.067H312.58"></path></g><g  opacity="1" transform="translate(124.436 152.086)"><path  class="anim-color-2" fill="#FFEBD5" fill-opacity="1" d="M-3.498-14.171c-4.496.095-19.304-.126-22.253 0-12.585.539-24.951 10.902-30.767 28.468H56.518"></path><path  stroke-linecap="round" stroke-linejoin="round" fill-opacity="0" class="anim-color-1" stroke="#353535" stroke-opacity="1" stroke-width="1" d="M-3.498-14.171c-4.496.095-19.304-.126-22.253 0-12.585.539-24.951 10.902-30.767 28.468H56.518"></path></g><g  opacity="1"><path  class="anim-color-3" fill="#F3E7D6" fill-opacity="1" d="M192.907 137.874h-71.765"></path><path  stroke-linecap="round" stroke-linejoin="round" fill-opacity="0" class="anim-color-1" stroke="#353535" stroke-opacity="1" stroke-width="1" d="M192.907 137.874h-71.765"></path></g><g  opacity="1"><path  class="anim-color-3" fill="#F3E7D6" fill-opacity="1" d="M350.878 137.874h-78.4"></path><path  stroke-linecap="round" stroke-linejoin="round" fill-opacity="0" class="anim-color-1" stroke="#353535" stroke-opacity="1" stroke-width="1" d="M350.878 137.874h-78.4"></path></g><g  opacity="1"><path  class="anim-color-3" fill="#F3E7D6" fill-opacity="1" d="M201.087 137.874h47.589"></path><path  stroke-linecap="round" stroke-linejoin="round" fill-opacity="0" class="anim-color-1" stroke="#353535" stroke-opacity="1" stroke-width="1" d="M201.087 137.874h47.589"></path></g><g  opacity="1" transform="translate(80.008 132.653)"><path  class="anim-color-1" fill="#353535" fill-opacity="1" d="M-5.949-.388s1.054-1.833 5.887-1.92c5.206-.093 6.011 1.92 6.011 1.92S5.578 2.401.62 2.401-5.949-.388-5.949-.388z"></path><path  stroke-linecap="round" stroke-linejoin="round" fill-opacity="0" class="anim-color-1" stroke="#353535" stroke-opacity="1" stroke-width="1" d="M-5.949-.388s1.054-1.833 5.887-1.92c5.206-.093 6.011 1.92 6.011 1.92S5.578 2.401.62 2.401-5.949-.388-5.949-.388z"></path></g><g  opacity="1" transform="translate(80.192 126.681)"><path  class="anim-color-1" fill="#353535" fill-opacity="1" d="M-4.37-.285s.774-1.347 4.324-1.41C3.777-1.763 4.37-.285 4.37-.285S4.097 1.763.456 1.763c-3.642 0-4.826-2.048-4.826-2.048z"></path><path  stroke-linecap="round" stroke-linejoin="round" fill-opacity="0" class="anim-color-1" stroke="#353535" stroke-opacity="1" stroke-width="1" d="M-4.37-.285s.774-1.347 4.324-1.41C3.777-1.763 4.37-.285 4.37-.285S4.097 1.763.456 1.763c-3.642 0-4.826-2.048-4.826-2.048z"></path></g><g  opacity="1" transform="translate(80.192 133.727)"><path  class="anim-color-2" fill="#FFEBD5" fill-opacity="1" d="M4.37 7.331V-7.331S2.912-6.284-.001-6.193C-2.639-6.11-4.37-7.331-4.37-7.331V7.331"></path><path  stroke-linecap="round" stroke-linejoin="round" fill-opacity="0" class="anim-color-1" stroke="#353535" stroke-opacity="1" stroke-width="1" d="M4.37 7.331V-7.331S2.912-6.284-.001-6.193C-2.639-6.11-4.37-7.331-4.37-7.331V7.331"></path></g><g  opacity="1" transform="translate(130.666 142.739)"><path  class="anim-color-2" fill="#FFEBD5" fill-opacity="1" d="M-28.225-1.425h-16.484v-9.048s-1.983 1.425-5.95 1.549c-3.592.113-5.949-1.549-5.949-1.549V3.812a6.662 6.662 0 0 0 6.662 6.661H56.608"></path><path  stroke-linecap="round" stroke-linejoin="round" fill-opacity="0" class="anim-color-1" stroke="#353535" stroke-opacity="1" stroke-width="1" d="M-28.225-1.425h-16.484v-9.048s-1.983 1.425-5.95 1.549c-3.592.113-5.949-1.549-5.949-1.549V3.812a6.662 6.662 0 0 0 6.662 6.661H56.608"></path></g><g  opacity="1" transform="translate(98.877 154.605)"><path  class="anim-color-1" fill="#353535" fill-opacity="1" d="m-24.665-1.612-2.231 3.224 53.792-2.728-51.561-.496z"></path></g><g  opacity="1" transform="translate(95.716 167.804)"><path  class="anim-color-1" fill="#353535" fill-opacity="1" d="m-25.222-1.426-1.859 2.852 54.162-2.727-52.303-.125z"></path></g><g  opacity="1" transform="translate(421.799 155.969)"><path  class="anim-color-3" fill="#F3E7D6" fill-opacity="1" d="M6.287 7.691C2.641 9.24-2.25 5.941-4.639.321c-1.47-3.461-1.648-6.995-.717-9.561"></path><path  stroke-linecap="round" stroke-linejoin="round" fill-opacity="0" class="anim-color-1" stroke="#353535" stroke-opacity="1" stroke-width="1" d="M6.287 7.691C2.641 9.24-2.25 5.941-4.639.321c-1.47-3.461-1.648-6.995-.717-9.561"></path></g><g  opacity="1" transform="translate(424.241 152.946)"><path  class="anim-color-1" fill="#353535" fill-opacity="1" d="M5.495-2.001c1.991 4.686 2.541 8.857.368 9.862-5.238 2.42-9.393.173-11.635-5.073-2.264-5.301-.417-10.111 4.424-11.897 3.173-1.171 4.852 2.422 6.843 7.108z"></path><path  stroke-linecap="round" stroke-linejoin="round" fill-opacity="0" class="anim-color-1" stroke="#353535" stroke-opacity="1" stroke-width="1" d="M5.495-2.001c1.991 4.686 2.541 8.857.368 9.862-5.238 2.42-9.393.173-11.635-5.073-2.264-5.301-.417-10.111 4.424-11.897 3.173-1.171 4.852 2.422 6.843 7.108z"></path></g><g  opacity="1" transform="translate(426.246 152.429)"><path  class="anim-color-2" fill="#FFEBD5" fill-opacity="1" d="M5.504-2.34C7.495 2.346 6.645 7.192 3.605 8.484c-3.04 1.292-7.118-1.46-9.109-6.146-1.991-4.686-1.141-9.532 1.899-10.824 3.04-1.291 7.117 1.46 9.109 6.146z"></path><path  stroke-linecap="round" stroke-linejoin="round" fill-opacity="0" class="anim-color-1" stroke="#353535" stroke-opacity="1" stroke-width="1" d="M5.504-2.34C7.495 2.346 6.645 7.192 3.605 8.484c-3.04 1.292-7.118-1.46-9.109-6.146-1.991-4.686-1.141-9.532 1.899-10.824 3.04-1.291 7.117 1.46 9.109 6.146z"></path></g><g  opacity="1" transform="translate(412.547 108.601)"><path  class="anim-color-1" fill="#353535" fill-opacity="1" d="M.862-2.72s.547.653.547 2.538c0 2.134-.547 2.902-.547 2.902S-1.239 2.635-1.324.245C-1.409-2.145.862-2.72.862-2.72z"></path><path  stroke-linecap="round" stroke-linejoin="round" fill-opacity="0" class="anim-color-1" stroke="#353535" stroke-opacity="1" stroke-width="1" d="M.862-2.72s.547.653.547 2.538c0 2.134-.547 2.902-.547 2.902S-1.239 2.635-1.324.245C-1.409-2.145.862-2.72.862-2.72z"></path></g><g  opacity="1" transform="translate(397.125 108.648)"><path  class="anim-color-1" fill="#353535" fill-opacity="1" d="M.355-5.463s1.686.968 1.766 5.406C2.206 4.722.355 5.463.355 5.463s-2.56-.343-2.56-4.895S.355-5.463.355-5.463z"></path><path  stroke-linecap="round" stroke-linejoin="round" fill-opacity="0" class="anim-color-1" stroke="#353535" stroke-opacity="1" stroke-width="1" d="M.355-5.463s1.686.968 1.766 5.406C2.206 4.722.355 5.463.355 5.463s-2.56-.343-2.56-4.895S.355-5.463.355-5.463z"></path></g><g  opacity="1" transform="translate(403.546 108.601)"><path  class="anim-color-1" fill="#353535" fill-opacity="1" d="M.262-4.01s1.235.71 1.294 3.968C1.618 3.467.262 4.01.262 4.01s-1.88-.25-1.88-3.592S.262-4.01.262-4.01z"></path><path  stroke-linecap="round" stroke-linejoin="round" fill-opacity="0" class="anim-color-1" stroke="#353535" stroke-opacity="1" stroke-width="1" d="M.262-4.01s1.235.71 1.294 3.968C1.618 3.467.262 4.01.262 4.01s-1.88-.25-1.88-3.592S.262-4.01.262-4.01z"></path></g><g  opacity="1" transform="translate(396.748 108.601)"><path  class="anim-color-2" fill="#FFEBD5" fill-opacity="1" d="M.961 4.01H7.06S6.099 2.674 6.016 0C5.94-2.422 7.06-4.01 7.06-4.01h-9.628A4.49 4.49 0 0 0-7.06.48"></path><path  stroke-linecap="round" stroke-linejoin="round" fill-opacity="0" class="anim-color-1" stroke="#353535" stroke-opacity="1" stroke-width="1" d="M.961 4.01H7.06S6.099 2.674 6.016 0C5.94-2.422 7.06-4.01 7.06-4.01h-9.628A4.49 4.49 0 0 0-7.06.48"></path></g><g  opacity="1" transform="translate(402.603 108.049)"><path  class="anim-color-1" fill="#353535" fill-opacity="1" d="M.427-3.3c-2.561 2.134-3.073 7.853-3.073 7.853h5.292S1.931-4.553.427-3.3z"></path></g><g  opacity="1" transform="translate(387.865 113.143)"><path  class="anim-color-2" fill="#FFEBD5" fill-opacity="1" d="M1.309 9.957V.967h8.307S8.307-.853 8.194-4.495C8.09-7.793 9.616-9.957 9.616-9.957H-3.5A6.117 6.117 0 0 0-9.616-3.84V9.957"></path><path  stroke-linecap="round" stroke-linejoin="round" fill-opacity="0" class="anim-color-1" stroke="#353535" stroke-opacity="1" stroke-width="1" d="M1.309 9.957V.967h8.307S8.307-.853 8.194-4.495C8.09-7.793 9.616-9.957 9.616-9.957H-3.5A6.117 6.117 0 0 0-9.616-3.84V9.957"></path></g><g  opacity="1" transform="translate(407.77 108.601)"><path  class="anim-color-2" fill="#FFEBD5" fill-opacity="1" d="M5.639 2.719a3.29 3.29 0 0 1 0-5.438 5.964 5.964 0 0 0-5.31-3.25A5.968 5.968 0 0 0-5.639 0 5.965 5.965 0 0 0 5.639 2.719z"></path><path  stroke-linecap="round" stroke-linejoin="round" fill-opacity="0" class="anim-color-1" stroke="#353535" stroke-opacity="1" stroke-width="1" d="M5.639 2.719a3.29 3.29 0 0 1 0-5.438 5.964 5.964 0 0 0-5.31-3.25A5.968 5.968 0 0 0-5.639 0 5.965 5.965 0 0 0 5.639 2.719z"></path></g><g  opacity="1"><path  class="anim-color-3" fill="#F3E7D6" fill-opacity="1" d="M409.807 137.874h-7.189"></path><path  stroke-linecap="round" stroke-linejoin="round" fill-opacity="0" class="anim-color-1" stroke="#353535" stroke-opacity="1" stroke-width="1" d="M409.807 137.874h-7.189"></path></g><g  opacity="1" transform="translate(178.48 106.918)"><path  class="anim-color-1" fill="#353535" fill-opacity="1" d="M28.35-10.517h-7.438c-15.255-.001-37.286 8.536-47.84 19.552l-1.422 1.483h47.7l9-21.035z"></path><path  stroke-linecap="round" stroke-linejoin="round" fill-opacity="0" class="anim-color-3" stroke="#F3E7D6" stroke-opacity="1" stroke-width="1" d="M28.35-10.517h-7.438c-15.255-.001-37.286 8.536-47.84 19.552l-1.422 1.483h47.7l9-21.035z"></path></g><g  opacity="1" transform="translate(251.386 106.733)"><path  class="anim-color-1" fill="#353535" fill-opacity="1" d="m-29.532-10.703 51.366.001a16.452 16.452 0 0 1 11.684 4.874l16.368 16.531h-99.772l5.397-11.802a16.447 16.447 0 0 1 14.957-9.604z"></path><path  stroke-linecap="round" stroke-linejoin="round" fill-opacity="0" class="anim-color-3" stroke="#F3E7D6" stroke-opacity="1" stroke-width="1" d="m-29.532-10.703 51.366.001a16.452 16.452 0 0 1 11.684 4.874l16.368 16.531h-99.772l5.397-11.802a16.447 16.447 0 0 1 14.957-9.604z"></path></g><g  opacity="1" transform="translate(306.421 109.025)"><path  class="anim-color-1" fill="#353535" fill-opacity="1" d="M-9.775-8.411c-1.976 3.393-1.848 7.979 1.423 11.268l5.525 5.554h14.578A69.922 69.922 0 0 0-9.775-8.411z"></path></g><g  opacity="1" transform="translate(260.634 144.791)"><path  class="anim-color-1" fill="#353535" fill-opacity="1" d="M-.035-8.588c-4.209.04-7.619.29-7.58 4.499.027 2.761 1.523 5.744 3.738 7.459a2.46 2.46 0 0 0 2.222 2.227l.005.422-.33.004c-.661.007-1.193.594-1.186 1.31.007.718.55 1.293 1.211 1.287l4.164-.039c.662-.006 1.193-.593 1.186-1.31-.006-.717-.549-1.293-1.211-1.287l-.329.002-.003-.423a2.46 2.46 0 0 0 2.18-2.267c2.183-1.757 3.623-4.769 3.597-7.53-.04-4.21-3.454-4.393-7.664-4.354zM-2.934.696c-1.421.014-2.597-2.598-2.61-4.018A2.573 2.573 0 1 1-.4-3.372C-.387-1.951-1.513.683-2.934.696zM3.038.639C1.618.652.441-1.959.428-3.38a2.573 2.573 0 0 1 5.144-.048C5.585-2.007 4.459.625 3.038.639z"></path></g><g  opacity="1" transform="translate(395.879 235.448)"><path  class="anim-color-2" fill="#FFEBD5" fill-opacity="1" d="M56.751 0c0 31.047-25.407 56.215-56.75 56.215-31.344 0-56.752-25.168-56.752-56.215 0-31.047 25.408-56.215 56.752-56.215 31.343 0 56.75 25.168 56.75 56.215z"></path><path  stroke-linecap="round" stroke-linejoin="round" fill-opacity="0" class="anim-color-1" stroke="#353535" stroke-opacity="1" stroke-width="1" d="M56.751 0c0 31.047-25.407 56.215-56.75 56.215-31.344 0-56.752-25.168-56.752-56.215 0-31.047 25.408-56.215 56.752-56.215 31.343 0 56.75 25.168 56.75 56.215z"></path></g><g  opacity="1" transform="translate(395.88 235.448)"><path  class="anim-color-1" fill="#353535" fill-opacity="1" d="M31.409 0c0 17.183-14.063 31.112-31.409 31.112-17.348 0-31.409-13.929-31.409-31.112 0-17.184 14.061-31.112 31.409-31.112 17.346 0 31.409 13.928 31.409 31.112z"></path><path  stroke-linecap="round" stroke-linejoin="round" fill-opacity="0" class="anim-color-3" stroke="#F3E7D6" stroke-opacity="1" stroke-width="1" d="M31.409 0c0 17.183-14.063 31.112-31.409 31.112-17.348 0-31.409-13.929-31.409-31.112 0-17.184 14.061-31.112 31.409-31.112 17.346 0 31.409 13.928 31.409 31.112z"></path></g><g  opacity="1" transform="translate(395.879 235.447)"><path  class="anim-color-2" fill="#FFEBD5" fill-opacity="1" d="M12.589 0c0 6.887-5.637 12.469-12.589 12.469-6.953 0-12.589-5.582-12.589-12.469S-6.953-12.469 0-12.469c6.952 0 12.589 5.582 12.589 12.469z"></path><path  stroke-linecap="round" stroke-linejoin="round" fill-opacity="0" class="anim-color-1" stroke="#353535" stroke-opacity="1" stroke-width="1" d="M12.589 0c0 6.887-5.637 12.469-12.589 12.469-6.953 0-12.589-5.582-12.589-12.469S-6.953-12.469 0-12.469c6.952 0 12.589 5.582 12.589 12.469z"></path></g><g  opacity="1" transform="translate(425.371 195.288)"><path  stroke-linecap="round" stroke-linejoin="round" fill-opacity="0" class="anim-color-3" stroke="#F3E7D6" stroke-opacity="1" stroke-width="1" d="M-32.297-25.172C-1.264-29.57 27.941-1.17 32.297 29.57"></path></g></g></g></svg>