<svg  xmlns="http://www.w3.org/2000/svg" viewBox="0 0 666 979" width="666" height="979" preserveAspectRatio="xMidYMid meet" style="width:100%;height:100%;transform:translate3d(0,0,0);content-visibility:visible"><defs ><clipPath id="__character__lottie_element_2"><path  d="M0 0h666v979H0z"></path></clipPath></defs><g  clip-path="url(#__character__lottie_element_2)"><g  transform="translate(-.236 -.428)" opacity="1" style="display:block"><g  opacity="1" transform="translate(334.091 622.573)"><path  class="anim-color-1" fill="#353535" fill-opacity="1" d="m218.096 204.854-61.27 38.784a38.398 38.398 0 0 1-20.541 5.955h-290.96a38.408 38.408 0 0 1-24.488-8.819l-41.045-33.974a38.403 38.403 0 0 1-12.531-19.361l-39.385-142.601a38.408 38.408 0 0 1 .79-22.967l60.947-173.254a38.404 38.404 0 0 1 19.955-22.042l151.662-70.95a38.406 38.406 0 0 1 34.907 1.206l221.499 122.9a38.404 38.404 0 0 1 17.944 21.877L271.792 14.77a38.41 38.41 0 0 1 .609 21.301l-37.659 145.93a38.406 38.406 0 0 1-16.646 22.853z"></path></g><g  opacity="1" transform="translate(148.456 813.547)"><path  class="anim-color-2" fill="#FFEBD5" fill-opacity="1" d="M-58.761 58.619V-8.588c0-27.632 22.399-50.031 50.031-50.031H8.73c27.631 0 50.031 22.399 50.031 50.031v67.207"></path><path  stroke-linecap="round" stroke-linejoin="round" fill-opacity="0" class="anim-color-1" stroke="#353535" stroke-opacity="1" stroke-width="1" d="M-58.761 58.619V-8.588c0-27.632 22.399-50.031 50.031-50.031H8.73c27.631 0 50.031 22.399 50.031 50.031v67.207"></path></g><g  opacity="1" transform="translate(195.493 852.059)"><path  class="anim-color-2" fill="#FFEBD5" fill-opacity="1" d="M-20.156 20.107V-2.946c0-9.477 7.684-17.161 17.161-17.161h5.989c9.478 0 17.162 7.684 17.162 17.161v23.053"></path><path  stroke-linecap="round" stroke-linejoin="round" fill-opacity="0" class="anim-color-1" stroke="#353535" stroke-opacity="1" stroke-width="1" d="M-20.156 20.107V-2.946c0-9.477 7.684-17.161 17.161-17.161h5.989c9.478 0 17.162 7.684 17.162 17.161v23.053"></path></g><g  opacity="1" transform="translate(98.164 862.328)"><path  class="anim-color-2" fill="#FFEBD5" fill-opacity="1" d="M-23.109 9.838c0-10.867 8.808-19.676 19.675-19.676h6.866c10.867 0 19.677 8.809 19.677 19.676"></path><path  stroke-linecap="round" stroke-linejoin="round" fill-opacity="0" class="anim-color-1" stroke="#353535" stroke-opacity="1" stroke-width="1" d="M-23.109 9.838c0-10.867 8.808-19.676 19.675-19.676h6.866c10.867 0 19.677 8.809 19.677 19.676"></path></g><g  opacity="1" transform="translate(199.018 233.271)"><path  class="anim-color-2" fill="#FFEBD5" fill-opacity="1" d="m3.766-20.118 4.145 33.361-15.822 6.875"></path><path  stroke-linecap="round" stroke-linejoin="round" fill-opacity="0" class="anim-color-1" stroke="#353535" stroke-opacity="1" stroke-width="1" d="m3.766-20.118 4.145 33.361-15.822 6.875"></path></g><g  opacity="1" transform="translate(200.196 237.676)"><path  class="anim-color-2" fill="#FFEBD5" fill-opacity="1" d="m-3.344 8.505 6.688-2.907L1.592-8.505l-4.936 17.01z"></path><path  stroke-linecap="round" stroke-linejoin="round" fill-opacity="0" class="anim-color-1" stroke="#353535" stroke-opacity="1" stroke-width="1" d="m-3.344 8.505 6.688-2.907L1.592-8.505l-4.936 17.01z"></path></g><g  opacity="1" transform="translate(200.566 239.313)"><path  class="anim-color-1" fill="#353535" fill-opacity="1" d="m-1.721 4.378 3.442-1.496-.902-7.26-2.54 8.756z"></path></g><g  opacity="1" transform="translate(183.714 233.184)"><path  class="anim-color-2" fill="#FFEBD5" fill-opacity="1" d="M7.393 20.206-18.864-2.243l37.728-17.963L7.393 20.206z"></path><path  stroke-linecap="round" stroke-linejoin="round" fill-opacity="0" class="anim-color-1" stroke="#353535" stroke-opacity="1" stroke-width="1" d="M7.393 20.206-18.864-2.243l37.728-17.963L7.393 20.206z"></path></g><g  opacity="1" transform="translate(207.02 226.746)"><path  class="anim-color-3" fill="#F3E7D6" fill-opacity="1" d="M-5.773 14.293 5.773-14.293"></path><path  stroke-linecap="round" stroke-linejoin="round" fill-opacity="0" class="anim-color-1" stroke="#353535" stroke-opacity="1" stroke-width="1" d="M-5.773 14.293 5.773-14.293"></path></g><g  opacity="1" transform="translate(212.117 214.839)"><path  class="anim-color-1" fill="#353535" fill-opacity="1" d="M3.403 1.499C2.517 3.508.276 4.466-1.603 3.638-3.483 2.81-4.288.509-3.403-1.5c.886-2.009 3.127-2.966 5.006-2.138 1.88.828 2.685 3.127 1.8 5.137z"></path></g><g  opacity="1" transform="translate(279.275 308.767)"><path  class="anim-color-2" fill="#FFEBD5" fill-opacity="1" d="m46.409-33.464-40.77 82.52c-7.091 14.38-17.376 21.477-31.757 14.385-14.381-7.091-20.291-24.497-13.2-38.878l36.023-74.806c7.091-14.381 24.497-20.29 38.878-13.199"></path><path  stroke-linecap="round" stroke-linejoin="round" fill-opacity="0" class="anim-color-1" stroke="#353535" stroke-opacity="1" stroke-width="1" d="m46.409-33.464-40.77 82.52c-7.091 14.38-17.376 21.477-31.757 14.385-14.381-7.091-20.291-24.497-13.2-38.878l36.023-74.806c7.091-14.381 24.497-20.29 38.878-13.199"></path></g><g  opacity="1" transform="translate(182.549 259.43)"><path  class="anim-color-3" fill="#F3E7D6" fill-opacity="1" d="m.979 13.521-4.191-4.61-4.551-10.298.996-12.134L7.763-9.89.979 13.521z"></path></g><g  opacity="1" transform="translate(225.83 313.27)"><path  class="anim-color-2" fill="#FFEBD5" fill-opacity="1" d="m37.862-12.657-23-24.29C4.281-48.584-13.73-49.441-25.367-38.86c-11.638 10.58-12.495 28.592-1.915 40.229l43.707 48.072"></path><path  stroke-linecap="round" stroke-linejoin="round" fill-opacity="0" class="anim-color-1" stroke="#353535" stroke-opacity="1" stroke-width="1" d="m37.862-12.657-23-24.29C4.281-48.584-13.73-49.441-25.367-38.86c-11.638 10.58-12.495 28.592-1.915 40.229l43.707 48.072"></path></g><g  opacity="1" transform="translate(171.841 244.351)"><path  class="anim-color-2" fill="#FFEBD5" fill-opacity="1" d="M7.565 24.067-7.565-2.277 4.069-22.505c.899-1.562 3.29-.581 2.832 1.162L2.654-5.151l4.63 8.621"></path><path  stroke-linecap="round" stroke-linejoin="round" fill-opacity="0" class="anim-color-1" stroke="#353535" stroke-opacity="1" stroke-width="1" d="M7.565 24.067-7.565-2.277 4.069-22.505c.899-1.562 3.29-.581 2.832 1.162L2.654-5.151l4.63 8.621"></path></g><g  opacity="1" transform="translate(177.828 234.275)"><path  class="anim-color-2" fill="#FFEBD5" fill-opacity="1" d="m-2.337 15.828-5.666-9.865L3.631-14.265c.899-1.563 3.29-.582 2.832 1.161L2.214 3.089l5.789 10.777"></path><path  stroke-linecap="round" stroke-linejoin="round" fill-opacity="0" class="anim-color-1" stroke="#353535" stroke-opacity="1" stroke-width="1" d="m-2.337 15.828-5.666-9.865L3.631-14.265c.899-1.563 3.29-.582 2.832 1.161L2.214 3.089l5.789 10.777"></path></g><g  opacity="1" transform="translate(183.616 235.45)"><path  class="anim-color-2" fill="#FFEBD5" fill-opacity="1" d="m-3.235 15.046-4.768-8.301L3.631-13.483c.899-1.563 3.289-.582 2.832 1.161L2.215 3.871l5.788 10.776"></path><path  stroke-linecap="round" stroke-linejoin="round" fill-opacity="0" class="anim-color-1" stroke="#353535" stroke-opacity="1" stroke-width="1" d="m-3.235 15.046-4.768-8.301L3.631-13.483c.899-1.563 3.289-.582 2.832 1.161L2.215 3.871l5.788 10.776"></path></g><g  opacity="1" transform="translate(200.994 260.712)"><path  class="anim-color-2" fill="#FFEBD5" fill-opacity="1" d="M-21.588 7.706.166 31.635c4.299 4.728 11.617 5.076 16.345.778 4.729-4.299 5.078-11.618.779-16.346L-4.465-7.861l-5.83-9.939 4.167-16.365c.414-1.617-1.813-2.545-2.638-1.098l-10.676 18.736 3.862 6.679"></path><path  stroke-linecap="round" stroke-linejoin="round" fill-opacity="0" class="anim-color-1" stroke="#353535" stroke-opacity="1" stroke-width="1" d="M-21.588 7.706.166 31.635c4.299 4.728 11.617 5.076 16.345.778 4.729-4.299 5.078-11.618.779-16.346L-4.465-7.861l-5.83-9.939 4.167-16.365c.414-1.617-1.813-2.545-2.638-1.098l-10.676 18.736 3.862 6.679"></path></g><g  opacity="1" transform="translate(261.284 295.913)"><path  class="anim-color-1" fill="#353535" fill-opacity="1" d="m-3.271-.883 2.707-4.3 3.546 9.038c.289.737-.653 1.328-1.19.746L-3.271-.883z"></path></g><g  opacity="1" transform="translate(303.976 369.677)"><path  class="anim-color-2" fill="#FFEBD5" fill-opacity="1" d="M55.604 99.698c-9.657 17.705-40.465 29.068-62.462 26.922-21.996-2.146-48.746-15.643-44.455-54.807 4.292-39.164 16.696-116.111 26.959-172.552 4.871-26.794 24.205-28.027 24.205-28.027"></path><path  stroke-linecap="round" stroke-linejoin="round" fill-opacity="0" class="anim-color-1" stroke="#353535" stroke-opacity="1" stroke-width="1" d="M55.604 99.698c-9.657 17.705-40.465 29.068-62.462 26.922-21.996-2.146-48.746-15.643-44.455-54.807 4.292-39.164 16.696-116.111 26.959-172.552 4.871-26.794 24.205-28.027 24.205-28.027"></path></g><g  opacity="1" transform="translate(321.026 249.192)"><path  class="anim-color-2" fill="#FFEBD5" fill-opacity="1" d="M17.199 19.746h-34.398v-39.492h34.398v39.492z"></path><path  stroke-linecap="round" stroke-linejoin="round" fill-opacity="0" class="anim-color-1" stroke="#353535" stroke-opacity="1" stroke-width="1" d="M17.199 19.746h-34.398v-39.492h34.398v39.492z"></path></g><g  opacity="1" transform="translate(286.209 194.258)"><path  class="anim-color-1" fill="#353535" fill-opacity="1" d="M-4.973-34.46s-3.521 15.583-9.468 21.166C-20.39-7.712-13.096-.232-15.982 6.433c-2.886 6.665-11.898 15.669-11.898 15.669S8.957 34.46 27.88 23.659"></path></g><g  opacity="1" transform="translate(235.362 769.696)"><path  class="anim-color-2" fill="#FFEBD5" fill-opacity="1" d="M18.152 102.47h-36.304v-204.94h36.304v204.94z"></path><path  stroke-linecap="round" stroke-linejoin="round" fill-opacity="0" class="anim-color-1" stroke="#353535" stroke-opacity="1" stroke-width="1" d="M18.152 102.47h-36.304v-204.94h36.304v204.94z"></path></g><g  opacity="1" transform="translate(222.279 850.609)"><path  class="anim-color-1" fill="#353535" fill-opacity="1" d="M40.784-12.919c-.07-5.018-4.733-8.671-9.707-8.003-3.422.46-6.327 2.336-16.479 2.336-8.1 0-13.566-2.199-18.422-2.419-4.701-.212-8.702 3.338-8.98 8.034-.301 5.08 3.871 6.94 3.871 6.94s-31.276 4.495-31.886 27.55c-.002.071 54.131.024 72.455.005a5.985 5.985 0 0 0 5.98-5.988V-6.326a8.202 8.202 0 0 0 3.168-6.593z"></path><path  class="anim-color-1" fill="#353535" fill-opacity="1" d="M40.784-12.919c-.07-5.018-4.733-8.671-9.707-8.003-3.422.46-6.327 2.336-16.479 2.336-8.1 0-13.566-2.199-18.422-2.419-4.701-.212-8.702 3.338-8.98 8.034-.301 5.08 3.871 6.94 3.871 6.94s-31.276 4.495-31.886 27.55c-.002.071 54.131.024 72.455.005a5.985 5.985 0 0 0 5.98-5.988V-6.326a8.202 8.202 0 0 0 3.168-6.593z"></path><path  stroke-linecap="round" stroke-linejoin="round" fill-opacity="0" class="anim-color-2" stroke="#FFEBD5" stroke-opacity="1" stroke-width="1" d="M40.784-12.919c-.07-5.018-4.733-8.671-9.707-8.003-3.422.46-6.327 2.336-16.479 2.336-8.1 0-13.566-2.199-18.422-2.419-4.701-.212-8.702 3.338-8.98 8.034-.301 5.08 3.871 6.94 3.871 6.94s-31.276 4.495-31.886 27.55c-.002.071 54.131.024 72.455.005a5.985 5.985 0 0 0 5.98-5.988V-6.326a8.202 8.202 0 0 0 3.168-6.593z"></path></g><g  opacity="1" transform="translate(343.15 769.696)"><path  class="anim-color-2" fill="#FFEBD5" fill-opacity="1" d="M18.151 102.47h-36.302v-204.94h36.302v204.94z"></path><path  stroke-linecap="round" stroke-linejoin="round" fill-opacity="0" class="anim-color-1" stroke="#353535" stroke-opacity="1" stroke-width="1" d="M18.151 102.47h-36.302v-204.94h36.302v204.94z"></path></g><g  opacity="1" transform="translate(277.892 600.731)"><path  class="anim-color-2" fill="#FFEBD5" fill-opacity="1" d="M-80.897 184.745h79.418l.357-186.954L82.53-161.63l-83.782-23.115-31.536 63.177c-6.699 9.744-12.463 10.964-14.832 15.753l-.036.075c-2.369 4.79.445 13.608-2.361 19.282l-.036.075c-2.806 5.673-11.523 8.789-13.892 13.579l-.036.073c-2.369 4.79.444 13.61-2.361 19.283l.109-.221c-2.806 5.674-11.523 8.791-13.892 13.58l-.036.074c-2.369 4.789-.736 15.273-.736 15.273v209.487z"></path><path  stroke-linecap="round" stroke-linejoin="round" fill-opacity="0" class="anim-color-1" stroke="#353535" stroke-opacity="1" stroke-width="1" d="M-80.897 184.745h79.418l.357-186.954L82.53-161.63l-83.782-23.115-31.536 63.177c-6.699 9.744-12.463 10.964-14.832 15.753l-.036.075c-2.369 4.79.445 13.608-2.361 19.282l-.036.075c-2.806 5.673-11.523 8.789-13.892 13.579l-.036.073c-2.369 4.79.444 13.61-2.361 19.283l.109-.221c-2.806 5.674-11.523 8.791-13.892 13.58l-.036.074c-2.369 4.789-.736 15.273-.736 15.273v209.487z"></path></g><g  opacity="1" transform="translate(346.192 605.818)"><path  class="anim-color-2" fill="#FFEBD5" fill-opacity="1" d="m-43.003-182.092 83.07 7.256v148.492c.93 5.821 6.777 11.798 6.777 16.678v.082c0 4.88-5.362 10.857-6.293 16.678v3.06c.931 5.821 6.293 11.797 6.293 16.677v.083c0 4.879-5.362 10.857-6.293 16.678v3.389c.931 5.821 6.293 11.798 6.293 16.677v.083c0 4.879-5.362 10.856-6.293 16.677l-.484 1.194v100.48h-86.911V-83.632"></path><path  stroke-linecap="round" stroke-linejoin="round" fill-opacity="0" class="anim-color-1" stroke="#353535" stroke-opacity="1" stroke-width="1" d="m-43.003-182.092 83.07 7.256v148.492c.93 5.821 6.777 11.798 6.777 16.678v.082c0 4.88-5.362 10.857-6.293 16.678v3.06c.931 5.821 6.293 11.797 6.293 16.677v.083c0 4.879-5.362 10.857-6.293 16.678v3.389c.931 5.821 6.293 11.798 6.293 16.677v.083c0 4.879-5.362 10.856-6.293 16.677l-.484 1.194v100.48h-86.911V-83.632"></path></g><g  opacity="1" transform="translate(326.96 340.04)"><path  class="anim-color-1" fill="#353535" fill-opacity="1" d="M-30.141 93.242c11.127 2.3 50.801 7.016 64.309 4.824 19.707-3.199 34.705-21.883 26.78-51.324-7.455-27.7-5.839-73.813-7.109-102.472-.98-22.132-18.394-40.013-39.553-44.528-3.363 6.999-11.939 12.595-19.77 12.386-8.669-.232-13.827-3.444-17.649-10.62-21.22 4.77-24.206 43.191-24.206 66.247 0 36.308-7.086 52.692-14.013 81.535-7.521 31.317 20.995 41.635 31.211 43.952z"></path></g><g  opacity="1" transform="translate(356.515 385.13)"><path  class="anim-color-2" fill="#FFEBD5" fill-opacity="1" d="M-27.208-49.945c-.829 15.462-4.862 33.285-7.008 78.351-2.146 45.065-14.014 87.266 14.651 104.464C9.1 150.069 45.536 144.721 47.318 80.638c.911-32.714-19.543-109.46-17.396-170.083 2.145-60.624-45.417-56.646-45.417-56.646.389 17.16-9.886 62.043-11.713 96.146z"></path><path  stroke-linecap="round" stroke-linejoin="round" fill-opacity="0" class="anim-color-1" stroke="#353535" stroke-opacity="1" stroke-width="1" d="M-27.208-49.945c-.829 15.462-4.862 33.285-7.008 78.351-2.146 45.065-14.014 87.266 14.651 104.464C9.1 150.069 45.536 144.721 47.318 80.638c.911-32.714-19.543-109.46-17.396-170.083 2.145-60.624-45.417-56.646-45.417-56.646.389 17.16-9.886 62.043-11.713 96.146z"></path></g><g  opacity="1" transform="translate(296.383 521.134)"><path  class="anim-color-3" fill="#F3E7D6" fill-opacity="1" d="m-12.914 1.874 25.828-3.748"></path><path  stroke-linecap="round" stroke-linejoin="round" fill-opacity="0" class="anim-color-1" stroke="#353535" stroke-opacity="1" stroke-width="1" d="m-12.914 1.874 25.828-3.748"></path></g><g  opacity="1" transform="translate(330.067 850.609)"><path  class="anim-color-1" fill="#353535" fill-opacity="1" d="M40.784-12.919c-.07-5.018-4.732-8.671-9.707-8.003-3.422.46-6.326 2.336-16.478 2.336-8.1 0-13.566-2.199-18.422-2.419-4.701-.212-8.702 3.338-8.98 8.034-.301 5.08 3.871 6.94 3.871 6.94s-31.277 4.495-31.886 27.55c-.002.071 54.13.024 72.454.005a5.985 5.985 0 0 0 5.98-5.988V-6.326a8.202 8.202 0 0 0 3.168-6.593z"></path></g><g  opacity="1" transform="translate(330.067 850.609)"><path  class="anim-color-1" fill="#353535" fill-opacity="1" d="M-3.823-21.005c-4.701-.212-8.702 3.338-8.98 8.034-.301 5.08 3.871 6.941 3.871 6.941S-40.21-1.535-40.819 21.519c-.002.072 54.131.025 72.454.006a5.986 5.986 0 0 0 5.981-5.989V-6.325a8.202 8.202 0 0 0 3.167-6.593c-.07-5.018-4.732-8.672-9.706-8.004"></path><path  stroke-linecap="round" stroke-linejoin="round" fill-opacity="0" class="anim-color-2" stroke="#FFEBD5" stroke-opacity="1" stroke-width="1" d="M-3.823-21.005c-4.701-.212-8.702 3.338-8.98 8.034-.301 5.08 3.871 6.941 3.871 6.941S-40.21-1.535-40.819 21.519c-.002.072 54.131.025 72.454.006a5.986 5.986 0 0 0 5.981-5.989V-6.325a8.202 8.202 0 0 0 3.167-6.593c-.07-5.018-4.732-8.672-9.706-8.004"></path></g><g  opacity="1" transform="translate(294.126 538.233)"><path  class="anim-color-1" fill="#353535" fill-opacity="1" d="m5.785-17.661-11.57 1.828L4.567 17.66l1.218-35.321z"></path></g><g  opacity="1" transform="translate(343.149 795.523)"><path  class="anim-color-1" fill="#353535" fill-opacity="1" d="M-18.269-7.612 18.269 7.612V-7.003l-36.538-.609z"></path></g><g  opacity="1" transform="translate(235.056 793.391)"><path  class="anim-color-1" fill="#353535" fill-opacity="1" d="m17.965-7.307-35.32 15.833-.61-17.052 35.93 1.219z"></path></g><g  opacity="1" transform="translate(347.74 846.664)"><path  class="anim-color-1" fill="#353535" fill-opacity="1" d="M-19.767-.021c3.021.629 7.668 1.28 14.565 1.557C9.416 2.12 19.767-2.12 19.767-2.12"></path><path  stroke-linecap="round" stroke-linejoin="round" fill-opacity="0" class="anim-color-2" stroke="#FFEBD5" stroke-opacity="1" stroke-width="1" d="M-19.767-.021c3.021.629 7.668 1.28 14.565 1.557C9.416 2.12 19.767-2.12 19.767-2.12"></path></g><g  opacity="1" transform="translate(358.068 853.071)"><path  class="anim-color-1" fill="#353535" fill-opacity="1" d="M8.83-2.436S2.74 1.217-8.83 2.436"></path><path  stroke-linecap="round" stroke-linejoin="round" fill-opacity="0" class="anim-color-2" stroke="#FFEBD5" stroke-opacity="1" stroke-width="1" d="M8.83-2.436S2.74 1.217-8.83 2.436"></path></g><g  opacity="1" transform="translate(231.097 845.763)"><path  class="anim-color-1" fill="#353535" fill-opacity="1" d="M-17.66-1.218s7.917 2.436 19.487 2.436c11.571 0 15.833-1.827 15.833-1.827"></path><path  stroke-linecap="round" stroke-linejoin="round" fill-opacity="0" class="anim-color-2" stroke="#FFEBD5" stroke-opacity="1" stroke-width="1" d="M-17.66-1.218s7.917 2.436 19.487 2.436c11.571 0 15.833-1.827 15.833-1.827"></path></g><g  opacity="1" transform="translate(214.465 848.846)"><path  class="anim-color-1" fill="#353535" fill-opacity="1" d="M-3.26-3.49s2.232 3.452 6.52 6.98"></path><path  stroke-linecap="round" stroke-linejoin="round" fill-opacity="0" class="anim-color-2" stroke="#FFEBD5" stroke-opacity="1" stroke-width="1" d="M-3.26-3.49s2.232 3.452 6.52 6.98"></path></g><g  opacity="1" transform="translate(342.844 782.43)"><path  class="anim-color-2" fill="#FFEBD5" fill-opacity="1" d="M-35.625-22.532h-10.961V5.481s23.482-3.573 46.281 4.872c32.885 12.179 46.891 0 46.891 0v-32.885h-59.07"></path><path  stroke-linecap="round" stroke-linejoin="round" fill-opacity="0" class="anim-color-1" stroke="#353535" stroke-opacity="1" stroke-width="1" d="M-35.625-22.532h-10.961V5.481s23.482-3.573 46.281 4.872c32.885 12.179 46.891 0 46.891 0v-32.885h-59.07"></path></g><g  opacity="1"><path  class="anim-color-3" fill="#F3E7D6" fill-opacity="1" d="M276.77 598.521h-9.135"></path><path  stroke-linecap="round" stroke-linejoin="round" fill-opacity="0" class="anim-color-1" stroke="#353535" stroke-opacity="1" stroke-width="1" d="M276.77 598.521h-9.135"></path></g><g  opacity="1" transform="translate(236.883 780.299)"><path  class="anim-color-2" fill="#FFEBD5" fill-opacity="1" d="M-33.762-20.401H-44.15v32.885s13.397 7.917 43.862 0C32.096 4.068 44.15 8.221 44.15 8.221v-28.622h-55.981"></path><path  stroke-linecap="round" stroke-linejoin="round" fill-opacity="0" class="anim-color-1" stroke="#353535" stroke-opacity="1" stroke-width="1" d="M-33.762-20.401H-44.15v32.885s13.397 7.917 43.862 0C32.096 4.068 44.15 8.221 44.15 8.221v-28.622h-55.981"></path></g><g  opacity="1" transform="translate(436.241 313.006)"><path  class="anim-color-2" fill="#FFEBD5" fill-opacity="1" d="M-78.656-17.776 42.273 68.307c14.142 8.924 31.83 5.933 40.895-6.821 9.066-12.754 6.076-30.442-6.678-39.508L42.953-1.246l.178-.082c-4.617-3.09-5.697-13.046-9.595-15.654l-.059-.04c-3.898-2.607-11.894-1.165-16.51-4.254l.18.12c-4.617-3.089-6.335-11.03-10.233-13.638l-.059-.04c-3.898-2.607-11.894-1.165-16.51-4.254l-.061-.041c-4.616-3.088-8.105-9.849-12.003-12.457l-.059-.04c-3.898-2.607-18.507-.98-32.675-9.245-11.739-6.848-25.384-16.36-37.781-.421"></path><path  stroke-linecap="round" stroke-linejoin="round" fill-opacity="0" class="anim-color-1" stroke="#353535" stroke-opacity="1" stroke-width="1" d="M-78.656-17.776 42.273 68.307c14.142 8.924 31.83 5.933 40.895-6.821 9.066-12.754 6.076-30.442-6.678-39.508L42.953-1.246l.178-.082c-4.617-3.09-5.697-13.046-9.595-15.654l-.059-.04c-3.898-2.607-11.894-1.165-16.51-4.254l.18.12c-4.617-3.089-6.335-11.03-10.233-13.638l-.059-.04c-3.898-2.607-11.894-1.165-16.51-4.254l-.061-.041c-4.616-3.088-8.105-9.849-12.003-12.457l-.059-.04c-3.898-2.607-18.507-.98-32.675-9.245-11.739-6.848-25.384-16.36-37.781-.421"></path></g><g  opacity="1" transform="translate(445.352 358.08)"><path  class="anim-color-2" fill="#FFEBD5" fill-opacity="1" d="M65.45-24.356C73.744-19.414 79.3-10.356 79.3 0c0 15.648-12.685 28.332-28.332 28.332H-50.968C-66.615 28.332-79.3 15.648-79.3 0c0-15.648 12.685-28.332 28.332-28.332h64.149"></path><path  stroke-linecap="round" stroke-linejoin="round" fill-opacity="0" class="anim-color-1" stroke="#353535" stroke-opacity="1" stroke-width="1" d="M65.45-24.356C73.744-19.414 79.3-10.356 79.3 0c0 15.648-12.685 28.332-28.332 28.332H-50.968C-66.615 28.332-79.3 15.648-79.3 0c0-15.648 12.685-28.332 28.332-28.332h64.149"></path></g><g  opacity="1" transform="translate(406.656 358.08)"><path  class="anim-color-2" fill="#FFEBD5" fill-opacity="1" d="M-14.166 28.332c15.647 0 28.332-12.684 28.332-28.331V0c0-15.647-12.685-28.332-28.332-28.332"></path><path  stroke-linecap="round" stroke-linejoin="round" fill-opacity="0" class="anim-color-1" stroke="#353535" stroke-opacity="1" stroke-width="1" d="M-14.166 28.332c15.647 0 28.332-12.684 28.332-28.331V0c0-15.647-12.685-28.332-28.332-28.332"></path></g><g  opacity="1" transform="translate(413.242 594.562)"><path  class="anim-color-3" fill="#F3E7D6" fill-opacity="1" d="M-.005.323c0-.107.009-.215.01-.323-.001-.108-.01-.216-.01-.323v.646z"></path><path  stroke-linecap="round" stroke-linejoin="round" fill-opacity="0" class="anim-color-1" stroke="#353535" stroke-opacity="1" stroke-width="1" d="M-.005.323c0-.107.009-.215.01-.323-.001-.108-.01-.216-.01-.323v.646z"></path></g><g  opacity="1" transform="translate(436.701 626.222)"><path  class="anim-color-2" fill="#FFEBD5" fill-opacity="1" d="M23.464-79.641c0-14.017-16.873-31.484-16.873-48.089H6.35v-99.921h-29.814v99.921c0 16.605 16.873 34.072 16.873 48.089v.216c0 13.926-16.646 31.257-16.863 47.765.217 16.508 16.863 33.84 16.863 47.766v.215c0 14.017-16.873 31.485-16.873 48.089v163.241H6.35V64.626h.241v-.216c0-16.604 16.873-34.072 16.873-48.089v-.215c0-13.926-16.646-31.258-16.862-47.766.216-16.508 16.862-33.839 16.862-47.765v-.216z"></path><path  stroke-linecap="round" stroke-linejoin="round" fill-opacity="0" class="anim-color-1" stroke="#353535" stroke-opacity="1" stroke-width="1" d="M23.464-79.641c0-14.017-16.873-31.484-16.873-48.089H6.35v-99.921h-29.814v99.921c0 16.605 16.873 34.072 16.873 48.089v.216c0 13.926-16.646 31.257-16.863 47.765.217 16.508 16.863 33.84 16.863 47.766v.215c0 14.017-16.873 31.485-16.873 48.089v163.241H6.35V64.626h.241v-.216c0-16.604 16.873-34.072 16.873-48.089v-.215c0-13.926-16.646-31.258-16.862-47.766.216-16.508 16.862-33.839 16.862-47.765v-.216z"></path></g><g  opacity="1" transform="translate(429.952 384.061)"><path  class="anim-color-2" fill="#FFEBD5" fill-opacity="1" d="M84.391 15.027H-84.39c-8.3 0-15.027-6.727-15.027-15.026 0-8.3 6.727-15.028 15.027-15.028H84.391c8.3 0 15.026 6.728 15.026 15.028 0 8.299-6.726 15.026-15.026 15.026z"></path><path  stroke-linecap="round" stroke-linejoin="round" fill-opacity="0" class="anim-color-1" stroke="#353535" stroke-opacity="1" stroke-width="1" d="M84.391 15.027H-84.39c-8.3 0-15.027-6.727-15.027-15.026 0-8.3 6.727-15.028 15.027-15.028H84.391c8.3 0 15.026 6.728 15.026 15.028 0 8.299-6.726 15.026-15.026 15.026z"></path></g><g  opacity="1" transform="translate(428.407 854.752)"><path  class="anim-color-2" fill="#FFEBD5" fill-opacity="1" d="M16.244-17.326h13.351c9.512 0 17.224 7.711 17.224 17.224v.177c0 9.533-7.743 17.252-17.275 17.224l-59.189-.177c-9.493-.028-17.174-7.732-17.174-17.224 0-9.513 7.712-17.224 17.225-17.224H.319"></path><path  stroke-linecap="round" stroke-linejoin="round" fill-opacity="0" class="anim-color-1" stroke="#353535" stroke-opacity="1" stroke-width="1" d="M16.244-17.326h13.351c9.512 0 17.224 7.711 17.224 17.224v.177c0 9.533-7.743 17.252-17.275 17.224l-59.189-.177c-9.493-.028-17.174-7.732-17.174-17.224 0-9.513 7.712-17.224 17.225-17.224H.319"></path></g><g  opacity="1" transform="translate(428.307 404.766)"><path  class="anim-color-1" fill="#353535" fill-opacity="1" d="M-15.07-6.196 15.07 6.196l-.327-12.392H-15.07z"></path></g><g  opacity="1" transform="translate(371.397 312.653)"><path  class="anim-color-1" fill="#353535" fill-opacity="1" d="m-10.616-14.863 20.808 29.726.424-15.288-21.232-14.438z"></path></g><g  opacity="1" transform="translate(429.232 327.304)"><path  class="anim-color-1" fill="#353535" fill-opacity="1" d="M29.383 2.149-29.383-2.76l6.794 5.52 51.972-.611z"></path></g><g  opacity="1" transform="translate(321.306 188.515)"><path  class="anim-color-2" fill="#FFEBD5" fill-opacity="1" d="M-10.463-46.019c17.429-1.518 45.019 5.734 53.306 31.823 7.338 23.103-6.634 42.307-26.808 52.02-20.174 9.713-41.525 4.343-52.563-5.284-13.652-11.906-9.942-26.165-6.029-49.505 3.912-23.339 15.434-27.603 32.094-29.054z"></path><path  stroke-linecap="round" stroke-linejoin="round" fill-opacity="0" class="anim-color-1" stroke="#353535" stroke-opacity="1" stroke-width="1" d="M-10.463-46.019c17.429-1.518 45.019 5.734 53.306 31.823 7.338 23.103-6.634 42.307-26.808 52.02-20.174 9.713-41.525 4.343-52.563-5.284-13.652-11.906-9.942-26.165-6.029-49.505 3.912-23.339 15.434-27.603 32.094-29.054z"></path></g><g  opacity="1" transform="translate(300.2 213.621)"><path  class="anim-color-2" fill="#FFEBD5" fill-opacity="1" d="M-11.206-3.316s9.098 6.632 22.412 4.655"></path><path  stroke-linecap="round" stroke-linejoin="round" fill-opacity="0" class="anim-color-1" stroke="#353535" stroke-opacity="1" stroke-width="1" d="M-11.206-3.316s9.098 6.632 22.412 4.655"></path></g><g  opacity="1" transform="translate(283.536 179.993)"><path  class="anim-color-3" fill="#F3E7D6" fill-opacity="1" d="M-5.746.604 5.746-.604"></path><path  stroke-linecap="round" stroke-linejoin="round" fill-opacity="0" class="anim-color-1" stroke="#353535" stroke-opacity="1" stroke-width="1" d="M-5.746.604 5.746-.604"></path></g><g  opacity="1" transform="translate(329.182 189.48)"><path  class="anim-color-3" fill="#F3E7D6" fill-opacity="1" d="M-7.129-2.086 7.129 2.086"></path><path  stroke-linecap="round" stroke-linejoin="round" fill-opacity="0" class="anim-color-1" stroke="#353535" stroke-opacity="1" stroke-width="1" d="M-7.129-2.086 7.129 2.086"></path></g><g  opacity="1" transform="translate(284.523 189.083)"><path  class="anim-color-2" fill="#FFEBD5" fill-opacity="1" d="M-5.286-1.63S-.26 1.63 5.286.148"></path><path  stroke-linecap="round" stroke-linejoin="round" fill-opacity="0" class="anim-color-1" stroke="#353535" stroke-opacity="1" stroke-width="1" d="M-5.286-1.63S-.26 1.63 5.286.148"></path></g><g  opacity="1" transform="translate(323.704 197.954)"><path  class="anim-color-2" fill="#FFEBD5" fill-opacity="1" d="M-8.384-2.653S-2.222 2.653 8.384-.859"></path><path  stroke-linecap="round" stroke-linejoin="round" fill-opacity="0" class="anim-color-1" stroke="#353535" stroke-opacity="1" stroke-width="1" d="M-8.384-2.653S-2.222 2.653 8.384-.859"></path></g><g  opacity="1" transform="translate(296.968 200.456)"><path  class="anim-color-2" fill="#FFEBD5" fill-opacity="1" d="m5.162-3.626-6.231-.287a3.823 3.823 0 1 0-.352 7.636l6.23.287"></path><path  stroke-linecap="round" stroke-linejoin="round" fill-opacity="0" class="anim-color-1" stroke="#353535" stroke-opacity="1" stroke-width="1" d="m5.162-3.626-6.231-.287a3.823 3.823 0 1 0-.352 7.636l6.23.287"></path></g><g  opacity="1" transform="translate(324.094 202.289)"><path  fill="#F3D1AC" fill-opacity="1" d="M4.655-1.666c-8.057-.103-13.263-2.587-13.89-.782-.862 2.481 3.349 5.885 12.609 6.406 5.245.295 6.723-5.554 1.281-5.624z"></path></g><g  opacity="1" transform="translate(282.213 192.899)"><path  fill="#F3D1AC" fill-opacity="1" d="M-2.667-2.526C2.652-.54 6.65-1.008 6.643.46c-.011 2.018-3.571 3.407-9.778 1.417-3.516-1.128-3.125-5.744.468-4.403z"></path></g><g  opacity="1" transform="translate(349.485 181.292)"><path  class="anim-color-1" fill="#353535" fill-opacity="1" d="M-23.745 53.764S-8.153 34.765-7.155 18.82c.998-15.944-8.4-30.831-33.443-31.202-29.222-.435-26.119-10.823-26.119-10.823s-.666-10.337 26.791-21.643c21.658-8.917 33.726-6.106 42.68 1.912 6.843 6.129 5.731 8.918 11.967 12.743 2.924 1.792 11.891 2.347 16.752 8.835 4.862 6.489.262 16.125 3.594 19.82 3.331 3.695 15.671 7.394 18.641 13.612 2.969 6.217.804 12.341 3.416 16.577 2.61 4.235 12.696 10.185 12.696 10.185s-26.469 7.695-44.136 11.229c-15.925 3.184-49.429 3.699-49.429 3.699z"></path></g><g  opacity="1" transform="translate(293.978 283.779)"><path  stroke-linecap="round" stroke-linejoin="round" fill-opacity="0" class="anim-color-3" stroke="#F3E7D6" stroke-opacity="1" stroke-width="1" d="M10.287-41.454C3.278-40.16-3.073-30.442-4.637-14.858l-5.65 56.312"></path></g><g  opacity="1" transform="translate(285.122 310.643)"><path  class="anim-color-2" fill="#FFEBD5" fill-opacity="1" d="m-.243 19.325-3.292-.33L.152-17.754a1.653 1.653 0 0 1 3.292.33L-.243 19.325z"></path></g><g  opacity="1" transform="translate(290.41 329.621)"><path  class="anim-color-2" fill="#FFEBD5" fill-opacity="1" d="m8.646 2.6.078-.776a2.803 2.803 0 0 0-2.509-3.068L-5.76-2.445A2.802 2.802 0 0 0-8.828.063l-.05.503L8.646 2.6z"></path></g><g  opacity="1" transform="translate(290.308 331.066)"><path  class="anim-color-3" fill="#F3E7D6" fill-opacity="1" d="M-8.227-.825c.061-.605 3.793-.728 8.336-.271C4.653-.64 8.288.22 8.227.826c-.061.606-3.793.727-8.336.271C-4.653.642-8.288-.219-8.227-.825z"></path><path  stroke-linecap="round" stroke-linejoin="round" fill-opacity="0" class="anim-color-1" stroke="#353535" stroke-opacity="1" stroke-width="1" d="M-8.227-.825c.061-.605 3.793-.728 8.336-.271C4.653-.64 8.288.22 8.227.826c-.061.606-3.793.727-8.336.271C-4.653.642-8.288-.219-8.227-.825z"></path></g><g  opacity="1" transform="translate(333.492 286.553)"><path  stroke-linecap="round" stroke-linejoin="round" fill-opacity="0" class="anim-color-3" stroke="#F3E7D6" stroke-opacity="1" stroke-width="1" d="M3.51-42.861c4.606 3.786-4.412 13.826-5.976 29.41l-5.649 56.313"></path></g><g  opacity="1" transform="translate(326.807 314.825)"><path  class="anim-color-2" fill="#FFEBD5" fill-opacity="1" d="m-3.534 18.995 3.29.33 3.687-36.748a1.654 1.654 0 1 0-3.291-.331l-3.686 36.749z"></path></g><g  opacity="1" transform="translate(317.821 332.235)"><path  class="anim-color-2" fill="#FFEBD5" fill-opacity="1" d="m-8.892.976.078-.777A2.803 2.803 0 0 1-5.746-2.31L6.229-1.108A2.803 2.803 0 0 1 8.738 1.96l-.051.504L-8.892.976z"></path></g><g  opacity="1" transform="translate(317.732 333.818)"><path  class="anim-color-3" fill="#F3E7D6" fill-opacity="1" d="M8.228.825C8.289.219 4.655-.642.111-1.097c-4.544-.456-8.277-.335-8.338.271C-8.288-.22-4.653.64-.109 1.096c4.544.457 8.276.335 8.337-.271z"></path><path  stroke-linecap="round" stroke-linejoin="round" fill-opacity="0" class="anim-color-1" stroke="#353535" stroke-opacity="1" stroke-width="1" d="M8.228.825C8.289.219 4.655-.642.111-1.097c-4.544-.456-8.277-.335-8.338.271C-8.288-.22-4.653.64-.109 1.096c4.544.457 8.276.335 8.337-.271z"></path></g><g  opacity="1" transform="translate(304.103 331.62)"><path  class="anim-color-2" fill="#FFEBD5" fill-opacity="1" d="M5.403 1.373-5.568.272l.165-1.645 10.971 1.1-.165 1.646z"></path></g><g  opacity="1" transform="translate(565.951 834.547)"><path  class="anim-color-2" fill="#FFEBD5" fill-opacity="1" d="M-37.71 37.619V-5.512c0-17.732 14.375-32.107 32.107-32.107H5.603c17.732 0 32.107 14.375 32.107 32.107v43.131"></path><path  stroke-linecap="round" stroke-linejoin="round" fill-opacity="0" class="anim-color-1" stroke="#353535" stroke-opacity="1" stroke-width="1" d="M-37.71 37.619V-5.512c0-17.732 14.375-32.107 32.107-32.107H5.603c17.732 0 32.107 14.375 32.107 32.107v43.131"></path></g><g  opacity="1" transform="translate(522.383 843.688)"><path  class="anim-color-2" fill="#FFEBD5" fill-opacity="1" d="M-66.85 28.459c0-31.436 25.483-56.919 56.919-56.919H9.931c31.436 0 56.919 25.483 56.919 56.919"></path><path  stroke-linecap="round" stroke-linejoin="round" fill-opacity="0" class="anim-color-1" stroke="#353535" stroke-opacity="1" stroke-width="1" d="M-66.85 28.459c0-31.436 25.483-56.919 56.919-56.919H9.931c31.436 0 56.919 25.483 56.919 56.919"></path></g><g  opacity="1"><path  class="anim-color-3" fill="#F3E7D6" fill-opacity="1" d="M37.001 872.166h592.471"></path><path  stroke-linecap="round" stroke-linejoin="round" fill-opacity="0" class="anim-color-1" stroke="#353535" stroke-opacity="1" stroke-width="1" d="M37.001 872.166h592.471"></path></g><g  opacity="1" transform="translate(333.508 361.022)"><path  class="anim-color-2" fill="#FFEBD5" fill-opacity="1" d="m20.053-16.944-31.849 7.007-7.666 23.848c-.592 1.842 1.914 3.033 2.969 1.411L-6.699.255l10.19-2.548"></path><path  stroke-linecap="round" stroke-linejoin="round" fill-opacity="0" class="anim-color-1" stroke="#353535" stroke-opacity="1" stroke-width="1" d="m20.053-16.944-31.849 7.007-7.666 23.848c-.592 1.842 1.914 3.033 2.969 1.411L-6.699.255l10.19-2.548"></path></g><g  opacity="1" transform="translate(329.049 368.946)"><path  class="anim-color-2" fill="#FFEBD5" fill-opacity="1" d="m7.138-14.753-11.927 2.625-7.665 23.848c-.593 1.842 1.913 3.033 2.967 1.41L.307-1.938l12.74-3.184"></path><path  stroke-linecap="round" stroke-linejoin="round" fill-opacity="0" class="anim-color-1" stroke="#353535" stroke-opacity="1" stroke-width="1" d="m7.138-14.753-11.927 2.625-7.665 23.848c-.593 1.842 1.913 3.033 2.967 1.41L.307-1.938l12.74-3.184"></path></g><g  opacity="1" transform="translate(334.782 372.339)"><path  class="anim-color-2" fill="#FFEBD5" fill-opacity="1" d="m5.248-14.545-10.037 2.208-7.666 23.849c-.592 1.842 1.913 3.033 2.968 1.411L.307-2.145l12.74-3.184"></path><path  stroke-linecap="round" stroke-linejoin="round" fill-opacity="0" class="anim-color-1" stroke="#353535" stroke-opacity="1" stroke-width="1" d="m5.248-14.545-10.037 2.208-7.666 23.849c-.592 1.842 1.913 3.033 2.968 1.411L.307-2.145l12.74-3.184"></path></g><g  opacity="1" transform="translate(364.418 366.085)"><path  class="anim-color-2" fill="#FFEBD5" fill-opacity="1" d="M-10.857-22.007h34.716c6.86 0 12.422 5.562 12.422 12.421 0 6.86-5.562 12.422-12.422 12.422h-34.716L-22.96 5.384l-9.99 15.126c-.987 1.497-3.331.398-2.777-1.302l7.172-22.009 8.094-1.756"></path><path  stroke-linecap="round" stroke-linejoin="round" fill-opacity="0" class="anim-color-1" stroke="#353535" stroke-opacity="1" stroke-width="1" d="M-10.857-22.007h34.716c6.86 0 12.422 5.562 12.422 12.421 0 6.86-5.562 12.422-12.422 12.422h-34.716L-22.96 5.384l-9.99 15.126c-.987 1.497-3.331.398-2.777-1.302l7.172-22.009 8.094-1.756"></path></g></g></g></svg>