<svg  xmlns="http://www.w3.org/2000/svg" viewBox="0 0 559 569" width="559" height="569" preserveAspectRatio="xMidYMid meet" style="width:100%;height:100%;transform:translate3d(0,0,0);content-visibility:visible"><defs ><clipPath id="__object__lottie_element_7"><path  d="M0 0h559v569H0z"></path></clipPath></defs><g  clip-path="url(#__object__lottie_element_7)"><g  transform="translate(-.621 -.945)" opacity="1" style="display:block"><g  opacity="1" transform="translate(414.709 179.683)"><path  class="anim-color-2" fill="#FFEBD5" fill-opacity="1" d="M-16.249-26.566a12.794 12.794 0 0 0-.294 14.957L5.54 20.333a12.793 12.793 0 0 0 12.896 5.295l1.237-.234-35.922-51.96z"></path><path  stroke-linecap="round" stroke-linejoin="round" fill-opacity="0" class="anim-color-1" stroke="#353535" stroke-opacity="1" stroke-width="1" d="M-16.249-26.566s0 0 0 0a12.794 12.794 0 0 0-.294 14.957L5.54 20.333a12.793 12.793 0 0 0 12.896 5.295l1.237-.234-35.922-51.96z"></path></g><g  opacity="1" transform="translate(133.488 375.07)"><path  class="anim-color-2" fill="#FFEBD5" fill-opacity="1" d="M-19.604-25.21A12.79 12.79 0 0 1-5.51-20.202L16.573 11.74a12.792 12.792 0 0 1 .4 13.935l-.655 1.074-35.922-51.959z"></path><path  stroke-linecap="round" stroke-linejoin="round" fill-opacity="0" class="anim-color-1" stroke="#353535" stroke-opacity="1" stroke-width="1" d="M-19.604-25.21s0 0 0 0A12.79 12.79 0 0 1-5.51-20.202L16.573 11.74a12.792 12.792 0 0 1 .4 13.935l-.655 1.074-35.922-51.959z"></path></g><g  opacity="1" transform="translate(273.05 276.711)"><path  class="anim-color-1" fill="#353535" fill-opacity="1" d="M-149.637 79.637c14.935-10.933 23.842-39.944 39.464-50.745l.203-.141c15.622-10.8 43.031-6.286 56.219-15.404l.203-.14C-40.361 4.09-35.95-22.758-19.741-33.965c15.624-10.8 43.032-6.287 56.22-15.405l.202-.14c13.189-9.117 18.648-36.354 34.27-47.155l.203-.139c15.622-10.801 43.188-6.06 56.376-15.178l22.107 31.976c-13.187 9.118-40.596 4.604-56.218 15.405l-.203.141C77.593-53.659 72.134-26.424 58.947-17.306l-.203.141C45.556-8.048 18.147-12.561 2.524-1.76c-12.574 8.693-20.62 38.055-33.807 47.172l-.204.139c-13.187 9.118-40.596 4.606-56.218 15.406l-.203.14c-15.623 10.801-21.414 37.657-39.463 50.745l-.204.141-22.062-32.346z"></path><path  stroke-linecap="round" stroke-linejoin="round" fill-opacity="0" class="anim-color-1" stroke="#353535" stroke-opacity="1" stroke-width="2" d="M-149.637 79.637c14.935-10.933 23.842-39.944 39.464-50.745l.203-.141c15.622-10.8 43.031-6.286 56.219-15.404l.203-.14C-40.361 4.09-35.95-22.758-19.741-33.965c15.624-10.8 43.032-6.287 56.22-15.405l.202-.14c13.189-9.117 18.648-36.354 34.27-47.155l.203-.139c15.622-10.801 43.188-6.06 56.376-15.178l22.107 31.976c-13.187 9.118-40.596 4.604-56.218 15.405l-.203.141C77.593-53.659 72.134-26.424 58.947-17.306l-.203.141C45.556-8.048 18.147-12.561 2.524-1.76c-12.574 8.693-20.62 38.055-33.807 47.172l-.204.139c-13.187 9.118-40.596 4.606-56.218 15.406l-.203.14c-15.623 10.801-21.414 37.657-39.463 50.745l-.204.141-22.062-32.346z"></path></g><g  opacity="1" transform="translate(183.204 336.75)"><path  class="anim-color-2" fill="#FFEBD5" fill-opacity="1" d="M11.172-4.062a5.107 5.107 0 0 0-.744-1.694c-2.38-3.443-8.612-3.259-13.919.41-5.308 3.669-7.681 9.434-5.301 12.877.495.715 1.162 1.264 1.946 1.668 2.46-3.555 5.211-6.713 8.479-9.035 2.816-1.894 6.064-3.226 9.539-4.226z"></path><path  stroke-linecap="round" stroke-linejoin="round" fill-opacity="0" class="anim-color-1" stroke="#353535" stroke-opacity="1" stroke-width="1" d="M11.172-4.062a5.107 5.107 0 0 0-.744-1.694c-2.38-3.443-8.612-3.259-13.919.41-5.308 3.669-7.681 9.434-5.301 12.877.495.715 1.162 1.264 1.946 1.668 2.46-3.555 5.211-6.713 8.479-9.035 2.816-1.894 6.064-3.226 9.539-4.226z"></path></g><g  opacity="1" transform="translate(269.904 258.535)"><path  class="anim-color-2" fill="#FFEBD5" fill-opacity="1" d="M7.595-5.25c2.441 3.532 1.02 8.745-3.174 11.645C.227 9.294-5.153 8.782-7.594 5.25c-2.442-3.532-1.022-8.746 3.172-11.645C-.227-9.294 5.153-8.782 7.595-5.25z"></path><path  stroke-linecap="round" stroke-linejoin="round" fill-opacity="0" class="anim-color-1" stroke="#353535" stroke-opacity="1" stroke-width="1" d="M7.595-5.25c2.441 3.532 1.02 8.745-3.174 11.645C.227 9.294-5.153 8.782-7.594 5.25c-2.442-3.532-1.022-8.746 3.172-11.645C-.227-9.294 5.153-8.782 7.595-5.25z"></path></g><g  opacity="1" transform="translate(285.116 257.468)"><path  class="anim-color-2" fill="#FFEBD5" fill-opacity="1" d="M3.997-2.763a4.86 4.86 0 1 1-7.994 5.527 4.86 4.86 0 0 1 7.994-5.527z"></path><path  stroke-linecap="round" stroke-linejoin="round" fill-opacity="0" class="anim-color-1" stroke="#353535" stroke-opacity="1" stroke-width="1" d="M3.997-2.763a4.86 4.86 0 1 1-7.994 5.527 4.86 4.86 0 0 1 7.994-5.527z"></path></g><g  opacity="1" transform="translate(109.886 389.779)"><path  class="anim-color-2" fill="#FFEBD5" fill-opacity="1" d="M39.92 12.039 13.941 30c-14.349 9.92-34.022 6.33-43.942-8.019-9.919-14.348-6.329-34.021 8.019-43.94L3.998-39.92 39.92 12.039z"></path><path  stroke-linecap="round" stroke-linejoin="round" fill-opacity="0" class="anim-color-1" stroke="#353535" stroke-opacity="1" stroke-width="1" d="M39.92 12.039 13.941 30c-14.349 9.92-34.022 6.33-43.942-8.019-9.919-14.348-6.329-34.021 8.019-43.94L3.998-39.92 39.92 12.039z"></path></g><g  opacity="1" transform="translate(438.379 165.157)"><path  class="anim-color-2" fill="#FFEBD5" fill-opacity="1" d="m-3.997 39.919 25.979-17.961C36.33 12.039 39.92-7.633 30.001-21.981 20.081-36.33.408-39.919-13.94-30l-25.98 17.961 35.923 51.958z"></path><path  stroke-linecap="round" stroke-linejoin="round" fill-opacity="0" class="anim-color-1" stroke="#353535" stroke-opacity="1" stroke-width="1" d="m-3.997 39.919 25.979-17.961C36.33 12.039 39.92-7.633 30.001-21.981 20.081-36.33.408-39.919-13.94-30l-25.98 17.961 35.923 51.958z"></path></g><g  opacity="1" transform="translate(233.024 303.739)"><path  stroke-linecap="butt" stroke-linejoin="miter" fill-opacity="0" stroke-miterlimit="10" class="anim-color-2" stroke="#FFEBD5" stroke-opacity="1" stroke-width="4" d="M-17.251-23.297c9.224 39.821 34.502 46.594 34.502 46.594"></path></g><g  opacity="1" transform="translate(223.123 313.049)"><path  stroke-linecap="butt" stroke-linejoin="miter" fill-opacity="0" stroke-miterlimit="10" class="anim-color-2" stroke="#FFEBD5" stroke-opacity="1" stroke-width="4" d="M-17.845-22.845c10.246 39.571 35.69 45.69 35.69 45.69"></path></g><g  opacity="1" transform="translate(331.447 232.255)"><path  stroke-linecap="butt" stroke-linejoin="miter" fill-opacity="0" stroke-miterlimit="10" class="anim-color-2" stroke="#FFEBD5" stroke-opacity="1" stroke-width="4" d="M-17.251-23.297c9.224 39.822 34.502 46.594 34.502 46.594"></path></g><g  opacity="1" transform="translate(321.547 241.566)"><path  stroke-linecap="butt" stroke-linejoin="miter" fill-opacity="0" stroke-miterlimit="10" class="anim-color-2" stroke="#FFEBD5" stroke-opacity="1" stroke-width="4" d="M-17.845-22.845c10.245 39.571 35.69 45.69 35.69 45.69"></path></g><g  opacity="1" transform="translate(109.486 390.176)"><path  stroke-linecap="round" stroke-linejoin="round" fill-opacity="0" class="anim-color-1" stroke="#353535" stroke-opacity="1" stroke-width="4" d="M-14.641 10.122s0 0 0 0c2.28 3.298 7.228 3.068 9.191-.427L5.449-9.694c1.964-3.496 6.911-3.726 9.191-.428 2.281 3.299.318 7.845-3.646 8.449l-21.989 3.347c-3.963.603-5.926 5.15-3.646 8.448z"></path></g><g  opacity="1" transform="translate(87.635 405.282)"><path  class="anim-color-3" fill="#F3E7D6" fill-opacity="1" d="m-2.677 1.852 5.354-3.704"></path><path  stroke-linecap="round" stroke-linejoin="round" fill-opacity="0" class="anim-color-1" stroke="#353535" stroke-opacity="1" stroke-width="4" d="m-2.677 1.852 5.354-3.704"></path></g><g  opacity="1" transform="translate(440.425 161.38)"><path  stroke-linecap="round" stroke-linejoin="round" fill-opacity="0" class="anim-color-1" stroke="#353535" stroke-opacity="1" stroke-width="4" d="M-14.641 10.122s0 0 0 0c2.28 3.298 7.228 3.068 9.191-.427L5.449-9.694c1.965-3.496 6.911-3.726 9.191-.427 2.281 3.298.318 7.845-3.646 8.448l-21.989 3.347c-3.963.603-5.926 5.15-3.646 8.448z"></path></g></g></g></svg>