<svg  xmlns="http://www.w3.org/2000/svg" viewBox="0 0 602 830" width="602" height="830" preserveAspectRatio="xMidYMid meet" style="width:100%;height:100%;transform:translate3d(0,0,0);content-visibility:visible" class=""><defs ><clipPath id="__partner__lottie_element_7"><path  d="M0 0h602v830H0z"></path></clipPath></defs><g  clip-path="url(#__partner__lottie_element_7)"><g  transform="translate(-2.729 -2.738)" opacity="1" style="display:block"><g  opacity="1" transform="translate(323.905 573.592)"><path  class="anim-color-1" fill="#353535" fill-opacity="1" d="M-111.503 7.068c104.985-1.372 207.224 0 252.511 0 89.203 0 76.166-15.096 30.192-15.096s-362.986 6.175-382.199 6.175c-19.213 0 26.079 9.881 99.496 8.921z"></path></g><g  opacity="1" transform="translate(284.489 550.719)"><path  class="anim-color-2" fill="#FFEBD5" fill-opacity="1" d="M-125.728-24.983c-10.979 13.037-57.916 15.059-58.373 32.899-.411 16.013 16.744 15.695 33.212 16.381 16.469.686 119.584 0 119.584 0h-.059 62.729-.059s103.115.686 119.583 0c16.468-.686 33.623-.368 33.213-16.381-.458-17.84-47.394-19.862-58.373-32.899"></path><path  stroke-linecap="round" stroke-linejoin="round" fill-opacity="0" class="anim-color-1" stroke="#353535" stroke-opacity="1" stroke-width="1" d="M-125.728-24.983c-10.979 13.037-57.916 15.059-58.373 32.899-.411 16.013 16.744 15.695 33.212 16.381 16.469.686 119.584 0 119.584 0h-.059 62.729-.059s103.115.686 119.583 0c16.468-.686 33.623-.368 33.213-16.381-.458-17.84-47.394-19.862-58.373-32.899"></path></g><g  opacity="1" transform="translate(434.634 544.335)"><path  class="anim-color-1" fill="#353535" fill-opacity="1" d="M-16.028 1.791c-.347-.036-.327-.547.021-.557C-10.426 1.08-.467.669 4.023-.357c5.338-1.221 7.549-2.517 7.549-2.517l4.804 1.754S12.372 1.357 2.765 2.272c-6.313.602-14.156.001-18.793-.481z"></path></g><g  opacity="1" transform="translate(184.608 545.198)"><path  class="anim-color-1" fill="#353535" fill-opacity="1" d="M-57.337-5.185s-2.745.305-5.49 1.524c-2.744 1.22-5.184 2.442-5.184 2.442s3.354 4.574 17.993 5.489S68.011.916 68.011.916L-57.337-5.185z"></path></g><g  opacity="1" transform="translate(285.862 439.936)"><path  class="anim-color-2" fill="#FFEBD5" fill-opacity="1" d="M132.59 105.802c16.468-.687 33.623-.368 33.212-16.381-.458-17.841-29.095-19.861-40.074-32.899-9.555-11.346-11.313-43.48-11.609-51.623v-65.898c7.328-4.096 12.286-11.927 12.286-20.919 0-13.229-10.724-23.953-23.953-23.953h-204.51c-13.229 0-23.954 10.724-23.954 23.953 0 8.992 4.958 16.823 12.287 20.919V2.725c-.135 4.114-1.635 41.484-12.003 53.797-10.979 13.038-39.617 15.058-40.075 32.899-.41 16.013 16.73 16.33 33.213 16.381 22.796.069 101.285 0 101.285 0h-.059"></path><path  stroke-linecap="round" stroke-linejoin="round" fill-opacity="0" class="anim-color-1" stroke="#353535" stroke-opacity="1" stroke-width="1" d="M132.59 105.802c16.468-.687 33.623-.368 33.212-16.381-.458-17.841-29.095-19.861-40.074-32.899-9.555-11.346-11.313-43.48-11.609-51.623v-65.898c7.328-4.096 12.286-11.927 12.286-20.919 0-13.229-10.724-23.953-23.953-23.953h-204.51c-13.229 0-23.954 10.724-23.954 23.953 0 8.992 4.958 16.823 12.287 20.919V2.725c-.135 4.114-1.635 41.484-12.003 53.797-10.979 13.038-39.617 15.058-40.075 32.899-.41 16.013 16.73 16.33 33.213 16.381 22.796.069 101.285 0 101.285 0h-.059"></path></g><g  opacity="1"><path  class="anim-color-3" fill="#F3E7D6" fill-opacity="1" d="M255.142 378.937h144.37"></path><path  stroke-linecap="round" stroke-linejoin="round" fill-opacity="0" class="anim-color-1" stroke="#353535" stroke-opacity="1" stroke-width="1" d="M255.142 378.937h144.37"></path></g><g  opacity="1"><path  class="anim-color-3" fill="#F3E7D6" fill-opacity="1" d="M238.446 378.937h9.835"></path><path  stroke-linecap="round" stroke-linejoin="round" fill-opacity="0" class="anim-color-1" stroke="#353535" stroke-opacity="1" stroke-width="1" d="M238.446 378.937h9.835"></path></g><g  opacity="1"><path  class="anim-color-3" fill="#F3E7D6" fill-opacity="1" d="M172.137 378.937h45.758"></path><path  stroke-linecap="round" stroke-linejoin="round" fill-opacity="0" class="anim-color-1" stroke="#353535" stroke-opacity="1" stroke-width="1" d="M172.137 378.937h45.758"></path></g><g  opacity="1" transform="translate(285.643 274.629)"><path  class="anim-color-2" fill="#FFEBD5" fill-opacity="1" d="m24.416-9.777.014-.003c-9.817-11.751-10.518-25.659-10.244-31.948.062-1.423-1.501-2.324-2.707-1.568-9.573 5.998-38.981 26.049-43.354 48.494l.055-.015a32.583 32.583 0 0 0-.637 6.414c0 17.925 14.532 32.456 32.457 32.456s32.457-14.531 32.457-32.456c0-8.188-3.039-15.664-8.041-21.374z"></path><path  stroke-linecap="round" stroke-linejoin="round" fill-opacity="0" class="anim-color-1" stroke="#353535" stroke-opacity="1" stroke-width="1" d="m24.416-9.777.014-.003c-9.817-11.751-10.518-25.659-10.244-31.948.062-1.423-1.501-2.324-2.707-1.568-9.573 5.998-38.981 26.049-43.354 48.494l.055-.015a32.583 32.583 0 0 0-.637 6.414c0 17.925 14.532 32.456 32.457 32.456s32.457-14.531 32.457-32.456c0-8.188-3.039-15.664-8.041-21.374z"></path></g><g  opacity="1" transform="translate(291.99 219.908)"><path  class="anim-color-2" fill="#FFEBD5" fill-opacity="1" d="M3.169-.749c-.683-1.45-.385-2.877-.19-3.507a.186.186 0 0 0-.233-.231c-1.129.354-4.639 1.606-5.677 3.763h.007a3.398 3.398 0 1 0 6.093-.025z"></path><path  stroke-linecap="round" stroke-linejoin="round" fill-opacity="0" class="anim-color-1" stroke="#353535" stroke-opacity="1" stroke-width="1" d="M3.169-.749s0 0 0 0c-.683-1.45-.385-2.877-.19-3.507a.186.186 0 0 0-.233-.231c-1.129.354-4.639 1.606-5.677 3.763h.007a3.398 3.398 0 1 0 6.093-.025z"></path></g><g  opacity="1" transform="translate(315.598 240)"><path  class="anim-color-1" fill="#353535" fill-opacity="1" d="M9.123 3.278a9.213 9.213 0 0 0-.176-1.801l.016.003C7.751-4.827-.495-10.479-3.179-12.171a.496.496 0 0 0-.762.438c.072 1.767-.134 5.673-2.899 8.966l.01.003a9.075 9.075 0 0 0-2.281 5.997 9.117 9.117 0 1 0 18.234.045z"></path></g><g  opacity="1" transform="translate(210.072 506.026)"><path  class="anim-color-2" fill="#FFEBD5" fill-opacity="1" d="M19.107-.001c0 6.36-8.555 11.517-19.107 11.517-10.553 0-19.107-5.157-19.107-11.517 0-6.36 8.554-11.516 19.107-11.516 10.552 0 19.107 5.156 19.107 11.516z"></path><path  stroke-linecap="round" stroke-linejoin="round" fill-opacity="0" class="anim-color-1" stroke="#353535" stroke-opacity="1" stroke-width="1" d="M19.107-.001c0 6.36-8.555 11.517-19.107 11.517-10.553 0-19.107-5.157-19.107-11.517 0-6.36 8.554-11.516 19.107-11.516 10.552 0 19.107 5.156 19.107 11.516z"></path></g><g  opacity="1" transform="translate(209.889 506.026)"><path  class="anim-color-1" fill="#353535" fill-opacity="1" d="M-5.523-11.08c-3.917 2.047-6.6 6.201-6.6 10.995 0 5.002 2.919 9.305 7.115 11.248 1.549.23 3.172.353 4.843.353 1.857 0 3.651-.154 5.354-.435 4.1-1.982 6.934-6.236 6.934-11.166 0-4.731-2.611-8.839-6.444-10.914a32.706 32.706 0 0 0-5.844-.518c-1.858 0-3.654.155-5.358.437z"></path></g><g  opacity="1" transform="translate(360.581 506.026)"><path  class="anim-color-2" fill="#FFEBD5" fill-opacity="1" d="M19.107-.001c0 6.36-8.556 11.517-19.108 11.517-10.552 0-19.106-5.157-19.106-11.517 0-6.36 8.554-11.516 19.106-11.516 10.552 0 19.108 5.156 19.108 11.516z"></path><path  stroke-linecap="round" stroke-linejoin="round" fill-opacity="0" class="anim-color-1" stroke="#353535" stroke-opacity="1" stroke-width="1" d="M19.107-.001c0 6.36-8.556 11.517-19.108 11.517-10.552 0-19.106-5.157-19.106-11.517 0-6.36 8.554-11.516 19.106-11.516 10.552 0 19.108 5.156 19.108 11.516z"></path></g><g  opacity="1" transform="translate(360.398 506.026)"><path  class="anim-color-1" fill="#353535" fill-opacity="1" d="M-5.524-11.08c-3.917 2.047-6.599 6.201-6.599 10.995 0 5.002 2.919 9.305 7.114 11.248 1.549.23 3.172.353 4.843.353 1.857 0 3.652-.154 5.354-.435 4.1-1.982 6.935-6.236 6.935-11.166 0-4.731-2.611-8.839-6.444-10.914a32.717 32.717 0 0 0-5.845-.518c-1.858 0-3.654.155-5.358.437z"></path></g><g  opacity="1" transform="translate(330.465 382.718)"><path  class="anim-color-1" fill="#353535" fill-opacity="1" d="M-69.307-3.889 69.307 3.888V-3.66l-138.614-.229z"></path></g><g  opacity="1" transform="translate(284.032 523.734)"><path  stroke-linecap="round" stroke-linejoin="round" fill-opacity="0" class="anim-color-1" stroke="#353535" stroke-opacity="1" stroke-width="1" d="M17.384 1.487S10.751-1.487.229-1.487c-11.666 0-17.613 2.974-17.613 2.974"></path></g></g></g></svg>