<svg  xmlns="http://www.w3.org/2000/svg" viewBox="0 0 602 650" width="602" height="650" preserveAspectRatio="xMidYMid meet" style="width:100%;height:100%;transform:translate3d(0,0,0);content-visibility:visible"><defs ><clipPath id="__path__lottie_element_7"><path  d="M0 0h602v650H0z"></path></clipPath></defs><g  clip-path="url(#__path__lottie_element_7)"><g  transform="translate(-2.794 -1.706)" opacity="1" style="display:block"><g  opacity="1" transform="translate(303.876 326.296)"><path  class="anim-color-1" fill="#353535" fill-opacity="1" d="M-301.214 323.796h602.428v-647.592h-602.428v647.592z"></path></g><g  opacity="1" transform="translate(374.313 280.457)"><path  class="anim-color-2" fill="#FFEBD5" fill-opacity="1" d="M20.586 17.581S-20.438-17.582-20.53-17.305c-.056 16.179.092 34.469.092 34.469"></path></g><g  opacity="1" transform="translate(368.527 456.692)"><path  stroke-linecap="round" stroke-linejoin="round" fill-opacity="0" class="anim-color-3" stroke="#F3E7D6" stroke-opacity="1" stroke-width="1" d="m-14.652-159.072 35.164 52.745-177.491 64.884 54.419 123.491L1.255 159.072 156.979-62.791 25.953-159.072"></path></g><g  opacity="1" transform="translate(478.58 431.318)"><path  class="anim-color-1" fill="#353535" fill-opacity="1" d="m123.909 204.025-247.817-4.928s13.814-75.35 28.883-136.885c11.053-45.132 43.118-84.141 90.839-90.42 47.722-6.28 82.885 12.558 82.885 12.558S72.42-53.325 90.002-122.396c17.581-69.07 33.907-81.629 33.907-81.629"></path><path  stroke-linecap="round" stroke-linejoin="round" fill-opacity="0" class="anim-color-2" stroke="#FFEBD5" stroke-opacity="1" stroke-width="1" d="m123.909 204.025-247.817-4.928s13.814-75.35 28.883-136.885c11.053-45.132 43.118-84.141 90.839-90.42 47.722-6.28 82.885 12.558 82.885 12.558S72.42-53.325 90.002-122.396c17.581-69.07 33.907-81.629 33.907-81.629"></path></g><g  opacity="1" transform="translate(583.579 218.926)"><path  class="anim-color-1" fill="#353535" fill-opacity="1" d="M5.931-3.707C2.036-9.994-5.62-11.465-7.052-11.46c-.844.002-2.774 8.726 1.121 15.013 3.894 6.287 12.793 7.912 12.982 7.754.191-.159 2.775-8.727-1.12-15.014z"></path><path  stroke-linecap="round" stroke-linejoin="round" fill-opacity="0" class="anim-color-2" stroke="#FFEBD5" stroke-opacity="1" stroke-width="1" d="M5.931-3.707C2.036-9.994-5.62-11.465-7.052-11.46c-.844.002-2.774 8.726 1.121 15.013 3.894 6.287 12.793 7.912 12.982 7.754.191-.159 2.775-8.727-1.12-15.014z"></path></g><g  opacity="1" transform="translate(582.059 234.834)"><path  class="anim-color-1" fill="#353535" fill-opacity="1" d="M.253-6.076c-8.375 2.203-12.9 11.195-12.9 11.195S-6.612 5.237.62 6.568C7.234 7.785 12.647.049 12.607-.173 12.568-.394 6.758-7.786.253-6.076z"></path><path  stroke-linecap="round" stroke-linejoin="round" fill-opacity="0" class="anim-color-2" stroke="#FFEBD5" stroke-opacity="1" stroke-width="1" d="M.253-6.076c-8.375 2.203-12.9 11.195-12.9 11.195S-6.612 5.237.62 6.568C7.234 7.785 12.647.049 12.607-.173 12.568-.394 6.758-7.786.253-6.076z"></path></g><g  opacity="1" transform="translate(588.677 234.508)"><path  class="anim-color-1" fill="#353535" fill-opacity="1" d="M-5.989.367S1.497-.367 5.989.154"></path><path  stroke-linecap="round" stroke-linejoin="round" fill-opacity="0" class="anim-color-3" stroke="#F3E7D6" stroke-opacity="1" stroke-width="1" d="M-5.989.367S1.497-.367 5.989.154"></path></g><g  opacity="1" transform="translate(589.105 227.845)"><path  class="anim-color-1" fill="#353535" fill-opacity="1" d="M-5.224-8.924S3.267 4.354 5.224 8.924"></path><path  stroke-linecap="round" stroke-linejoin="round" fill-opacity="0" class="anim-color-3" stroke="#F3E7D6" stroke-opacity="1" stroke-width="1" d="M-5.224-8.924S3.267 4.354 5.224 8.924"></path></g><g  opacity="1" transform="translate(597.538 225.252)"><path  class="anim-color-1" fill="#353535" fill-opacity="1" d="M6.782 1.821C8.378-5.4 3.919-11.796 2.889-12.791c-.606-.588-8.076 4.317-9.671 11.538C-8.378 5.968-3.137 13.341-2.89 13.36c.246.019 8.075-4.318 9.672-11.539z"></path><path  stroke-linecap="round" stroke-linejoin="round" fill-opacity="0" class="anim-color-2" stroke="#FFEBD5" stroke-opacity="1" stroke-width="1" d="M6.782 1.821C8.378-5.4 3.919-11.796 2.889-12.791c-.606-.588-8.076 4.317-9.671 11.538C-8.378 5.968-3.137 13.341-2.89 13.36c.246.019 8.075-4.318 9.672-11.539z"></path></g><g  opacity="1" transform="translate(596.176 232.205)"><path  class="anim-color-1" fill="#353535" fill-opacity="1" d="M1.528-6.407S.258 1.768-1.528 6.407"></path><path  stroke-linecap="round" stroke-linejoin="round" fill-opacity="0" class="anim-color-3" stroke="#F3E7D6" stroke-opacity="1" stroke-width="1" d="M1.528-6.407S.258 1.768-1.528 6.407"></path></g><g  opacity="1" transform="translate(585.518 248.507)"><path  class="anim-color-1" fill="#353535" fill-opacity="1" d="M-5.343-4.787C-10.047.919-8.983 8.643-8.519 9.998c.274.798 9.155-.173 13.86-5.88 4.705-5.706 3.386-14.655 3.176-14.784-.211-.13-9.156.172-13.86 5.879z"></path><path  stroke-linecap="round" stroke-linejoin="round" fill-opacity="0" class="anim-color-2" stroke="#FFEBD5" stroke-opacity="1" stroke-width="1" d="M-5.343-4.787C-10.047.919-8.983 8.643-8.519 9.998c.274.798 9.155-.173 13.86-5.88 4.705-5.706 3.386-14.655 3.176-14.784-.211-.13-9.156.172-13.86 5.879z"></path></g><g  opacity="1" transform="translate(589.762 242.852)"><path  class="anim-color-1" fill="#353535" fill-opacity="1" d="M-4.274 5.011S.574-1.691 4.274-5.011"></path><path  stroke-linecap="round" stroke-linejoin="round" fill-opacity="0" class="anim-color-3" stroke="#F3E7D6" stroke-opacity="1" stroke-width="1" d="M-4.274 5.011S.574-1.691 4.274-5.011"></path></g><g  opacity="1" transform="translate(426.251 429.79)"><path  class="anim-color-1" fill="#353535" fill-opacity="1" d="M12.155 1.355a5.351 5.351 0 0 0-.924-7.049 6.925 6.925 0 0 0 2.169-4.523c1.806.47 3.787-.194 4.896-1.826a4.5 4.5 0 0 0 .77-2.412 4.009 4.009 0 0 0 4.489-6.643 4.009 4.009 0 0 0-5.568 1.067 3.962 3.962 0 0 0-.657 1.888c-.083-.065-.153-.142-.241-.202a4.538 4.538 0 0 0-6.302 1.207 4.487 4.487 0 0 0-.356.655l-.059-.044a6.965 6.965 0 0 0-9.673 1.853 6.948 6.948 0 0 0-.758 6.339c-3.064-.802-6.432.344-8.312 3.115a7.646 7.646 0 0 0-1.321 4.169c-.083-.06-.159-.125-.243-.183A9.023 9.023 0 0 0-22.1 11.801a5.106 5.106 0 0 0-2.173 1.809 5.14 5.14 0 1 0 8.505 5.769 5.12 5.12 0 0 0 .73-4.125 9.014 9.014 0 0 0 6.685-2.938 5.784 5.784 0 0 0 2.287 3.102 5.804 5.804 0 0 0 8.061-1.544 5.778 5.778 0 0 0 .911-4.25A3.481 3.481 0 0 0 6.402 3.62c-.106-.073-.221-.121-.332-.18a5.353 5.353 0 0 0 6.085-2.085z"></path><path  stroke-linecap="round" stroke-linejoin="round" fill-opacity="0" class="anim-color-2" stroke="#FFEBD5" stroke-opacity="1" stroke-width="1" d="M12.155 1.355a5.351 5.351 0 0 0-.924-7.049 6.925 6.925 0 0 0 2.169-4.523c1.806.47 3.787-.194 4.896-1.826a4.5 4.5 0 0 0 .77-2.412 4.009 4.009 0 0 0 4.489-6.643 4.009 4.009 0 0 0-5.568 1.067 3.962 3.962 0 0 0-.657 1.888c-.083-.065-.153-.142-.241-.202a4.538 4.538 0 0 0-6.302 1.207 4.487 4.487 0 0 0-.356.655l-.059-.044a6.965 6.965 0 0 0-9.673 1.853 6.948 6.948 0 0 0-.758 6.339c-3.064-.802-6.432.344-8.312 3.115a7.646 7.646 0 0 0-1.321 4.169c-.083-.06-.159-.125-.243-.183A9.023 9.023 0 0 0-22.1 11.801a5.106 5.106 0 0 0-2.173 1.809 5.14 5.14 0 1 0 8.505 5.769 5.12 5.12 0 0 0 .73-4.125 9.014 9.014 0 0 0 6.685-2.938 5.784 5.784 0 0 0 2.287 3.102 5.804 5.804 0 0 0 8.061-1.544 5.778 5.778 0 0 0 .911-4.25A3.481 3.481 0 0 0 6.402 3.62c-.106-.073-.221-.121-.332-.18a5.353 5.353 0 0 0 6.085-2.085z"></path></g><g  opacity="1" transform="translate(569.57 395.38)"><path  class="anim-color-1" fill="#353535" fill-opacity="1" d="M-18.232-10.359s15.101-7.616 24.333-.172c12.131 9.781 3.22 20.67-6.9 14.117-9.386-6.078-12.043 14.388-12.043 14.388"></path><path  stroke-linecap="round" stroke-linejoin="round" fill-opacity="0" class="anim-color-2" stroke="#FFEBD5" stroke-opacity="1" stroke-width="1" d="M-18.232-10.359s15.101-7.616 24.333-.172c12.131 9.781 3.22 20.67-6.9 14.117-9.386-6.078-12.043 14.388-12.043 14.388"></path></g><g  opacity="1" transform="translate(567.075 366.999)"><path  class="anim-color-1" fill="#353535" fill-opacity="1" d="M-15.401 40.995s3.666-21.766 22.157-39.946c23.594-23.198 6.772-42.044-13.79-23.311-23.315 21.242-8.367 63.257-8.367 63.257z"></path><path  stroke-linecap="round" stroke-linejoin="round" fill-opacity="0" class="anim-color-2" stroke="#FFEBD5" stroke-opacity="1" stroke-width="1" d="M-15.401 40.995s3.666-21.766 22.157-39.946c23.594-23.198 6.772-42.044-13.79-23.311-23.315 21.242-8.367 63.257-8.367 63.257z"></path></g><g  opacity="1" transform="translate(525.102 399.848)"><path  class="anim-color-1" fill="#353535" fill-opacity="1" d="M26.734 11.633c-5.441-5.441-13.396-3.188-26.791.419-21.768 5.86-33.907-20.931-2.511-26.373 20.726-3.592 36.533 12.437 34.449 30.586l-5.147-4.632z"></path><path  stroke-linecap="round" stroke-linejoin="round" fill-opacity="0" class="anim-color-2" stroke="#FFEBD5" stroke-opacity="1" stroke-width="1" d="M26.734 11.633c-5.441-5.441-13.396-3.188-26.791.419-21.768 5.86-33.907-20.931-2.511-26.373 20.726-3.592 36.533 12.437 34.449 30.586l-5.147-4.632z"></path></g><g  opacity="1" transform="translate(402.263 536.647)"><path  class="anim-color-2" fill="#FFEBD5" fill-opacity="1" d="M202.398 113.443V57.349s-33.907-13.813-87.908-12.557c-54 1.256-99.21 32.651-99.21 32.651s-2.512-30.14-51.908-74.094C-86.024-40.605-177.281-42.28-177.281-42.28s13.814-29.72-25.117-71.163v226.886h404.796z"></path></g><g  opacity="1" transform="translate(525.872 615.417)"><path  class="anim-color-2" fill="#FFEBD5" fill-opacity="1" d="M-16.314-25.549S1.891-26.346 12.328-9.9c8.964 14.126 7.39 27.678-.937 31.942-8.407 4.305-19.915-.792-26.608-16.759-6.076-14.491-1.097-30.832-1.097-30.832z"></path><path  stroke-linecap="round" stroke-linejoin="round" fill-opacity="0" class="anim-color-1" stroke="#353535" stroke-opacity="1" stroke-width="1" d="M-16.314-25.549S1.891-26.346 12.328-9.9c8.964 14.126 7.39 27.678-.937 31.942-8.407 4.305-19.915-.792-26.608-16.759-6.076-14.491-1.097-30.832-1.097-30.832z"></path></g><g  opacity="1" transform="translate(528.893 598.391)"><path  class="anim-color-1" fill="#353535" fill-opacity="1" d="M-9.209-7.326s.419 2.512 4.187 5.442c3.766 2.93 14.231 9.21 14.231 9.21S4.187-.627 2.931-2.721C1.675-4.813-9.209-7.326-9.209-7.326z"></path></g><g  opacity="1" transform="translate(510.269 594.89)"><path  stroke-linecap="round" stroke-linejoin="round" fill-opacity="0" class="anim-color-1" stroke="#353535" stroke-opacity="1" stroke-width="1" d="M-14.713-11.609s4.529-2.139 13.766 6.748C5.048.906 10.596 6.734 14.714 13.748"></path></g><g  opacity="1" transform="translate(536.577 585.875)"><path  class="anim-color-2" fill="#FFEBD5" fill-opacity="1" d="M-26.204-7.282s11.874-12.263 29.562-7.791C18.551-11.232 26.205-.998 23.284 7.264 20.335 15.606 9.222 19.545-5.61 12.99-19.073 7.04-26.204-7.282-26.204-7.282z"></path><path  stroke-linecap="round" stroke-linejoin="round" fill-opacity="0" class="anim-color-1" stroke="#353535" stroke-opacity="1" stroke-width="1" d="M-26.204-7.282s11.874-12.263 29.562-7.791C18.551-11.232 26.205-.998 23.284 7.264 20.335 15.606 9.222 19.545-5.61 12.99-19.073 7.04-26.204-7.282-26.204-7.282z"></path></g><g  opacity="1" transform="translate(514.778 580.939)"><path  stroke-linecap="round" stroke-linejoin="round" fill-opacity="0" class="anim-color-1" stroke="#353535" stroke-opacity="1" stroke-width="1" d="M-18.173 2.185s1.706-4.371 13.711-4.271c7.792.066 15.317.46 22.636 2.582"></path></g><g  opacity="1" transform="translate(283.975 503.885)"><path  class="anim-color-2" fill="#FFEBD5" fill-opacity="1" d="M-3.845 5.638c-.076.1-.16.192-.227.303a3.49 3.49 0 0 0 1.204 4.786 3.477 3.477 0 0 0 4.498-.816 5.782 5.782 0 0 0 2.619 3.47 5.805 5.805 0 0 0 7.961-1.999 5.777 5.777 0 0 0 .765-3.775 9.012 9.012 0 0 0 7.301-.156 5.127 5.127 0 0 0 2.4 3.434 5.139 5.139 0 0 0 5.28-8.819 5.112 5.112 0 0 0-2.732-.724 9.023 9.023 0 0 0-16.527-6.69c-.052.088-.094.179-.144.268a7.647 7.647 0 0 0-2.955-3.223c-2.872-1.72-6.411-1.34-8.851.679a6.944 6.944 0 0 0-3.36-5.427 6.962 6.962 0 0 0-9.551 2.397c-.013.022-.023.045-.035.066a4.605 4.605 0 0 0-.599-.445 4.538 4.538 0 0 0-6.224 1.563c-.055.091-.086.19-.134.285a3.962 3.962 0 0 0-1.391-1.435 4.01 4.01 0 1 0 1.373 5.511 4.496 4.496 0 0 0 1.716 1.862c1.693 1.013 3.768.78 5.208-.409a6.906 6.906 0 0 0 3.874 3.188 5.353 5.353 0 0 0 2.134 6.782 5.355 5.355 0 0 0 6.397-.676z"></path><path  stroke-linecap="round" stroke-linejoin="round" fill-opacity="0" class="anim-color-1" stroke="#353535" stroke-opacity="1" stroke-width="1" d="M-3.845 5.638c-.076.1-.16.192-.227.303a3.49 3.49 0 0 0 1.204 4.786 3.477 3.477 0 0 0 4.498-.816 5.782 5.782 0 0 0 2.619 3.47 5.805 5.805 0 0 0 7.961-1.999 5.777 5.777 0 0 0 .765-3.775 9.012 9.012 0 0 0 7.301-.156 5.127 5.127 0 0 0 2.4 3.434 5.139 5.139 0 0 0 5.28-8.819 5.112 5.112 0 0 0-2.732-.724 9.023 9.023 0 0 0-16.527-6.69c-.052.088-.094.179-.144.268a7.647 7.647 0 0 0-2.955-3.223c-2.872-1.72-6.411-1.34-8.851.679a6.944 6.944 0 0 0-3.36-5.427 6.962 6.962 0 0 0-9.551 2.397c-.013.022-.023.045-.035.066a4.605 4.605 0 0 0-.599-.445 4.538 4.538 0 0 0-6.224 1.563c-.055.091-.086.19-.134.285a3.962 3.962 0 0 0-1.391-1.435 4.01 4.01 0 1 0 1.373 5.511 4.496 4.496 0 0 0 1.716 1.862c1.693 1.013 3.768.78 5.208-.409a6.906 6.906 0 0 0 3.874 3.188 5.353 5.353 0 0 0 2.134 6.782 5.355 5.355 0 0 0 6.397-.676z"></path></g><g  opacity="1" transform="translate(364.721 549.931)"><path  class="anim-color-1" fill="#353535" fill-opacity="1" d="m-9.022-4.924 2.558-1.665a.435.435 0 0 0 .172-.22l2.081-5.859a.438.438 0 0 1 .71-.174l3.383 3.135a.438.438 0 0 0 .213.108l9.714 1.907a.438.438 0 0 1 .251.709L6.832-3.094a.437.437 0 0 0-.078.417l2.49 7.502c.058.177 0 .37-.148.484L5.895 7.783a.438.438 0 0 0-.164.272l-.791 4.533a.44.44 0 0 1-.688.28l-6.257-4.516a.435.435 0 0 0-.238-.082l-7.504-.3a.437.437 0 0 1-.36-.657l5.767-9.924"></path></g><g  opacity="1" transform="translate(384.074 570.345)"><path  class="anim-color-2" fill="#FFEBD5" fill-opacity="1" d="M-7.438 7.263c7.767 7.783 19.349 7.322 21.421 6.831 1.221-.289 1.062-13.573-6.704-21.357-7.766-7.784-21.198-7.123-21.42-6.829-.222.293-1.063 13.571 6.703 21.355z"></path><path  stroke-linecap="round" stroke-linejoin="round" fill-opacity="0" class="anim-color-1" stroke="#353535" stroke-opacity="1" stroke-width="1" d="M-7.438 7.263c7.767 7.783 19.349 7.322 21.421 6.831 1.221-.289 1.062-13.573-6.704-21.357-7.766-7.784-21.198-7.123-21.42-6.829-.222.293-1.063 13.571 6.703 21.355z"></path></g><g  opacity="1" transform="translate(376.207 569.816)"><path  class="anim-color-1" fill="#353535" fill-opacity="1" d="M-5.754-11.831S-.107-7.216 2.405 1.994c2.512 9.209 3.349 9.837 3.349 9.837S-.526 7.436-1.362 6.18C-2.2 4.924-5.754-11.831-5.754-11.831z"></path></g><g  opacity="1" transform="translate(379.317 555.439)"><path  class="anim-color-1" fill="#353535" fill-opacity="1" d="M5.447 4.954a79.54 79.54 0 0 0 3.203-.003C.551-4.979-6.176.525-8.65.7-4.854 4.193.479 4.842 5.447 4.954z"></path></g><g  opacity="1" transform="translate(379.91 547.623)"><path  class="anim-color-2" fill="#FFEBD5" fill-opacity="1" d="M2.565 7.948c11.38-6.023 14.887-20.573 14.887-20.573s-8.777 1.87-19.698 2.391c-9.988.477-15.205 13.509-15.073 13.817.131.307 11.046 9.043 19.884 4.365z"></path><path  stroke-linecap="round" stroke-linejoin="round" fill-opacity="0" class="anim-color-1" stroke="#353535" stroke-opacity="1" stroke-width="1" d="M2.565 7.948c11.38-6.023 14.887-20.573 14.887-20.573s-8.777 1.87-19.698 2.391c-9.988.477-15.205 13.509-15.073 13.817.131.307 11.046 9.043 19.884 4.365z"></path></g><g  opacity="1" transform="translate(371.225 549.025)"><path  class="anim-color-3" fill="#F3E7D6" fill-opacity="1" d="M8.635-2.181S-1.957 1.416-8.635 2.181"></path><path  stroke-linecap="round" stroke-linejoin="round" fill-opacity="0" class="anim-color-1" stroke="#353535" stroke-opacity="1" stroke-width="1" d="M8.635-2.181S-1.957 1.416-8.635 2.181"></path></g><g  opacity="1" transform="translate(374.235 542.042)"><path  class="anim-color-1" fill="#353535" fill-opacity="1" d="M8.144-5.395c.001 0-2.398.634-4.716.744-5.157.246-9.039 3.84-11.573 7.301 6.402 2.745 16.29-8.045 16.289-8.045z"></path></g><g  opacity="1" transform="translate(375.139 562.17)"><path  class="anim-color-3" fill="#F3E7D6" fill-opacity="1" d="M8.394 8.174S-4.015-2.22-8.394-8.174"></path><path  stroke-linecap="round" stroke-linejoin="round" fill-opacity="0" class="anim-color-1" stroke="#353535" stroke-opacity="1" stroke-width="1" d="M8.394 8.174S-4.015-2.22-8.394-8.174"></path></g><g  opacity="1" transform="translate(371.262 528.076)"><path  class="anim-color-2" fill="#FFEBD5" fill-opacity="1" d="M9.241 5.112c4.879-9.854.722-20.675-.408-22.479-.666-1.064-13.195 3.35-18.073 13.204-4.879 9.853.057 22.363.406 22.479.349.115 13.195-3.35 18.075-13.204z"></path><path  stroke-linecap="round" stroke-linejoin="round" fill-opacity="0" class="anim-color-1" stroke="#353535" stroke-opacity="1" stroke-width="1" d="M9.241 5.112c4.879-9.854.722-20.675-.408-22.479-.666-1.064-13.195 3.35-18.073 13.204-4.879 9.853.057 22.363.406 22.479.349.115 13.195-3.35 18.075-13.204z"></path></g><g  opacity="1" transform="translate(366.918 537.69)"><path  class="anim-color-3" fill="#F3E7D6" fill-opacity="1" d="M4.49-8.702S-.258 2.643-4.49 8.702"></path><path  stroke-linecap="round" stroke-linejoin="round" fill-opacity="0" class="anim-color-1" stroke="#353535" stroke-opacity="1" stroke-width="1" d="M4.49-8.702S-.258 2.643-4.49 8.702"></path></g><g  opacity="1" transform="translate(356.554 564.964)"><path  class="anim-color-2" fill="#FFEBD5" fill-opacity="1" d="M-5.274-6.692c-6.041 8.18-3.562 19.738-3.562 19.738s5.608-4.334 13.204-8.44c6.947-3.756 6.204-14.818 6.004-14.991-.198-.175-10.955-2.661-15.646 3.693z"></path><path  stroke-linecap="round" stroke-linejoin="round" fill-opacity="0" class="anim-color-1" stroke="#353535" stroke-opacity="1" stroke-width="1" d="M-5.274-6.692c-6.041 8.18-3.562 19.738-3.562 19.738s5.608-4.334 13.204-8.44c6.947-3.756 6.204-14.818 6.004-14.991-.198-.175-10.955-2.661-15.646 3.693z"></path></g><g  opacity="1" transform="translate(361.526 559.083)"><path  class="anim-color-3" fill="#F3E7D6" fill-opacity="1" d="M-5.4 4.506S.908-1.678 5.4-4.506"></path><path  stroke-linecap="round" stroke-linejoin="round" fill-opacity="0" class="anim-color-1" stroke="#353535" stroke-opacity="1" stroke-width="1" d="M-5.4 4.506S.908-1.678 5.4-4.506"></path></g><g  opacity="1" transform="translate(368.507 572.13)"><path  class="anim-color-2" fill="#FFEBD5" fill-opacity="1" d="M-8.086-.142C-8.189 8.542-1.611 16.367-.19 17.264c.837.53 8.173-8.992 8.276-17.676.103-8.682-9.545-17.382-9.834-17.345-.288.037-6.235 8.931-6.338 17.615z"></path><path  stroke-linecap="round" stroke-linejoin="round" fill-opacity="0" class="anim-color-1" stroke="#353535" stroke-opacity="1" stroke-width="1" d="M-8.086-.142C-8.189 8.542-1.611 16.367-.19 17.264c.837.53 8.173-8.992 8.276-17.676.103-8.682-9.545-17.382-9.834-17.345-.288.037-6.235 8.931-6.338 17.615z"></path></g><g  opacity="1" transform="translate(367.034 563.892)"><path  class="anim-color-3" fill="#F3E7D6" fill-opacity="1" d="M1.216 9.519S-1.216-3.758-.275-9.519"></path><path  stroke-linecap="round" stroke-linejoin="round" fill-opacity="0" class="anim-color-1" stroke="#353535" stroke-opacity="1" stroke-width="1" d="M1.216 9.519S-1.216-3.758-.275-9.519"></path></g><g  opacity="1" transform="translate(407.287 623.089)"><path  stroke-linecap="round" stroke-linejoin="round" fill-opacity="0" class="anim-color-1" stroke="#353535" stroke-opacity="1" stroke-width="1" d="M10.256-9S-3.14 1.047-10.256 9"></path></g><g  opacity="1" transform="translate(303.379 78.353)"><path  class="anim-color-1" fill="#353535" fill-opacity="1" d="M-300.879-75.497V75.497s99.159-2.659 149.611-39.252c70.622-51.222 76.357-93.096 76.357-93.096S-48.649-34.302 7.52-34.423c56.17-.121 77.326-30.306 77.326-30.306s46.01 48.63 119.751 48.472c77.527-.167 96.282-59.24 96.282-59.24"></path><path  stroke-linecap="round" stroke-linejoin="round" fill-opacity="0" class="anim-color-2" stroke="#FFEBD5" stroke-opacity="1" stroke-width="1" d="M-300.879-75.497V75.497s99.159-2.659 149.611-39.252c70.622-51.222 76.357-93.096 76.357-93.096S-48.649-34.302 7.52-34.423c56.17-.121 77.326-30.306 77.326-30.306s46.01 48.63 119.751 48.472c77.527-.167 96.282-59.24 96.282-59.24"></path></g><g  opacity="1" transform="translate(390.344 10.346)"><path  class="anim-color-1" fill="#353535" fill-opacity="1" d="M-2.119 3.278c.239.034 3.488-5.216 4.238-6.591"></path><path  stroke-linecap="round" stroke-linejoin="round" fill-opacity="0" class="anim-color-2" stroke="#FFEBD5" stroke-opacity="1" stroke-width="1" d="M-2.119 3.278c.239.034 3.488-5.216 4.238-6.591"></path></g><g  opacity="1" transform="translate(149.384 368.784)"><path  class="anim-color-1" fill="#353535" fill-opacity="1" d="m81.422 279.953-228.145 1.354v-562.614s94.187 56.931 118.467 133.955C-5.155-74.065-1.046-2.094-1.046-2.094S60.35 4.344 99.002 46.046c47.721 51.489 46.046 118.886 5.441 230.654"></path><path  stroke-linecap="round" stroke-linejoin="round" fill-opacity="0" class="anim-color-3" stroke="#F3E7D6" stroke-opacity="1" stroke-width="1" d="m81.422 279.953-228.145 1.354v-562.614s94.187 56.931 118.467 133.955C-5.155-74.065-1.046-2.094-1.046-2.094S60.35 4.344 99.002 46.046c47.721 51.489 46.046 118.886 5.441 230.654"></path></g><g  opacity="1" transform="translate(153.044 418.159)"><path  class="anim-color-1" fill="#353535" fill-opacity="1" d="M-15.59 5.882s13.814 2.512 26.373-9.628C15.59-8.393-5.962-7.514-5.962-7.514L-15.59 5.882z"></path></g><g  opacity="1" transform="translate(144.152 451.669)"><path  class="anim-color-2" fill="#FFEBD5" fill-opacity="1" d="M-141.49-198.421s83.527 14.125 100.885 97.116C-27.21-37.257-30.558-.837-30.558-.837S75.06 12.429 110.094 86.234c31.396 66.14 16.745 112.188 16.745 112.188H-141.49v-396.843z"></path></g><g  opacity="1" transform="translate(215.837 520.529)"><path  class="anim-color-1" fill="#353535" fill-opacity="1" d="M31.293 3.978s-7.342 1.256-11.188 0c-3.847-1.256-7.343-3.35-7.343-3.35s4.542 35.163-25.423 33.49c-12.206-.683-18.632-26.373-13.038-44.373 5.595-18 9.091-18.419 9.091-18.419s26.573-7.117 36.013 10.465C28.846-.627 31.293 3.978 31.293 3.978z"></path></g><g  opacity="1" transform="translate(124.268 467.227)"><path  class="anim-color-1" fill="#353535" fill-opacity="1" d="M4.396-13.326s-9.488-2.512-10.604-1.953c-1.117.558 4.324 31.117 4.324 31.117s5.861-4.605 7.535-13.396c1.674-8.79-1.255-15.768-1.255-15.768z"></path></g><g  opacity="1" transform="translate(104.593 402.482)"><path  class="anim-color-1" fill="#353535" fill-opacity="1" d="M-9-2.721 9 16.954S7.326-1.884 6.907-9.419C6.489-16.954-9-2.721-9-2.721z"></path></g><g  opacity="1" transform="translate(229.355 499.089)"><path  class="anim-color-2" fill="#FFEBD5" fill-opacity="1" d="M-27.435-22.303s18.248-5.625 37.255 7.534C26.146-3.466 28.692 13.606 22.077 20.449c-7.232 7.48-27.201 1.668-37.792-9.264-12.977-13.395-11.72-33.488-11.72-33.488z"></path><path  stroke-linecap="round" stroke-linejoin="round" fill-opacity="0" class="anim-color-1" stroke="#353535" stroke-opacity="1" stroke-width="1" d="M-27.435-22.303s18.248-5.625 37.255 7.534C26.146-3.466 28.692 13.606 22.077 20.449c-7.232 7.48-27.201 1.668-37.792-9.264-12.977-13.395-11.72-33.488-11.72-33.488z"></path></g><g  opacity="1" transform="translate(214.06 506.297)"><path  class="anim-color-1" fill="#353535" fill-opacity="1" d="M-9.209-11.931S-1.675-8.163 2.93-1.047c4.605 7.116 6.279 12.978 6.279 12.978S6.697 9.838 2.93 3.977C-.837-1.883-8.791-8.581-8.791-8.581l-.418-3.35z"></path></g><g  opacity="1" transform="translate(200.664 479.088)"><path  stroke-linecap="round" stroke-linejoin="round" fill-opacity="0" class="anim-color-1" stroke="#353535" stroke-opacity="1" stroke-width="1" d="M-26.791-11.094S7.116-3.558 26.791 11.094"></path></g><g  opacity="1" transform="translate(203.128 523.261)"><path  class="anim-color-2" fill="#FFEBD5" fill-opacity="1" d="M-11.519-32.223S9.778-28.452 17.628-6.707c6.743 18.676-2.54 37.218-13.613 38.028-12.339.902-25.735-12.074-26.991-28.818-1.395-18.599 11.457-34.726 11.457-34.726z"></path><path  stroke-linecap="round" stroke-linejoin="round" fill-opacity="0" class="anim-color-1" stroke="#353535" stroke-opacity="1" stroke-width="1" d="M-11.519-32.223S9.778-28.452 17.628-6.707c6.743 18.676-2.54 37.218-13.613 38.028-12.339.902-25.735-12.074-26.991-28.818-1.395-18.599 11.457-34.726 11.457-34.726z"></path></g><g  opacity="1" transform="translate(189.25 492.184)"><path  stroke-linecap="round" stroke-linejoin="round" fill-opacity="0" class="anim-color-1" stroke="#353535" stroke-opacity="1" stroke-width="1" d="M-15.389-24.576S7.861 1.229 15.389 24.576"></path></g><g  opacity="1" transform="translate(138.972 401.441)"><path  class="anim-color-1" fill="#353535" fill-opacity="1" d="M5.856-23.437S-8.768-18.516-11.997-2.344C-14.77 11.545-9.395 21.77-1.519 22.599c7.954.837 15.49-6.698 15.909-21.349.38-13.298-8.534-24.687-8.534-24.687z"></path><path  stroke-linecap="round" stroke-linejoin="round" fill-opacity="0" class="anim-color-3" stroke="#F3E7D6" stroke-opacity="1" stroke-width="1" d="M5.856-23.437S-8.768-18.516-11.997-2.344C-14.77 11.545-9.395 21.77-1.519 22.599c7.954.837 15.49-6.698 15.909-21.349.38-13.298-8.534-24.687-8.534-24.687z"></path></g><g  opacity="1" transform="translate(145.446 382.321)"><path  stroke-linecap="round" stroke-linejoin="round" fill-opacity="0" class="anim-color-3" stroke="#F3E7D6" stroke-opacity="1" stroke-width="1" d="M7.079-15.211S4.203-14.098-.383-4.263C-3.36 2.12-5.964 8.415-7.079 15.211"></path></g><g  opacity="1" transform="translate(114.171 385.731)"><path  class="anim-color-1" fill="#353535" fill-opacity="1" d="M23.96-15.902S8.036-23.264-7.267-12.431C-20.411-3.127-23.96 9.518-18.103 16.358c5.915 6.906 18.025 6.57 29.819-5.203C22.421.468 23.96-15.902 23.96-15.902z"></path><path  stroke-linecap="round" stroke-linejoin="round" fill-opacity="0" class="anim-color-3" stroke="#F3E7D6" stroke-opacity="1" stroke-width="1" d="M23.96-15.902S8.036-23.264-7.267-12.431C-20.411-3.127-23.96 9.518-18.103 16.358c5.915 6.906 18.025 6.57 29.819-5.203C22.421.468 23.96-15.902 23.96-15.902z"></path></g><g  opacity="1" transform="translate(101.318 390.567)"><path  class="anim-color-1" fill="#353535" fill-opacity="1" d="M5.587-17.267C-7.557-7.962-11.107 4.682-5.249 11.522c3.625 4.233 9.576 5.745 16.356 3.572"></path><path  stroke-linecap="round" stroke-linejoin="round" fill-opacity="0" class="anim-color-2" stroke="#FFEBD5" stroke-opacity="1" stroke-width="1" d="M5.587-17.267C-7.557-7.962-11.107 4.682-5.249 11.522c3.625 4.233 9.576 5.745 16.356 3.572"></path></g><g  opacity="1" transform="translate(135.03 373.214)"><path  stroke-linecap="round" stroke-linejoin="round" fill-opacity="0" class="anim-color-3" stroke="#F3E7D6" stroke-opacity="1" stroke-width="1" d="M17.494-6.104S14.723-7.695 3.251-3.156C-4.194-.209-11.264 2.953-17.494 7.695"></path></g><g  opacity="1" transform="translate(151.4 542.18)"><path  class="anim-color-1" fill="#353535" fill-opacity="1" d="M6.547-48.713S-23.022-35.929-26.925-1.719c-3.353 29.383 9.61 49.72 26.143 50.073 16.695.358 31.06-16.629 29.381-47.187-1.524-27.735-22.052-49.88-22.052-49.88z"></path></g><g  opacity="1" transform="translate(143.776 535.445)"><path  class="anim-color-2" fill="#FFEBD5" fill-opacity="1" d="M12.036-48.167s-30.054 10.113-36.69 43.35c-5.7 28.546 5.346 49.559 21.535 51.263 16.346 1.721 31.832-13.765 32.693-43.877.78-27.331-17.538-50.736-17.538-50.736z"></path><path  stroke-linecap="round" stroke-linejoin="round" fill-opacity="0" class="anim-color-1" stroke="#353535" stroke-opacity="1" stroke-width="1" d="M12.036-48.167s-30.054 10.113-36.69 43.35c-5.7 28.546 5.346 49.559 21.535 51.263 16.346 1.721 31.832-13.765 32.693-43.877.78-27.331-17.538-50.736-17.538-50.736z"></path></g><g  opacity="1" transform="translate(158.474 497.295)"><path  stroke-linecap="round" stroke-linejoin="round" fill-opacity="0" class="anim-color-1" stroke="#353535" stroke-opacity="1" stroke-width="1" d="M15.94-29.484s-8.695-.633-18.12 19.58C-8.297 3.214-13.649 16.15-15.94 30.117"></path></g><g  opacity="1" transform="translate(217.944 393.57)"><path  class="anim-color-1" fill="#353535" fill-opacity="1" d="M2.378 17.105a6.902 6.902 0 0 0 8.421-3.62 8.912 8.912 0 0 0 6.372 1.103c.05 2.406 1.569 4.631 3.982 5.433a5.799 5.799 0 0 0 3.262.11 5.168 5.168 0 0 0 9.815 3.24 5.17 5.17 0 0 0-3.276-6.535 5.12 5.12 0 0 0-2.573-.153c.052-.126.123-.239.166-.37a5.849 5.849 0 0 0-3.708-7.394 5.806 5.806 0 0 0-.938-.21c.011-.031.025-.059.035-.089a8.98 8.98 0 0 0-5.691-11.35 8.957 8.957 0 0 0-8.129 1.284c-.08-4.083-2.685-7.858-6.781-9.219a9.87 9.87 0 0 0-5.636-.176c.046-.123.101-.241.142-.366 2.025-6.096-1.276-12.68-7.373-14.705-4.924-1.634-10.163.207-13.063 4.187a6.6 6.6 0 0 0-3.006-2.061 6.625 6.625 0 0 0-4.175 12.576 6.605 6.605 0 0 0 5.373-.543 11.623 11.623 0 0 0 5.99 7.263 7.448 7.448 0 0 0-3.044 3.924 7.481 7.481 0 0 0 4.743 9.458 7.456 7.456 0 0 0 5.592-.36c-.402 2.174.83 4.366 2.987 5.082a4.498 4.498 0 0 0 5.687-2.852c.053-.157.073-.316.107-.475a6.902 6.902 0 0 0 4.719 6.818z"></path><path  stroke-linecap="round" stroke-linejoin="round" fill-opacity="0" class="anim-color-3" stroke="#F3E7D6" stroke-opacity="1" stroke-width="1" d="M2.378 17.105a6.902 6.902 0 0 0 8.421-3.62 8.912 8.912 0 0 0 6.372 1.103c.05 2.406 1.569 4.631 3.982 5.433a5.799 5.799 0 0 0 3.262.11 5.168 5.168 0 0 0 9.815 3.24 5.17 5.17 0 0 0-3.276-6.535 5.12 5.12 0 0 0-2.573-.153c.052-.126.123-.239.166-.37a5.849 5.849 0 0 0-3.708-7.394 5.806 5.806 0 0 0-.938-.21c.011-.031.025-.059.035-.089a8.98 8.98 0 0 0-5.691-11.35 8.957 8.957 0 0 0-8.129 1.284c-.08-4.083-2.685-7.858-6.781-9.219a9.87 9.87 0 0 0-5.636-.176c.046-.123.101-.241.142-.366 2.025-6.096-1.276-12.68-7.373-14.705-4.924-1.634-10.163.207-13.063 4.187a6.6 6.6 0 0 0-3.006-2.061 6.625 6.625 0 0 0-4.175 12.576 6.605 6.605 0 0 0 5.373-.543 11.623 11.623 0 0 0 5.99 7.263 7.448 7.448 0 0 0-3.044 3.924 7.481 7.481 0 0 0 4.743 9.458 7.456 7.456 0 0 0 5.592-.36c-.402 2.174.83 4.366 2.987 5.082a4.498 4.498 0 0 0 5.687-2.852c.053-.157.073-.316.107-.475a6.902 6.902 0 0 0 4.719 6.818z"></path></g><g  opacity="1" transform="translate(453.882 49.611)"><path  class="anim-color-1" fill="#353535" fill-opacity="1" d="M-5.799-16.561a6.356 6.356 0 0 0-6.567 5.306 8.209 8.209 0 0 0-5.926.606c-.643-2.12-2.543-3.716-4.883-3.827a5.356 5.356 0 0 0-2.92.714 4.76 4.76 0 1 0-4.978 4.549 4.694 4.694 0 0 0 2.318-.504c-.015.125-.049.242-.055.369a5.388 5.388 0 0 0 5.128 5.635 5.4 5.4 0 0 0 .885-.047c-.002.03-.007.058-.009.088a8.27 8.27 0 0 0 7.871 8.649 8.254 8.254 0 0 0 6.89-3.161C-6.958 5.417-3.709 8.117.263 8.304a9.091 9.091 0 0 0 5.041-1.246c-.009.12-.03.238-.035.36-.278 5.91 4.287 10.927 10.198 11.206 4.774.224 8.961-2.713 10.543-6.964a6.065 6.065 0 0 0 3.178 1.08A6.103 6.103 0 0 0 29.763.549a6.078 6.078 0 0 0-4.63 1.818 10.706 10.706 0 0 0-7.12-4.95 6.867 6.867 0 0 0 1.723-4.238 6.89 6.89 0 0 0-6.559-7.207 6.86 6.86 0 0 0-4.871 1.711c-.183-2.029-1.822-3.666-3.913-3.765a4.145 4.145 0 0 0-4.334 3.945c-.007.153.015.299.024.448a6.357 6.357 0 0 0-5.882-4.872z"></path><path  stroke-linecap="round" stroke-linejoin="round" fill-opacity="0" class="anim-color-2" stroke="#FFEBD5" stroke-opacity="1" stroke-width="1" d="M-5.799-16.561a6.356 6.356 0 0 0-6.567 5.306 8.209 8.209 0 0 0-5.926.606c-.643-2.12-2.543-3.716-4.883-3.827a5.356 5.356 0 0 0-2.92.714 4.76 4.76 0 1 0-4.978 4.549 4.694 4.694 0 0 0 2.318-.504c-.015.125-.049.242-.055.369a5.388 5.388 0 0 0 5.128 5.635 5.4 5.4 0 0 0 .885-.047c-.002.03-.007.058-.009.088a8.27 8.27 0 0 0 7.871 8.649 8.254 8.254 0 0 0 6.89-3.161C-6.958 5.417-3.709 8.117.263 8.304a9.091 9.091 0 0 0 5.041-1.246c-.009.12-.03.238-.035.36-.278 5.91 4.287 10.927 10.198 11.206 4.774.224 8.961-2.713 10.543-6.964a6.065 6.065 0 0 0 3.178 1.08A6.103 6.103 0 0 0 29.763.549a6.078 6.078 0 0 0-4.63 1.818 10.706 10.706 0 0 0-7.12-4.95 6.867 6.867 0 0 0 1.723-4.238 6.89 6.89 0 0 0-6.559-7.207 6.86 6.86 0 0 0-4.871 1.711c-.183-2.029-1.822-3.666-3.913-3.765a4.145 4.145 0 0 0-4.334 3.945c-.007.153.015.299.024.448a6.357 6.357 0 0 0-5.882-4.872z"></path></g><g  opacity="1" transform="translate(127.174 307.002)"><path  class="anim-color-2" fill="#FFEBD5" fill-opacity="1" d="m-10.771-4.302 2.631-2.161a.483.483 0 0 0 .165-.265l1.586-6.753a.489.489 0 0 1 .766-.281l4.137 3.06a.479.479 0 0 0 .249.094l11.006.919c.369.031.57.445.367.755L7.035-4.225a.492.492 0 0 0-.036.473l3.685 8.012a.488.488 0 0 1-.104.555L7.334 7.952a.496.496 0 0 0-.148.321l-.319 5.125a.488.488 0 0 1-.727.395l-7.495-4.237a.498.498 0 0 0-.275-.062l-8.356.591a.488.488 0 0 1-.481-.684l5.172-11.714"></path></g><g  opacity="1" transform="translate(146.662 320.848)"><path  class="anim-color-1" fill="#353535" fill-opacity="1" d="M-6.145 7.042c7.521 6.032 17.57 4.508 19.328 3.88 1.036-.371-.387-11.932-7.909-17.964-7.522-6.032-19.164-4.157-19.329-3.88-.165.277.388 11.932 7.91 17.964z"></path><path  stroke-linecap="round" stroke-linejoin="round" fill-opacity="0" class="anim-color-2" stroke="#FFEBD5" stroke-opacity="1" stroke-width="1" d="M-6.145 7.042c7.521 6.032 17.57 4.508 19.328 3.88 1.036-.371-.387-11.932-7.909-17.964-7.522-6.032-19.164-4.157-19.329-3.88-.165.277.388 11.932 7.91 17.964z"></path></g><g  opacity="1" transform="translate(140.016 300.899)"><path  class="anim-color-1" fill="#353535" fill-opacity="1" d="M3.457 7.219C12.791.868 14.439-12.152 14.439-12.152S6.972-9.671-2.495-8.16c-8.659 1.382-11.944 13.244-11.8 13.5.144.255 10.502 6.812 17.752 1.879z"></path><path  stroke-linecap="round" stroke-linejoin="round" fill-opacity="0" class="anim-color-2" stroke="#FFEBD5" stroke-opacity="1" stroke-width="1" d="M3.457 7.219C12.791.868 14.439-12.152 14.439-12.152S6.972-9.671-2.495-8.16c-8.659 1.382-11.944 13.244-11.8 13.5.144.255 10.502 6.812 17.752 1.879z"></path></g><g  opacity="1" transform="translate(133.034 303.502)"><path  stroke-linecap="round" stroke-linejoin="round" fill-opacity="0" class="anim-color-3" stroke="#F3E7D6" stroke-opacity="1" stroke-width="1" d="M7.314-2.737S-1.568 1.424-7.314 2.737"></path></g><g  opacity="1" transform="translate(137.717 314.579)"><path  stroke-linecap="round" stroke-linejoin="round" fill-opacity="0" class="anim-color-3" stroke="#F3E7D6" stroke-opacity="1" stroke-width="1" d="M8.107 6.312S-3.713-1.547-8.107-6.312"></path></g><g  opacity="1" transform="translate(131.085 285.256)"><path  class="anim-color-1" fill="#353535" fill-opacity="1" d="M8.503 3.545c3.298-9.06-1.372-18.088-2.531-19.552C5.289-16.869-5.203-11.81-8.502-2.75c-3.298 9.06 2.214 19.484 2.53 19.552.315.067 11.176-4.197 14.475-13.257z"></path><path  stroke-linecap="round" stroke-linejoin="round" fill-opacity="0" class="anim-color-2" stroke="#FFEBD5" stroke-opacity="1" stroke-width="1" d="M8.503 3.545c3.298-9.06-1.372-18.088-2.531-19.552C5.289-16.869-5.203-11.81-8.502-2.75c-3.298 9.06 2.214 19.484 2.53 19.552.315.067 11.176-4.197 14.475-13.257z"></path></g><g  opacity="1" transform="translate(128.184 294.04)"><path  stroke-linecap="round" stroke-linejoin="round" fill-opacity="0" class="anim-color-3" stroke="#F3E7D6" stroke-opacity="1" stroke-width="1" d="M3.072-8.019S.03 2.329-3.072 8.019"></path></g><g  opacity="1" transform="translate(82.115 219.941)"><path  class="anim-color-2" fill="#FFEBD5" fill-opacity="1" d="M8.206 1.22 6.727 3.152a.35.35 0 0 0-.073.211l-.005 4.953a.35.35 0 0 1-.487.321L2.788 7.181a.35.35 0 0 0-.189-.025l-7.803 1.15a.348.348 0 0 1-.378-.465l1.391-3.78a.352.352 0 0 0-.052-.334l-3.865-4.973a.35.35 0 0 1-.018-.404l1.748-2.709a.358.358 0 0 0 .05-.248l-.611-3.614a.35.35 0 0 1 .442-.394l5.901 1.728c.066.019.135.02.201 0L5.32-8.658a.35.35 0 0 1 .446.399L4.073.728"></path></g><g  opacity="1" transform="translate(61.563 202.887)"><path  class="anim-color-1" fill="#353535" fill-opacity="1" d="M14.674 9.082 4.309 5.985-4.203-4.057l-10.471-5.025"></path><path  stroke-linecap="round" stroke-linejoin="round" fill-opacity="0" class="anim-color-3" stroke="#F3E7D6" stroke-opacity="1" stroke-width="1" d="M14.674 9.082 4.309 5.985-4.203-4.057l-10.471-5.025"></path></g><g  opacity="1" transform="translate(47.103 199.809)"><path  stroke-linecap="round" stroke-linejoin="round" fill-opacity="0" class="anim-color-2" stroke="#FFEBD5" stroke-opacity="1" stroke-width="1" d="M5.958-2.319 1.061 1.832l-7.019.487"></path></g><g  opacity="1" transform="translate(64.078 201.239)"><path  stroke-linecap="round" stroke-linejoin="round" fill-opacity="0" class="anim-color-2" stroke="#FFEBD5" stroke-opacity="1" stroke-width="1" d="m-1.382 3.885 2.764-7.77"></path></g><g  opacity="1" transform="translate(71.558 231.407)"><path  class="anim-color-1" fill="#353535" fill-opacity="1" d="M-6.498-6.507c-4.61 9.064-.259 20.054-.259 20.054S-1.94 8.348 4.875 3.046C11.108-1.803 8.552-12.59 8.327-12.73c-.224-.139-11.244-.817-14.825 6.223z"></path><path  stroke-linecap="round" stroke-linejoin="round" fill-opacity="0" class="anim-color-2" stroke="#FFEBD5" stroke-opacity="1" stroke-width="1" d="M-6.498-6.507c-4.61 9.064-.259 20.054-.259 20.054S-1.94 8.348 4.875 3.046C11.108-1.803 8.552-12.59 8.327-12.73c-.224-.139-11.244-.817-14.825 6.223z"></path></g><g  opacity="1" transform="translate(75.3 224.012)"><path  stroke-linecap="round" stroke-linejoin="round" fill-opacity="0" class="anim-color-3" stroke="#F3E7D6" stroke-opacity="1" stroke-width="1" d="M-4.584 5.334S.62-1.804 4.584-5.334"></path></g><g  opacity="1" transform="translate(84.586 237.401)"><path  class="anim-color-1" fill="#353535" fill-opacity="1" d="M-8.075 1.056c1.33 8.582 8.932 13.68 10.482 14.332.914.384 6.998-8.164 5.669-16.745C6.747-9.939-2.129-15.773-2.407-15.689c-.278.084-6.998 8.163-5.668 16.745z"></path><path  stroke-linecap="round" stroke-linejoin="round" fill-opacity="0" class="anim-color-2" stroke="#FFEBD5" stroke-opacity="1" stroke-width="1" d="M-8.075 1.056c1.33 8.582 8.932 13.68 10.482 14.332.914.384 6.998-8.164 5.669-16.745C6.747-9.939-2.129-15.773-2.407-15.689c-.278.084-6.998 8.163-5.668 16.745z"></path></g><g  opacity="1" transform="translate(83.236 229.374)"><path  stroke-linecap="round" stroke-linejoin="round" fill-opacity="0" class="anim-color-3" stroke="#F3E7D6" stroke-opacity="1" stroke-width="1" d="M1.057 7.661S-1.036-1.824-1.057-7.661"></path></g><g  opacity="1" transform="translate(81.951 458.146)"><path  stroke-linecap="round" stroke-linejoin="round" fill-opacity="0" class="anim-color-1" stroke="#353535" stroke-opacity="1" stroke-width="1" d="M25.413-5.322 10.904 2.053-8.79-.061l-16.623 5.384"></path></g><g  opacity="1" transform="translate(62.998 469.79)"><path  stroke-linecap="round" stroke-linejoin="round" fill-opacity="0" class="anim-color-1" stroke="#353535" stroke-opacity="1" stroke-width="1" d="M4.088-8.707 3.057.897l-7.145 7.81"></path></g><g  opacity="1" transform="translate(82.982 453.742)"><path  stroke-linecap="round" stroke-linejoin="round" fill-opacity="0" class="anim-color-1" stroke="#353535" stroke-opacity="1" stroke-width="1" d="M2.524 5.668-2.524-5.667"></path></g><g  opacity="1" transform="translate(106.302 460.805)"><path  class="anim-color-2" fill="#FFEBD5" fill-opacity="1" d="M-6.498-6.507c-4.61 9.063-.259 20.054-.259 20.054S-1.94 8.348 4.875 3.046c6.233-4.849 3.677-15.637 3.452-15.776-.224-.138-11.244-.817-14.825 6.223z"></path><path  stroke-linecap="round" stroke-linejoin="round" fill-opacity="0" class="anim-color-1" stroke="#353535" stroke-opacity="1" stroke-width="1" d="M-6.498-6.507c-4.61 9.063-.259 20.054-.259 20.054S-1.94 8.348 4.875 3.046c6.233-4.849 3.677-15.637 3.452-15.776-.224-.138-11.244-.817-14.825 6.223z"></path></g><g  opacity="1" transform="translate(110.045 453.41)"><path  class="anim-color-3" fill="#F3E7D6" fill-opacity="1" d="M-4.584 5.335S.62-1.804 4.584-5.334"></path><path  stroke-linecap="round" stroke-linejoin="round" fill-opacity="0" class="anim-color-1" stroke="#353535" stroke-opacity="1" stroke-width="1" d="M-4.584 5.335S.62-1.804 4.584-5.334"></path></g><g  opacity="1" transform="translate(110.733 457.809)"><path  class="anim-color-1" fill="#353535" fill-opacity="1" d="M3-8.094S.767-6.558-.489-1.535C-1.745 3.488-3 8.094-3 8.094l4.604-1.676L3-8.094z"></path></g><g  opacity="1" transform="translate(119.035 465.194)"><path  class="anim-color-2" fill="#FFEBD5" fill-opacity="1" d="M-7.953 1.125c1.33 8.582 9.106 15.217 10.657 15.868.913.384 6.579-10.217 5.25-18.798-1.329-8.582-12.28-15.572-12.558-15.488-.278.084-4.679 9.837-3.349 18.418z"></path><path  stroke-linecap="round" stroke-linejoin="round" fill-opacity="0" class="anim-color-1" stroke="#353535" stroke-opacity="1" stroke-width="1" d="M-7.953 1.125c1.33 8.582 9.106 15.217 10.657 15.868.913.384 6.579-10.217 5.25-18.798-1.329-8.582-12.28-15.572-12.558-15.488-.278.084-4.679 9.837-3.349 18.418z"></path></g><g  opacity="1" transform="translate(116.734 457.167)"><path  class="anim-color-3" fill="#F3E7D6" fill-opacity="1" d="M2.304 9.266S-2.282-3.428-2.304-9.266"></path><path  stroke-linecap="round" stroke-linejoin="round" fill-opacity="0" class="anim-color-1" stroke="#353535" stroke-opacity="1" stroke-width="1" d="M2.304 9.266S-2.282-3.428-2.304-9.266"></path></g><g  opacity="1" transform="translate(527.943 115.26)"><path  class="anim-color-1" fill="#353535" fill-opacity="1" d="M6.346-5.637C7.54-4.072-1 6.995-4.425.742-7.539-4.94 5.309-6.995 6.346-5.637z"></path><path  stroke-linecap="round" stroke-linejoin="round" fill-opacity="0" class="anim-color-2" stroke="#FFEBD5" stroke-opacity="1" stroke-width="1" d="M6.346-5.637C7.54-4.072-1 6.995-4.425.742-7.539-4.94 5.309-6.995 6.346-5.637z"></path></g><g  opacity="1" transform="translate(531.763 131.034)"><path  class="anim-color-1" fill="#353535" fill-opacity="1" d="M6.059-6.271C7.503-4.933.98 7.431-3.463 1.856c-4.04-5.066 8.268-9.288 9.522-8.127z"></path><path  stroke-linecap="round" stroke-linejoin="round" fill-opacity="0" class="anim-color-2" stroke="#FFEBD5" stroke-opacity="1" stroke-width="1" d="M6.059-6.271C7.503-4.933.98 7.431-3.463 1.856c-4.04-5.066 8.268-9.288 9.522-8.127z"></path></g><g  opacity="1" transform="translate(544.765 128.988)"><path  class="anim-color-1" fill="#353535" fill-opacity="1" d="M-7.022-4.224C-6.531-6.13 7.449-6.259 4.652.299 2.11 6.258-7.449-2.569-7.022-4.224z"></path><path  stroke-linecap="round" stroke-linejoin="round" fill-opacity="0" class="anim-color-2" stroke="#FFEBD5" stroke-opacity="1" stroke-width="1" d="M-7.022-4.224C-6.531-6.13 7.449-6.259 4.652.299 2.11 6.258-7.449-2.569-7.022-4.224z"></path></g><g  opacity="1" transform="translate(533.344 172.009)"><path  class="anim-color-1" fill="#353535" fill-opacity="1" d="M6.356-2.706C6.955-.831-4.812 6.719-5.935-.322-6.955-6.72 5.836-4.333 6.356-2.706z"></path><path  stroke-linecap="round" stroke-linejoin="round" fill-opacity="0" class="anim-color-2" stroke="#FFEBD5" stroke-opacity="1" stroke-width="1" d="M6.356-2.706C6.955-.831-4.812 6.719-5.935-.322-6.955-6.72 5.836-4.333 6.356-2.706z"></path></g><g  opacity="1" transform="translate(546.764 172.572)"><path  class="anim-color-1" fill="#353535" fill-opacity="1" d="M-6.987-3.322c.346-1.938 14.275-3.12 11.98 3.63C2.909 6.442-7.288-1.64-6.987-3.322z"></path><path  stroke-linecap="round" stroke-linejoin="round" fill-opacity="0" class="anim-color-2" stroke="#FFEBD5" stroke-opacity="1" stroke-width="1" d="M-6.987-3.322c.346-1.938 14.275-3.12 11.98 3.63C2.909 6.442-7.288-1.64-6.987-3.322z"></path></g><g  opacity="1" transform="translate(527.185 204.835)"><path  class="anim-color-1" fill="#353535" fill-opacity="1" d="M6.444-4.901C7.376-3.167-2.809 6.409-5.202-.307-7.376-6.41 5.635-6.406 6.444-4.901z"></path><path  stroke-linecap="round" stroke-linejoin="round" fill-opacity="0" class="anim-color-2" stroke="#FFEBD5" stroke-opacity="1" stroke-width="1" d="M6.444-4.901C7.376-3.167-2.809 6.409-5.202-.307-7.376-6.41 5.635-6.406 6.444-4.901z"></path></g><g  opacity="1" transform="translate(543.819 188.485)"><path  class="anim-color-1" fill="#353535" fill-opacity="1" d="M-7.024-4.35C-6.507-6.25 7.471-6.197 4.589.324 1.97 6.25-7.471-2.701-7.024-4.35z"></path><path  stroke-linecap="round" stroke-linejoin="round" fill-opacity="0" class="anim-color-2" stroke="#FFEBD5" stroke-opacity="1" stroke-width="1" d="M-7.024-4.35C-6.507-6.25 7.471-6.197 4.589.324 1.97 6.25-7.471-2.701-7.024-4.35z"></path></g><g  opacity="1" transform="translate(540.972 204.304)"><path  class="anim-color-1" fill="#353535" fill-opacity="1" d="M-7.023-4.35C-6.507-6.25 7.472-6.197 4.59.324 1.971 6.25-7.471-2.701-7.023-4.35z"></path><path  stroke-linecap="round" stroke-linejoin="round" fill-opacity="0" class="anim-color-2" stroke="#FFEBD5" stroke-opacity="1" stroke-width="1" d="M-7.023-4.35C-6.507-6.25 7.472-6.197 4.59.324 1.971 6.25-7.471-2.701-7.023-4.35z"></path></g><g  opacity="1" transform="translate(548.979 158.335)"><path  class="anim-color-1" fill="#353535" fill-opacity="1" d="M-6.987-3.323C-6.64-5.261 7.289-6.443 4.994.307 2.909 6.442-7.288-1.641-6.987-3.323z"></path><path  stroke-linecap="round" stroke-linejoin="round" fill-opacity="0" class="anim-color-2" stroke="#FFEBD5" stroke-opacity="1" stroke-width="1" d="M-6.987-3.323C-6.64-5.261 7.289-6.443 4.994.307 2.909 6.442-7.288-1.641-6.987-3.323z"></path></g><g  opacity="1" transform="translate(541.452 96.293)"><path  class="anim-color-1" fill="#353535" fill-opacity="1" d="M-6.846-1.807C-6.741-3.773 6.937-6.663 5.492.319 4.179 6.663-6.937-.101-6.846-1.807z"></path><path  stroke-linecap="round" stroke-linejoin="round" fill-opacity="0" class="anim-color-3" stroke="#F3E7D6" stroke-opacity="1" stroke-width="1" d="M-6.846-1.807C-6.741-3.773 6.937-6.663 5.492.319 4.179 6.663-6.937-.101-6.846-1.807z"></path></g><g  opacity="1" transform="translate(538.383 121.294)"><path  stroke-linecap="round" stroke-linejoin="round" fill-opacity="0" class="anim-color-2" stroke="#FFEBD5" stroke-opacity="1" stroke-width="1" d="M-.948-111.678S13.288-64.539 0-38.913C-13.287-13.287 6.961 10.44 3.164 37.015-.633 63.59-7.444 76.245-4.913 111.678"></path></g><g  opacity="1" transform="translate(306.991 88.733)"><path  stroke-linecap="round" stroke-linejoin="round" fill-opacity="0" class="anim-color-2" stroke="#FFEBD5" stroke-opacity="1" stroke-width="1" d="M-.419-86.234s7.535 26.792 7.535 52.746S-7.116 21.768-7.116 44.373c0 22.605 6.697 27.628 6.697 41.861"></path></g><g  opacity="1" transform="translate(236.056 331.956)"><path  class="anim-color-1" fill="#353535" fill-opacity="1" d="M-21.585 22.963V-1.379c0-11.921 9.663-21.584 21.584-21.584 11.922 0 21.586 9.663 21.586 21.584v24.342"></path><path  stroke-linecap="round" stroke-linejoin="round" fill-opacity="0" class="anim-color-2" stroke="#FFEBD5" stroke-opacity="1" stroke-width="1" d="M-21.585 22.963V-1.379c0-11.921 9.663-21.584 21.584-21.584 11.922 0 21.586 9.663 21.586 21.584v24.342"></path></g><g  opacity="1" transform="translate(273.487 343.629)"><path  class="anim-color-1" fill="#353535" fill-opacity="1" d="M-25.948 11.29c0-12.472 10.109-22.58 22.581-22.58h6.734c12.471 0 22.581 10.108 22.581 22.58"></path><path  stroke-linecap="round" stroke-linejoin="round" fill-opacity="0" class="anim-color-2" stroke="#FFEBD5" stroke-opacity="1" stroke-width="1" d="M-25.948 11.29c0-12.472 10.109-22.58 22.581-22.58h6.734c12.471 0 22.581 10.108 22.581 22.58"></path></g><g  opacity="1" transform="translate(0 .853)"><path  class="anim-color-1" fill="#353535" fill-opacity="1" d="M195.641 354.066h127.677"></path></g><g  opacity="1"><path  stroke-linecap="round" stroke-linejoin="round" fill-opacity="0" class="anim-color-2" stroke="#FFEBD5" stroke-opacity="1" stroke-width="1" d="M195.641 354.919h127.677"></path></g><g  opacity="1" transform="translate(479.468 308.579)"><path  class="anim-color-1" fill="#353535" fill-opacity="1" d="M-13.922 13.889V.034c0-7.689 6.232-13.923 13.922-13.923 7.688 0 13.922 6.234 13.922 13.923v13.855"></path><path  stroke-linecap="round" stroke-linejoin="round" fill-opacity="0" class="anim-color-2" stroke="#FFEBD5" stroke-opacity="1" stroke-width="1" d="M-13.922 13.889V.034c0-7.689 6.232-13.923 13.922-13.923 7.688 0 13.922 6.234 13.922 13.923v13.855"></path></g><g  opacity="1" transform="translate(496.89 315.124)"><path  class="anim-color-1" fill="#353535" fill-opacity="1" d="M-10.315 7.344V2.971c0-5.696 4.618-10.315 10.314-10.315 5.698 0 10.316 4.619 10.316 10.315v4.373"></path><path  stroke-linecap="round" stroke-linejoin="round" fill-opacity="0" class="anim-color-2" stroke="#FFEBD5" stroke-opacity="1" stroke-width="1" d="M-10.315 7.344V2.971c0-5.696 4.618-10.315 10.314-10.315 5.698 0 10.316 4.619 10.316 10.315v4.373"></path></g><g  opacity="1" transform="translate(0 .853)"><path  class="anim-color-1" fill="#353535" fill-opacity="1" d="M448.481 321.615h74.932"></path></g><g  opacity="1"><path  stroke-linecap="round" stroke-linejoin="round" fill-opacity="0" class="anim-color-2" stroke="#FFEBD5" stroke-opacity="1" stroke-width="1" d="M448.481 322.468h74.932"></path></g><g  opacity="1" transform="translate(405.713 565.949)"><path  class="anim-color-1" fill="#353535" fill-opacity="1" d="M2.861-5.582S.907-3.628-.349-.559l-2.512 6.14L-.07 3.767S.907.278 1.326-1.117c.419-1.395 1.535-4.465 1.535-4.465z"></path></g><g  opacity="1" transform="translate(119.245 77.552)"><path  class="anim-color-2" fill="#FFEBD5" fill-opacity="1" d="M-116.583-75.648V75.648s97.955-1.253 158.653-39.662c73.821-46.713 74.513-111.634 74.513-111.634"></path></g><g  opacity="1" transform="translate(217.409 119.679)"><path  class="anim-color-1" fill="#353535" fill-opacity="1" d="M-8.395-7.459C-9.976-5.388 1.325 9.256 5.857.983 9.977-6.535-7.023-9.256-8.395-7.459z"></path><path  stroke-linecap="round" stroke-linejoin="round" fill-opacity="0" class="anim-color-2" stroke="#FFEBD5" stroke-opacity="1" stroke-width="1" d="M-8.395-7.459C-9.976-5.388 1.325 9.256 5.857.983 9.977-6.535-7.023-9.256-8.395-7.459z"></path></g><g  opacity="1" transform="translate(199.309 116.753)"><path  class="anim-color-1" fill="#353535" fill-opacity="1" d="M9.265-4.768C8.747-7.321-9.715-8.454-6.471.405-3.523 8.454 9.715-2.553 9.265-4.768z"></path><path  stroke-linecap="round" stroke-linejoin="round" fill-opacity="0" class="anim-color-2" stroke="#FFEBD5" stroke-opacity="1" stroke-width="1" d="M9.265-4.768C8.747-7.321-9.715-8.454-6.471.405-3.523 8.454 9.715-2.553 9.265-4.768z"></path></g><g  opacity="1" transform="translate(212.353 140.551)"><path  class="anim-color-1" fill="#353535" fill-opacity="1" d="M-8.016-8.297C-9.927-6.527-1.297 9.833 4.583 2.456 9.927-4.247-6.357-9.833-8.016-8.297z"></path><path  stroke-linecap="round" stroke-linejoin="round" fill-opacity="0" class="anim-color-2" stroke="#FFEBD5" stroke-opacity="1" stroke-width="1" d="M-8.016-8.297C-9.927-6.527-1.297 9.833 4.583 2.456 9.927-4.247-6.357-9.833-8.016-8.297z"></path></g><g  opacity="1" transform="translate(195.15 137.844)"><path  class="anim-color-1" fill="#353535" fill-opacity="1" d="M9.292-5.589C8.642-8.111-9.856-8.282-6.155.395-2.792 8.281 9.856-3.4 9.292-5.589z"></path><path  stroke-linecap="round" stroke-linejoin="round" fill-opacity="0" class="anim-color-2" stroke="#FFEBD5" stroke-opacity="1" stroke-width="1" d="M9.292-5.589C8.642-8.111-9.856-8.282-6.155.395-2.792 8.281 9.856-3.4 9.292-5.589z"></path></g><g  opacity="1" transform="translate(208.241 162.222)"><path  class="anim-color-1" fill="#353535" fill-opacity="1" d="M-8.528-6.235C-9.723-3.921 3.957 8.529 6.978-.408 9.723-8.529-7.49-8.244-8.528-6.235z"></path><path  stroke-linecap="round" stroke-linejoin="round" fill-opacity="0" class="anim-color-2" stroke="#FFEBD5" stroke-opacity="1" stroke-width="1" d="M-8.528-6.235C-9.723-3.921 3.957 8.529 6.978-.408 9.723-8.529-7.49-8.244-8.528-6.235z"></path></g><g  opacity="1" transform="translate(191.068 155.366)"><path  class="anim-color-1" fill="#353535" fill-opacity="1" d="M8.237.57C8.564-2.014-8.564-9.001-8.328.43-8.114 9 7.953 2.813 8.237.57z"></path><path  stroke-linecap="round" stroke-linejoin="round" fill-opacity="0" class="anim-color-2" stroke="#FFEBD5" stroke-opacity="1" stroke-width="1" d="M8.237.57C8.564-2.014-8.564-9.001-8.328.43-8.114 9 7.953 2.813 8.237.57z"></path></g><g  opacity="1" transform="translate(207.332 175.932)"><path  class="anim-color-1" fill="#353535" fill-opacity="1" d="M-8.41-3.58C-9.202-1.099 6.366 8.891 7.852-.425 9.202-8.891-7.723-5.734-8.41-3.58z"></path><path  stroke-linecap="round" stroke-linejoin="round" fill-opacity="0" class="anim-color-2" stroke="#FFEBD5" stroke-opacity="1" stroke-width="1" d="M-8.41-3.58C-9.202-1.099 6.366 8.891 7.852-.425 9.202-8.891-7.723-5.734-8.41-3.58z"></path></g><g  opacity="1" transform="translate(210.263 194.769)"><path  class="anim-color-1" fill="#353535" fill-opacity="1" d="M-8.409-3.58C-9.201-1.099 6.367 8.891 7.852-.425 9.202-8.891-7.722-5.734-8.409-3.58z"></path><path  stroke-linecap="round" stroke-linejoin="round" fill-opacity="0" class="anim-color-2" stroke="#FFEBD5" stroke-opacity="1" stroke-width="1" d="M-8.409-3.58C-9.201-1.099 6.367 8.891 7.852-.425 9.202-8.891-7.722-5.734-8.409-3.58z"></path></g><g  opacity="1" transform="translate(192.504 195.513)"><path  class="anim-color-1" fill="#353535" fill-opacity="1" d="M9.247-4.396C8.789-6.96-9.644-8.524-6.607.408-3.848 8.524 9.644-2.17 9.247-4.396z"></path><path  stroke-linecap="round" stroke-linejoin="round" fill-opacity="0" class="anim-color-2" stroke="#FFEBD5" stroke-opacity="1" stroke-width="1" d="M9.247-4.396C8.789-6.96-9.644-8.524-6.607.408-3.848 8.524 9.644-2.17 9.247-4.396z"></path></g><g  opacity="1" transform="translate(214.645 216.853)"><path  class="anim-color-1" fill="#353535" fill-opacity="1" d="M-8.526-6.484C-9.759-4.189 3.717 8.481 6.883-.405 9.76-8.481-7.456-8.476-8.526-6.484z"></path><path  stroke-linecap="round" stroke-linejoin="round" fill-opacity="0" class="anim-color-2" stroke="#FFEBD5" stroke-opacity="1" stroke-width="1" d="M-8.526-6.484C-9.759-4.189 3.717 8.481 6.883-.405 9.76-8.481-7.456-8.476-8.526-6.484z"></path></g><g  opacity="1" transform="translate(218.412 238.202)"><path  class="anim-color-1" fill="#353535" fill-opacity="1" d="M-8.526-6.484C-9.759-4.189 3.717 8.481 6.883-.405 9.76-8.481-7.456-8.476-8.526-6.484z"></path><path  stroke-linecap="round" stroke-linejoin="round" fill-opacity="0" class="anim-color-2" stroke="#FFEBD5" stroke-opacity="1" stroke-width="1" d="M-8.526-6.484C-9.759-4.189 3.717 8.481 6.883-.405 9.76-8.481-7.456-8.476-8.526-6.484z"></path></g><g  opacity="1" transform="translate(196.402 216.57)"><path  class="anim-color-1" fill="#353535" fill-opacity="1" d="M9.294-5.756C8.611-8.27-9.886-8.2-6.073.429-2.607 8.27 9.887-3.574 9.294-5.756z"></path><path  stroke-linecap="round" stroke-linejoin="round" fill-opacity="0" class="anim-color-2" stroke="#FFEBD5" stroke-opacity="1" stroke-width="1" d="M9.294-5.756C8.611-8.27-9.886-8.2-6.073.429-2.607 8.27 9.887-3.574 9.294-5.756z"></path></g><g  opacity="1" transform="translate(200.169 237.5)"><path  class="anim-color-1" fill="#353535" fill-opacity="1" d="M9.294-5.756C8.611-8.27-9.886-8.2-6.073.429-2.608 8.27 9.887-3.574 9.294-5.756z"></path><path  stroke-linecap="round" stroke-linejoin="round" fill-opacity="0" class="anim-color-2" stroke="#FFEBD5" stroke-opacity="1" stroke-width="1" d="M9.294-5.756C8.611-8.27-9.886-8.2-6.073.429-2.608 8.27 9.887-3.574 9.294-5.756z"></path></g><g  opacity="1" transform="translate(189.574 176.676)"><path  class="anim-color-1" fill="#353535" fill-opacity="1" d="M9.246-4.396C8.788-6.96-9.644-8.524-6.608.408-3.849 8.524 9.644-2.17 9.246-4.396z"></path><path  stroke-linecap="round" stroke-linejoin="round" fill-opacity="0" class="anim-color-2" stroke="#FFEBD5" stroke-opacity="1" stroke-width="1" d="M9.246-4.396C8.788-6.96-9.644-8.524-6.608.408-3.849 8.524 9.644-2.17 9.246-4.396z"></path></g><g  opacity="1" transform="translate(217.342 95.379)"><path  class="anim-color-1" fill="#353535" fill-opacity="1" d="M-8.393-3.398C-9.157-.908 6.522 8.906 7.902-.426 9.157-8.906-7.73-5.56-8.393-3.398z"></path><path  stroke-linecap="round" stroke-linejoin="round" fill-opacity="0" class="anim-color-2" stroke="#FFEBD5" stroke-opacity="1" stroke-width="1" d="M-8.393-3.398C-9.157-.908 6.522 8.906 7.902-.426 9.157-8.906-7.73-5.56-8.393-3.398z"></path></g><g  opacity="1" transform="translate(199.534 94.583)"><path  class="anim-color-1" fill="#353535" fill-opacity="1" d="M9.058-2.391C8.919-4.993-9.178-8.816-7.266.422-5.529 8.816 9.179-.134 9.058-2.391z"></path><path  stroke-linecap="round" stroke-linejoin="round" fill-opacity="0" class="anim-color-2" stroke="#FFEBD5" stroke-opacity="1" stroke-width="1" d="M9.058-2.391C8.919-4.993-9.178-8.816-7.266.422-5.529 8.816 9.179-.134 9.058-2.391z"></path></g><g  opacity="1" transform="translate(203.595 127.664)"><path  stroke-linecap="round" stroke-linejoin="round" fill-opacity="0" class="anim-color-2" stroke="#FFEBD5" stroke-opacity="1" stroke-width="1" d="M1.675-125.165S-17.582-85.396-.001-51.489C17.581-17.581-9.21 13.814-4.187 48.977.837 84.14 6.697 88.746 6.697 125.165"></path></g><g  opacity="1" transform="translate(195.641 39.338)"><path  stroke-linecap="round" stroke-linejoin="round" fill-opacity="0" class="anim-color-1" stroke="#353535" stroke-opacity="1" stroke-width="1" d="M9.628-36.838S-9.628 2.931 7.953 36.838"></path></g><g  opacity="1" transform="translate(206.67 253.94)"><path  class="anim-color-1" fill="#353535" fill-opacity="1" d="M3.527-8.405C1.043-9.189-8.896 6.411.424 7.866 8.895 9.189 5.683-7.725 3.527-8.405z"></path><path  stroke-linecap="round" stroke-linejoin="round" fill-opacity="0" class="anim-color-2" stroke="#FFEBD5" stroke-opacity="1" stroke-width="1" d="M3.527-8.405C1.043-9.189-8.896 6.411.424 7.866 8.895 9.189 5.683-7.725 3.527-8.405z"></path></g><g  opacity="1"><path  stroke-linecap="round" stroke-linejoin="round" fill-opacity="0" class="anim-color-2" stroke="#FFEBD5" stroke-opacity="1" stroke-width="1" d="M406.969 264.55v33.07"></path></g><g  opacity="1" transform="translate(375.32 226.038)"><path  stroke-linecap="round" stroke-linejoin="round" fill-opacity="0" class="anim-color-2" stroke="#FFEBD5" stroke-opacity="1" stroke-width="1" d="M-31.648 5.031c4.597-12.467 16.582-21.357 30.645-21.357 18.033 0 32.651 14.619 32.651 32.652"></path></g><g  opacity="1"><path  stroke-linecap="round" stroke-linejoin="round" fill-opacity="0" class="anim-color-2" stroke="#FFEBD5" stroke-opacity="1" stroke-width="1" d="M341.666 297.62v-55.256"></path></g><g  opacity="1"><path  stroke-linecap="round" stroke-linejoin="round" fill-opacity="0" class="anim-color-2" stroke="#FFEBD5" stroke-opacity="1" stroke-width="1" d="M394.62 285.62v12"></path></g><g  opacity="1"><path  stroke-linecap="round" stroke-linejoin="round" fill-opacity="0" class="anim-color-2" stroke="#FFEBD5" stroke-opacity="1" stroke-width="1" d="M394.62 275.852v3.35"></path></g><g  opacity="1"><path  stroke-linecap="round" stroke-linejoin="round" fill-opacity="0" class="anim-color-2" stroke="#FFEBD5" stroke-opacity="1" stroke-width="1" d="M394.62 243.41v24.07"></path></g><g  opacity="1" transform="translate(372.375 240.689)"><path  stroke-linecap="round" stroke-linejoin="round" fill-opacity="0" class="anim-color-2" stroke="#FFEBD5" stroke-opacity="1" stroke-width="1" d="M-18.36 17.582V2.721c0-11.213 9.09-20.303 20.303-20.303 6.747 0 12.724 3.292 16.417 8.357"></path></g><g  opacity="1" transform="translate(0 .853)"><path  class="anim-color-1" fill="#353535" fill-opacity="1" d="M354.015 296.767v-39.349"></path></g><g  opacity="1"><path  stroke-linecap="round" stroke-linejoin="round" fill-opacity="0" class="anim-color-3" stroke="#F3E7D6" stroke-opacity="1" stroke-width="1" d="M354.015 297.62v-39.349"></path></g><g  opacity="1" transform="translate(412.129 289.815)"><path  class="anim-color-1" fill="#353535" fill-opacity="1" d="M-7.823 7.805V.019a7.824 7.824 0 1 1 15.646 0v7.786"></path><path  stroke-linecap="round" stroke-linejoin="round" fill-opacity="0" class="anim-color-2" stroke="#FFEBD5" stroke-opacity="1" stroke-width="1" d="M-7.823 7.805V.019a7.824 7.824 0 1 1 15.646 0v7.786"></path></g><g  opacity="1" transform="translate(405.782 293.225)"><path  class="anim-color-1" fill="#353535" fill-opacity="1" d="M-4.406 4.396V.01a4.406 4.406 0 1 1 8.812 0v4.386"></path><path  stroke-linecap="round" stroke-linejoin="round" fill-opacity="0" class="anim-color-2" stroke="#FFEBD5" stroke-opacity="1" stroke-width="1" d="M-4.406 4.396V.01a4.406 4.406 0 1 1 8.812 0v4.386"></path></g><g  opacity="1" transform="translate(340.332 292.856)"><path  class="anim-color-1" fill="#353535" fill-opacity="1" d="M-4.775 4.764V.012a4.775 4.775 0 1 1 9.55 0v4.752"></path><path  stroke-linecap="round" stroke-linejoin="round" fill-opacity="0" class="anim-color-2" stroke="#FFEBD5" stroke-opacity="1" stroke-width="1" d="M-4.775 4.764V.012a4.775 4.775 0 1 1 9.55 0v4.752"></path></g><g  opacity="1" transform="translate(331.449 294.928)"><path  class="anim-color-1" fill="#353535" fill-opacity="1" d="M-5.475 2.331A4.662 4.662 0 0 1-.813-2.331H.814a4.661 4.661 0 0 1 4.661 4.662"></path><path  stroke-linecap="round" stroke-linejoin="round" fill-opacity="0" class="anim-color-2" stroke="#FFEBD5" stroke-opacity="1" stroke-width="1" d="M-5.475 2.331A4.662 4.662 0 0 1-.813-2.331H.814a4.661 4.661 0 0 1 4.661 4.662"></path></g><g  opacity="1" transform="translate(420.613 294.928)"><path  class="anim-color-1" fill="#353535" fill-opacity="1" d="M-5.475 2.331A4.662 4.662 0 0 1-.813-2.331H.814a4.661 4.661 0 0 1 4.661 4.662"></path><path  stroke-linecap="round" stroke-linejoin="round" fill-opacity="0" class="anim-color-2" stroke="#FFEBD5" stroke-opacity="1" stroke-width="1" d="M-5.475 2.331A4.662 4.662 0 0 1-.813-2.331H.814a4.661 4.661 0 0 1 4.661 4.662"></path></g><g  opacity="1" transform="translate(0 .853)"><path  class="anim-color-1" fill="#353535" fill-opacity="1" d="M317.387 296.767h113.862"></path></g><g  opacity="1"><path  stroke-linecap="round" stroke-linejoin="round" fill-opacity="0" class="anim-color-3" stroke="#F3E7D6" stroke-opacity="1" stroke-width="1" d="M317.387 297.62h113.862"></path></g><g  opacity="1" transform="translate(408.181 258.436)"><path  class="anim-color-1" fill="#353535" fill-opacity="1" d="M2.782-3.907h-5.564a2.545 2.545 0 0 0-2.546 2.545v2.724a2.545 2.545 0 0 0 2.546 2.545h5.564a2.546 2.546 0 0 0 2.546-2.545v-2.724a2.546 2.546 0 0 0-2.546-2.545z"></path><path  stroke-linecap="round" stroke-linejoin="round" fill-opacity="0" class="anim-color-2" stroke="#FFEBD5" stroke-opacity="1" stroke-width="1" d="M2.782-3.907h-5.564a2.545 2.545 0 0 0-2.546 2.545v2.724a2.545 2.545 0 0 0 2.546 2.545h5.564a2.546 2.546 0 0 0 2.546-2.545v-2.724a2.546 2.546 0 0 0-2.546-2.545z"></path></g><g  opacity="1" transform="translate(408.891 248.491)"><path  class="anim-color-1" fill="#353535" fill-opacity="1" d="M2.782-3.907h-5.565a2.544 2.544 0 0 0-2.544 2.545v2.724a2.544 2.544 0 0 0 2.544 2.545h5.565a2.545 2.545 0 0 0 2.545-2.545v-2.724a2.545 2.545 0 0 0-2.545-2.545z"></path><path  stroke-linecap="round" stroke-linejoin="round" fill-opacity="0" class="anim-color-2" stroke="#FFEBD5" stroke-opacity="1" stroke-width="1" d="M2.782-3.907h-5.565a2.544 2.544 0 0 0-2.544 2.545v2.724a2.544 2.544 0 0 0 2.544 2.545h5.565a2.545 2.545 0 0 0 2.545-2.545v-2.724a2.545 2.545 0 0 0-2.545-2.545z"></path></g><g  opacity="1" transform="translate(374.797 202.379)"><path  class="anim-color-1" fill="#353535" fill-opacity="1" d="M-2.837-3.985h5.675a2.596 2.596 0 0 1 2.596 2.596v2.778a2.597 2.597 0 0 1-2.596 2.596h-5.675a2.597 2.597 0 0 1-2.597-2.596v-2.778a2.597 2.597 0 0 1 2.597-2.596z"></path><path  stroke-linecap="round" stroke-linejoin="round" fill-opacity="0" class="anim-color-2" stroke="#FFEBD5" stroke-opacity="1" stroke-width="1" d="M-2.837-3.985h5.675a2.596 2.596 0 0 1 2.596 2.596v2.778a2.597 2.597 0 0 1-2.596 2.596h-5.675a2.597 2.597 0 0 1-2.597-2.596v-2.778a2.597 2.597 0 0 1 2.597-2.596z"></path></g><g  opacity="1" transform="translate(389.441 202.395)"><path  class="anim-color-1" fill="#353535" fill-opacity="1" d="M-2.837-3.985h5.675a2.596 2.596 0 0 1 2.596 2.596v2.778a2.597 2.597 0 0 1-2.596 2.596h-5.675a2.597 2.597 0 0 1-2.597-2.596v-2.778a2.597 2.597 0 0 1 2.597-2.596z"></path><path  stroke-linecap="round" stroke-linejoin="round" fill-opacity="0" class="anim-color-2" stroke="#FFEBD5" stroke-opacity="1" stroke-width="1" d="M-2.837-3.985h5.675a2.596 2.596 0 0 1 2.596 2.596v2.778a2.597 2.597 0 0 1-2.596 2.596h-5.675a2.597 2.597 0 0 1-2.597-2.596v-2.778a2.597 2.597 0 0 1 2.597-2.596z"></path></g><g  opacity="1" transform="translate(381.906 191.929)"><path  class="anim-color-1" fill="#353535" fill-opacity="1" d="M-2.837-3.985h5.675a2.596 2.596 0 0 1 2.596 2.596v2.778a2.597 2.597 0 0 1-2.596 2.596h-5.675a2.597 2.597 0 0 1-2.597-2.596v-2.778a2.597 2.597 0 0 1 2.597-2.596z"></path><path  stroke-linecap="round" stroke-linejoin="round" fill-opacity="0" class="anim-color-2" stroke="#FFEBD5" stroke-opacity="1" stroke-width="1" d="M-2.837-3.985h5.675a2.596 2.596 0 0 1 2.596 2.596v2.778a2.597 2.597 0 0 1-2.596 2.596h-5.675a2.597 2.597 0 0 1-2.597-2.596v-2.778a2.597 2.597 0 0 1 2.597-2.596z"></path></g><g  opacity="1" transform="translate(341.108 236.657)"><path  class="anim-color-1" fill="#353535" fill-opacity="1" d="M-2.514-3.531h5.028a2.3 2.3 0 0 1 2.3 2.301v2.46a2.3 2.3 0 0 1-2.3 2.301h-5.028a2.3 2.3 0 0 1-2.3-2.301v-2.46a2.3 2.3 0 0 1 2.3-2.301z"></path><path  stroke-linecap="round" stroke-linejoin="round" fill-opacity="0" class="anim-color-2" stroke="#FFEBD5" stroke-opacity="1" stroke-width="1" d="M-2.514-3.531h5.028a2.3 2.3 0 0 1 2.3 2.301v2.46a2.3 2.3 0 0 1-2.3 2.301h-5.028a2.3 2.3 0 0 1-2.3-2.301v-2.46a2.3 2.3 0 0 1 2.3-2.301z"></path></g><g  opacity="1" transform="translate(331.898 245.866)"><path  class="anim-color-1" fill="#353535" fill-opacity="1" d="M-2.513-3.531h5.027a2.3 2.3 0 0 1 2.3 2.301v2.461a2.3 2.3 0 0 1-2.3 2.3h-5.027a2.3 2.3 0 0 1-2.301-2.3V-1.23c0-1.27 1.03-2.301 2.301-2.301z"></path><path  stroke-linecap="round" stroke-linejoin="round" fill-opacity="0" class="anim-color-2" stroke="#FFEBD5" stroke-opacity="1" stroke-width="1" d="M-2.513-3.531h5.027a2.3 2.3 0 0 1 2.3 2.301v2.461a2.3 2.3 0 0 1-2.3 2.3h-5.027a2.3 2.3 0 0 1-2.301-2.3V-1.23c0-1.27 1.03-2.301 2.301-2.301z"></path></g><g  opacity="1" transform="translate(420.967 256.66)"><path  class="anim-color-1" fill="#353535" fill-opacity="1" d="M2.783-3.907h-5.565a2.546 2.546 0 0 0-2.546 2.545v2.724a2.546 2.546 0 0 0 2.546 2.545h5.565a2.546 2.546 0 0 0 2.545-2.545v-2.724a2.546 2.546 0 0 0-2.545-2.545z"></path><path  stroke-linecap="round" stroke-linejoin="round" fill-opacity="0" class="anim-color-2" stroke="#FFEBD5" stroke-opacity="1" stroke-width="1" d="M2.783-3.907h-5.565a2.546 2.546 0 0 0-2.546 2.545v2.724a2.546 2.546 0 0 0 2.546 2.545h5.565a2.546 2.546 0 0 0 2.545-2.545v-2.724a2.546 2.546 0 0 0-2.545-2.545z"></path></g><g  opacity="1" transform="translate(371.853 292.933)"><path  stroke-linecap="round" stroke-linejoin="round" fill-opacity="0" class="anim-color-1" stroke="#353535" stroke-opacity="1" stroke-width="1" d="M16.5 5.1V-5.1h-33"></path></g><g  opacity="1" transform="translate(385.553 292.933)"><path  stroke-linecap="round" stroke-linejoin="round" fill-opacity="0" class="anim-color-2" stroke="#FFEBD5" stroke-opacity="1" stroke-width="1" d="M2.8 5.1V-5.1h-5.6"></path></g><g  opacity="1" transform="translate(366.253 282.733)"><path  stroke-linecap="round" stroke-linejoin="round" fill-opacity="0" class="anim-color-1" stroke="#353535" stroke-opacity="1" stroke-width="1" d="M12.5 5.1V-5.1h-25"></path></g><g  opacity="1" transform="translate(373.953 280.733)"><path  stroke-linecap="round" stroke-linejoin="round" fill-opacity="0" class="anim-color-2" stroke="#FFEBD5" stroke-opacity="1" stroke-width="1" d="M4.8 3.1v-6.2h-9.6"></path></g><g  opacity="1" transform="translate(361.653 271.933)"><path  stroke-linecap="round" stroke-linejoin="round" fill-opacity="0" class="anim-color-1" stroke="#353535" stroke-opacity="1" stroke-width="1" d="M7.5 5.1V-5.1h-15"></path></g><g  opacity="1" transform="translate(356.853 261.132)"><path  stroke-linecap="round" stroke-linejoin="round" fill-opacity="0" class="anim-color-2" stroke="#FFEBD5" stroke-opacity="1" stroke-width="1" d="M2.7 5.1V-5.1h-5.4"></path></g><g  opacity="1" transform="translate(364.353 271.933)"><path  stroke-linecap="round" stroke-linejoin="round" fill-opacity="0" class="anim-color-2" stroke="#FFEBD5" stroke-opacity="1" stroke-width="1" d="M4.801 5.1V-5.1h-9.602"></path></g><g  opacity="1" transform="translate(119.377 100.763)"><path  class="anim-color-1" fill="#353535" fill-opacity="1" d="m-9.022-4.925 2.557-1.665a.431.431 0 0 0 .173-.219l2.081-5.859a.438.438 0 0 1 .71-.174l3.383 3.135c.06.055.133.093.213.109l9.714 1.906a.438.438 0 0 1 .251.709L6.832-3.095a.437.437 0 0 0-.078.417l2.491 7.503a.439.439 0 0 1-.149.484L5.895 7.783a.44.44 0 0 0-.165.271l-.791 4.533a.437.437 0 0 1-.686.281l-6.258-4.517a.434.434 0 0 0-.238-.081l-7.504-.3a.437.437 0 0 1-.36-.657l5.766-9.924"></path></g><g  opacity="1" transform="translate(142.916 121.595)"><path  class="anim-color-2" fill="#FFEBD5" fill-opacity="1" d="M-7.437 7.263c7.766 7.784 19.348 7.321 21.419 6.831 1.221-.29 1.063-13.573-6.703-21.357-7.766-7.784-21.197-7.124-21.419-6.83-.222.293-1.063 13.572 6.703 21.356z"></path><path  stroke-linecap="round" stroke-linejoin="round" fill-opacity="0" class="anim-color-1" stroke="#353535" stroke-opacity="1" stroke-width="1" d="M-7.437 7.263c7.766 7.784 19.348 7.321 21.419 6.831 1.221-.29 1.063-13.573-6.703-21.357-7.766-7.784-21.197-7.124-21.419-6.83-.222.293-1.063 13.572 6.703 21.356z"></path></g><g  opacity="1" transform="translate(135.048 121.066)"><path  class="anim-color-1" fill="#353535" fill-opacity="1" d="M-5.754-11.831s5.648 4.615 8.16 13.824c2.511 9.21 3.348 9.838 3.348 9.838S-.525 7.435-1.362 6.179c-.837-1.256-4.392-18.01-4.392-18.01z"></path></g><g  opacity="1" transform="translate(138.159 106.689)"><path  class="anim-color-1" fill="#353535" fill-opacity="1" d="M5.447 4.954a79.54 79.54 0 0 0 3.203-.003C.551-4.979-6.176.525-8.65.7-4.854 4.193.479 4.841 5.447 4.954z"></path></g><g  opacity="1" transform="translate(138.752 98.873)"><path  class="anim-color-2" fill="#FFEBD5" fill-opacity="1" d="M2.564 7.947c11.38-6.023 14.887-20.573 14.887-20.573s-8.777 1.871-19.698 2.393c-9.988.476-15.204 13.509-15.073 13.817.132.307 11.046 9.041 19.884 4.363z"></path><path  stroke-linecap="round" stroke-linejoin="round" fill-opacity="0" class="anim-color-1" stroke="#353535" stroke-opacity="1" stroke-width="1" d="M2.564 7.947c11.38-6.023 14.887-20.573 14.887-20.573s-8.777 1.871-19.698 2.393c-9.988.476-15.204 13.509-15.073 13.817.132.307 11.046 9.041 19.884 4.363z"></path></g><g  opacity="1" transform="translate(130.067 100.275)"><path  class="anim-color-3" fill="#F3E7D6" fill-opacity="1" d="M8.635-2.181S-1.956 1.416-8.635 2.181"></path><path  stroke-linecap="round" stroke-linejoin="round" fill-opacity="0" class="anim-color-1" stroke="#353535" stroke-opacity="1" stroke-width="1" d="M8.635-2.181S-1.956 1.416-8.635 2.181"></path></g><g  opacity="1" transform="translate(133.077 93.292)"><path  class="anim-color-1" fill="#353535" fill-opacity="1" d="M8.144-5.395s-2.397.633-4.715.744c-5.158.246-9.039 3.839-11.573 7.3C-1.742 5.395 8.144-5.395 8.144-5.395z"></path></g><g  opacity="1" transform="translate(133.981 113.42)"><path  class="anim-color-3" fill="#F3E7D6" fill-opacity="1" d="M8.394 8.174S-4.015-2.221-8.394-8.174"></path><path  stroke-linecap="round" stroke-linejoin="round" fill-opacity="0" class="anim-color-1" stroke="#353535" stroke-opacity="1" stroke-width="1" d="M8.394 8.174S-4.015-2.221-8.394-8.174"></path></g><g  opacity="1" transform="translate(130.104 79.326)"><path  class="anim-color-2" fill="#FFEBD5" fill-opacity="1" d="M9.241 5.111c4.879-9.854.722-20.674-.408-22.478-.666-1.063-13.196 3.35-18.074 13.204-4.879 9.853.057 22.363.406 22.479.349.115 13.197-3.351 18.076-13.205z"></path><path  stroke-linecap="round" stroke-linejoin="round" fill-opacity="0" class="anim-color-1" stroke="#353535" stroke-opacity="1" stroke-width="1" d="M9.241 5.111c4.879-9.854.722-20.674-.408-22.478-.666-1.063-13.196 3.35-18.074 13.204-4.879 9.853.057 22.363.406 22.479.349.115 13.197-3.351 18.076-13.205z"></path></g><g  opacity="1" transform="translate(125.76 88.94)"><path  class="anim-color-3" fill="#F3E7D6" fill-opacity="1" d="M4.49-8.702S-.258 2.643-4.49 8.702"></path><path  stroke-linecap="round" stroke-linejoin="round" fill-opacity="0" class="anim-color-1" stroke="#353535" stroke-opacity="1" stroke-width="1" d="M4.49-8.702S-.258 2.643-4.49 8.702"></path></g><g  opacity="1" transform="translate(115.396 116.213)"><path  class="anim-color-2" fill="#FFEBD5" fill-opacity="1" d="M-5.274-6.692c-6.041 8.18-3.561 19.737-3.561 19.737s5.607-4.333 13.203-8.439c6.947-3.756 6.204-14.817 6.005-14.991-.199-.175-10.956-2.661-15.647 3.693z"></path><path  stroke-linecap="round" stroke-linejoin="round" fill-opacity="0" class="anim-color-1" stroke="#353535" stroke-opacity="1" stroke-width="1" d="M-5.274-6.692c-6.041 8.18-3.561 19.737-3.561 19.737s5.607-4.333 13.203-8.439c6.947-3.756 6.204-14.817 6.005-14.991-.199-.175-10.956-2.661-15.647 3.693z"></path></g><g  opacity="1" transform="translate(120.368 110.333)"><path  class="anim-color-3" fill="#F3E7D6" fill-opacity="1" d="M-5.4 4.506S.908-1.678 5.4-4.506"></path><path  stroke-linecap="round" stroke-linejoin="round" fill-opacity="0" class="anim-color-1" stroke="#353535" stroke-opacity="1" stroke-width="1" d="M-5.4 4.506S.908-1.678 5.4-4.506"></path></g><g  opacity="1" transform="translate(127.349 123.379)"><path  class="anim-color-2" fill="#FFEBD5" fill-opacity="1" d="M-8.086-.142C-8.189 8.542-1.611 16.367-.19 17.265c.838.529 8.174-8.992 8.276-17.676.103-8.683-9.545-17.383-9.834-17.346-.288.037-6.235 8.932-6.338 17.615z"></path><path  stroke-linecap="round" stroke-linejoin="round" fill-opacity="0" class="anim-color-1" stroke="#353535" stroke-opacity="1" stroke-width="1" d="M-8.086-.142C-8.189 8.542-1.611 16.367-.19 17.265c.838.529 8.174-8.992 8.276-17.676.103-8.683-9.545-17.383-9.834-17.346-.288.037-6.235 8.932-6.338 17.615z"></path></g><g  opacity="1" transform="translate(125.876 115.141)"><path  class="anim-color-3" fill="#F3E7D6" fill-opacity="1" d="M1.216 9.519S-1.216-3.758-.275-9.519"></path><path  stroke-linecap="round" stroke-linejoin="round" fill-opacity="0" class="anim-color-1" stroke="#353535" stroke-opacity="1" stroke-width="1" d="M1.216 9.519S-1.216-3.758-.275-9.519"></path></g><g  opacity="1" transform="translate(81.012 93.013)"><path  stroke-linecap="round" stroke-linejoin="round" fill-opacity="0" class="anim-color-1" stroke="#353535" stroke-opacity="1" stroke-width="1" d="m28.612 2.872-17.97 2.257-19.823-9.633-19.431-.625"></path></g><g  opacity="1" transform="translate(56.855 96.585)"><path  stroke-linecap="round" stroke-linejoin="round" fill-opacity="0" class="anim-color-1" stroke="#353535" stroke-opacity="1" stroke-width="1" d="M7.633-7.927 2.79 2.441-7.633 7.927"></path></g><g  opacity="1" transform="translate(83.75 87.662)"><path  stroke-linecap="round" stroke-linejoin="round" fill-opacity="0" class="anim-color-1" stroke="#353535" stroke-opacity="1" stroke-width="1" d="M.508 6.884-.508-6.884"></path></g><g  opacity="1" transform="translate(524.297 72.198)"><path  class="anim-color-2" fill="#FFEBD5" fill-opacity="1" d="M-80.792-69.699s6.698 14.652 25.954 25.536C-35.582-33.279-2.93-37.465-2.93-37.465S-5.441 8.582 24.698 38.722c30.14 30.14 56.094 30.977 56.094 30.977V-69.699H-80.792z"></path></g><g  opacity="1" transform="translate(541.311 28.307)"><path  stroke-linecap="round" stroke-linejoin="round" fill-opacity="0" class="anim-color-1" stroke="#353535" stroke-opacity="1" stroke-width="1" d="M-20.969 7.305-9.474-.544 7.462-.913l13.507-6.392"></path></g><g  opacity="1" transform="translate(556.017 16.349)"><path  stroke-linecap="round" stroke-linejoin="round" fill-opacity="0" class="anim-color-1" stroke="#353535" stroke-opacity="1" stroke-width="1" d="m-2.42 7.833-.181-8.257 5.202-7.409"></path></g><g  opacity="1" transform="translate(540.92 32.155)"><path  stroke-linecap="round" stroke-linejoin="round" fill-opacity="0" class="anim-color-1" stroke="#353535" stroke-opacity="1" stroke-width="1" d="m-2.763-4.53 5.526 9.06"></path></g><g  opacity="1" transform="translate(514.913 46.381)"><path  class="anim-color-2" fill="#FFEBD5" fill-opacity="1" d="M-6.498-6.507c-4.61 9.064-.26 20.054-.26 20.054S-1.94 8.348 4.875 3.046C11.108-1.803 8.552-12.59 8.327-12.73c-.224-.138-11.245-.817-14.825 6.223z"></path><path  stroke-linecap="round" stroke-linejoin="round" fill-opacity="0" class="anim-color-1" stroke="#353535" stroke-opacity="1" stroke-width="1" d="M-6.498-6.507c-4.61 9.064-.26 20.054-.26 20.054S-1.94 8.348 4.875 3.046C11.108-1.803 8.552-12.59 8.327-12.73c-.224-.138-11.245-.817-14.825 6.223z"></path></g><g  opacity="1" transform="translate(518.656 38.986)"><path  class="anim-color-3" fill="#F3E7D6" fill-opacity="1" d="M-4.584 5.334S.619-1.803 4.584-5.334"></path><path  stroke-linecap="round" stroke-linejoin="round" fill-opacity="0" class="anim-color-1" stroke="#353535" stroke-opacity="1" stroke-width="1" d="M-4.584 5.334S.619-1.803 4.584-5.334"></path></g><g  opacity="1" transform="translate(527.645 50.77)"><path  class="anim-color-2" fill="#FFEBD5" fill-opacity="1" d="M-7.953 1.126c1.329 8.582 9.106 15.216 10.656 15.868.914.383 6.58-10.217 5.251-18.798-1.33-8.582-12.28-15.573-12.558-15.489-.279.084-4.679 9.837-3.349 18.419z"></path><path  stroke-linecap="round" stroke-linejoin="round" fill-opacity="0" class="anim-color-1" stroke="#353535" stroke-opacity="1" stroke-width="1" d="M-7.953 1.126c1.329 8.582 9.106 15.216 10.656 15.868.914.383 6.58-10.217 5.251-18.798-1.33-8.582-12.28-15.573-12.558-15.489-.279.084-4.679 9.837-3.349 18.419z"></path></g><g  opacity="1" transform="translate(525.345 42.743)"><path  class="anim-color-3" fill="#F3E7D6" fill-opacity="1" d="M2.304 9.266S-2.283-3.429-2.304-9.266"></path><path  stroke-linecap="round" stroke-linejoin="round" fill-opacity="0" class="anim-color-1" stroke="#353535" stroke-opacity="1" stroke-width="1" d="M2.304 9.266S-2.283-3.429-2.304-9.266"></path></g><g  opacity="1" transform="translate(559.01 117.064)"><path  class="anim-color-2" fill="#FFEBD5" fill-opacity="1" d="M-.685-13.131a5.51 5.51 0 0 0-6.981 2.192 7.12 7.12 0 0 0-4.971-1.393c.155-1.915-.87-3.805-2.722-4.638a4.632 4.632 0 0 0-2.582-.352 4.126 4.126 0 1 0-5.46 2.086 4.078 4.078 0 0 0 2.03.33c-.051.096-.116.179-.162.28a4.672 4.672 0 0 0 2.345 6.174c.239.107.483.177.729.242-.011.023-.025.045-.036.068a7.167 7.167 0 0 0 3.599 9.476A7.15 7.15 0 0 0-8.335.975c-.268 3.249 1.494 6.459 4.636 7.872a7.881 7.881 0 0 0 4.461.597c-.046.094-.098.183-.142.279a9.285 9.285 0 0 0 4.663 12.276c3.777 1.698 8.087.662 10.714-2.264a5.262 5.262 0 0 0 2.219 1.881 5.292 5.292 0 0 0 6.994-2.656 5.29 5.29 0 0 0-2.657-6.993 5.268 5.268 0 0 0-4.31-.005 9.28 9.28 0 0 0-4.168-6.255A5.97 5.97 0 0 0 9.341-5.225a3.58 3.58 0 0 0-1.96-4.279 3.591 3.591 0 0 0-4.748 1.802c-.054.121-.083.247-.123.37a5.512 5.512 0 0 0-3.195-5.799z"></path><path  stroke-linecap="round" stroke-linejoin="round" fill-opacity="0" class="anim-color-1" stroke="#353535" stroke-opacity="1" stroke-width="1" d="M-.685-13.131a5.51 5.51 0 0 0-6.981 2.192 7.12 7.12 0 0 0-4.971-1.393c.155-1.915-.87-3.805-2.722-4.638a4.632 4.632 0 0 0-2.582-.352 4.126 4.126 0 1 0-5.46 2.086 4.078 4.078 0 0 0 2.03.33c-.051.096-.116.179-.162.28a4.672 4.672 0 0 0 2.345 6.174c.239.107.483.177.729.242-.011.023-.025.045-.036.068a7.167 7.167 0 0 0 3.599 9.476A7.15 7.15 0 0 0-8.335.975c-.268 3.249 1.494 6.459 4.636 7.872a7.881 7.881 0 0 0 4.461.597c-.046.094-.098.183-.142.279a9.285 9.285 0 0 0 4.663 12.276c3.777 1.698 8.087.662 10.714-2.264a5.262 5.262 0 0 0 2.219 1.881 5.292 5.292 0 0 0 6.994-2.656 5.29 5.29 0 0 0-2.657-6.993 5.268 5.268 0 0 0-4.31-.005 9.28 9.28 0 0 0-4.168-6.255A5.97 5.97 0 0 0 9.341-5.225a3.58 3.58 0 0 0-1.96-4.279 3.591 3.591 0 0 0-4.748 1.802c-.054.121-.083.247-.123.37a5.512 5.512 0 0 0-3.195-5.799z"></path></g><g  opacity="1" transform="translate(45.693 273.342)"><path  class="anim-color-2" fill="#FFEBD5" fill-opacity="1" d="M2.227 15.762a6.354 6.354 0 0 0 7.744-3.354 8.225 8.225 0 0 0 5.869 1c.053 2.214 1.456 4.26 3.681 4.992a5.338 5.338 0 0 0 3.003.092 4.758 4.758 0 0 0 9.045 2.958 4.759 4.759 0 0 0-3.033-6.008 4.71 4.71 0 0 0-2.369-.133c.048-.116.112-.221.152-.342a5.387 5.387 0 0 0-3.432-6.799 5.423 5.423 0 0 0-.865-.19c.009-.028.022-.054.032-.083A8.266 8.266 0 0 0 16.785-2.54a8.249 8.249 0 0 0-7.481 1.203C9.22-5.095 6.812-8.566 3.037-9.808a9.08 9.08 0 0 0-5.189-.148c.042-.114.092-.221.13-.337 1.848-5.619-1.208-11.672-6.826-13.52-4.538-1.493-9.357.216-12.017 3.887a6.064 6.064 0 0 0-2.773-1.889 6.101 6.101 0 0 0-3.812 11.59 6.082 6.082 0 0 0 4.946-.515 10.697 10.697 0 0 0 5.533 6.672 6.888 6.888 0 0 0 1.598 12.317 6.86 6.86 0 0 0 5.148-.346c-.365 2.003.775 4.018 2.764 4.671a4.142 4.142 0 0 0 5.229-2.64c.047-.145.065-.291.096-.437a6.356 6.356 0 0 0 4.363 6.265z"></path><path  stroke-linecap="round" stroke-linejoin="round" fill-opacity="0" class="anim-color-1" stroke="#353535" stroke-opacity="1" stroke-width="1" d="M2.227 15.762a6.354 6.354 0 0 0 7.744-3.354 8.225 8.225 0 0 0 5.869 1c.053 2.214 1.456 4.26 3.681 4.992a5.338 5.338 0 0 0 3.003.092 4.758 4.758 0 0 0 9.045 2.958 4.759 4.759 0 0 0-3.033-6.008 4.71 4.71 0 0 0-2.369-.133c.048-.116.112-.221.152-.342a5.387 5.387 0 0 0-3.432-6.799 5.423 5.423 0 0 0-.865-.19c.009-.028.022-.054.032-.083A8.266 8.266 0 0 0 16.785-2.54a8.249 8.249 0 0 0-7.481 1.203C9.22-5.095 6.812-8.566 3.037-9.808a9.08 9.08 0 0 0-5.189-.148c.042-.114.092-.221.13-.337 1.848-5.619-1.208-11.672-6.826-13.52-4.538-1.493-9.357.216-12.017 3.887a6.064 6.064 0 0 0-2.773-1.889 6.101 6.101 0 0 0-3.812 11.59 6.082 6.082 0 0 0 4.946-.515 10.697 10.697 0 0 0 5.533 6.672 6.888 6.888 0 0 0 1.598 12.317 6.86 6.86 0 0 0 5.148-.346c-.365 2.003.775 4.018 2.764 4.671a4.142 4.142 0 0 0 5.229-2.64c.047-.145.065-.291.096-.437a6.356 6.356 0 0 0 4.363 6.265z"></path></g><g  opacity="1" transform="translate(303.661 327.318)"><path  stroke-linecap="round" stroke-linejoin="round" fill-opacity="0" class="anim-color-1" stroke="#353535" stroke-opacity="1" stroke-width="1" d="M301 324.19h-602v-648.38h602v648.38z"></path></g></g></g></svg>