<svg  xmlns="http://www.w3.org/2000/svg" viewBox="0 0 559 390" width="559" height="390" preserveAspectRatio="xMidYMid meet" style="width:100%;height:100%;transform:translate3d(0,0,0);content-visibility:visible"><defs ><clipPath id="__vehicle__lottie_element_7"><path  d="M0 0h559v390H0z"></path></clipPath></defs><g  clip-path="url(#__vehicle__lottie_element_7)"><g  transform="translate(-.622 -.643)" opacity="1" style="display:block"><g  opacity="1"><path  stroke-linecap="round" stroke-linejoin="round" fill-opacity="0" class="anim-color-1" stroke="#353535" stroke-opacity="1" stroke-width="1" d="M12.19 304.111h536"></path></g><g  opacity="1" transform="translate(291.885 84.756)"><path  class="anim-color-2" fill="#FFEBD5" fill-opacity="1" d="M-61.505-4.515S-36.526-8.248.707-8.248c37.234 0 60.798 3.733 60.798 3.733S51.609 8.248 1.65 8.248c-49.959 0-63.155-12.763-63.155-12.763z"></path></g><g  opacity="1" transform="translate(291.885 84.756)"><path  stroke-linecap="round" stroke-linejoin="round" fill-opacity="0" class="anim-color-1" stroke="#353535" stroke-opacity="1" stroke-width="1" d="M-61.505-4.515S-36.526-8.248.707-8.248c37.234 0 60.798 3.733 60.798 3.733S51.609 8.248 1.65 8.248c-49.959 0-63.155-12.763-63.155-12.763z"></path></g><g  opacity="1" transform="translate(274.212 330.312)"><path  class="anim-color-1" fill="#353535" fill-opacity="1" d="M-103.163-21.681-220.99 7.58v27.296h326.144L220.99-7.542v-27.334l-324.153 13.195z"></path></g><g  opacity="1" transform="translate(274.212 330.312)"><path  stroke-linecap="round" stroke-linejoin="round" fill-opacity="0" class="anim-color-3" stroke="#F3E7D6" stroke-opacity="1" stroke-width="1" d="M-103.163-21.681-220.99 7.58v27.296h326.144L220.99-7.542v-27.334l-324.153 13.195z"></path></g><g  opacity="1" transform="translate(274.212 316.546)"><path  class="anim-color-2" fill="#FFEBD5" fill-opacity="1" d="m-104.578-21.346-116.413 42.692 326.145-.274L220.99-21.346h-325.568z"></path></g><g  opacity="1" transform="translate(274.212 316.546)"><path  stroke-linecap="round" stroke-linejoin="round" fill-opacity="0" class="anim-color-1" stroke="#353535" stroke-opacity="1" stroke-width="1" d="m-104.578-21.346-116.413 42.692 326.145-.274L220.99-21.346h-325.568z"></path></g><g  opacity="1" transform="translate(118.535 65.483)"><path  class="anim-color-1" fill="#353535" fill-opacity="1" d="M50 27.157H-50.001c-7.866 0-14.242-6.376-14.242-14.243v-40.071H64.243v40.071c0 7.867-6.376 14.243-14.243 14.243z"></path></g><g  opacity="1" transform="translate(88.043 209.005)"><path  class="anim-color-2" fill="#FFEBD5" fill-opacity="1" d="m5.062 123.238-.27.093a14.752 14.752 0 0 1-9.854-.093v-247.042l.019-.003a27.149 27.149 0 0 1 9.501-.097l.604.1v247.042z"></path></g><g  opacity="1" transform="translate(88.043 209.005)"><path  stroke-linecap="round" stroke-linejoin="round" fill-opacity="0" class="anim-color-1" stroke="#353535" stroke-opacity="1" stroke-width="1" d="m5.062 123.238-.27.093a14.752 14.752 0 0 1-9.854-.093v-247.042l.019-.003a27.149 27.149 0 0 1 9.501-.097l.604.1v247.042z"></path></g><g  opacity="1" transform="translate(149.027 209.003)"><path  class="anim-color-2" fill="#FFEBD5" fill-opacity="1" d="m5.061 123.24-.02.007a14.75 14.75 0 0 1-9.851.08l-.252-.087v-247.042a27.172 27.172 0 0 1 9.505-.103l.618.103V123.24z"></path></g><g  opacity="1" transform="translate(149.027 209.003)"><path  stroke-linecap="round" stroke-linejoin="round" fill-opacity="0" class="anim-color-1" stroke="#353535" stroke-opacity="1" stroke-width="1" d="m5.061 123.24-.02.007a14.75 14.75 0 0 1-9.851.08l-.252-.087v-247.042a27.172 27.172 0 0 1 9.505-.103l.618.103V123.24z"></path></g><g  opacity="1" transform="translate(118.535 53.966)"><path  class="anim-color-2" fill="#FFEBD5" fill-opacity="1" d="M64.243 27.157H-64.243v-44.678c0-5.321 4.314-9.636 9.636-9.636H54.607c5.322 0 9.636 4.315 9.636 9.636v44.678z"></path></g><g  opacity="1" transform="translate(118.535 53.966)"><path  stroke-linecap="round" stroke-linejoin="round" fill-opacity="0" class="anim-color-1" stroke="#353535" stroke-opacity="1" stroke-width="1" d="M64.243 27.157H-64.243v-44.678c0-5.321 4.314-9.636 9.636-9.636H54.607c5.322 0 9.636 4.315 9.636 9.636v44.678z"></path></g><g  opacity="1" transform="translate(99.554 52.23)"><path  class="anim-color-2" fill="#FFEBD5" fill-opacity="1" d="M22.194 20.733h-44.387c-11.45 0-20.733-9.283-20.733-20.733 0-11.451 9.283-20.733 20.733-20.733h44.387c11.451 0 20.732 9.282 20.732 20.733 0 11.45-9.281 20.733-20.732 20.733z"></path></g><g  opacity="1" transform="translate(99.554 52.23)"><path  stroke-linecap="round" stroke-linejoin="round" fill-opacity="0" class="anim-color-1" stroke="#353535" stroke-opacity="1" stroke-width="1" d="M22.194 20.733h-44.387c-11.45 0-20.733-9.283-20.733-20.733 0-11.451 9.283-20.733 20.733-20.733h44.387c11.451 0 20.732 9.282 20.732 20.733 0 11.45-9.281 20.733-20.732 20.733z"></path></g><g  opacity="1" transform="translate(99.553 58.185)"><path  class="anim-color-1" fill="#353535" fill-opacity="1" d="M41.968-12.205c.623 1.972.958 4.072.958 6.25 0 11.451-9.282 20.733-20.732 20.733h-44.387c-11.45 0-20.733-9.282-20.733-20.733 0-1.969.274-3.873.787-5.678l.008.094c3.427-1.53 6.907-3.156 9.968-3.156h.074c5.707 0 11.711 5.799 16.529 5.799h.073c4.818 0 10.496-5.882 16.418-5.882 5.707 0 11.71 5.799 16.528 5.799h.074c4.817 0 10.821-5.799 16.528-5.799h.074c2.616 0 5.293 1.235 7.891 2.574"></path></g><g  opacity="1" transform="translate(113.934 42.134)"><path  class="anim-color-1" fill="#353535" fill-opacity="1" d="M2.19 0a2.19 2.19 0 1 1-4.38 0 2.19 2.19 0 0 1 4.38 0z"></path></g><g  opacity="1" transform="translate(87.069 43.886)"><path  class="anim-color-1" fill="#353535" fill-opacity="1" d="M1.606 0a1.606 1.606 0 1 1-3.212 0 1.606 1.606 0 0 1 3.212 0z"></path></g><g  opacity="1" transform="translate(114.956 45.785)"><path  class="anim-color-1" fill="#353535" fill-opacity="1" d="M.876 0A.876.876 0 1 1-.875 0 .876.876 0 0 1 .876 0z"></path></g><g  opacity="1"><path  class="anim-color-1" fill="#353535" fill-opacity="1" d="M80.499 73.234V32.06"></path></g><g  opacity="1"><path  stroke-linecap="round" stroke-linejoin="round" fill-opacity="0" class="anim-color-2" stroke="#FFEBD5" stroke-opacity="1" stroke-width="1" d="M80.499 73.234V32.06"></path></g><g  opacity="1"><path  class="anim-color-1" fill="#353535" fill-opacity="1" d="M83.419 73.234V32.06"></path></g><g  opacity="1"><path  stroke-linecap="round" stroke-linejoin="round" fill-opacity="0" class="anim-color-2" stroke="#FFEBD5" stroke-opacity="1" stroke-width="1" d="M83.419 73.234V32.06"></path></g><g  opacity="1"><path  class="anim-color-1" fill="#353535" fill-opacity="1" d="M117 73.234V32.06"></path></g><g  opacity="1"><path  stroke-linecap="round" stroke-linejoin="round" fill-opacity="0" class="anim-color-2" stroke="#FFEBD5" stroke-opacity="1" stroke-width="1" d="M117 73.234V32.06"></path></g><g  opacity="1"><path  class="anim-color-1" fill="#353535" fill-opacity="1" d="M119.921 73.234V32.06"></path></g><g  opacity="1"><path  stroke-linecap="round" stroke-linejoin="round" fill-opacity="0" class="anim-color-2" stroke="#FFEBD5" stroke-opacity="1" stroke-width="1" d="M119.921 73.234V32.06"></path></g><g  opacity="1"><path  class="anim-color-3" fill="#F3E7D6" fill-opacity="1" d="M80.499 48.413V32.06"></path></g><g  opacity="1"><path  stroke-linecap="round" stroke-linejoin="round" fill-opacity="0" class="anim-color-1" stroke="#353535" stroke-opacity="1" stroke-width="1" d="M80.499 48.413V32.06"></path></g><g  opacity="1"><path  class="anim-color-3" fill="#F3E7D6" fill-opacity="1" d="M83.419 49.386V32.059"></path></g><g  opacity="1"><path  stroke-linecap="round" stroke-linejoin="round" fill-opacity="0" class="anim-color-1" stroke="#353535" stroke-opacity="1" stroke-width="1" d="M83.419 49.386V32.059"></path></g><g  opacity="1"><path  class="anim-color-3" fill="#F3E7D6" fill-opacity="1" d="M117 49.205V32.059"></path></g><g  opacity="1"><path  stroke-linecap="round" stroke-linejoin="round" fill-opacity="0" class="anim-color-1" stroke="#353535" stroke-opacity="1" stroke-width="1" d="M117 49.205V32.059"></path></g><g  opacity="1"><path  class="anim-color-3" fill="#F3E7D6" fill-opacity="1" d="M119.921 48.802V32.059"></path></g><g  opacity="1"><path  stroke-linecap="round" stroke-linejoin="round" fill-opacity="0" class="anim-color-1" stroke="#353535" stroke-opacity="1" stroke-width="1" d="M119.921 48.802V32.059"></path></g><g  opacity="1" transform="translate(162.008 52.365)"><path  class="anim-color-1" fill="#353535" fill-opacity="1" d="M9.348 18.543H-9.346a3.356 3.356 0 0 1-3.356-3.355v-30.375a3.357 3.357 0 0 1 3.356-3.356H9.348a3.355 3.355 0 0 1 3.354 3.356v30.375a3.354 3.354 0 0 1-3.354 3.355z"></path></g><g  opacity="1" transform="translate(161.278 46.812)"><path  class="anim-color-1" fill="#353535" fill-opacity="1" d="M0 7.154v-10.22h2.044L0-7.154l-2.044 4.088H0"></path></g><g  opacity="1" transform="translate(161.278 46.812)"><path  stroke-linecap="round" stroke-linejoin="round" fill-opacity="0" class="anim-color-2" stroke="#FFEBD5" stroke-opacity="1" stroke-width="1" d="M0 7.154v-10.22h2.044L0-7.154l-2.044 4.088H0"></path></g><g  opacity="1" transform="translate(166.201 53.966)"><path  class="anim-color-1" fill="#353535" fill-opacity="1" d="M-4.964 0h7.092v1.418L4.964 0 2.128-1.418V0"></path></g><g  opacity="1" transform="translate(166.201 53.966)"><path  stroke-linecap="round" stroke-linejoin="round" fill-opacity="0" class="anim-color-2" stroke="#FFEBD5" stroke-opacity="1" stroke-width="1" d="M-4.964 0h7.092v1.418L4.964 0 2.128-1.418V0"></path></g><g  opacity="1" transform="translate(166.43 58.975)"><path  class="anim-color-1" fill="#353535" fill-opacity="1" d="m-5.059-5.059 7.227 7.227L.723 3.613l4.336 1.446L3.614.723 2.168 2.168"></path></g><g  opacity="1" transform="translate(166.43 58.975)"><path  stroke-linecap="round" stroke-linejoin="round" fill-opacity="0" class="anim-color-2" stroke="#FFEBD5" stroke-opacity="1" stroke-width="1" d="m-5.059-5.059 7.227 7.227L.723 3.613l4.336 1.446L3.614.723 2.168 2.168"></path></g><g  opacity="1" transform="translate(157.89 57.396)"><path  class="anim-color-1" fill="#353535" fill-opacity="1" d="m3.51-3.511-5.015 5.015L-2.508.501l-1.003 3.01 3.009-1.004-1.003-1.003"></path></g><g  opacity="1" transform="translate(157.89 57.396)"><path  stroke-linecap="round" stroke-linejoin="round" fill-opacity="0" class="anim-color-2" stroke="#FFEBD5" stroke-opacity="1" stroke-width="1" d="m3.51-3.511-5.015 5.015L-2.508.501l-1.003 3.01 3.009-1.004-1.003-1.003"></path></g><g  opacity="1"><path  class="anim-color-1" fill="#353535" fill-opacity="1" d="M379.365 337.618v27.57"></path></g><g  opacity="1"><path  stroke-linecap="round" stroke-linejoin="round" fill-opacity="0" class="anim-color-3" stroke="#F3E7D6" stroke-opacity="1" stroke-width="1" d="M379.365 337.618v27.57"></path></g><g  opacity="1" transform="translate(90.291 192.329)"><path  class="anim-color-1" fill="#353535" fill-opacity="1" d="M.129 1.063s-.258-2.126-.246-2.12"></path></g><g  opacity="1" transform="translate(140.306 187.879)"><path  class="anim-color-1" fill="#353535" fill-opacity="1" d="M1.198-5.209C.012-.281-1.421 2.521-2.099 2.786c.002 0-.216.021-.22.079-.03.412.027 2.047.027 2.047 1.992.296 3.539-2.748 4.641-6.204a48.107 48.107 0 0 1-1.151-3.917z"></path></g><g  opacity="1" transform="translate(144.582 170.805)"><path  class="anim-color-1" fill="#353535" fill-opacity="1" d="M-2.201-7.609a.228.228 0 0 1-.116-.043c.64.501 1.264 4.309.708 10.468.132 1.158.287 2.334.498 3.546.212 1.222.447 2.327.689 3.38.288-1.465.461-2.592.519-2.982.238-1.623 2.22-15.881-1.983-16.502l-.315 2.133z"></path></g><g  opacity="1" transform="translate(143.208 176.677)"><path  class="anim-color-1" fill="#353535" fill-opacity="1" d="M3.259 12.236C2.182 10.164.789 6.185-.185.568c-1.431-8.253-.821-13.487-.078-14.099a.278.278 0 0 1-.114.043l-.135-2.127-.232.003c-2.007.348-2.515 3.789-2.467 7.458.05 3.993.755 8.246.899 9.09.246 1.416 2.26 12.458 5.571 14.679v-3.379z"></path></g><g  opacity="1" transform="translate(130.746 187.984)"><path  class="anim-color-1" fill="#353535" fill-opacity="1" d="M1.165-5.224C-.05-.278-1.543 2.54-2.223 2.805c.012-.007-.097 2.127-.097 2.127 1.991.292 3.538-2.747 4.64-6.198a48.058 48.058 0 0 1-1.155-3.958z"></path></g><g  opacity="1" transform="translate(134.995 170.933)"><path  class="anim-color-1" fill="#353535" fill-opacity="1" d="M-2.202-7.617c-.064-.009-.106-.031-.115-.043.642.504 1.266 4.328.703 10.511.133 1.139.294 2.309.501 3.503A62.73 62.73 0 0 0-.426 9.75c.289-1.475.465-2.608.522-2.998C.335 5.129 2.316-9.129-1.888-9.75l-.314 2.133z"></path></g><g  opacity="1" transform="translate(134.36 177.351)"><path  class="anim-color-1" fill="#353535" fill-opacity="1" d="M-3.951-8.704c.051 3.989.756 8.244.902 9.087C-2.767 2-.189 16.165 3.997 15.439c0 0-.261-2.127-.246-2.121C2.842 12.988.507 8.266-.923.016c-1.431-8.252-.82-13.487-.078-14.099a.302.302 0 0 1-.114.046l-.071-2.119-.298-.009c-2.005.347-2.512 3.792-2.467 7.461z"></path></g><g  opacity="1" transform="translate(125.408 171.054)"><path  class="anim-color-1" fill="#353535" fill-opacity="1" d="M-2.202-7.619c-.063-.006-.103-.033-.114-.039.641.502 1.266 4.321.705 10.498.132 1.145.292 2.315.498 3.516.213 1.219.445 2.345.687 3.392a71.93 71.93 0 0 0 .522-2.995C.335 5.128 2.316-9.129-1.887-9.748l-.315 2.129z"></path></g><g  opacity="1" transform="translate(123.044 179.462)"><path  class="anim-color-1" fill="#353535" fill-opacity="1" d="M-.081.438c.077-.283.127-.574.162-.876-.052.302-.107.587-.162.876z"></path></g><g  opacity="1" transform="translate(121.159 188.102)"><path  class="anim-color-1" fill="#353535" fill-opacity="1" d="M1.164-5.225C-.051-.272-1.543 2.541-2.223 2.806c.012-.006-.097 2.127-.097 2.127 1.992.292 3.538-2.749 4.64-6.2a47.396 47.396 0 0 1-1.156-3.958z"></path></g><g  opacity="1" transform="translate(124.772 177.469)"><path  class="anim-color-1" fill="#353535" fill-opacity="1" d="M-3.951-8.702c.049 3.989.755 8.246.9 9.086.282 1.62 2.863 15.779 7.047 15.056 0 0-.258-2.127-.244-2.121C2.845 12.989.506 8.268-.924.015-2.354-8.234-1.743-13.47-1-14.083a.244.244 0 0 1-.116.047l-.135-2.127h-.233c-2.005.347-2.512 3.792-2.467 7.461z"></path></g><g  opacity="1" transform="translate(111.573 188.23)"><path  class="anim-color-1" fill="#353535" fill-opacity="1" d="M1.161-5.221C-.054-.278-1.545 2.533-2.224 2.798c.013-.003-.096 2.127-.096 2.127 1.992.296 3.538-2.749 4.64-6.202a47.909 47.909 0 0 1-1.159-3.944z"></path></g><g  opacity="1" transform="translate(115.819 171.176)"><path  class="anim-color-1" fill="#353535" fill-opacity="1" d="M-2.199-7.617a.27.27 0 0 1-.118-.046c.644.507 1.272 4.346.703 10.551A62.943 62.943 0 0 0-.424 9.75a71.46 71.46 0 0 0 .522-2.998C.338 5.129 2.317-9.132-1.885-9.75l-.314 2.133z"></path></g><g  opacity="1" transform="translate(115.186 177.591)"><path  class="anim-color-1" fill="#353535" fill-opacity="1" d="M-3.951-8.704c.052 3.989.754 8.247.902 9.087C-2.77 2-.192 16.165 3.995 15.439c0 0-.257-2.127-.244-2.121C2.844 12.988.509 8.266-.924.016c-1.431-8.252-.82-13.484-.077-14.1a.29.29 0 0 1-.114.047l-.136-2.128-.233.004c-2.005.344-2.511 3.785-2.467 7.457z"></path></g><g  opacity="1" transform="translate(101.984 188.35)"><path  class="anim-color-1" fill="#353535" fill-opacity="1" d="M1.164-5.218C-.051-.278-1.543 2.533-2.222 2.798c.011-.006-.098 2.127-.098 2.127 1.991.293 3.538-2.744 4.64-6.194a47.931 47.931 0 0 1-1.156-3.949z"></path></g><g  opacity="1" transform="translate(106.233 171.299)"><path  class="anim-color-1" fill="#353535" fill-opacity="1" d="M-2.201-7.62a.274.274 0 0 1-.118-.043c.645.505 1.272 4.346.703 10.552.132 1.127.301 2.287.505 3.463a62.09 62.09 0 0 0 .685 3.401c.29-1.477.466-2.61.525-3.004.24-1.622 2.219-15.88-1.985-16.502l-.315 2.133z"></path></g><g  opacity="1" transform="translate(105.597 177.711)"><path  class="anim-color-1" fill="#353535" fill-opacity="1" d="M-3.949-8.704c.051 3.989.755 8.244.899 9.09.281 1.617 2.863 15.779 7.047 15.056 0 0-.257-2.127-.244-2.124C2.846 12.991.508 8.267-.924.014-2.356-8.235-1.742-13.468-1-14.084a.244.244 0 0 1-.116.047l-.134-2.128-.234.004c-2.005.347-2.513 3.788-2.465 7.457z"></path></g><g  opacity="1" transform="translate(92.404 188.467)"><path  class="anim-color-1" fill="#353535" fill-opacity="1" d="M2.185-1.705a52.187 52.187 0 0 1-1.014-3.519C-.016-.277-1.453 2.537-2.134 2.801c.002 0-.093-.049-.095.003-.028.388-.097 2.124-.097 2.124 1.999.296 3.549-2.77 4.652-6.239-.046-.135-.095-.252-.141-.394z"></path></g><g  opacity="1" transform="translate(96.646 171.416)"><path  class="anim-color-1" fill="#353535" fill-opacity="1" d="M-2.202-7.617a.255.255 0 0 1-.114-.043c.643.501 1.267 4.328.704 10.512A61.448 61.448 0 0 0-.425 9.75c.289-1.474.465-2.607.523-2.998C.337 5.127 2.316-9.131-1.886-9.75l-.316 2.133z"></path></g><g  opacity="1" transform="translate(96.01 177.831)"><path  class="anim-color-1" fill="#353535" fill-opacity="1" d="M-3.949-8.704c.052 3.989.756 8.248.9 9.091.28 1.613 2.86 15.778 7.044 15.055 0 0-.255-2.127-.242-2.124C2.845 12.988.508 8.27-.923.018c-1.43-8.253-.821-13.486-.076-14.101a.24.24 0 0 1-.114.046l-.136-2.128-.235.004c-2.002.345-2.511 3.791-2.465 7.457z"></path></g><g  opacity="1" transform="translate(284.108 300.619)"><path  class="anim-color-1" fill="#353535" fill-opacity="1" d="m-48.963-9.898-56.557 5.695v27.297H50.954L105.52 4.242v-27.336L-48.963-9.898z"></path></g><g  opacity="1" transform="translate(284.109 286.854)"><path  class="anim-color-2" fill="#FFEBD5" fill-opacity="1" d="M-50.377-9.563-105.52 9.563l156.474-.274L105.52-9.563H-50.377z"></path></g><g  opacity="1" transform="translate(284.109 286.854)"><path  stroke-linecap="round" stroke-linejoin="round" fill-opacity="0" class="anim-color-1" stroke="#353535" stroke-opacity="1" stroke-width="1" d="M-50.377-9.563-105.52 9.563l156.474-.274L105.52-9.563H-50.377z"></path></g><g  opacity="1"><path  class="anim-color-1" fill="#353535" fill-opacity="1" d="M335.063 296.142v27.571"></path></g><g  opacity="1"><path  stroke-linecap="round" stroke-linejoin="round" fill-opacity="0" class="anim-color-3" stroke="#F3E7D6" stroke-opacity="1" stroke-width="1" d="M335.063 296.142v27.571"></path></g><g  opacity="1" transform="translate(332.352 291.548)"><path  class="anim-color-1" fill="#353535" fill-opacity="1" d="M3.339 1.608c-2.17.39-4.391.397-6.562.021l-.116-.021v-3.612h6.678v3.612z"></path></g><g  opacity="1" transform="translate(332.352 291.548)"><path  stroke-linecap="round" stroke-linejoin="round" fill-opacity="0" class="anim-color-2" stroke="#FFEBD5" stroke-opacity="1" stroke-width="1" d="M3.339 1.608s0 0 0 0c-2.17.39-4.391.397-6.562.021l-.116-.021v-3.612h6.678v3.612z"></path></g><g  opacity="1" transform="translate(332.416 288.879)"><path  class="anim-color-1" fill="#353535" fill-opacity="1" d="M6.476 1.005V-2.41H-6.476v3.415h.003c.056.829 2.931 1.405 6.472 1.405 3.578 0 6.477-.562 6.477-1.405z"></path></g><g  opacity="1" transform="translate(332.416 288.879)"><path  stroke-linecap="round" stroke-linejoin="round" fill-opacity="0" class="anim-color-2" stroke="#FFEBD5" stroke-opacity="1" stroke-width="1" d="M6.476 1.005V-2.41H-6.476v3.415h.003c.056.829 2.931 1.405 6.472 1.405 3.578 0 6.477-.562 6.477-1.405z"></path></g><g  opacity="1" transform="translate(332.416 286.311)"><path  class="anim-color-1" fill="#353535" fill-opacity="1" d="M6.476 0c0 .737-2.899 1.336-6.477 1.336-3.576 0-6.475-.599-6.475-1.336 0-.738 2.899-1.336 6.475-1.336 3.578 0 6.477.598 6.477 1.336z"></path></g><g  opacity="1" transform="translate(332.416 286.311)"><path  stroke-linecap="round" stroke-linejoin="round" fill-opacity="0" class="anim-color-2" stroke="#FFEBD5" stroke-opacity="1" stroke-width="1" d="M6.476 0c0 .737-2.899 1.336-6.477 1.336-3.576 0-6.475-.599-6.475-1.336 0-.738 2.899-1.336 6.475-1.336 3.578 0 6.477.598 6.477 1.336z"></path></g><g  opacity="1" transform="translate(373.004 279.264)"><path  class="anim-color-1" fill="#353535" fill-opacity="1" d="M3.117 1.501c-2.025.364-4.1.37-6.127.019l-.107-.019v-3.372h6.234v3.372z"></path></g><g  opacity="1" transform="translate(373.004 279.264)"><path  stroke-linecap="round" stroke-linejoin="round" fill-opacity="0" class="anim-color-2" stroke="#FFEBD5" stroke-opacity="1" stroke-width="1" d="M3.117 1.501s0 0 0 0c-2.025.364-4.1.37-6.127.019l-.107-.019v-3.372h6.234v3.372z"></path></g><g  opacity="1" transform="translate(373.063 276.772)"><path  class="anim-color-1" fill="#353535" fill-opacity="1" d="M6.046.938V-2.25H-6.047V.938h.002c.054.775 2.738 1.312 6.044 1.312 3.34 0 6.048-.525 6.048-1.312h-.001z"></path></g><g  opacity="1" transform="translate(373.063 276.772)"><path  stroke-linecap="round" stroke-linejoin="round" fill-opacity="0" class="anim-color-2" stroke="#FFEBD5" stroke-opacity="1" stroke-width="1" d="M6.046.938V-2.25H-6.047V.938h.002c.054.775 2.738 1.312 6.044 1.312 3.34 0 6.048-.525 6.048-1.312h-.001z"></path></g><g  opacity="1" transform="translate(373.063 274.374)"><path  class="anim-color-1" fill="#353535" fill-opacity="1" d="M6.047 0C6.047.688 3.339 1.247 0 1.247-3.34 1.247-6.047.688-6.047 0c0-.688 2.707-1.247 6.047-1.247 3.339 0 6.047.559 6.047 1.247z"></path></g><g  opacity="1" transform="translate(373.063 274.374)"><path  stroke-linecap="round" stroke-linejoin="round" fill-opacity="0" class="anim-color-2" stroke="#FFEBD5" stroke-opacity="1" stroke-width="1" d="M6.047 0C6.047.688 3.339 1.247 0 1.247-3.34 1.247-6.047.688-6.047 0c0-.688 2.707-1.247 6.047-1.247 3.339 0 6.047.559 6.047 1.247z"></path></g><g  opacity="1" transform="translate(194.103 293.12)"><path  class="anim-color-1" fill="#353535" fill-opacity="1" d="M3.339 1.608c-2.17.39-4.392.397-6.563.021l-.115-.021v-3.612h6.678v3.612z"></path></g><g  opacity="1" transform="translate(194.103 293.12)"><path  stroke-linecap="round" stroke-linejoin="round" fill-opacity="0" class="anim-color-2" stroke="#FFEBD5" stroke-opacity="1" stroke-width="1" d="M3.339 1.608s0 0 0 0c-2.17.39-4.392.397-6.563.021l-.115-.021v-3.612h6.678v3.612z"></path></g><g  opacity="1" transform="translate(194.166 290.45)"><path  class="anim-color-1" fill="#353535" fill-opacity="1" d="M6.476 1.004V-2.41H-6.476v3.414h.003C-6.417 1.834-3.541 2.41 0 2.41c3.577 0 6.476-.562 6.476-1.406z"></path></g><g  opacity="1" transform="translate(194.166 290.45)"><path  stroke-linecap="round" stroke-linejoin="round" fill-opacity="0" class="anim-color-2" stroke="#FFEBD5" stroke-opacity="1" stroke-width="1" d="M6.476 1.004V-2.41H-6.476v3.414h.003C-6.417 1.834-3.541 2.41 0 2.41c3.577 0 6.476-.562 6.476-1.406z"></path></g><g  opacity="1" transform="translate(194.166 287.882)"><path  class="anim-color-1" fill="#353535" fill-opacity="1" d="M6.476 0c0 .737-2.9 1.336-6.476 1.336-3.577 0-6.476-.599-6.476-1.336 0-.738 2.899-1.336 6.476-1.336 3.576 0 6.476.598 6.476 1.336z"></path></g><g  opacity="1" transform="translate(194.166 287.882)"><path  stroke-linecap="round" stroke-linejoin="round" fill-opacity="0" class="anim-color-2" stroke="#FFEBD5" stroke-opacity="1" stroke-width="1" d="M6.476 0c0 .737-2.9 1.336-6.476 1.336-3.577 0-6.476-.599-6.476-1.336 0-.738 2.899-1.336 6.476-1.336 3.576 0 6.476.598 6.476 1.336z"></path></g><g  opacity="1" transform="translate(239.467 280.049)"><path  class="anim-color-1" fill="#353535" fill-opacity="1" d="M3.117 1.502a17.66 17.66 0 0 1-6.127.019l-.107-.019v-3.374h6.234v3.374z"></path></g><g  opacity="1" transform="translate(239.467 280.049)"><path  stroke-linecap="round" stroke-linejoin="round" fill-opacity="0" class="anim-color-2" stroke="#FFEBD5" stroke-opacity="1" stroke-width="1" d="M3.117 1.502s0 0 0 0a17.66 17.66 0 0 1-6.127.019l-.107-.019v-3.374h6.234v3.374z"></path></g><g  opacity="1" transform="translate(239.527 277.557)"><path  class="anim-color-1" fill="#353535" fill-opacity="1" d="M6.047.938V-2.25H-6.047V.938h.003c.053.775 2.737 1.312 6.043 1.312 3.339 0 6.048-.524 6.048-1.312z"></path></g><g  opacity="1" transform="translate(239.527 277.557)"><path  stroke-linecap="round" stroke-linejoin="round" fill-opacity="0" class="anim-color-2" stroke="#FFEBD5" stroke-opacity="1" stroke-width="1" d="M6.047.938V-2.25H-6.047V.938h.003c.053.775 2.737 1.312 6.043 1.312 3.339 0 6.048-.524 6.048-1.312z"></path></g><g  opacity="1" transform="translate(239.526 275.159)"><path  class="anim-color-1" fill="#353535" fill-opacity="1" d="M6.047 0C6.047.689 3.339 1.247 0 1.247-3.339 1.247-6.047.689-6.047 0c0-.688 2.708-1.247 6.047-1.247 3.339 0 6.047.559 6.047 1.247z"></path></g><g  opacity="1" transform="translate(239.526 275.159)"><path  stroke-linecap="round" stroke-linejoin="round" fill-opacity="0" class="anim-color-2" stroke="#FFEBD5" stroke-opacity="1" stroke-width="1" d="M6.047 0C6.047.689 3.339 1.247 0 1.247-3.339 1.247-6.047.689-6.047 0c0-.688 2.708-1.247 6.047-1.247 3.339 0 6.047.559 6.047 1.247z"></path></g><g  opacity="1" transform="translate(290.447 284.981)"><path  class="anim-color-1" fill="#353535" fill-opacity="1" d="M32.831 1.674v-8.841h-65.664v8.841h.013c.288 3.244 14.866 5.493 32.818 5.493 18.133 0 32.835-2.196 32.835-5.493h-.002z"></path></g><g  opacity="1" transform="translate(290.447 284.981)"><path  stroke-linecap="round" stroke-linejoin="round" fill-opacity="0" class="anim-color-3" stroke="#F3E7D6" stroke-opacity="1" stroke-width="1" d="M32.831 1.674v-8.841h-65.664v8.841h.013c.288 3.244 14.866 5.493 32.818 5.493 18.133 0 32.835-2.196 32.835-5.493h-.002z"></path></g><g  opacity="1" transform="translate(290.446 277.814)"><path  class="anim-color-1" fill="#353535" fill-opacity="1" d="M32.832 0c0 3.297-14.7 5.97-32.833 5.97-18.132 0-32.831-2.673-32.831-5.97 0-3.297 14.699-5.97 32.831-5.97 18.133 0 32.833 2.673 32.833 5.97z"></path></g><g  opacity="1" transform="translate(290.446 277.814)"><path  stroke-linecap="round" stroke-linejoin="round" fill-opacity="0" class="anim-color-3" stroke="#F3E7D6" stroke-opacity="1" stroke-width="1" d="M32.832 0c0 3.297-14.7 5.97-32.833 5.97-18.132 0-32.831-2.673-32.831-5.97 0-3.297 14.699-5.97 32.831-5.97 18.133 0 32.833 2.673 32.833 5.97z"></path></g><g  opacity="1" transform="translate(291.459 203.611)"><path  class="anim-color-2" fill="#FFEBD5" fill-opacity="1" d="M-10.505-75.499h21.01V72.836a28.614 28.614 0 0 1-20.996.005l-.014-.005V-75.499z"></path></g><g  opacity="1" transform="translate(291.459 203.611)"><path  stroke-linecap="round" stroke-linejoin="round" fill-opacity="0" class="anim-color-1" stroke="#353535" stroke-opacity="1" stroke-width="1" d="M-10.505-75.499h21.01V72.836a28.614 28.614 0 0 1-20.996.005l-.014-.005V-75.499z"></path></g><g  opacity="1" transform="translate(295.049 256.27)"><path  class="anim-color-1" fill="#353535" fill-opacity="1" d="M-12.524 7.985C-6.782 7.883-.661 6.465.556 6.171 2.881 5.602 23.261.381 22.22-8.079c0 0-3.058.521-3.054.495C18.698-5.75 11.899-1.026.021 1.867c-11.873 2.892-19.405 1.66-20.29.154.014.024.052.11.071.237l-3.063.503v.241c.502 4.054 5.454 5.076 10.737 4.983z"></path></g><g  opacity="1" transform="translate(309.337 147.315)"><path  class="anim-color-1" fill="#353535" fill-opacity="1" d="M-7.496-2.424C-.404-.026 3.629 2.872 4.008 4.245c0-.004.028.436.113.443.597.063 2.948-.052 2.948-.052.427-4.032-3.957-7.159-8.932-9.387a54.47 54.47 0 0 1-5.633 2.327z"></path></g><g  opacity="1" transform="translate(294.006 139.957)"><path  class="anim-color-1" fill="#353535" fill-opacity="1" d="M-12.527 7.984C-6.779 7.882-.658 6.457.559 6.164 2.883 5.598 23.263.381 22.221-8.081c0 0-3.059.52-3.054.495C18.699-5.754 11.896-1.03.023 1.865c-11.873 2.892-19.404 1.659-20.289.156a.62.62 0 0 1 .065.232l-3.062.273.005.468c.502 4.06 5.453 5.087 10.731 4.99z"></path></g><g  opacity="1" transform="translate(309.486 166.648)"><path  class="anim-color-1" fill="#353535" fill-opacity="1" d="M-7.517-2.356C-.397.101 3.655 3.12 4.038 4.493c-.01-.024 3.058.195 3.058.195.421-4.023-3.948-7.149-8.914-9.376-1.889.911-3.844 1.681-5.699 2.332z"></path></g><g  opacity="1" transform="translate(294.186 159.34)"><path  class="anim-color-1" fill="#353535" fill-opacity="1" d="M-12.526 7.989C-6.784 7.885-.663 6.46.549 6.164 2.874 5.595 23.263.384 22.216-8.081c0 0-3.061.525-3.048.495C18.691-5.75 11.896-1.025.023 1.868c-11.878 2.892-19.414 1.654-20.289.153.009.024.041.105.06.233l-3.044.144-.013.604c.497 4.052 5.459 5.079 10.737 4.987z"></path></g><g  opacity="1" transform="translate(297.222 182.223)"><path  class="anim-color-1" fill="#353535" fill-opacity="1" d="M.632.163A6.16 6.16 0 0 0-.632-.163C-.196-.06.215.052.632.163z"></path></g><g  opacity="1" transform="translate(309.66 186.031)"><path  class="anim-color-1" fill="#353535" fill-opacity="1" d="M-7.52-2.353C-.396.104 3.657 3.122 4.035 4.497c-.004-.028 3.063.195 3.063.195C7.52.665 3.146-2.462-1.826-4.692c-1.883.914-3.835 1.688-5.694 2.339z"></path></g><g  opacity="1" transform="translate(294.356 178.727)"><path  class="anim-color-1" fill="#353535" fill-opacity="1" d="M-12.527 7.988c5.743-.1 11.869-1.527 13.081-1.82C2.883 5.597 23.263.381 22.222-8.08c0 0-3.063.521-3.054.493-.477 1.834-7.271 6.563-19.149 9.454-11.868 2.892-19.405 1.657-20.286.153a.612.612 0 0 1 .066.235l-3.062.272v.474c.501 4.054 5.458 5.079 10.736 4.987z"></path></g><g  opacity="1" transform="translate(309.841 205.417)"><path  class="anim-color-1" fill="#353535" fill-opacity="1" d="M-7.513-2.349C-.398.109 3.646 3.123 4.024 4.496c0-.027 3.064.195 3.064.195.425-4.028-3.954-7.154-8.924-9.382a55.196 55.196 0 0 1-5.677 2.342z"></path></g><g  opacity="1" transform="translate(294.529 198.112)"><path  class="anim-color-1" fill="#353535" fill-opacity="1" d="M-12.524 7.989C-6.787 7.885-.656 6.466.556 6.165 2.881 5.601 23.266.386 22.219-8.08c0 0-3.057.52-3.054.496-.472 1.833-7.266 6.555-19.139 9.452-11.878 2.892-19.41 1.657-20.295.157a.579.579 0 0 1 .066.229l-3.063.275.01.471c.492 4.052 5.448 5.08 10.732 4.989z"></path></g><g  opacity="1" transform="translate(310.014 224.806)"><path  class="anim-color-1" fill="#353535" fill-opacity="1" d="M-7.51-2.353C-.4.104 3.647 3.12 4.025 4.493c-.009-.025 3.064.196 3.064.196C7.51.665 3.14-2.461-1.825-4.689c-1.88.909-3.83 1.685-5.685 2.336z"></path></g><g  opacity="1" transform="translate(294.704 217.499)"><path  class="anim-color-1" fill="#353535" fill-opacity="1" d="M-12.524 7.986C-6.786 7.882-.665 6.46.556 6.167 2.881 5.598 23.266.379 22.225-8.081c0 0-3.063.519-3.063.494-.469 1.835-7.267 6.56-19.145 9.457-11.873 2.895-19.401 1.652-20.291.154a.518.518 0 0 1 .071.232l-3.063.272.005.474c.497 4.054 5.454 5.079 10.737 4.984z"></path></g><g  opacity="1" transform="translate(310.183 244.178)"><path  class="anim-color-1" fill="#353535" fill-opacity="1" d="M-2.452-4.417A59.331 59.331 0 0 1-7.517-2.37C-.398.033 3.65 2.937 4.033 4.315c0-.004-.071.187 0 .192.564.056 3.058.196 3.058.196C7.518.66 3.106-2.474-1.89-4.703c-.189.095-.359.191-.562.286z"></path></g><g  opacity="1" transform="translate(294.877 236.887)"><path  class="anim-color-1" fill="#353535" fill-opacity="1" d="M-12.526 7.988C-6.784 7.884-.659 6.459.553 6.168 2.873 5.599 23.264.38 22.222-8.08c0 0-3.062.518-3.059.493C18.691-5.75 11.897-1.029.024 1.867c-11.878 2.892-19.406 1.659-20.296.153a.61.61 0 0 1 .067.233l-3.059.274v.474c.497 4.047 5.459 5.079 10.738 4.987z"></path></g><g  opacity="1" transform="translate(276.371 256.821)"><path  class="anim-color-1" fill="#353535" fill-opacity="1" d="m-4.583 2.211 3.073.639a.538.538 0 0 1-.067.234c.436-.778 2.59-1.434 6.16-1.626v-4.542c-4.692.286-8.777 1.609-9.166 5.295z"></path></g><g  opacity="1" transform="translate(275.848 140.248)"><path  class="anim-color-1" fill="#353535" fill-opacity="1" d="m-5.105 2.234 3.067.638c-.005.128-.048.212-.057.233.473-.847 3.025-1.668 7.2-1.827v-4.383c-5.112.152-9.793 1.381-10.21 5.339z"></path></g><g  opacity="1" transform="translate(275.934 159.636)"><path  class="anim-color-1" fill="#353535" fill-opacity="1" d="m-5.02 2.234 3.071.636a.513.513 0 0 1-.062.234c.469-.839 2.954-1.653 7.031-1.823v-4.385c-5.047.175-9.629 1.423-10.04 5.338z"></path></g><g  opacity="1" transform="translate(276.023 179.022)"><path  class="anim-color-1" fill="#353535" fill-opacity="1" d="m-4.931 2.232 3.068.639c-.009.128-.053.208-.057.23.459-.827 2.874-1.631 6.851-1.818v-4.384c-4.976.199-9.455 1.463-9.862 5.333z"></path></g><g  opacity="1" transform="translate(276.108 198.415)"><path  class="anim-color-1" fill="#353535" fill-opacity="1" d="m-4.845 2.226 3.073.638a.619.619 0 0 1-.068.236c.46-.816 2.803-1.618 6.685-1.821V-3.1c-4.905.22-9.288 1.503-9.69 5.326z"></path></g><g  opacity="1" transform="translate(276.196 217.802)"><path  class="anim-color-1" fill="#353535" fill-opacity="1" d="m-4.758 2.225 3.072.637a.635.635 0 0 1-.066.239c.45-.805 2.737-1.591 6.51-1.809v-4.393c-4.834.244-9.118 1.546-9.516 5.326z"></path></g><g  opacity="1" transform="translate(276.283 237.19)"><path  class="anim-color-1" fill="#353535" fill-opacity="1" d="m-4.67 2.224 3.068.639a.62.62 0 0 1-.062.229c.44-.788 2.67-1.557 6.334-1.789v-4.395c-4.767.264-8.947 1.581-9.34 5.316z"></path></g><g  opacity="1" transform="translate(383.387 319.318)"><path  class="anim-color-1" fill="#353535" fill-opacity="1" d="m-26.678 9.956 1.189-24.951L19.01-8.154l7.668 5.122-44.891 18.027-8.465-5.039z"></path></g><g  opacity="1" transform="translate(383.387 319.318)"><path  stroke-linecap="round" stroke-linejoin="round" fill-opacity="0" class="anim-color-2" stroke="#FFEBD5" stroke-opacity="1" stroke-width="1" d="m-26.678 9.956 1.189-24.951L19.01-8.154l7.668 5.122-44.891 18.027-8.465-5.039z"></path></g><g  opacity="1" transform="translate(387.331 321.887)"><path  class="anim-color-1" fill="#353535" fill-opacity="1" d="m-22.844 12.475 1.189-24.95 44.499 6.841-45.688 18.109z"></path></g><g  opacity="1" transform="translate(387.331 321.887)"><path  stroke-linecap="round" stroke-linejoin="round" fill-opacity="0" class="anim-color-2" stroke="#FFEBD5" stroke-opacity="1" stroke-width="1" d="m-22.844 12.475 1.189-24.95 44.499 6.841-45.688 18.109z"></path></g><g  opacity="1" transform="translate(361.788 306.867)"><path  class="anim-color-1" fill="#353535" fill-opacity="1" d="m3.889 2.544-7.778-5.088"></path></g><g  opacity="1" transform="translate(361.788 306.867)"><path  stroke-linecap="round" stroke-linejoin="round" fill-opacity="0" class="anim-color-2" stroke="#FFEBD5" stroke-opacity="1" stroke-width="1" d="m3.889 2.544-7.778-5.088"></path></g><g  opacity="1" transform="translate(291.885 106.3)"><path  class="anim-color-1" fill="#353535" fill-opacity="1" d="M61.506-26.059C42.258-23.928 21.559-21.354.001-21.354s-42.258-2.574-61.506-4.705c-7.86 5.023-13.075 13.82-13.075 23.84 0 15.618 12.66 28.278 28.277 28.278h92.606c15.618 0 28.277-12.66 28.277-28.278 0-10.02-5.215-18.817-13.074-23.84z"></path></g><g  opacity="1" transform="translate(433.513 302.878)"><path  class="anim-color-1" fill="#353535" fill-opacity="1" d="m-11.521-3.677-20.057 7.354 43.199-.046 19.957-7.308h-43.099z"></path></g><g  opacity="1" transform="translate(433.513 302.878)"><path  stroke-linecap="round" stroke-linejoin="round" fill-opacity="0" class="anim-color-3" stroke="#F3E7D6" stroke-opacity="1" stroke-width="1" d="m-11.521-3.677-20.057 7.354 43.199-.046 19.957-7.308h-43.099z"></path></g><g  opacity="1" transform="translate(437.011 135.331)"><path  class="anim-color-2" fill="#FFEBD5" fill-opacity="1" d="M-15.826-2.191a6.408 6.408 0 0 0 6.08 4.382H9.713a6.409 6.409 0 0 0 5.857-3.806l.256-.576h-31.652z"></path></g><g  opacity="1" transform="translate(437.011 135.331)"><path  stroke-linecap="round" stroke-linejoin="round" fill-opacity="0" class="anim-color-1" stroke="#353535" stroke-opacity="1" stroke-width="1" d="M-15.826-2.191s0 0 0 0a6.408 6.408 0 0 0 6.08 4.382H9.713a6.409 6.409 0 0 0 5.857-3.806l.256-.576h-31.652z"></path></g><g  opacity="1" transform="translate(431.479 220.058)"><path  class="anim-color-1" fill="#353535" fill-opacity="1" d="M-4.904 84.359c-.251-9.271-9.671-21.209-9.671-30.726v-.124c0-9.516 9.671-19.527 9.671-27.561v-.123c0-8.033-9.81-17.502-9.81-27.377 0-9.517 9.671-19.527 9.671-27.561v-.124c0-8.033-9.671-18.045-9.671-27.561v-.124c0-9.516 9.81-19.528 9.81-27.561h19.479c0 8.033-9.67 18.045-9.67 27.561v.124c0 9.516 9.67 19.528 9.67 27.561v.124c0 8.034-9.67 18.044-9.67 27.561 0 7.66 9.809 19.344 9.809 27.377v.123c0 8.034-9.671 18.045-9.671 27.561v.124c0 9.517 9.42 19.557 9.671 30.726v.124l-19.618-.124z"></path></g><g  opacity="1" transform="translate(431.479 220.058)"><path  stroke-linecap="round" stroke-linejoin="round" fill-opacity="0" class="anim-color-1" stroke="#353535" stroke-opacity="1" stroke-width="1" d="M-4.904 84.359c-.251-9.271-9.671-21.209-9.671-30.726v-.124c0-9.516 9.671-19.527 9.671-27.561v-.123c0-8.033-9.81-17.502-9.81-27.377 0-9.517 9.671-19.527 9.671-27.561v-.124c0-8.033-9.671-18.045-9.671-27.561v-.124c0-9.516 9.81-19.528 9.81-27.561h19.479c0 8.033-9.67 18.045-9.67 27.561v.124c0 9.516 9.67 19.528 9.67 27.561v.124c0 8.034-9.67 18.044-9.67 27.561 0 7.66 9.809 19.344 9.809 27.377v.123c0 8.034-9.671 18.045-9.671 27.561v.124c0 9.517 9.42 19.557 9.671 30.726v.124l-19.618-.124z"></path></g><g  opacity="1" transform="translate(434.856 274.103)"><path  class="anim-color-2" fill="#FFEBD5" fill-opacity="1" d="M2.188-5.677a2.553 2.553 0 0 0-.91-.177c-2.098 0-3.797 2.621-3.797 5.855 0 3.232 1.699 5.853 3.797 5.853a2.61 2.61 0 0 0 1.241-.327C1.755 3.501 1.238 1.468 1.211-.541c.023-1.7.399-3.419.977-5.136z"></path></g><g  opacity="1" transform="translate(434.856 274.103)"><path  stroke-linecap="round" stroke-linejoin="round" fill-opacity="0" class="anim-color-1" stroke="#353535" stroke-opacity="1" stroke-width="1" d="M2.188-5.677a2.553 2.553 0 0 0-.91-.177c-2.098 0-3.797 2.621-3.797 5.855 0 3.232 1.699 5.853 3.797 5.853a2.61 2.61 0 0 0 1.241-.327C1.755 3.501 1.238 1.468 1.211-.541c.023-1.7.399-3.419.977-5.136z"></path></g><g  opacity="1" transform="translate(428.002 216.166)"><path  class="anim-color-2" fill="#FFEBD5" fill-opacity="1" d="M0-4.626c2.151 0 3.896 2.07 3.896 4.626 0 2.555-1.745 4.626-3.896 4.626S-3.896 2.555-3.896 0c0-2.556 1.745-4.626 3.896-4.626z"></path></g><g  opacity="1" transform="translate(428.002 216.166)"><path  stroke-linecap="round" stroke-linejoin="round" fill-opacity="0" class="anim-color-1" stroke="#353535" stroke-opacity="1" stroke-width="1" d="M0-4.626c2.151 0 3.896 2.07 3.896 4.626 0 2.555-1.745 4.626-3.896 4.626S-3.896 2.555-3.896 0c0-2.556 1.745-4.626 3.896-4.626z"></path></g><g  opacity="1" transform="translate(427.059 151.439)"><path  class="anim-color-2" fill="#FFEBD5" fill-opacity="1" d="M3.271-3.271C4.792-1.75 4.561.948 2.754 2.755.949 4.562-1.75 4.792-3.271 3.271c-1.521-1.521-1.29-4.219.517-6.025 1.806-1.807 4.504-2.038 6.025-.517z"></path></g><g  opacity="1" transform="translate(427.059 151.439)"><path  stroke-linecap="round" stroke-linejoin="round" fill-opacity="0" class="anim-color-1" stroke="#353535" stroke-opacity="1" stroke-width="1" d="M3.271-3.271C4.792-1.75 4.561.948 2.754 2.755.949 4.562-1.75 4.792-3.271 3.271c-1.521-1.521-1.29-4.219.517-6.025 1.806-1.807 4.504-2.038 6.025-.517z"></path></g><g  opacity="1" transform="translate(431.897 209.591)"><path  class="anim-color-2" fill="#FFEBD5" fill-opacity="1" d="M0-2.435a2.436 2.436 0 1 1-.001 4.871A2.436 2.436 0 0 1 0-2.435z"></path></g><g  opacity="1" transform="translate(431.897 209.591)"><path  stroke-linecap="round" stroke-linejoin="round" fill-opacity="0" class="anim-color-1" stroke="#353535" stroke-opacity="1" stroke-width="1" d="M0-2.435a2.436 2.436 0 1 1-.001 4.871A2.436 2.436 0 0 1 0-2.435z"></path></g><g  opacity="1" transform="translate(437.011 117.314)"><path  class="anim-color-2" fill="#FFEBD5" fill-opacity="1" d="M15.826 15.826V0C15.826-8.741 8.74-15.826 0-15.826S-15.826-8.741-15.826 0v15.826h31.652z"></path></g><g  opacity="1" transform="translate(437.011 117.314)"><path  stroke-linecap="round" stroke-linejoin="round" fill-opacity="0" class="anim-color-1" stroke="#353535" stroke-opacity="1" stroke-width="1" d="M15.826 15.826V0C15.826-8.741 8.74-15.826 0-15.826S-15.826-8.741-15.826 0v15.826h31.652z"></path></g><g  opacity="1" transform="translate(436.124 248.02)"><path  stroke-linecap="butt" stroke-linejoin="miter" fill-opacity="0" stroke-miterlimit="10" class="anim-color-3" stroke="#F3E7D6" stroke-opacity="1" stroke-width="1" d="M-14.518-3.301c19.042 7.545 29.036-.943 29.036-.943"></path></g><g  opacity="1" transform="translate(437.141 254.508)"><path  stroke-linecap="butt" stroke-linejoin="miter" fill-opacity="0" stroke-miterlimit="10" class="anim-color-3" stroke="#F3E7D6" stroke-opacity="1" stroke-width="1" d="M-14.501-2.682c19.23 7.054 29.002-1.69 29.002-1.69"></path></g><g  opacity="1" transform="translate(434.707 187.083)"><path  stroke-linecap="butt" stroke-linejoin="miter" fill-opacity="0" stroke-miterlimit="10" class="anim-color-3" stroke="#F3E7D6" stroke-opacity="1" stroke-width="1" d="M-14.518-3.301c19.042 7.545 29.036-.943 29.036-.943"></path></g><g  opacity="1" transform="translate(435.724 193.571)"><path  stroke-linecap="butt" stroke-linejoin="miter" fill-opacity="0" stroke-miterlimit="10" class="anim-color-3" stroke="#F3E7D6" stroke-opacity="1" stroke-width="1" d="M-14.501-2.681C4.728 4.372 14.501-4.372 14.501-4.372"></path></g><g  opacity="1" transform="translate(436.549 118.197)"><path  class="anim-color-2" fill="#FFEBD5" fill-opacity="1" d="M0 8.918c2.009 0 3.324-2.103 2.443-3.909L-2.443-5.008c-.881-1.806.433-3.91 2.443-3.91 2.009 0 3.324 2.104 2.443 3.91L-2.443 5.009C-3.324 6.815-2.01 8.918 0 8.918z"></path></g><g  opacity="1" transform="translate(436.549 118.197)"><path  stroke-linecap="round" stroke-linejoin="round" fill-opacity="0" class="anim-color-1" stroke="#353535" stroke-opacity="1" stroke-width="1" d="M0 8.918s0 0 0 0c2.009 0 3.324-2.103 2.443-3.909L-2.443-5.008c-.881-1.806.433-3.91 2.443-3.91 2.009 0 3.324 2.104 2.443 3.91L-2.443 5.009C-3.324 6.815-2.01 8.918 0 8.918z"></path></g><g  opacity="1"><path  class="anim-color-1" fill="#353535" fill-opacity="1" d="M422.084 299.553v6.952"></path></g><g  opacity="1"><path  stroke-linecap="round" stroke-linejoin="round" fill-opacity="0" class="anim-color-3" stroke="#F3E7D6" stroke-opacity="1" stroke-width="1" d="M422.084 299.553v6.952"></path></g></g></g></svg>