<svg xmlns="http://www.w3.org/2000/svg" style="width:100%;height:100%;content-visibility:visible" viewBox="0 0 666 979"><defs><clipPath id="__lottie_element__char_2"><path d="M0 0h666v979H0z"/></clipPath><clipPath id="__lottie_element__char_4"><path d="M0 0h700v1016H0z"/></clipPath></defs><g clip-path="url(#__lottie_element__char_2)"><g clip-path="url(#__lottie_element__char_4)" display="block" transform="translate(-41 -18.5)"><g display="block"><path fill="#FFECD6" d="M297.861 325.782c-18.7 15.856-11.124 73.365-20.434 112.009-7.359 30.548-15.519 59.507-12.433 68.579-6.443 10.29 1.144 15.062 1.144 15.062-6.719 22.778 11.906 25.952 31.723 27.27 16.494 1.097 24.337-69.688 21.068-117.257-3.27-47.571 10.376-93.755 4.296-105.663-6.08-11.908-16.562-7.463-25.364 0z"/><path fill="none" stroke="#353535" stroke-linecap="round" stroke-linejoin="round" stroke-width=".85" d="M297.861 325.782c-18.7 15.856-11.124 73.365-20.434 112.009-7.359 30.548-15.519 59.507-12.433 68.579-6.443 10.29 1.144 15.062 1.144 15.062-6.719 22.778 11.906 25.952 31.723 27.27 16.494 1.097 24.337-69.688 21.068-117.257-3.27-47.571 10.376-93.755 4.296-105.663-6.08-11.908-16.562-7.463-25.364 0z"/><path fill="#FFECD6" d="m265.364 594.768 2.033 9.295-2.555.56-2.033-9.297 2.555-.558z"/><path fill="none" stroke="#353535" stroke-linecap="round" stroke-linejoin="round" stroke-width=".85" d="m265.364 594.768 2.033 9.295-2.555.56-2.033-9.297 2.555-.558z"/><path fill="#FFECD6" d="m272.59 530.214-3.622 24.366 24.9 4.289c3.482-16.463 3.662-24.602 3.662-24.602s-1.832-2.99-11.534-5.316c-6.742-1.615-13.405 1.263-13.405 1.263z"/><path fill="none" stroke="#353535" stroke-linecap="round" stroke-linejoin="round" stroke-width=".85" d="m272.59 530.214-3.622 24.366 24.9 4.289c3.482-16.463 3.662-24.602 3.662-24.602s-1.832-2.99-11.534-5.316c-6.742-1.615-13.405 1.263-13.405 1.263z"/><path fill="#FFECD6" d="M272.788 551.492c-4.951.904-9.126 4.677-10.29 9.899l-3.784 16.964a3.337 3.337 0 0 0 2.53 3.982l26.315 5.87a3.336 3.336 0 0 0 3.983-2.53l3.783-16.965a12.907 12.907 0 0 0-3.585-12.058"/><path fill="none" stroke="#353535" stroke-linecap="round" stroke-linejoin="round" stroke-width=".85" d="M272.788 551.492c-4.951.904-9.126 4.677-10.29 9.899l-3.784 16.964a3.337 3.337 0 0 0 2.53 3.982l26.315 5.87a3.336 3.336 0 0 0 3.983-2.53l3.783-16.965a12.907 12.907 0 0 0-3.585-12.058"/><path fill="#FFECD6" d="m262.053 604.414 1.903 8.704a3.805 3.805 0 0 0 7.433-1.627l-1.903-8.702-7.433 1.625z"/><path fill="none" stroke="#353535" stroke-linecap="round" stroke-linejoin="round" stroke-width=".85" d="m262.053 604.414 1.903 8.704a3.805 3.805 0 0 0 7.433-1.627l-1.903-8.702-7.433 1.625z"/><path fill="#FFECD6" d="M260.319 578.683a3.806 3.806 0 0 0-2.906 4.53l2.775 12.686 7.434-1.626-2.774-12.685"/><path fill="none" stroke="#353535" stroke-linecap="round" stroke-linejoin="round" stroke-width=".85" d="M260.319 578.683a3.806 3.806 0 0 0-2.906 4.53l2.775 12.686 7.434-1.626-2.774-12.685"/><path fill="#FFECD6" d="m271.628 578.589 6.54 29.904a3.805 3.805 0 0 1-7.433 1.625l-6.54-29.903"/><path fill="none" stroke="#353535" stroke-linecap="round" stroke-linejoin="round" stroke-width=".85" d="m271.628 578.589 6.54 29.904a3.805 3.805 0 0 1-7.433 1.625l-6.54-29.903"/><path fill="#FFECD6" d="m293.163 578.438-6.671 29.874a3.805 3.805 0 1 1-7.426-1.658l6.67-29.874"/><path fill="none" stroke="#353535" stroke-linecap="round" stroke-linejoin="round" stroke-width=".85" d="m293.163 578.438-6.671 29.874a3.805 3.805 0 1 1-7.426-1.658l6.67-29.874"/><path fill="#FFECD6" d="m264.994 506.369 5.793 1.786"/><path fill="none" stroke="#353535" stroke-linecap="round" stroke-linejoin="round" stroke-width=".85" d="m264.994 506.369 5.793 1.786"/><path fill="#FFECD6" d="M266.138 521.432s11.473-6.422 27.643-.811"/><path fill="none" stroke="#353535" stroke-linecap="round" stroke-linejoin="round" stroke-width=".85" d="M266.138 521.432s11.473-6.422 27.643-.811"/></g><g display="block"><path fill="#FFECD6" d="M448.225 504.612H316.699l8.5 73.59h109.27l13.756-73.59z"/><path fill="none" stroke="#353535" stroke-linecap="round" stroke-linejoin="round" stroke-width=".85" d="M448.225 504.612H316.699l8.5 73.59h109.27l13.756-73.59z"/></g><g display="block"><path fill="#FFECD6" d="M293.095 873.763h-31.538V789.21h31.538v84.552z"/><path fill="none" stroke="#353535" stroke-linecap="round" stroke-linejoin="round" stroke-width=".85" d="M293.095 873.763h-31.538V789.21h31.538v84.552z"/><path fill="#353535" d="m293.095 815.116-31.538-6.884v-19.02h31.538v25.904z"/></g><g display="block"><path fill="#FFECD6" d="M307.428 843.047h-63.344v42.785s-52.034 2.99-64.788 35.542h139.271c.696-18.638-11.139-35.542-11.139-35.542v-42.785z"/><path fill="none" stroke="#353535" stroke-linecap="round" stroke-linejoin="round" stroke-width=".85" d="M307.428 843.047h-63.344v42.785s-52.034 2.99-64.788 35.542h139.271c.696-18.638-11.139-35.542-11.139-35.542v-42.785z"/><path fill="#FFECD6" d="M313.993 850.104v-.607a8.553 8.553 0 0 0-8.553-8.552h-60.15a8.553 8.553 0 0 0-8.552 8.552v.607a8.553 8.553 0 0 0 8.553 8.554 8.552 8.552 0 0 0-8.553 8.552v.608a8.553 8.553 0 0 0 8.553 8.552h60.149a8.553 8.553 0 0 0 8.553-8.552v-.608a8.552 8.552 0 0 0-8.553-8.552 8.553 8.553 0 0 0 8.553-8.554z"/><path fill="none" stroke="#353535" stroke-linecap="round" stroke-linejoin="round" stroke-width=".85" d="M313.993 850.104v-.607a8.553 8.553 0 0 0-8.553-8.552h-60.15a8.553 8.553 0 0 0-8.552 8.552v.607a8.553 8.553 0 0 0 8.553 8.554 8.552 8.552 0 0 0-8.553 8.552v.608a8.553 8.553 0 0 0 8.553 8.552h60.149a8.553 8.553 0 0 0 8.553-8.552v-.608a8.552 8.552 0 0 0-8.553-8.552 8.553 8.553 0 0 0 8.553-8.554z"/><path fill="#FFECD6" d="M245.29 858.658h11.944"/><path fill="none" stroke="#353535" stroke-linecap="round" stroke-linejoin="round" stroke-width=".85" d="M245.29 858.658h11.944"/><path fill="#FFECD6" d="M305.44 858.658h-4.512"/><path fill="none" stroke="#353535" stroke-linecap="round" stroke-linejoin="round" stroke-width=".85" d="M305.44 858.658h-4.512"/><path fill="#FFECD6" d="M261.13 858.658h31.538"/><path fill="none" stroke="#353535" stroke-linecap="round" stroke-linejoin="round" stroke-width=".85" d="M261.13 858.658h31.538"/><path fill="#FFECD6" d="M244.084 885.832h13.15"/><path fill="none" stroke="#353535" stroke-linecap="round" stroke-linejoin="round" stroke-width=".85" d="M244.084 885.832h13.15"/><path fill="#FFECD6" d="M317.496 932.833H180.528a5.73 5.73 0 0 1 0-11.459h136.968a5.73 5.73 0 1 1 0 11.46z"/><path fill="none" stroke="#353535" stroke-linecap="round" stroke-linejoin="round" stroke-width=".85" d="M317.496 932.833H180.528a5.73 5.73 0 0 1 0-11.459h136.968a5.73 5.73 0 1 1 0 11.46zM207.91 893.995c5.721-5.116 17.813-5.216 21.996 2.5"/><path fill="none" stroke="#353535" stroke-linecap="round" stroke-linejoin="round" stroke-width=".85" d="M218.907 889.972c6.307-4.96 17.814-4.441 21.997 3.276m-42.022 5.434c5.94-5.252 17.814-5.216 21.997 2.5"/><path fill="none" stroke="#353535" stroke-linecap="round" stroke-linejoin="round" stroke-width=".85" d="M223.348 900.672a2.98 2.98 0 1 1-5.96 0 2.98 2.98 0 0 1 5.96 0zm9.538-4.175a2.98 2.98 0 1 1-5.96 0 2.98 2.98 0 0 1 5.96 0zm10.999-2.98a2.98 2.98 0 1 1-5.96 0 2.98 2.98 0 0 1 5.96 0z"/></g><g display="block"><path fill="#FFECD6" d="m355.603 578.201-36.674 59.76v126.395c0 21.877-17.734 39.611-39.61 39.611-21.876 0-39.61-17.734-39.61-39.61v-128.11a56.392 56.392 0 0 1 9.832-31.815l67.158-99.82"/><path fill="none" stroke="#353535" stroke-linecap="round" stroke-linejoin="round" stroke-width=".85" d="m355.603 578.201-36.674 59.76v126.395c0 21.877-17.734 39.611-39.61 39.611 0 0 0 0 0 0-21.876 0-39.61-17.734-39.61-39.61v-128.11a56.392 56.392 0 0 1 9.832-31.815l67.158-99.82"/><path fill="#FFECD6" d="m318.93 637.96-14.563 13.888"/><path fill="none" stroke="#353535" stroke-linecap="round" stroke-linejoin="round" stroke-width=".85" d="m318.93 637.96-14.563 13.888"/></g><g display="block"><path fill="#353535" d="M421.696 827.807H401.1v-62.776h20.597v62.776z"/><path fill="none" stroke="#FFECD6" stroke-linecap="round" stroke-linejoin="round" stroke-width=".85" d="M421.696 827.807H401.1v-62.776h20.597v62.776z"/><path fill="#FFECD6" d="M427.168 743.704h-31.539v-59.397h31.539v59.397z"/><path fill="none" stroke="#353535" stroke-linecap="round" stroke-linejoin="round" stroke-width=".85" d="M427.168 743.704h-31.539v-59.397h31.539v59.397z"/><path fill="#353535" d="m427.168 723.466-31.539-8.567v-8.566h31.539v17.133z"/><path fill="#FFECD6" d="M424.95 866.269h-27.026v-50.903h27.027v50.903z"/><path fill="none" stroke="#353535" stroke-linecap="round" stroke-linejoin="round" stroke-width=".85" d="M424.95 866.269h-27.026v-50.903h27.027v50.903z"/><path fill="#FFECD6" d="M433.06 768.365h-42.263a2.391 2.391 0 0 1-2.391-2.39v-21.983a2.39 2.39 0 0 1 2.39-2.39h42.265a2.39 2.39 0 0 1 2.389 2.39v21.983a2.39 2.39 0 0 1-2.39 2.39z"/><path fill="none" stroke="#353535" stroke-linecap="round" stroke-linejoin="round" stroke-width=".85" d="M433.06 768.365h-42.263a2.391 2.391 0 0 1-2.391-2.39v-21.983a2.39 2.39 0 0 1 2.39-2.39h42.265a2.39 2.39 0 0 1 2.389 2.39v21.983a2.39 2.39 0 0 1-2.39 2.39zm-21.132-25.912v25.894m11.762-25.894v25.894m-23.524-25.894v25.894"/></g><g display="block"><path fill="#FFECD6" d="m447.508 504.733.022 95.608s1.88 4.624 1.88 13.955c0 9.864-1.902 14.091-1.902 14.091s.508 5.613 0 20.613c-.507 15 0 28.464 0 28.464 0 20.531-16.644 37.175-37.175 37.175s-37.175-16.644-37.175-37.175c0 0 .157-7.464 0-27.464-.158-20 0-75.947 0-75.947"/><path fill="none" stroke="#353535" stroke-linecap="round" stroke-linejoin="round" stroke-width=".85" d="m447.508 504.733.022 95.608s1.88 4.624 1.88 13.955c0 9.864-1.902 14.091-1.902 14.091s.508 5.613 0 20.613c-.507 15 0 28.464 0 28.464 0 20.531-16.644 37.175-37.175 37.175s-37.175-16.644-37.175-37.175c0 0 .157-7.464 0-27.464-.158-20 0-75.947 0-75.947"/><path fill="#F3E7D6" d="m447.105 600.341-12.5 22.428"/><path fill="none" stroke="#353535" stroke-linecap="round" stroke-linejoin="round" stroke-width=".85" d="m447.105 600.341-12.5 22.428"/><path fill="#F3E7D6" d="m447.083 628.387-29.843 38.92"/><path fill="none" stroke="#353535" stroke-linecap="round" stroke-linejoin="round" stroke-width=".85" d="m447.083 628.387-29.843 38.92"/></g><g display="block"><path fill="#FFECD6" d="M436.545 855.572h-50.703v48.572h50.703v-48.572z"/><path fill="none" stroke="#353535" stroke-linecap="round" stroke-linejoin="round" stroke-width=".85" d="M436.545 855.572h-50.703v48.572h50.703v-48.572z"/><path fill="#FFECD6" d="M410.068 885.412c-18.851 0-34.134 15.283-34.134 34.135v3.33h68.268v-3.33c0-18.852-15.282-34.135-34.134-34.135z"/><path fill="none" stroke="#353535" stroke-linecap="round" stroke-linejoin="round" stroke-width=".85" d="M410.068 885.412s0 0 0 0c-18.851 0-34.134 15.283-34.134 34.135v3.33h68.268v-3.33c0-18.852-15.282-34.135-34.134-34.135z"/><path fill="#FFECD6" d="M440.703 932.833h-61.27a6.685 6.685 0 1 1 0-13.371h61.27a6.686 6.686 0 1 1 0 13.371z"/><path fill="none" stroke="#353535" stroke-linecap="round" stroke-linejoin="round" stroke-width=".85" d="M440.703 932.833h-61.27a6.685 6.685 0 1 1 0-13.371h61.27a6.686 6.686 0 1 1 0 13.371z"/><path fill="#FFECD6" d="M449.937 850.104v-.607a8.553 8.553 0 0 0-8.552-8.553h-60.148a8.554 8.554 0 0 0-8.554 8.553v.607a8.554 8.554 0 0 0 8.554 8.553 8.554 8.554 0 0 0-8.554 8.553v.608a8.554 8.554 0 0 0 8.554 8.552h60.148a8.553 8.553 0 0 0 8.552-8.552v-.608a8.553 8.553 0 0 0-8.552-8.553 8.553 8.553 0 0 0 8.552-8.553z"/><path fill="none" stroke="#353535" stroke-linecap="round" stroke-linejoin="round" stroke-width=".85" d="M449.937 850.104v-.607a8.553 8.553 0 0 0-8.552-8.553h-60.148a8.554 8.554 0 0 0-8.554 8.553v.607a8.554 8.554 0 0 0 8.554 8.553 8.554 8.554 0 0 0-8.554 8.553v.608a8.554 8.554 0 0 0 8.554 8.552h60.148a8.553 8.553 0 0 0 8.552-8.552v-.608a8.553 8.553 0 0 0-8.552-8.553 8.553 8.553 0 0 0 8.552-8.553z"/><path fill="#F3E7D6" d="M381.237 858.657h11.943"/><path fill="none" stroke="#353535" stroke-linecap="round" stroke-linejoin="round" stroke-width=".85" d="M381.237 858.657h11.943"/><path fill="#F3E7D6" d="M441.386 858.657h-4.512"/><path fill="none" stroke="#353535" stroke-linecap="round" stroke-linejoin="round" stroke-width=".85" d="M441.386 858.657h-4.512"/><path fill="#F3E7D6" d="M407.562 858.657h25.693"/><path fill="none" stroke="#353535" stroke-linecap="round" stroke-linejoin="round" stroke-width=".85" d="M407.562 858.657h25.693"/></g><g display="block"><path fill="#353535" d="m431.678 289.252 21.502 51.211-71.232 26.534"/><path fill="none" stroke="#FFECD6" stroke-linecap="round" stroke-linejoin="round" stroke-width=".85" d="m431.678 289.252 21.502 51.211-71.232 26.534"/></g><g display="block"><path fill="#353535" d="m447.087 529.562-.005-24.829-130.383-.122-11.317 16.821 141.705 8.13z"/><path fill="#FFECD6" d="M351.27 282.101v21.67h35.955v-20.479"/><path fill="none" stroke="#353535" stroke-linecap="round" stroke-linejoin="round" stroke-width=".85" d="M351.27 282.101v21.67h35.955v-20.479"/><path fill="#FFECD6" d="m317.161 318.962 97.365-21.06a35.469 35.469 0 0 1 37.087 15.626c14.258 22.303 15.08 59.647 15.176 60.375 13.141 99.836-19.23 130.71-19.23 130.71H317.203s-13.267-12.794-17.307-32.16c-7.23-34.662 7.21-61.58 6.082-109.823"/><path fill="none" stroke="#353535" stroke-linecap="round" stroke-linejoin="round" stroke-width=".85" d="m317.161 318.962 97.365-21.06a35.469 35.469 0 0 1 37.087 15.626c14.258 22.303 15.08 59.647 15.176 60.375 13.141 99.836-19.23 130.71-19.23 130.71H317.203s-13.267-12.794-17.307-32.16c-7.23-34.662 7.21-61.58 6.082-109.823"/><path fill="#353535" d="m323.153 356.427 40.924 65.931a1.075 1.075 0 0 0 1.883-.1l60.172-125.097-64.295 92.51-38.684-33.244zm16.697-56.307s-9.59 10.104-9.864 10.134c0 0-17.406-1.695-24.413-2.317-.594-.053-.796.773-.245 1.002l22.057 9.212 20.732-6.48"/><path fill="none" stroke="#FFECD6" stroke-linecap="round" stroke-linejoin="round" stroke-width=".85" d="M339.85 300.12s-9.59 10.104-9.864 10.134c0 0-17.406-1.695-24.413-2.317-.594-.053-.796.773-.245 1.002l22.057 9.212 20.732-6.48"/><path fill="#FFECD6" d="m431.901 288.933-71.675 126.255-61.224-97.037 132.9-29.218z"/><path fill="none" stroke="#353535" stroke-linecap="round" stroke-linejoin="round" stroke-width=".85" d="m431.901 288.933-71.675 126.255-61.224-97.037 132.9-29.218z"/><path fill="#FFECD6" d="m339.65 299.817 55.797-5.942-47.331 91.415 1.805-28.733-1.225-2.453 4.395-4.731-12.606-46.476"/><path fill="none" stroke="#353535" stroke-linecap="round" stroke-linejoin="round" stroke-width=".85" d="m339.65 299.817 55.797-5.942-47.331 91.415 1.805-28.733-1.225-2.453 4.395-4.731-12.606-46.476"/><path fill="#FFECD6" d="M459.457 429.149s6.282 3.8 7.332 4.59"/><path fill="none" stroke="#353535" stroke-linecap="round" stroke-linejoin="round" stroke-width=".85" d="M459.457 429.149s6.282 3.8 7.332 4.59"/><path fill="#FFECD6" d="m339.85 300.12-9.935 24.912c-.194.584.55 1.016.96.558l14.36-16.035"/><path fill="none" stroke="#353535" stroke-linecap="round" stroke-linejoin="round" stroke-width=".85" d="m339.85 300.12-9.935 24.912c-.194.584.55 1.016.96.558l14.36-16.035"/><path fill="#FFECD6" d="m349.922 356.557 3.492-.13"/><path fill="none" stroke="#353535" stroke-linecap="round" stroke-linejoin="round" stroke-width=".85" d="m349.922 356.557 3.492-.13"/><path fill="#FFECD6" d="m353.092 349.373 5.941-2.453"/><path fill="none" stroke="#353535" stroke-linecap="round" stroke-linejoin="round" stroke-width=".85" d="m353.092 349.373 5.941-2.453"/><path fill="#FFECD6" d="M447.81 521.432H304.367l11.565-16.82h131.88v16.82z"/><path fill="none" stroke="#353535" stroke-linecap="round" stroke-linejoin="round" stroke-width=".85" d="M447.81 521.432H304.367l11.565-16.82h131.88v16.82z"/><path fill="#FFECD6" d="M436.127 504.733v15.888"/><path fill="none" stroke="#353535" stroke-linecap="round" stroke-linejoin="round" stroke-width=".85" d="M436.127 504.733v15.888"/><path fill="#FFECD6" d="M423.808 504.733v15.888"/><path fill="none" stroke="#353535" stroke-linecap="round" stroke-linejoin="round" stroke-width=".85" d="M423.808 504.733v15.888"/><path fill="#FFECD6" d="M411.488 504.733v15.888"/><path fill="none" stroke="#353535" stroke-linecap="round" stroke-linejoin="round" stroke-width=".85" d="M411.488 504.733v15.888"/><path fill="#FFECD6" d="M399.17 504.733v15.888"/><path fill="none" stroke="#353535" stroke-linecap="round" stroke-linejoin="round" stroke-width=".85" d="M399.17 504.733v15.888"/><path fill="#FFECD6" d="M386.85 504.733v15.888"/><path fill="none" stroke="#353535" stroke-linecap="round" stroke-linejoin="round" stroke-width=".85" d="M386.85 504.733v15.888"/><path fill="#FFECD6" d="M374.532 504.733v15.888"/><path fill="none" stroke="#353535" stroke-linecap="round" stroke-linejoin="round" stroke-width=".85" d="M374.532 504.733v15.888"/><path fill="#FFECD6" d="M362.212 504.733v15.888"/><path fill="none" stroke="#353535" stroke-linecap="round" stroke-linejoin="round" stroke-width=".85" d="M362.212 504.733v15.888"/><path fill="#FFECD6" d="M349.893 504.733v15.888"/><path fill="none" stroke="#353535" stroke-linecap="round" stroke-linejoin="round" stroke-width=".85" d="M349.893 504.733v15.888"/><path fill="#FFECD6" d="M337.574 504.733v15.888"/><path fill="none" stroke="#353535" stroke-linecap="round" stroke-linejoin="round" stroke-width=".85" d="M337.574 504.733v15.888"/><path fill="#FFECD6" d="M325.255 504.733v15.888"/><path fill="none" stroke="#353535" stroke-linecap="round" stroke-linejoin="round" stroke-width=".85" d="M325.255 504.733v15.888"/><path fill="#FFECD6" d="M312.64 509.399v11.222"/><path fill="none" stroke="#353535" stroke-linecap="round" stroke-linejoin="round" stroke-width=".85" d="M312.64 509.399v11.222"/></g><g display="block"><path fill="#353535" d="M450.308 440.449s7.03 14.349 13.963 23.9c10.874 14.98 19.903 11.09 19.903 11.09s-1.577-16.346-5.782-21.603c-4.205-5.256-28.084-13.387-28.084-13.387z"/><path fill="none" stroke="#FFECD6" stroke-linecap="round" stroke-linejoin="round" stroke-width=".85" d="M450.308 440.449s7.03 14.349 13.963 23.9c10.874 14.98 19.903 11.09 19.903 11.09s-1.577-16.346-5.782-21.603c-4.205-5.256-28.084-13.387-28.084-13.387z"/></g><g display="block"><path fill="#FFECD6" d="M479.522 427.876c-2.34.172-47.422 38.066-47.422 38.066s4.598 16.658 10.778 15.702c6.18-.955 35.1-26.166 42.881-33.681 7.783-7.515-3.896-20.259-6.237-20.087z"/><path fill="#FFECD6" d="m496.217 441.509-41.648 33.278s-14.116 12.903-15.74 13.892c-3.7 2.256-14.632 10.466-16.505 8.54-3.042-3.128 11.037-12.085 11.037-12.085l5.354-5.399"/><path fill="none" stroke="#353535" stroke-linecap="round" stroke-linejoin="round" stroke-width=".85" d="m496.217 441.509-41.648 33.278s-14.116 12.903-15.74 13.892c-3.7 2.256-14.632 10.466-16.505 8.54-3.042-3.128 11.037-12.085 11.037-12.085l5.354-5.399"/><path fill="#FFECD6" d="M442.586 480.833c-3.343 3.107-7.798 5.92-9.604 7.05-4.118 2.574-17.138 8.38-18.768 5.782-2.195-3.5 15.116-13.012 15.116-13.012l4.603-6.2"/><path fill="none" stroke="#353535" stroke-linecap="round" stroke-linejoin="round" stroke-width=".85" d="M442.586 480.833c-3.343 3.107-7.798 5.92-9.604 7.05-4.118 2.574-17.138 8.38-18.768 5.782-2.195-3.5 15.116-13.012 15.116-13.012l4.603-6.2"/><path fill="#FFECD6" d="M437.307 478.029s-6.794 6.628-8.662 7.796c-4.26 2.662-20.046 8.14-21.291 4.864-1.34-3.524 17.513-12.342 17.513-12.342l6.524-10.074"/><path fill="none" stroke="#353535" stroke-linecap="round" stroke-linejoin="round" stroke-width=".85" d="M437.307 478.029s-6.794 6.628-8.662 7.796c-4.26 2.662-20.046 8.14-21.291 4.864-1.34-3.524 17.513-12.342 17.513-12.342l6.524-10.074"/><path fill="#FFECD6" d="M433.856 475.361s-5.118 5.001-6.871 6.002c-4 2.28-19.145 6.701-20.312 3.507-.922-2.525 17.086-8.726 17.086-8.726l8.96-12.402"/><path fill="none" stroke="#353535" stroke-linecap="round" stroke-linejoin="round" stroke-width=".85" d="M433.856 475.361s-5.118 5.001-6.871 6.002c-4 2.28-19.145 6.701-20.312 3.507-.922-2.525 17.086-8.726 17.086-8.726l8.96-12.402"/><path fill="#FFECD6" d="m478.55 426.267-35.662 29.33-20.504 4.415s-8.694 14.146-6.71 15.959c2.587 2.364 7.228-6.048 7.228-6.048l6.912-1.151"/><path fill="none" stroke="#353535" stroke-linecap="round" stroke-linejoin="round" stroke-width=".85" d="m478.55 426.267-35.662 29.33-20.504 4.415s-8.694 14.146-6.71 15.959c2.587 2.364 7.228-6.048 7.228-6.048l6.912-1.151"/></g><g display="block"><path fill="#FFECD6" d="M456.362 489.35c-22.95-15.3-34.637-43.35-34.637-43.35s-21.462 20.187-22.95 38.037c-1.488 17.85 36.125 19.975 36.125 19.975s20.825-14.874 21.462-14.662z"/><path fill="none" stroke="#353535" stroke-width=".85" d="M421.725 446s11.687 28.05 34.637 43.35"/></g><g display="block"><path fill="#FFECD6" d="m422.185 364.79 47.24 57.999-11.244 8.059c-8.7-2.03-10.934 9.584-5.283 12.562 0 0 11.145 3.979 19.1 13.667 9.439 11.497 8.233 18.472 13.26 18.36 5.517-.122 8.64-7.673 8.64-7.673l25.027-18.528c12.955-9.53 15.446-27.892 5.5-40.529l-69.494-89.279"/><path fill="none" stroke="#353535" stroke-linecap="round" stroke-linejoin="round" stroke-width=".85" d="m422.185 364.79 47.24 57.999-11.244 8.059c-8.7-2.03-10.934 9.584-5.283 12.562 0 0 11.145 3.979 19.1 13.667 9.439 11.497 8.233 18.472 13.26 18.36 5.517-.122 8.64-7.673 8.64-7.673l25.027-18.528c12.955-9.53 15.446-27.892 5.5-40.529l-69.494-89.279"/><path fill="#FFECD6" d="M469.426 422.79s5.719.272 11.438-1.43"/><path fill="none" stroke="#353535" stroke-linecap="round" stroke-linejoin="round" stroke-width=".85" d="M469.426 422.79s5.719.272 11.438-1.43"/><path fill="#FFECD6" d="m493.898 467.765-2.628-3.417"/><path fill="none" stroke="#353535" stroke-linecap="round" stroke-linejoin="round" stroke-width=".85" d="m493.898 467.765-2.628-3.417"/></g><path fill="#353535" d="M329.312 233.009c9.143 10.887 12.863 27.172 9.266 37.03l-3.652 3.725a5.817 5.817 0 0 0-1.48 2.63c-1.104 4.317 2.848 8.172 7.16 7.05 20.208-5.258 32.524-21.91 31.469-49.337 0 0 .523-30.119-12.661-23.666-13.184 6.453-30.172 22.632-30.172 22.632" display="block"/><g display="block"><path fill="#FFECD6" d="M417.372 243.283c.903 23.47-17.39 43.23-40.86 44.133-30.823 1.187-53.33-8.557-44.132-40.86 6.432-22.589 3.11-42.678 40.858-44.131 31.843-1.227 43.23 17.388 44.134 40.858z"/><path fill="none" stroke="#353535" stroke-linecap="round" stroke-linejoin="round" stroke-width=".85" d="M417.372 243.283c.903 23.47-17.39 43.23-40.86 44.133-30.823 1.187-53.33-8.557-44.132-40.86 6.432-22.589 3.11-42.678 40.858-44.131 31.843-1.227 43.23 17.388 44.134 40.858z"/></g><g display="block"><path fill="#FFECD6" d="m346.186 236.882-11.984.462a1.708 1.708 0 0 1-.132-3.411l11.985-.462a1.706 1.706 0 0 1 .131 3.411z"/><path fill="none" stroke="#353535" stroke-linecap="round" stroke-linejoin="round" stroke-width=".85" d="m346.186 236.882-11.984.462a1.708 1.708 0 0 1-.132-3.411l11.985-.462a1.706 1.706 0 0 1 .131 3.411z"/><path fill="#FFECD6" d="m381.037 236.73-11.985.46a1.707 1.707 0 0 1-.132-3.41l11.985-.461a1.707 1.707 0 1 1 .132 3.41z"/><path fill="none" stroke="#353535" stroke-linecap="round" stroke-linejoin="round" stroke-width=".85" d="m381.037 236.73-11.985.46a1.707 1.707 0 0 1-.132-3.41l11.985-.461a1.707 1.707 0 1 1 .132 3.41z"/><path fill="#FFECD6" d="m339.285 268.246.313-2.716a2.357 2.357 0 0 1 2.614-2.073 2.358 2.358 0 0 1 2.074 2.613l-.314 2.718"/><path fill="none" stroke="#353535" stroke-linecap="round" stroke-linejoin="round" stroke-width=".85" d="m339.285 268.246.313-2.716a2.357 2.357 0 0 1 2.614-2.073 2.358 2.358 0 0 1 2.074 2.613l-.314 2.718"/><path fill="#FFECD6" d="m363.768 270.174-.465-3.064a2.674 2.674 0 0 1 5.29-.802l.463 3.065"/><path fill="none" stroke="#353535" stroke-linecap="round" stroke-linejoin="round" stroke-width=".85" d="m363.768 270.174-.465-3.064a2.674 2.674 0 0 1 5.29-.802l.463 3.065"/><path fill="none" stroke="#353535" stroke-linecap="round" stroke-linejoin="round" stroke-width=".85" d="M335.96 267.752c11.605 3.363 27.976 3.351 38.674.73"/><path fill="#353535" d="M340.422 249.116a1.876 1.876 0 0 1-1.948-1.803l-.11-2.89a1.875 1.875 0 1 1 3.75-.142l.11 2.889a1.876 1.876 0 0 1-1.802 1.946z"/><path fill="#F3E7D6" d="m389.561 264.13-10.713 12.48"/><path fill="none" stroke="#353535" stroke-linecap="round" stroke-linejoin="round" stroke-width=".85" d="m389.561 264.13-10.713 12.48"/><path fill="#F3E7D6" d="m385.534 265.15 3.628 3.117"/><path fill="none" stroke="#353535" stroke-linecap="round" stroke-linejoin="round" stroke-width=".85" d="m385.534 265.15 3.628 3.117m-6.84.623 3.63 3.117m-6.84.623 3.628 3.117"/><path fill="#FFECD6" d="m350.367 258.29-3.921.152a3.073 3.073 0 0 1-.238-6.14l3.922-.15"/><path fill="none" stroke="#353535" stroke-linecap="round" stroke-linejoin="round" stroke-width=".85" d="m350.367 258.29-3.921.152a3.073 3.073 0 0 1-.238-6.14l3.922-.15"/></g><g display="block"><path fill="#353535" d="M389.278 239.693c3.31 2.207 12.316 5.057 14.708 4.873 2.389-.183 5.214 1.577 3.585 4.689-1.01 1.93-6.526 3.216-11.582 4.687-4.604 1.34-10.79 2.477-10.79 2.477"/><path fill="none" stroke="#353535" stroke-linecap="round" stroke-linejoin="round" stroke-width=".85" d="M389.278 239.693c3.31 2.207 12.316 5.057 14.708 4.873 2.389-.183 5.214 1.577 3.585 4.689-1.01 1.93-6.526 3.216-11.582 4.687-4.604 1.34-10.79 2.477-10.79 2.477"/><path fill="#353535" d="M385.407 238.151v-.002l-4.564-.384-.157-.012-.047 1.173c-3.942 1.785-6.188 6.171-5.13 10.532.631 2.597 4.43 7.028 4.43 7.028s4.874.005 5.462-.058l.073-.002v-.007a9.28 9.28 0 0 0 1.132-.198 9.19 9.19 0 0 0-1.199-18.07z"/><path fill="none" stroke="#353535" stroke-linecap="round" stroke-linejoin="round" stroke-width=".85" d="M385.407 238.151v-.002l-4.564-.384-.157-.012-.047 1.173c-3.942 1.785-6.188 6.171-5.13 10.532.631 2.597 4.43 7.028 4.43 7.028s4.874.005 5.462-.058l.073-.002v-.007a9.28 9.28 0 0 0 1.132-.198 9.19 9.19 0 0 0-1.199-18.07z"/><path fill="#353535" d="M379.885 239.21v-.002l-3.789-.317-.13-.011-.039.972a7.632 7.632 0 0 0-4.26 8.745c.523 2.157 3.678 5.835 3.678 5.835s4.047.005 4.535-.047l.06-.001v-.005a7.629 7.629 0 0 0-.054-15.168z"/><path fill="none" stroke="#353535" stroke-linecap="round" stroke-linejoin="round" stroke-width=".85" d="M379.885 239.21v-.002l-3.789-.317-.13-.011-.039.972a7.632 7.632 0 0 0-4.26 8.745c.523 2.157 3.678 5.835 3.678 5.835s4.047.005 4.535-.047l.06-.001v-.005a7.629 7.629 0 0 0-.054-15.168z"/><path fill="#FFECD6" d="M389.75 244.893a9.405 9.405 0 1 1-11.358-6.922c5.048-1.225 10.134 1.874 11.358 6.922z"/><path fill="none" stroke="#353535" stroke-linecap="round" stroke-linejoin="round" stroke-width=".85" d="M389.75 244.893a9.405 9.405 0 1 1-11.358-6.922c5.048-1.225 10.134 1.874 11.358 6.922z"/><path fill="#FFECD6" d="M383.49 244.807a7.81 7.81 0 0 1-15.177 3.683 7.81 7.81 0 0 1 15.177-3.683z"/><path fill="none" stroke="#353535" stroke-linecap="round" stroke-linejoin="round" stroke-width=".85" d="M383.49 244.807a7.81 7.81 0 0 1-15.177 3.683 7.81 7.81 0 0 1 15.177-3.683z"/><path fill="#353535" d="M380.986 245.414a5.233 5.233 0 1 1-10.17 2.468 5.233 5.233 0 0 1 10.17-2.468z"/><path fill="none" stroke="#FFECD6" stroke-linecap="round" stroke-linejoin="round" stroke-width=".85" d="M375.091 252.078c-1.235-.685-2.775-2.245-3.134-3.726a5.233 5.233 0 0 1 3.851-6.318c.896-.218 2.604-.258 3.434-.029"/></g><g display="block"><path fill="#FFECD6" d="M380.556 187.002c-27.218 1.021-52.003 18.928-51.314 46.071 0 0 30.53-10.735 57.234 2.258 9.143 10.888 13.36 26.594 9.762 36.451l-7.343 5.212a5.514 5.514 0 0 0-2.152 3.13c-1.032 4.04 2.625 7.733 6.67 6.719 21.408-5.369 38.904-23.473 38.671-50.271-.243-27.942-23.605-50.618-51.528-49.57z"/><path fill="none" stroke="#353535" stroke-linecap="round" stroke-linejoin="round" stroke-width=".85" d="M380.556 187.002c-27.218 1.021-52.003 18.928-51.314 46.071 0 0 30.53-10.735 57.234 2.258 9.143 10.888 13.36 26.594 9.762 36.451l-7.343 5.212a5.514 5.514 0 0 0-2.152 3.13c-1.032 4.04 2.625 7.733 6.67 6.719 21.408-5.369 38.904-23.473 38.671-50.271-.243-27.942-23.605-50.618-51.528-49.57z"/><path fill="none" stroke="#353535" stroke-linecap="round" stroke-linejoin="round" stroke-width=".85" d="M329.242 233.072s-5.72 4.074-6.066 13.264c-.397 10.512 3.968 14.476 3.968 14.476s11.406.662 30.825.28c19.42-.38 39.02-3.246 39.02-3.246"/><path fill="#FFECD6" d="M327.145 260.812s.631.514 1.655.965c1.002.441 1.43.548 1.43.548"/><path fill="none" stroke="#353535" stroke-linecap="round" stroke-linejoin="round" stroke-width=".85" d="M327.145 260.812s.631.514 1.655.965c1.002.441 1.43.548 1.43.548"/><path fill="#353535" d="M402.02 273.237a7.431 7.431 0 0 0-7.14 7.712 7.39 7.39 0 0 0 2.083 4.868 52.986 52.986 0 0 0 12.712-6.072 7.428 7.428 0 0 0-7.656-6.508z"/><path fill="#FFECD6" d="M402.22 315.182a2.925 2.925 0 0 1-2.925-2.924v-32.566l5.85-2.459v35.025a2.925 2.925 0 0 1-2.925 2.924z"/><path fill="none" stroke="#353535" stroke-linecap="round" stroke-linejoin="round" stroke-width=".85" d="M402.22 315.182s0 0 0 0a2.925 2.925 0 0 1-2.925-2.924v-32.566l5.85-2.459v35.025a2.925 2.925 0 0 1-2.925 2.924z"/><path fill="#FFECD6" d="M403.686 312.376a1.431 1.431 0 0 1-2.86 0 1.43 1.43 0 0 1 2.86 0z"/><path fill="none" stroke="#353535" stroke-linecap="round" stroke-linejoin="round" stroke-width=".85" d="M403.686 312.376a1.431 1.431 0 0 1-2.86 0 1.43 1.43 0 0 1 2.86 0z"/><path fill="#353535" d="M386.476 235.33s-23.248-14.53-53.451-12.477c-19.388 1.32-3.783 10.22-3.783 10.22s1.91-2.469 15.06-3.33c16.826-1.105 42.174 5.588 42.174 5.588z"/><path fill="none" stroke="#353535" stroke-linecap="round" stroke-linejoin="round" stroke-width=".85" d="M386.476 235.33s-23.248-14.53-53.451-12.477c-19.388 1.32-3.783 10.22-3.783 10.22s1.91-2.469 15.06-3.33c16.826-1.105 42.174 5.588 42.174 5.588z"/></g></g></g></svg>