<svg xmlns="http://www.w3.org/2000/svg" style="width:100%;height:100%;content-visibility:visible" viewBox="0 0 1242 500"><defs><clipPath id="__lottie_element_destination_2"><path d="M0 0h1242v500H0z"/></clipPath></defs><g clip-path="url(#__lottie_element_destination_2)" display="block"><path fill="#FFEBD5" d="M828.46 322.775h40.389v-66.778c0-50.203-33.002-92.696-78.493-106.974C763.985 89.642 704.5 48.227 635.34 48.227S506.694 89.642 480.325 149.023c-45.492 14.278-78.494 56.771-78.494 106.974v66.778h48.61"/><path fill="none" stroke="#353535" stroke-linecap="round" stroke-linejoin="round" d="M828.46 322.775h40.389v-66.778c0-50.203-33.002-92.696-78.493-106.974C763.985 89.642 704.5 48.227 635.34 48.227S506.694 89.642 480.325 149.023c-45.492 14.278-78.494 56.771-78.494 106.974v66.778h48.61"/><path fill="#FFEBD5" d="M568.71 53.642c-3.615-2.829-11.255-.386-11.255-.386s2.282 4.324 5.897 7.155c3.614 2.83 9.146 1.872 9.223 1.739.077-.133-.251-5.678-3.865-8.508z"/><path fill="none" stroke="#353535" stroke-linecap="round" stroke-linejoin="round" d="M568.71 53.642c-3.615-2.829-11.255-.386-11.255-.386s2.282 4.324 5.897 7.155c3.614 2.83 9.146 1.872 9.223 1.739.077-.133-.251-5.678-3.865-8.508z"/><path fill="#F3E7D6" d="M566.223 57.003s4.235 2.903 6.353 5.146"/><path fill="none" stroke="#353535" stroke-linecap="round" stroke-linejoin="round" d="M566.223 57.003s4.235 2.903 6.353 5.146"/><path fill="#353535" d="M625.229 241.459c-3.859.09-8.801-.887-11.643 1.053-4.016 2.741-5.113 10.503-7.559 13.845-2.447 3.343-9.515 6.734-10.914 11.391-1.399 4.657 2.903 13.089 2.83 15.521v39.323h83.159V283.48c.298-4.038 4.23-10.861 2.831-15.518-1.399-4.657-8.467-8.048-10.914-11.391-2.447-3.342-3.543-11.103-7.56-13.844-3.012-2.056-8.521-.622-12.133-1.12-4.104-.564-9.146-7.227-14.008-7.254-4.863-.028-9.947 7.12-14.09 7.096m-128.736-36.246-.55.72a.123.123 0 0 0-.027.078l-.002 1.845a.13.13 0 0 1-.181.119l-1.256-.542a.122.122 0 0 0-.07-.009l-2.905.427a.13.13 0 0 1-.141-.172l.518-1.407a.131.131 0 0 0-.019-.124l-1.439-1.853a.13.13 0 0 1-.007-.148l.651-1.009a.14.14 0 0 0 .019-.093l-.228-1.345a.13.13 0 0 1 .165-.146l2.196.642a.128.128 0 0 0 .075 0l2.127-.659a.13.13 0 0 1 .166.149l-.63 3.345"/><path fill="none" stroke="#353535" stroke-linecap="round" stroke-linejoin="round" d="m489.965 201.211-3.859-1.152-3.167-3.738-3.898-1.87"/><path fill="none" stroke="#353535" stroke-linecap="round" stroke-linejoin="round" d="m481.338 195.821-1.824 1.546-2.612.182m8.022 1.114 1.028-2.892m274.94 76.95s-2.072 3.997-5.33 3.56c-3.257-.438-5.644-5.334-5.644-5.334s-5.022 4.036-10.214 3.196c-4.802-.776-9.922-7.604-9.922-7.604s-13.167 13.798-25.527 11.307c-12.36-2.492-16.606-12.415-16.606-12.415s-15.92 9.642-34.436 3.702c-18.514-5.939-29.29-25.676-29.29-25.676s-22.317 13.05-41.297 5.464c-18.98-7.586-27.099-21.011-27.099-21.011s-21.31 8.09-36.129.498c-14.819-7.592-17.137-23.657-17.137-23.657s-3.014 2.733-8.405.785"/><path fill="none" stroke="#FFEBD5" stroke-linecap="round" stroke-linejoin="round" d="M673.598 270.349c-5.771 1.038-12.864 1.196-20.385-1.216-18.514-5.939-29.29-25.676-29.29-25.676s-2.724 1.593-7.079 3.342"/><path fill="#FFEBD5" d="M631.526 254.159c-.379-.8-6.562.33-4.77 2.988 1.628 2.415 5.098-2.294 4.77-2.988z"/><path fill="#353535" d="M570.933 242.934c-.817-.341-4.651 4.64-1.541 5.413 2.827.702 2.25-5.118 1.541-5.413z"/><path fill="#F3E7D6" d="M565.711 239.287c-.629-.263-3.582 3.574-1.186 4.17 2.178.541 1.732-3.943 1.186-4.17z"/><path fill="none" stroke="#353535" stroke-linecap="round" stroke-linejoin="round" d="M565.711 239.287c-.629-.263-3.582 3.574-1.186 4.17 2.178.541 1.732-3.943 1.186-4.17z"/><path fill="#F3E7D6" d="M580.296 248.506c-.847-.255-4.154 5.089-.981 5.542 2.884.411 1.717-5.32.981-5.542z"/><path fill="none" stroke="#353535" stroke-linecap="round" stroke-linejoin="round" d="M580.296 248.506c-.847-.255-4.154 5.089-.981 5.542 2.884.411 1.717-5.32.981-5.542z"/><path fill="#F3E7D6" d="M586.199 250.367c-.848-.255-4.154 5.091-.981 5.543 2.883.412 1.716-5.321.981-5.543z"/><path fill="none" stroke="#353535" stroke-linecap="round" stroke-linejoin="round" d="M586.199 250.367c-.848-.255-4.154 5.091-.981 5.543 2.883.412 1.716-5.321.981-5.543z"/><path fill="#F3E7D6" d="M591.193 251.486c-.847-.255-4.154 5.091-.981 5.543 2.884.412 1.717-5.321.981-5.543z"/><path fill="none" stroke="#353535" stroke-linecap="round" stroke-linejoin="round" d="M591.193 251.486c-.847-.255-4.154 5.091-.981 5.543 2.884.412 1.717-5.321.981-5.543z"/><path fill="#F3E7D6" d="M595.357 251.524c-.882.065-2.051 6.24 1.073 5.524 2.84-.65-.307-5.582-1.073-5.524z"/><path fill="none" stroke="#353535" stroke-linecap="round" stroke-linejoin="round" d="M595.357 251.524c-.882.065-2.051 6.24 1.073 5.524 2.84-.65-.307-5.582-1.073-5.524z"/><path fill="#F3E7D6" d="M721.321 273.393c-.883.066-2.052 6.241 1.073 5.525 2.839-.651-.307-5.582-1.073-5.525z"/><path fill="none" stroke="#353535" stroke-linecap="round" stroke-linejoin="round" d="M721.321 273.393c-.883.066-2.052 6.241 1.073 5.525 2.839-.651-.307-5.582-1.073-5.525z"/><path fill="#F3E7D6" d="M735.329 272.235c-.809-.361-4.771 4.516-1.683 5.371 2.808.776 2.383-5.058 1.683-5.371z"/><path fill="none" stroke="#353535" stroke-linecap="round" stroke-linejoin="round" d="M735.329 272.235c-.809-.361-4.771 4.516-1.683 5.371 2.808.776 2.383-5.058 1.683-5.371z"/><path fill="#FFEBD5" d="M633.959 256.62c-.816-.34-4.649 4.641-1.539 5.413 2.827.702 2.249-5.118 1.539-5.413zm13.318 10.164c-.817-.341-4.649 4.64-1.539 5.413 2.826.702 2.248-5.118 1.539-5.413zm7.79 2.734c-.861-.207-3.857 5.317-.664 5.589 2.902.246 1.41-5.41.664-5.589zm6.851 1.547c-.886-.005-2.544 6.058.628 5.593 2.882-.421.14-5.588-.628-5.593z"/><path fill="#353535" d="m758.415 272.968.98-.805a.175.175 0 0 0 .062-.098l.591-2.517a.182.182 0 0 1 .286-.104l1.541 1.14a.18.18 0 0 0 .093.035l4.099.342a.182.182 0 0 1 .137.281l-1.154 1.755a.181.181 0 0 0-.014.176l1.373 2.985a.18.18 0 0 1-.039.206l-1.209 1.169a.187.187 0 0 0-.056.121l-.118 1.909a.181.181 0 0 1-.271.146l-2.792-1.578a.195.195 0 0 0-.103-.023l-3.113.22a.182.182 0 0 1-.179-.255l1.927-4.364"/><path fill="none" stroke="#353535" stroke-linecap="round" stroke-linejoin="round" d="m765.836 279.897 3.494 2 2.235 4.36 3.369 2.708"/><path fill="none" stroke="#353535" stroke-linecap="round" stroke-linejoin="round" d="m773.01 287.108 2.126-1.09 2.585.418m-7.557-2.913-1.66 2.584"/><path fill="#F3E7D6" d="M767.376 277.206c1.58 1.268 3.69.947 4.06.815.217-.078-.081-2.505-1.662-3.773-1.58-1.267-4.024-.872-4.059-.813-.034.058.081 2.504 1.661 3.771z"/><path fill="none" stroke="#353535" stroke-linecap="round" stroke-linejoin="round" d="M767.376 277.206c1.58 1.268 3.69.947 4.06.815.217-.078-.081-2.505-1.662-3.773-1.58-1.267-4.024-.872-4.059-.813-.034.058.081 2.504 1.661 3.771z"/><path fill="#F3E7D6" d="M767.997 273.054c1.96-1.334 2.307-4.068 2.307-4.068s-1.569.521-3.557.839c-1.819.29-2.509 2.781-2.479 2.834.031.054 2.206 1.431 3.729.395z"/><path fill="none" stroke="#353535" stroke-linecap="round" stroke-linejoin="round" d="M767.997 273.054c1.96-1.334 2.307-4.068 2.307-4.068s-1.569.521-3.557.839c-1.819.29-2.509 2.781-2.479 2.834.031.054 2.206 1.431 3.729.395z"/><path fill="#F3E7D6" d="M767.341 271.51s-1.865.873-3.072 1.148"/><path fill="none" stroke="#353535" stroke-linecap="round" stroke-linejoin="round" d="M767.341 271.51s-1.865.873-3.072 1.148"/><path fill="#F3E7D6" d="M768.49 275.736s-2.482-1.649-3.404-2.65"/><path fill="none" stroke="#353535" stroke-linecap="round" stroke-linejoin="round" d="M768.49 275.736s-2.482-1.649-3.404-2.65"/><path fill="#F3E7D6" d="M767.181 268.997c.693-1.902-.288-3.799-.531-4.106-.144-.181-2.348.881-3.041 2.784-.693 1.903.465 4.093.531 4.106.066.015 2.349-.881 3.041-2.784z"/><path fill="none" stroke="#353535" stroke-linecap="round" stroke-linejoin="round" d="M767.181 268.997c.693-1.902-.288-3.799-.531-4.106-.144-.181-2.348.881-3.041 2.784-.693 1.903.465 4.093.531 4.106.066.015 2.349-.881 3.041-2.784z"/><path fill="#F3E7D6" d="M765.431 268.413s-.639 2.173-1.29 3.368"/><path fill="none" stroke="#353535" stroke-linecap="round" stroke-linejoin="round" d="M765.431 268.413s-.639 2.173-1.29 3.368"/><path fill="#F3E7D6" d="M489.356 206.027c-1.075 2.114-.06 4.677-.06 4.677s1.123-1.212 2.712-2.448c1.453-1.131.857-3.647.805-3.679-.052-.032-2.622-.191-3.457 1.45z"/><path fill="none" stroke="#353535" stroke-linecap="round" stroke-linejoin="round" d="M489.356 206.027c-1.075 2.114-.06 4.677-.06 4.677s1.123-1.212 2.712-2.448c1.453-1.131.857-3.647.805-3.679-.052-.032-2.622-.191-3.457 1.45z"/><path fill="#F3E7D6" d="M490.675 207.064s1.213-1.663 2.138-2.486"/><path fill="none" stroke="#353535" stroke-linecap="round" stroke-linejoin="round" d="M490.675 207.064s1.213-1.663 2.138-2.486"/><path fill="#F3E7D6" d="M492.026 209.19c.31 2.001 2.083 3.189 2.444 3.342.213.089 1.632-1.904 1.322-3.904-.31-2.002-2.379-3.363-2.444-3.343-.065.019-1.632 1.904-1.322 3.905z"/><path fill="none" stroke="#353535" stroke-linecap="round" stroke-linejoin="round" d="M492.026 209.19c.31 2.001 2.083 3.189 2.444 3.342.213.089 1.632-1.904 1.322-3.904-.31-2.002-2.379-3.363-2.444-3.343-.065.019-1.632 1.904-1.322 3.905z"/><path fill="#F3E7D6" d="M493.841 208.857s-.489-2.211-.494-3.572"/><path fill="none" stroke="#353535" stroke-linecap="round" stroke-linejoin="round" d="M493.841 208.857s-.489-2.211-.494-3.572"/><path fill="#FFEBD5" d="M792.626 138.41c1.784-2.882 5.293-3.556 5.949-3.554.387.001 1.272 3.999-.513 6.881-1.785 2.881-5.863 3.625-5.95 3.553-.087-.072-1.271-3.999.514-6.88z"/><path fill="none" stroke="#353535" stroke-linecap="round" stroke-linejoin="round" d="M792.626 138.41c1.784-2.882 5.293-3.556 5.949-3.554.387.001 1.272 3.999-.513 6.881-1.785 2.881-5.863 3.625-5.95 3.553-.087-.072-1.271-3.999.514-6.88z"/><path fill="#FFEBD5" d="M795.925 144.614c3.838 1.01 5.911 5.13 5.911 5.13s-2.765.055-6.08.664c-3.031.559-5.511-2.986-5.493-3.088.017-.101 2.681-3.49 5.662-2.706z"/><path fill="none" stroke="#353535" stroke-linecap="round" stroke-linejoin="round" d="M795.925 144.614c3.838 1.01 5.911 5.13 5.911 5.13s-2.765.055-6.08.664c-3.031.559-5.511-2.986-5.493-3.088.017-.101 2.681-3.49 5.662-2.706z"/><path fill="#F3E7D6" d="M795.753 147.417s-3.433-.336-5.49-.098"/><path fill="none" stroke="#353535" stroke-linecap="round" stroke-linejoin="round" d="M795.753 147.417s-3.433-.336-5.49-.098"/><path fill="#F3E7D6" d="M795.205 140.106s-3.892 6.086-4.788 8.18"/><path fill="none" stroke="#353535" stroke-linecap="round" stroke-linejoin="round" d="M795.205 140.106s-3.892 6.086-4.788 8.18"/><path fill="#FFEBD5" d="M785.839 143.842c-.731-3.309 1.312-6.239 1.783-6.696.279-.269 3.701 1.978 4.433 5.288.731 3.308-1.671 6.687-1.783 6.696-.114.009-3.702-1.978-4.433-5.288z"/><path fill="none" stroke="#353535" stroke-linecap="round" stroke-linejoin="round" d="M785.839 143.842c-.731-3.309 1.312-6.239 1.783-6.696.279-.269 3.701 1.978 4.433 5.288.731 3.308-1.671 6.687-1.783 6.696-.114.009-3.702-1.978-4.433-5.288z"/><path fill="#F3E7D6" d="M788.87 143.258s.582 3.746 1.401 5.872"/><path fill="none" stroke="#353535" stroke-linecap="round" stroke-linejoin="round" d="M788.87 143.258s.582 3.746 1.401 5.872"/><path fill="#FFEBD5" d="M796.904 151.471c2.155 2.615 1.668 6.154 1.455 6.775-.125.367-4.196-.08-6.352-2.694-2.156-2.615-1.552-6.717-1.456-6.775.097-.06 4.197.079 6.353 2.694z"/><path fill="none" stroke="#353535" stroke-linecap="round" stroke-linejoin="round" d="M796.904 151.471c2.155 2.615 1.668 6.154 1.455 6.775-.125.367-4.196-.08-6.352-2.694-2.156-2.615-1.552-6.717-1.456-6.775.097-.06 4.197.079 6.353 2.694z"/><path fill="#F3E7D6" d="M794.468 153.369s-2.222-3.07-3.917-4.592"/><path fill="none" stroke="#353535" stroke-linecap="round" stroke-linejoin="round" d="M794.468 153.369s-2.222-3.07-3.917-4.592"/><path fill="#FFEBD5" d="M489.525 117.849c-1.785-2.882-5.293-3.556-5.95-3.554-.386.001-1.271 3.999.513 6.881 1.785 2.881 5.863 3.625 5.95 3.553.088-.072 1.272-3.999-.513-6.88z"/><path fill="none" stroke="#353535" stroke-linecap="round" stroke-linejoin="round" d="M489.525 117.849c-1.785-2.882-5.293-3.556-5.95-3.554-.386.001-1.271 3.999.513 6.881 1.785 2.881 5.863 3.625 5.95 3.553.088-.072 1.272-3.999-.513-6.88z"/><path fill="#FFEBD5" d="M486.226 124.052c-3.838 1.01-5.913 5.13-5.913 5.13s2.767.055 6.081.664c3.031.559 5.511-2.986 5.494-3.088-.018-.101-2.681-3.49-5.662-2.706z"/><path fill="none" stroke="#353535" stroke-linecap="round" stroke-linejoin="round" d="M486.226 124.052c-3.838 1.01-5.913 5.13-5.913 5.13s2.767.055 6.081.664c3.031.559 5.511-2.986 5.494-3.088-.018-.101-2.681-3.49-5.662-2.706z"/><path fill="#F3E7D6" d="M486.398 126.856s3.43-.336 5.488-.098"/><path fill="none" stroke="#353535" stroke-linecap="round" stroke-linejoin="round" d="M486.398 126.856s3.43-.336 5.488-.098"/><path fill="#F3E7D6" d="M486.945 119.545s3.891 6.086 4.788 8.18"/><path fill="none" stroke="#353535" stroke-linecap="round" stroke-linejoin="round" d="M486.945 119.545s3.891 6.086 4.788 8.18"/><path fill="#FFEBD5" d="M496.311 123.28c.731-3.309-1.312-6.239-1.784-6.696-.278-.269-3.7 1.978-4.432 5.288-.731 3.308 1.671 6.687 1.784 6.696.113.009 3.701-1.978 4.432-5.288z"/><path fill="none" stroke="#353535" stroke-linecap="round" stroke-linejoin="round" d="M496.311 123.28c.731-3.309-1.312-6.239-1.784-6.696-.278-.269-3.7 1.978-4.432 5.288-.731 3.308 1.671 6.687 1.784 6.696.113.009 3.701-1.978 4.432-5.288z"/><path fill="#F3E7D6" d="M493.279 122.696s-.582 3.746-1.4 5.872"/><path fill="none" stroke="#353535" stroke-linecap="round" stroke-linejoin="round" d="M493.279 122.696s-.582 3.746-1.4 5.872"/><path fill="#FFEBD5" d="M485.247 130.909c-2.156 2.615-1.667 6.154-1.455 6.775.125.367 4.195-.08 6.351-2.694 2.156-2.615 1.552-6.717 1.456-6.775-.097-.06-4.196.079-6.352 2.694z"/><path fill="none" stroke="#353535" stroke-linecap="round" stroke-linejoin="round" d="M485.247 130.909c-2.156 2.615-1.667 6.154-1.455 6.775.125.367 4.195-.08 6.351-2.694 2.156-2.615 1.552-6.717 1.456-6.775-.097-.06-4.196.079-6.352 2.694z"/><path fill="#F3E7D6" d="M487.682 132.807s2.22-3.07 3.916-4.592"/><path fill="none" stroke="#353535" stroke-linecap="round" stroke-linejoin="round" d="M487.682 132.807s2.22-3.07 3.916-4.592"/><path fill="#FFEBD5" d="M403.424 283.344s-2.668-5.124-7.813-4.219c-6.759 1.189-5.642 7.284-.345 6.912 4.913-.345 1.58 8.111 1.58 8.111"/><path fill="none" stroke="#353535" stroke-linecap="round" stroke-linejoin="round" d="M403.424 283.344s-2.668-5.124-7.813-4.219c-6.759 1.189-5.642 7.284-.345 6.912 4.913-.345 1.58 8.111 1.58 8.111"/><path fill="#FFEBD5" d="M402.029 288.93s-6.167-4.336-11.585-.201c-7.119 5.433-2.166 11.826 3.748 8.217 5.485-3.348 6.698 8.45 6.698 8.45"/><path fill="none" stroke="#353535" stroke-linecap="round" stroke-linejoin="round" d="M402.029 288.93s-6.167-4.336-11.585-.201c-7.119 5.433-2.166 11.826 3.748 8.217 5.485-3.348 6.698 8.45 6.698 8.45"/><path fill="#FFEBD5" d="M401.956 297.657s1.006-16.228-12.118-23.288c-15.883-8.545-9.605-22.536 5.706-14.349 15.984 8.548 6.412 37.637 6.412 37.637z"/><path fill="none" stroke="#353535" stroke-linecap="round" stroke-linejoin="round" d="M401.956 297.657s1.006-16.228-12.118-23.288c-15.883-8.545-9.605-22.536 5.706-14.349 15.984 8.548 6.412 37.637 6.412 37.637z"/><path fill="#FFEBD5" d="M401.617 310.493s-.793-19.739 12.549-23.979c12.467-3.96 12.836-19.356-5.076-14.813-16.824 4.266-7.473 38.792-7.473 38.792z"/><path fill="none" stroke="#353535" stroke-linecap="round" stroke-linejoin="round" d="M401.617 310.493s-.793-19.739 12.549-23.979c12.467-3.96 12.836-19.356-5.076-14.813-16.824 4.266-7.473 38.792-7.473 38.792zM618.191 62.882l5.561-1.967 6.047-4.875 3.361-.126 1.563-.058m.577 1.915-2.141-1.856m-9.406 5 2.438 1.622m9.11-4.765 2.531-.302"/><path fill="none" stroke="#353535" stroke-linecap="round" stroke-linejoin="round" d="m629.8 56.04 3.401-4.944 10.333-2.232"/><path fill="#FFEBD5" d="M650.572 47.454c2.607-2.165 5.594-3.49 5.594-3.49s-4.764-3.767-8.362-1.939c-3.02 1.535-4.184 6.642-4.109 6.727 0 0 3.94 1.14 6.877-1.298z"/><path fill="none" stroke="#353535" stroke-linecap="round" stroke-linejoin="round" d="M650.572 47.454c2.607-2.165 5.594-3.49 5.594-3.49s-4.764-3.767-8.362-1.939c-3.02 1.535-4.184 6.642-4.109 6.727 0 0 3.94 1.14 6.877-1.298z"/><path fill="#FFEBD5" d="M646.049 43.088c-1.105-3.812-5.277-5.78-5.277-5.78s.015 2.766-.511 6.095c-.482 3.044 3.125 5.434 3.226 5.414.101-.021 3.42-2.768 2.562-5.729z"/><path fill="none" stroke="#353535" stroke-linecap="round" stroke-linejoin="round" d="M646.049 43.088c-1.105-3.812-5.277-5.78-5.277-5.78s.015 2.766-.511 6.095c-.482 3.044 3.125 5.434 3.226 5.414.101-.021 3.42-2.768 2.562-5.729z"/><path fill="#F3E7D6" d="M643.252 43.332s.422 3.423.235 5.486"/><path fill="none" stroke="#353535" stroke-linecap="round" stroke-linejoin="round" d="M643.252 43.332s.422 3.423.235 5.486m7.048-4.561c-2.522.081-4.834 1.817-7.014 4.626"/><path fill="#FFEBD5" d="M640.296 42.56c-2.668-2.09-8.311-.285-8.311-.285s1.686 3.193 4.354 5.282c2.669 2.089 6.753 1.382 6.81 1.284.057-.098-.184-4.192-2.853-6.281z"/><path fill="none" stroke="#353535" stroke-linecap="round" stroke-linejoin="round" d="M640.296 42.56c-2.668-2.09-8.311-.285-8.311-.285s1.686 3.193 4.354 5.282c2.669 2.089 6.753 1.382 6.81 1.284.057-.098-.184-4.192-2.853-6.281z"/><path fill="#F3E7D6" d="M638.458 45.041s3.127 2.144 4.69 3.8"/><path fill="none" stroke="#353535" stroke-linecap="round" stroke-linejoin="round" d="M638.458 45.041s3.127 2.144 4.69 3.8m-86.964 68.886c-6.761-2.35-11.22-2.341-11.22-2.341m-24.029 30.044s.511 4.43 3.633 10.87"/><path fill="#353535" d="m543.919 135.019 1.045-1.81-1.045-1.383 1.045-.578-.399-3.014h2.974l-1.057-3.167 2.875-1.056-1.216-1.66 1.539-1.144c-.3-1.959-1.108-3.589-2.469-4.697-4.677-3.804-14.048-.031-20.93 8.428-6.882 8.46-8.67 18.401-3.994 22.206 4.676 3.805 14.048.03 20.929-8.43a35.827 35.827 0 0 0 1.868-2.511l-1.165-1.184z"/><path fill="none" stroke="#353535" stroke-linecap="round" stroke-linejoin="round" d="M716.81 117.727c6.762-2.35 11.22-2.341 11.22-2.341m24.029 30.044s-.512 4.43-3.634 10.87"/><path fill="#353535" d="m729.075 135.019-1.045-1.81 1.045-1.383-1.045-.578.399-3.014h-2.973l1.056-3.167-2.875-1.056 1.216-1.66-1.54-1.144c.3-1.959 1.11-3.589 2.471-4.697 4.677-3.804 14.046-.031 20.929 8.428 6.882 8.46 8.67 18.401 3.994 22.206-4.677 3.805-14.047.03-20.929-8.43a35.497 35.497 0 0 1-1.867-2.511l1.164-1.184z"/><path fill="#F3E7D6" d="m649.369 115.485 2.454 2.22 3.846 3.48 6.139-1.5 1.972 4.838"/><path fill="none" stroke="#353535" stroke-linecap="round" stroke-linejoin="round" d="m649.369 115.485 2.454 2.22 3.846 3.48 6.139-1.5 1.972 4.838"/><path fill="#353535" d="m639.697 113.405 1.645 3.299h.002l2.451-4.353 4.76 1.7 1.989-4.983 4.264-.072c4.081-5.387 5.168-12.641 2.196-19.006a17.97 17.97 0 0 0-6.612-7.546l-.813.965-.981-1.976-.005-.002-1.813 2.223-1.152-3.391a.017.017 0 0 1-.005-.002l-1.335.308-.682-.795c-3.873-.716-8.04-.264-11.933 1.555a19.736 19.736 0 0 0-7.997 6.779l.442 1.662-1.567 1.583.518 3.525-2.697 3.747 2.092 4.478-1.164 1.311c.214.638.463 1.273.755 1.898 2.888 6.183 8.877 9.964 15.406 10.476 1.074-1.713 2.236-3.383 2.236-3.383z"/><path fill="#FFEBD5" d="M664.401 89.963c2.545-1.863 5.808-1.22 6.373-.989.333.136-.3 3.894-2.846 5.757-2.545 1.863-6.322 1.082-6.372.989-.05-.093.299-3.895 2.845-5.757z"/><path fill="none" stroke="#353535" stroke-linecap="round" stroke-linejoin="round" d="M664.401 89.963c2.545-1.863 5.808-1.22 6.373-.989.333.136-.3 3.894-2.846 5.757-2.545 1.863-6.322 1.082-6.372.989-.05-.093.299-3.895 2.845-5.757z"/><path fill="#FFEBD5" d="M665.08 96.468c2.959 2.21 3.31 6.489 3.31 6.489s-2.405-.918-5.478-1.549c-2.81-.577-3.712-4.502-3.661-4.583.051-.081 3.531-2.074 5.829-.357z"/><path fill="none" stroke="#353535" stroke-linecap="round" stroke-linejoin="round" d="M665.08 96.468c2.959 2.21 3.31 6.489 3.31 6.489s-2.405-.918-5.478-1.549c-2.81-.577-3.712-4.502-3.661-4.583.051-.081 3.531-2.074 5.829-.357z"/><path fill="#F3E7D6" d="M663.953 98.825s-2.843-1.488-4.702-2"/><path fill="none" stroke="#353535" stroke-linecap="round" stroke-linejoin="round" d="M663.953 98.825s-2.843-1.488-4.702-2"/><path fill="#F3E7D6" d="M666.033 92.327s-5.481 3.892-6.986 5.386"/><path fill="none" stroke="#353535" stroke-linecap="round" stroke-linejoin="round" d="M666.033 92.327s-5.481 3.892-6.986 5.386"/><path fill="#FFEBD5" d="M656.649 92.28c.523-3.11 3.31-4.926 3.875-5.154.334-.136 2.503 2.998 1.978 6.108-.524 3.11-3.775 5.188-3.875 5.155-.101-.032-2.502-2.999-1.978-6.109z"/><path fill="none" stroke="#353535" stroke-linecap="round" stroke-linejoin="round" d="M656.649 92.28c.523-3.11 3.31-4.926 3.875-5.154.334-.136 2.503 2.998 1.978 6.108-.524 3.11-3.775 5.188-3.875 5.155-.101-.032-2.502-2.999-1.978-6.109z"/><path fill="#F3E7D6" d="M659.467 92.835s-.806 3.436-.841 5.556"/><path fill="none" stroke="#353535" stroke-linecap="round" stroke-linejoin="round" d="M659.467 92.835s-.806 3.436-.841 5.556"/><path fill="#FFEBD5" d="M663.532 102.725c.947 3.009-.709 5.893-1.109 6.354-.237.272-3.592-1.534-4.539-4.542-.948-3.009 1.004-6.336 1.109-6.354.103-.018 3.592 1.533 4.539 4.542z"/><path fill="none" stroke="#353535" stroke-linecap="round" stroke-linejoin="round" d="M663.532 102.725c.947 3.009-.709 5.893-1.109 6.354-.237.272-3.592-1.534-4.539-4.542-.948-3.009 1.004-6.336 1.109-6.354.103-.018 3.592 1.533 4.539 4.542z"/><path fill="#F3E7D6" d="M660.768 103.513s-.845-3.426-1.776-5.33"/><path fill="none" stroke="#353535" stroke-linecap="round" stroke-linejoin="round" d="M660.768 103.513s-.845-3.426-1.776-5.33"/><path fill="#FFEBD5" d="M627.353 79.043c-1.177-2.927-4.286-4.105-4.888-4.209-.354-.061-1.804 3.464-.629 6.391 1.176 2.926 4.796 4.262 4.888 4.21.092-.053 1.805-3.465.629-6.392z"/><path fill="none" stroke="#353535" stroke-linecap="round" stroke-linejoin="round" d="M627.353 79.043c-1.177-2.927-4.286-4.105-4.888-4.209-.354-.061-1.804 3.464-.629 6.391 1.176 2.926 4.796 4.262 4.888 4.21.092-.053 1.805-3.465.629-6.392z"/><path fill="#FFEBD5" d="M623.336 84.205c-3.68.312-6.24 3.759-6.24 3.759s2.526.493 5.468 1.582c2.69.995 5.531-1.861 5.531-1.956-.001-.096-1.901-3.627-4.759-3.385z"/><path fill="none" stroke="#353535" stroke-linecap="round" stroke-linejoin="round" d="M623.336 84.205c-3.68.312-6.24 3.759-6.24 3.759s2.526.493 5.468 1.582c2.69.995 5.531-1.861 5.531-1.956-.001-.096-1.901-3.627-4.759-3.385z"/><path fill="#F3E7D6" d="M623.047 86.802s3.198.24 5.048.788"/><path fill="none" stroke="#353535" stroke-linecap="round" stroke-linejoin="round" d="M623.047 86.802s3.198.24 5.048.788"/><path fill="#F3E7D6" d="M624.716 80.187s2.108 4.137 2.596 6.2"/><path fill="none" stroke="#353535" stroke-linecap="round" stroke-linejoin="round" d="M624.716 80.187s2.108 4.137 2.596 6.2"/><path fill="#FFEBD5" d="M621.344 90.335c-2.395 2.054-2.513 5.377-2.417 5.98.056.356 3.859.597 6.254-1.456 2.394-2.053 2.496-5.91 2.417-5.98-.079-.069-3.859-.597-6.254 1.456z"/><path fill="none" stroke="#353535" stroke-linecap="round" stroke-linejoin="round" d="M621.344 90.335c-2.395 2.054-2.513 5.377-2.417 5.98.056.356 3.859.597 6.254-1.456 2.394-2.053 2.496-5.91 2.417-5.98-.079-.069-3.859-.597-6.254 1.456z"/><path fill="#F3E7D6" d="M623.273 92.465s2.526-2.461 4.324-3.586"/><path fill="none" stroke="#353535" stroke-linecap="round" stroke-linejoin="round" d="M623.273 92.465s2.526-2.461 4.324-3.586"/><path fill="#FFEBD5" d="M541.302 83.159c-4.148 1.112-7.133 1.067-8.061-.327-2.702-4.063-.691-9.526-.691-9.526s6.723-1.145 13.268-4.873c7.216-4.11 14.499-10.941 18.753-13.364 0 0 5.091.987 7.839 5.453.919 1.493-.772 4.272-4.178 7.471-2.412 2.267-5.685 4.744-9.5 7.127"/><path fill="none" stroke="#353535" stroke-linecap="round" stroke-linejoin="round" d="M541.302 83.159c-4.148 1.112-7.133 1.067-8.061-.327-2.702-4.063-.691-9.526-.691-9.526s6.723-1.145 13.268-4.873c7.216-4.11 14.499-10.941 18.753-13.364 0 0 5.091.987 7.839 5.453.919 1.493-.772 4.272-4.178 7.471-2.412 2.267-5.685 4.744-9.5 7.127"/><path fill="#353535" d="M705.391 55.298c-.81 1.421 5.93 6.784 15.051 11.979 9.122 5.196 17.173 8.256 17.982 6.835.809-1.42-5.929-6.784-15.052-11.979-9.122-5.195-17.172-8.256-17.981-6.835z"/><path fill="#FFEBD5" d="M719.424 130.685c.054.007.104.019.159.02a1.48 1.48 0 0 0 .279-2.941 2.467 2.467 0 0 0-3.221-3.72 3.838 3.838 0 0 0-1.583-2.671 2.184 2.184 0 1 0-3.295-.555 3.837 3.837 0 0 0-2.763 3.583 3.836 3.836 0 0 0 3.737 3.933c.043.001.084-.003.128-.003a3.269 3.269 0 0 0 1.524 4.904 2.96 2.96 0 0 0 1.574 5.414l.032-.001a2.026 2.026 0 0 0-.039.314 1.928 1.928 0 0 0 1.877 1.979c.046.001.089-.008.134-.01-.142.24-.233.516-.24.815a1.704 1.704 0 1 0 1.755-1.66 1.914 1.914 0 0 0-.909-2.867 2.934 2.934 0 0 0 .372-2.1 2.275 2.275 0 0 0 .479-4.434z"/><path fill="none" stroke="#353535" stroke-linecap="round" stroke-linejoin="round" d="M719.424 130.685c.054.007.104.019.159.02a1.48 1.48 0 0 0 .279-2.941 2.467 2.467 0 0 0-3.221-3.72 3.838 3.838 0 0 0-1.583-2.671 2.184 2.184 0 1 0-3.295-.555 3.837 3.837 0 0 0-2.763 3.583 3.836 3.836 0 0 0 3.737 3.933c.043.001.084-.003.128-.003a3.269 3.269 0 0 0 1.524 4.904 2.96 2.96 0 0 0 1.574 5.414l.032-.001a2.026 2.026 0 0 0-.039.314 1.928 1.928 0 0 0 1.877 1.979c.046.001.089-.008.134-.01-.142.24-.233.516-.24.815a1.704 1.704 0 1 0 1.755-1.66 1.914 1.914 0 0 0-.909-2.867 2.934 2.934 0 0 0 .372-2.1 2.275 2.275 0 0 0 .479-4.434z"/><path fill="#FFEBD5" d="M438.554 179.797a3.163 3.163 0 0 0-1.146-4.042 4.084 4.084 0 0 0 .881-2.829 2.675 2.675 0 0 0 2.705-1.487 2.67 2.67 0 0 0 .245-1.476 2.37 2.37 0 1 0-1.109-3.167 2.342 2.342 0 0 0-.223 1.16c-.055-.031-.102-.07-.159-.097a2.679 2.679 0 0 0-3.579 1.246c-.065.134-.11.274-.151.413l-.039-.021a4.113 4.113 0 0 0-5.495 1.911 4.105 4.105 0 0 0 .1 3.771 4.543 4.543 0 0 0-4.592 2.533 4.517 4.517 0 0 0-.414 2.55c-.053-.028-.104-.06-.159-.086a5.33 5.33 0 0 0-5.993 8.661 3.036 3.036 0 1 0 4.352 3.888 3.025 3.025 0 0 0 .071-2.474 5.325 5.325 0 0 0 3.657-2.29 3.427 3.427 0 0 0 6.35-2.539 2.056 2.056 0 0 0 2.487-1.056 2.064 2.064 0 0 0-.958-2.754c-.069-.033-.14-.051-.21-.076a3.162 3.162 0 0 0 3.379-1.739z"/><path fill="none" stroke="#353535" stroke-linecap="round" stroke-linejoin="round" d="M438.554 179.797a3.163 3.163 0 0 0-1.146-4.042 4.084 4.084 0 0 0 .881-2.829 2.675 2.675 0 0 0 2.705-1.487 2.67 2.67 0 0 0 .245-1.476 2.37 2.37 0 1 0-1.109-3.167 2.342 2.342 0 0 0-.223 1.16c-.055-.031-.102-.07-.159-.097a2.679 2.679 0 0 0-3.579 1.246c-.065.134-.11.274-.151.413l-.039-.021a4.113 4.113 0 0 0-5.495 1.911 4.105 4.105 0 0 0 .1 3.771 4.543 4.543 0 0 0-4.592 2.533 4.517 4.517 0 0 0-.414 2.55c-.053-.028-.104-.06-.159-.086a5.33 5.33 0 0 0-5.993 8.661 3.036 3.036 0 1 0 4.352 3.888 3.025 3.025 0 0 0 .071-2.474 5.325 5.325 0 0 0 3.657-2.29 3.427 3.427 0 0 0 6.35-2.539 2.056 2.056 0 0 0 2.487-1.056 2.064 2.064 0 0 0-.958-2.754c-.069-.033-.14-.051-.21-.076a3.162 3.162 0 0 0 3.379-1.739z"/><path fill="#353535" d="M833.151 181.536c-.07.024-.143.043-.211.076a2.057 2.057 0 0 0 1.529 3.81 3.417 3.417 0 0 0 .169 2.562 3.428 3.428 0 0 0 6.181-.023 5.326 5.326 0 0 0 3.656 2.29 3.03 3.03 0 0 0 .072 2.473 3.037 3.037 0 0 0 5.467-2.644c-.257-.53-.65-.95-1.115-1.243a5.333 5.333 0 0 0 1.127-6.185 5.33 5.33 0 0 0-7.12-2.476c-.055.026-.106.058-.158.086a4.527 4.527 0 0 0-.415-2.55 4.544 4.544 0 0 0-4.592-2.533 4.105 4.105 0 0 0 .1-3.771 4.114 4.114 0 0 0-5.495-1.911c-.013.006-.025.015-.039.02a2.739 2.739 0 0 0-.151-.413 2.68 2.68 0 0 0-3.58-1.246c-.057.028-.104.067-.158.098a2.352 2.352 0 0 0-.222-1.16 2.37 2.37 0 0 0-4.265 2.063 2.37 2.37 0 0 0 3.156 1.104c-.057.489.013.999.244 1.475a2.675 2.675 0 0 0 2.706 1.488 4.094 4.094 0 0 0 .398 2.066c.135.277.298.53.482.763a3.164 3.164 0 0 0-1.146 4.042 3.165 3.165 0 0 0 3.38 1.739z"/><path fill="#FFEBD5" d="M867.19 238.633s2.711-5.102 7.848-4.154c6.749 1.244 5.581 7.33.288 6.914-4.91-.386-1.648 8.098-1.648 8.098"/><path fill="none" stroke="#353535" stroke-linecap="round" stroke-linejoin="round" d="M867.19 238.633s2.711-5.102 7.848-4.154c6.749 1.244 5.581 7.33.288 6.914-4.91-.386-1.648 8.098-1.648 8.098"/><path fill="#FFEBD5" d="M868.541 244.23s6.202-4.284 11.586-.104c7.073 5.493 2.068 11.843-3.815 8.185-5.458-3.394-6.77 8.395-6.77 8.395"/><path fill="none" stroke="#353535" stroke-linecap="round" stroke-linejoin="round" d="M868.541 244.23s6.202-4.284 11.586-.104c7.073 5.493 2.068 11.843-3.815 8.185-5.458-3.394-6.77 8.395-6.77 8.395"/><path fill="#FFEBD5" d="M868.542 252.958s-.873-16.235 12.31-23.187c15.952-8.414 9.79-22.457-5.588-14.396-16.055 8.416-6.722 37.583-6.722 37.583z"/><path fill="none" stroke="#353535" stroke-linecap="round" stroke-linejoin="round" d="M868.542 252.958s-.873-16.235 12.31-23.187c15.952-8.414 9.79-22.457-5.588-14.396-16.055 8.416-6.722 37.583-6.722 37.583z"/><path fill="#FFEBD5" d="M868.774 265.796s.956-19.732-12.351-24.081c-12.432-4.065-12.674-19.463 5.2-14.773 16.787 4.406 7.151 38.854 7.151 38.854z"/><path fill="none" stroke="#353535" stroke-linecap="round" stroke-linejoin="round" d="M868.774 265.796s.956-19.732-12.351-24.081c-12.432-4.065-12.674-19.463 5.2-14.773 16.787 4.406 7.151 38.854 7.151 38.854z"/><path fill="#FFEBD5" d="M767.829 98.428s5.008-3.324 9.238.087c5.56 4.482 1.476 9.473-3.162 6.47-4.301-2.786-5.518 6.592-5.518 6.592"/><path fill="none" stroke="#353535" stroke-linecap="round" stroke-linejoin="round" d="M767.829 98.428s5.008-3.324 9.238.087c5.56 4.482 1.476 9.473-3.162 6.47-4.301-2.786-5.518 6.592-5.518 6.592"/><path fill="#FFEBD5" d="M766.07 109.122s1.681-9.975 10.154-18.306c10.812-10.63 3.104-19.266-6.319-10.682-10.685 9.735-3.835 28.988-3.835 28.988z"/><path fill="none" stroke="#353535" stroke-linecap="round" stroke-linejoin="round" d="M766.07 109.122s1.681-9.975 10.154-18.306c10.812-10.63 3.104-19.266-6.319-10.682-10.685 9.735-3.835 28.988-3.835 28.988z"/><path fill="#FFEBD5" d="M763.569 107.243c-4.966-4.952-5.311-5.71-10.257-6.396-10.696-1.483-10.026-14.58 4.51-12.169 9.683 1.605 11.637 15.848 10.682 24.165l-4.935-5.6z"/><path fill="none" stroke="#353535" stroke-linecap="round" stroke-linejoin="round" d="M763.569 107.243c-4.966-4.952-5.311-5.71-10.257-6.396-10.696-1.483-10.026-14.58 4.51-12.169 9.683 1.605 11.637 15.848 10.682 24.165l-4.935-5.6zM437.27 229.005h24.136m-18.892-7.332h12.984m-6.16.348v6.984m369.736 73.015h24.136m-18.891-7.332h12.984m-6.16.347v6.984m-171.667-122.07H635.34m18.891 7.332h-12.984m6.161-.347v-6.984"/><path fill="#F3E7D6" d="m544.502 83.139 2.637 2.387 4.133 3.738 6.595-1.611 2.119 5.198"/><path fill="none" stroke="#353535" stroke-linecap="round" stroke-linejoin="round" d="m544.502 83.139 2.637 2.387 4.133 3.738 6.595-1.611 2.119 5.198"/><path fill="#FFEBD5" d="M549.564 116.533c2.331-1.425 2.89-4.251 2.892-4.779.001-.313-3.217-1.044-5.548.381-2.332 1.424-2.952 4.709-2.894 4.779.058.07 3.219 1.044 5.55-.381z"/><path fill="none" stroke="#353535" stroke-linecap="round" stroke-linejoin="round" d="M549.564 116.533c2.331-1.425 2.89-4.251 2.892-4.779.001-.313-3.217-1.044-5.548.381-2.332 1.424-2.952 4.709-2.894 4.779.058.07 3.219 1.044 5.55-.381z"/><path fill="#FFEBD5" d="M544.577 113.843c-.795-3.099-4.108-4.789-4.108-4.789s-.057 2.228-.564 4.897c-.464 2.442 2.382 4.457 2.464 4.444.082-.014 2.826-2.145 2.208-4.552z"/><path fill="none" stroke="#353535" stroke-linecap="round" stroke-linejoin="round" d="M544.577 113.843c-.795-3.099-4.108-4.789-4.108-4.789s-.057 2.228-.564 4.897c-.464 2.442 2.382 4.457 2.464 4.444.082-.014 2.826-2.145 2.208-4.552z"/><path fill="#F3E7D6" d="M542.317 113.97s.255 2.768.052 4.426"/><path fill="none" stroke="#353535" stroke-linecap="round" stroke-linejoin="round" d="M542.317 113.97s.255 2.768.052 4.426"/><path fill="#F3E7D6" d="M548.208 114.445s-3.231 2.396-4.924 3.108"/><path fill="none" stroke="#353535" stroke-linecap="round" stroke-linejoin="round" d="M548.208 114.445s-3.231 2.396-4.924 3.108"/><path fill="#FFEBD5" d="M539.054 113.023c-2.098-1.75-4.954-1.374-5.455-1.205-.295.099.044 3.383 2.142 5.133s5.407 1.283 5.455 1.205c.048-.077-.044-3.382-2.142-5.133z"/><path fill="none" stroke="#353535" stroke-linecap="round" stroke-linejoin="round" d="M539.054 113.023c-2.098-1.75-4.954-1.374-5.455-1.205-.295.099.044 3.383 2.142 5.133s5.407 1.283 5.455 1.205c.048-.077-.044-3.382-2.142-5.133z"/><path fill="#F3E7D6" d="M537.512 114.976s2.466 1.806 3.684 3.18"/><path fill="none" stroke="#353535" stroke-linecap="round" stroke-linejoin="round" d="M537.512 114.976s2.466 1.806 3.684 3.18"/><path fill="#FFEBD5" d="M683.557 273.865c2.289 2.499 5.862 2.509 6.507 2.385.38-.073.505-4.166-1.784-6.665-2.289-2.499-6.436-2.472-6.508-2.385-.071.088-.504 4.166 1.785 6.665z"/><path fill="none" stroke="#353535" stroke-linecap="round" stroke-linejoin="round" d="M683.557 273.865c2.289 2.499 5.862 2.509 6.507 2.385.38-.073.505-4.166-1.784-6.665-2.289-2.499-6.436-2.472-6.508-2.385-.071.088-.504 4.166 1.785 6.665z"/><path fill="#FFEBD5" d="M685.645 267.155c3.583-1.706 4.853-6.14 4.853-6.14s-2.727.461-6.097.478c-3.082.016-4.86 3.96-4.823 4.057.036.096 3.284 2.929 6.067 1.605z"/><path fill="none" stroke="#353535" stroke-linecap="round" stroke-linejoin="round" d="M685.645 267.155c3.583-1.706 4.853-6.14 4.853-6.14s-2.727.461-6.097.478c-3.082.016-4.86 3.96-4.823 4.057.036.096 3.284 2.929 6.067 1.605z"/><path fill="#F3E7D6" d="M684.954 264.434s-3.31.969-5.376 1.116"/><path fill="none" stroke="#353535" stroke-linecap="round" stroke-linejoin="round" d="M684.954 264.434s-3.31.969-5.376 1.116"/><path fill="#F3E7D6" d="M685.777 271.719s-3.685-3.365-4.955-5.256"/><path fill="none" stroke="#353535" stroke-linecap="round" stroke-linejoin="round" d="M685.777 271.719s-3.685-3.365-4.955-5.256"/><path fill="#FFEBD5" d="M685.332 260.236c1.632-2.97.494-6.356.17-6.927-.191-.336-4.108.858-5.739 3.828-1.632 2.97-.277 6.888-.17 6.929.105.04 4.107-.859 5.739-3.83z"/><path fill="none" stroke="#353535" stroke-linecap="round" stroke-linejoin="round" d="M685.332 260.236c1.632-2.97.494-6.356.17-6.927-.191-.336-4.108.858-5.739 3.828-1.632 2.97-.277 6.888-.17 6.929.105.04 4.107-.859 5.739-3.83z"/><path fill="#F3E7D6" d="M682.586 258.823s-1.611 3.432-2.994 5.242"/><path fill="none" stroke="#353535" stroke-linecap="round" stroke-linejoin="round" d="M682.586 258.823s-1.611 3.432-2.994 5.242"/><path fill="#F3E7D6" d="M722.42 147.413c1.305 1.63 5.397 5.147 9.082 6.964"/><path fill="none" stroke="#353535" stroke-linecap="round" stroke-linejoin="round" d="M722.42 147.413c1.305 1.63 5.397 5.147 9.082 6.964m17.89 57.482 16.442 3.931 3.779 6.372 9.475 1.749 8.046 1.484"/><path fill="none" stroke="#353535" stroke-linecap="round" stroke-linejoin="round" d="m779.088 223.91 4.074-3.612 12.799 1.069m-24.259 1.18-2.023 5.48"/><path fill="#FFEBD5" d="M759.811 212.744c4.362-1.344 7.408-5.211 7.408-5.211s-4.827-4.065-9.89-3.006c-4.468.936-8.188 7.039-8.122 7.177.064.139 6.243 2.384 10.604 1.04z"/><path fill="none" stroke="#353535" stroke-linecap="round" stroke-linejoin="round" d="M759.811 212.744c4.362-1.344 7.408-5.211 7.408-5.211s-4.827-4.065-9.89-3.006c-4.468.936-8.188 7.039-8.122 7.177.064.139 6.243 2.384 10.604 1.04z"/><path fill="#FFEBD5" d="M754.659 205.249c-.008-5.345-4.67-9.449-4.67-9.449s-1.013 3.585-2.936 7.695c-1.76 3.76 2.014 8.198 2.153 8.21.138.012 5.459-2.305 5.453-6.456z"/><path fill="none" stroke="#353535" stroke-linecap="round" stroke-linejoin="round" d="M754.659 205.249c-.008-5.345-4.67-9.449-4.67-9.449s-1.013 3.585-2.936 7.695c-1.76 3.76 2.014 8.198 2.153 8.21.138.012 5.459-2.305 5.453-6.456z"/><path fill="#F3E7D6" d="M750.948 204.519s-.73 4.586-1.742 7.186"/><path fill="none" stroke="#353535" stroke-linecap="round" stroke-linejoin="round" d="M750.948 204.519s-.73 4.586-1.742 7.186"/><path fill="#F3E7D6" d="M758.48 208.806s-6.24 2.443-9.273 2.898"/><path fill="none" stroke="#353535" stroke-linecap="round" stroke-linejoin="round" d="M758.48 208.806s-6.24 2.443-9.273 2.898"/><path fill="#FFEBD5" d="M747.412 202.415c-2.673-3.699-9.095-3.587-9.095-3.587s-.562 4.876 2.111 8.576c2.672 3.699 8.221 4.31 8.332 4.204.109-.105 1.325-5.493-1.348-9.193z"/><path fill="none" stroke="#353535" stroke-linecap="round" stroke-linejoin="round" d="M747.412 202.415c-2.673-3.699-9.095-3.587-9.095-3.587s-.562 4.876 2.111 8.576c2.672 3.699 8.221 4.31 8.332 4.204.109-.105 1.325-5.493-1.348-9.193z"/><path fill="#F3E7D6" d="M744.109 204.941s3.245 3.94 4.65 6.668"/><path fill="none" stroke="#353535" stroke-linecap="round" stroke-linejoin="round" d="M744.109 204.941s3.245 3.94 4.65 6.668"/><path fill="#FFEBD5" d="M582.629 60.272c3.532-2.933 7.577-4.728 7.577-4.728s-6.452-5.101-11.324-2.626c-4.092 2.08-5.669 8.996-5.568 9.111 0 0 5.338 1.544 9.315-1.757z"/><path fill="none" stroke="#353535" stroke-linecap="round" stroke-linejoin="round" d="M582.629 60.272c3.532-2.933 7.577-4.728 7.577-4.728s-6.452-5.101-11.324-2.626c-4.092 2.08-5.669 8.996-5.568 9.111 0 0 5.338 1.544 9.315-1.757z"/><path fill="#FFEBD5" d="M576.504 54.359c-1.498-5.162-7.148-7.828-7.148-7.828s.021 3.746-.691 8.255c-.652 4.123 4.233 7.36 4.369 7.332.137-.028 4.633-3.749 3.47-7.759z"/><path fill="none" stroke="#353535" stroke-linecap="round" stroke-linejoin="round" d="M576.504 54.359c-1.498-5.162-7.148-7.828-7.148-7.828s.021 3.746-.691 8.255c-.652 4.123 4.233 7.36 4.369 7.332.137-.028 4.633-3.749 3.47-7.759z"/><path fill="#F3E7D6" d="M572.715 54.688s.572 4.636.318 7.43"/><path fill="none" stroke="#353535" stroke-linecap="round" stroke-linejoin="round" d="M572.715 54.688s.572 4.636.318 7.43m9.547-6.176c-3.416.109-6.548 2.462-9.5 6.266"/><path fill="#353535" d="M565.289 55.297c-.722-1.268-7.211 1.034-15.081 5.235l-.527 1.675-1.663.204-.366 2.293h-1.905l-.721 2.849-3.344-1.027-.485 1.784-1.967-.308-.804 1.486-1.681-.487c-3.157 2.422-4.927 4.344-4.489 5.111.809 1.421 8.86-1.64 17.982-6.836 9.121-5.195 15.86-10.558 15.051-11.979z"/><path fill="#F3E7D6" d="M709.151 73.292a80.747 80.747 0 0 0 2.796 1.828"/><path fill="none" stroke="#353535" stroke-linecap="round" stroke-linejoin="round" d="M709.151 73.292a80.747 80.747 0 0 0 2.796 1.828"/><path fill="#FFEBD5" d="M732.257 83.774c2.633.392 4.485.104 5.182-.941 2.052-3.086 1.385-6.979.946-8.672-.977 1.293-8.935-1.752-17.943-6.883-9.122-5.195-15.861-10.559-15.051-11.98.011-.02.029-.036.043-.054-1.475.437-5.028 1.806-7.165 5.279-.918 1.493.772 4.272 4.177 7.471a50.6 50.6 0 0 0 4.225 3.519"/><path fill="none" stroke="#353535" stroke-linecap="round" stroke-linejoin="round" d="M732.257 83.774c2.633.392 4.485.104 5.182-.941 2.052-3.086 1.385-6.979.946-8.672-.977 1.293-8.935-1.752-17.943-6.883-9.122-5.195-15.861-10.559-15.051-11.98.011-.02.029-.036.043-.054-1.475.437-5.028 1.806-7.165 5.279-.918 1.493.772 4.272 4.177 7.471a50.6 50.6 0 0 0 4.225 3.519"/><path fill="#FFEBD5" d="M737.412 77.057c3.288-.818 5.002-3.953 5.201-4.578.117-.369-3.419-2.434-6.708-1.615-3.289.818-5.243 4.472-5.201 4.578.042.105 3.419 2.433 6.708 1.615z"/><path fill="none" stroke="#353535" stroke-linecap="round" stroke-linejoin="round" d="M737.412 77.057c3.288-.818 5.002-3.953 5.201-4.578.117-.369-3.419-2.434-6.708-1.615-3.289.818-5.243 4.472-5.201 4.578.042.105 3.419 2.433 6.708 1.615z"/><path fill="#FFEBD5" d="M733.898 71.289c.212-3.963-3.077-7.197-3.077-7.197s-.898 2.616-2.491 5.586c-1.458 2.715 1.159 6.16 1.26 6.174.103.014 4.143-1.485 4.308-4.563z"/><path fill="none" stroke="#353535" stroke-linecap="round" stroke-linejoin="round" d="M733.898 71.289c.212-3.963-3.077-7.197-3.077-7.197s-.898 2.616-2.491 5.586c-1.458 2.715 1.159 6.16 1.26 6.174.103.014 4.143-1.485 4.308-4.563z"/><path fill="#F3E7D6" d="M731.176 70.597s-.729 3.369-1.586 5.256"/><path fill="none" stroke="#353535" stroke-linecap="round" stroke-linejoin="round" d="M731.176 70.597s-.729 3.369-1.586 5.256"/><path fill="#F3E7D6" d="M736.584 74.081s-4.715 1.633-6.982 1.846"/><path fill="none" stroke="#353535" stroke-linecap="round" stroke-linejoin="round" d="M736.584 74.081s-4.715 1.633-6.982 1.846"/><path fill="#FFEBD5" d="M728.64 68.891c-1.83-2.852-5.35-3.469-6.006-3.456-.387.008-1.207 4.018.624 6.87 1.83 2.853 5.92 3.531 6.006 3.457.086-.073 1.207-4.018-.624-6.871z"/><path fill="none" stroke="#353535" stroke-linecap="round" stroke-linejoin="round" d="M728.64 68.891c-1.83-2.852-5.35-3.469-6.006-3.456-.387.008-1.207 4.018.624 6.87 1.83 2.853 5.92 3.531 6.006 3.457.086-.073 1.207-4.018-.624-6.871z"/><path fill="#F3E7D6" d="M726.088 70.63s2.245 3.055 3.176 5.134"/><path fill="none" stroke="#353535" stroke-linecap="round" stroke-linejoin="round" d="M726.088 70.63s2.245 3.055 3.176 5.134"/><path fill="#F3E7D6" d="M651.111 99.364c0 5.693-4.614 10.308-10.307 10.308-5.692 0-10.307-4.615-10.307-10.308 0-5.692 4.615-10.306 10.307-10.306 5.693 0 10.307 4.614 10.307 10.306z"/><path fill="#353535" d="m638.73 101.945 6.173-.073.001.073c0 3.387-2.787 6.174-6.174 6.174-3.387 0-6.173-2.787-6.173-6.174 0-3.387 2.786-6.172 6.173-6.172a6.188 6.188 0 0 1 5.988 4.672l-5.988 1.5zm-10.425-5.248 23.822-3.495s-4.582-10.377-13.313-8.272c-8.733 2.105-10.509 11.767-10.509 11.767z"/><path fill="#FFEBD5" d="M532.29 141.303c.002-.054.01-.105.006-.16a1.483 1.483 0 0 0-1.573-1.389 1.477 1.477 0 0 0-1.38 1.368 2.468 2.468 0 0 0-4.063 2.031c.036.583.275 1.106.641 1.506a3.838 3.838 0 0 0-2.523 1.812 2.178 2.178 0 0 0-1.667-.626 2.186 2.186 0 0 0 .271 4.361c.424-.026.81-.174 1.132-.403a3.841 3.841 0 0 0 3.813 2.436 3.837 3.837 0 0 0 3.589-4.068c-.002-.044-.01-.086-.014-.129a3.25 3.25 0 0 0 1.811.419 3.268 3.268 0 0 0 2.939-2.367 2.96 2.96 0 0 0 5.256-2.045l-.005-.032c.104.011.209.019.317.013a1.93 1.93 0 0 0 1.805-2.045c-.002-.046-.015-.088-.021-.132.253.12.535.186.833.168a1.705 1.705 0 1 0-1.807-1.602 1.917 1.917 0 0 0-1.049-.24 1.924 1.924 0 0 0-1.727 1.396 2.946 2.946 0 0 0-2.125-.184 2.276 2.276 0 0 0-4.459-.088z"/><path fill="none" stroke="#353535" stroke-linecap="round" stroke-linejoin="round" d="M532.29 141.303c.002-.054.01-.105.006-.16a1.483 1.483 0 0 0-1.573-1.389 1.477 1.477 0 0 0-1.38 1.368 2.468 2.468 0 0 0-4.063 2.031c.036.583.275 1.106.641 1.506a3.838 3.838 0 0 0-2.523 1.812 2.178 2.178 0 0 0-1.667-.626 2.186 2.186 0 0 0 .271 4.361c.424-.026.81-.174 1.132-.403a3.841 3.841 0 0 0 3.813 2.436 3.837 3.837 0 0 0 3.589-4.068c-.002-.044-.01-.086-.014-.129a3.25 3.25 0 0 0 1.811.419 3.268 3.268 0 0 0 2.939-2.367 2.96 2.96 0 0 0 5.256-2.045l-.005-.032c.104.011.209.019.317.013a1.93 1.93 0 0 0 1.805-2.045c-.002-.046-.015-.088-.021-.132.253.12.535.186.833.168a1.705 1.705 0 1 0-1.807-1.602 1.917 1.917 0 0 0-1.049-.24 1.924 1.924 0 0 0-1.727 1.396 2.946 2.946 0 0 0-2.125-.184 2.276 2.276 0 0 0-4.459-.088z"/><path fill="#FFEBD5" d="M722.42 321.998h168.329l18.613 24.642"/><path fill="none" stroke="#353535" stroke-linecap="round" stroke-linejoin="round" d="M722.42 321.998h168.329l18.613 24.642m-506.931-37.487 6.37.212 7.818 3.048 3.501-.966 1.629-.449m-.029-2.162-1.6 2.612m-11.319-2.083 1.98-2.466m10.938 1.938 2.706-.516m-7.807 4.092 5.117 3.982 11.369-1.072"/><path fill="#FFEBD5" d="M544.45 322.486h-65.377l-4.402 4.935-4.086-3.331-1.878 1.342-1.325-1.342-2.872 3.331-5.723-2.872-1.419 1.363-2.651-3.426H345.762l-12.686 25.422"/><path fill="none" stroke="#353535" stroke-linecap="round" stroke-linejoin="round" d="M544.45 322.486h-65.377l-4.402 4.935-4.086-3.331-1.878 1.342-1.325-1.342-2.872 3.331-5.723-2.872-1.419 1.363-2.651-3.426H345.762l-12.686 25.422m551.41-19.326h-16.492m12.908 5.01h-8.872m4.21-.237v-4.772m-312.473 3.603h-17.451m13.659 5.301h-9.388m4.455-.252v-5.05"/><path fill="#F3E7D6" d="m474.672 327.421 2.576 2.006-.762 5.77 2.392 2.256"/><path fill="none" stroke="#353535" stroke-linecap="round" stroke-linejoin="round" d="m474.672 327.421 2.576 2.006-.762 5.77 2.392 2.256"/><path fill="#FFEBD5" d="M839.22 346.796h131.109l15.949 16.526"/><path fill="none" stroke="#353535" stroke-linecap="round" stroke-linejoin="round" d="M839.22 346.796h131.109l15.949 16.526"/><path fill="#FFEBD5" d="M399.026 348.084h-91.09l-19.793 18.875v3.704l-2.565 2.328-.61 14.271"/><path fill="none" stroke="#353535" stroke-linecap="round" stroke-linejoin="round" d="M399.026 348.084h-91.09l-19.793 18.875v3.704l-2.565 2.328-.61 14.271m40.799-22.201h23.245m-18.194-7.062h12.505m-5.934.335v6.727m509.676 15.581H816.8m23.688 9.194h-16.282m7.726-.435v-8.759"/><path fill="#FFEBD5" d="M408.922 349.234c0 1.789 1.64 3.464 3.428 3.464a3.23 3.23 0 0 0 2.507-1.189c.404.204.859.321 1.343.321a2.989 2.989 0 0 0 2.984-2.855 4.264 4.264 0 0 0 3.071 1.301c.441 0 .867-.066 1.268-.191a2.523 2.523 0 0 0 5.026-.321c.657 0 1.275-.163 1.82-.448a2.747 2.747 0 0 0 4.796.465 2.185 2.185 0 1 0 .124-2.897 2.746 2.746 0 0 0-2.394-1.4 2.73 2.73 0 0 0-.426.036 3.932 3.932 0 0 0-6.908-2.248 4.279 4.279 0 0 0-7.543 2.131 2.187 2.187 0 0 0-2.143-1.76 2.18 2.18 0 0 0-1.715.833 3.083 3.083 0 0 0-5.887 1.781 2.748 2.748 0 1 0-1.91 4.724c1.518 0 2.535-1.384 2.559-1.747z"/><path fill="none" stroke="#353535" stroke-linecap="round" stroke-linejoin="round" d="M408.922 349.234c0 1.789 1.64 3.464 3.428 3.464a3.23 3.23 0 0 0 2.507-1.189c.404.204.859.321 1.343.321a2.989 2.989 0 0 0 2.984-2.855 4.264 4.264 0 0 0 3.071 1.301c.441 0 .867-.066 1.268-.191a2.523 2.523 0 0 0 5.026-.321c.657 0 1.275-.163 1.82-.448a2.747 2.747 0 0 0 4.796.465 2.185 2.185 0 1 0 .124-2.897 2.746 2.746 0 0 0-2.394-1.4 2.73 2.73 0 0 0-.426.036 3.932 3.932 0 0 0-6.908-2.248 4.279 4.279 0 0 0-7.543 2.131 2.187 2.187 0 0 0-2.143-1.76 2.18 2.18 0 0 0-1.715.833 3.083 3.083 0 0 0-5.887 1.781 2.748 2.748 0 1 0-1.91 4.724c1.518 0 2.535-1.384 2.559-1.747z"/><path fill="#FFEBD5" d="M932.371 343.739a2.25 2.25 0 0 0-.34.029 2.73 2.73 0 0 0-2.391-1.414c-.435 0-.843.104-1.207.284a3.665 3.665 0 0 0-5.025-.424c.063-.258.1-.526.1-.803a3.378 3.378 0 0 0-6.729-.423 3.656 3.656 0 0 0-2.172-.716l-.02.002a2.538 2.538 0 0 0-2.439-1.844 2.537 2.537 0 0 0-2.537 2.538 4.111 4.111 0 0 0-3.433 1.845 2.53 2.53 0 0 0-3.526 1.466 2.15 2.15 0 0 0-1.451-.561 2.165 2.165 0 1 0 1.97 3.061 2.526 2.526 0 0 0 3.007.58 4.114 4.114 0 0 0 6.909-.068 3.66 3.66 0 0 0 3.438-.212 4.116 4.116 0 0 0 6.699.72 3.665 3.665 0 0 0 5.209-.265 2.712 2.712 0 0 0 2.481-.032c.385.351.895.567 1.457.567a2.165 2.165 0 0 0 0-4.33z"/><path fill="none" stroke="#353535" stroke-linecap="round" stroke-linejoin="round" d="M932.371 343.739a2.25 2.25 0 0 0-.34.029 2.73 2.73 0 0 0-2.391-1.414c-.435 0-.843.104-1.207.284a3.665 3.665 0 0 0-5.025-.424c.063-.258.1-.526.1-.803a3.378 3.378 0 0 0-6.729-.423 3.656 3.656 0 0 0-2.172-.716l-.02.002a2.538 2.538 0 0 0-2.439-1.844 2.537 2.537 0 0 0-2.537 2.538 4.111 4.111 0 0 0-3.433 1.845 2.53 2.53 0 0 0-3.526 1.466 2.15 2.15 0 0 0-1.451-.561 2.165 2.165 0 1 0 1.97 3.061 2.526 2.526 0 0 0 3.007.58 4.114 4.114 0 0 0 6.909-.068 3.66 3.66 0 0 0 3.438-.212 4.116 4.116 0 0 0 6.699.72 3.665 3.665 0 0 0 5.209-.265 2.712 2.712 0 0 0 2.481-.032c.385.351.895.567 1.457.567a2.165 2.165 0 0 0 0-4.33z"/><path fill="#FFEBD5" d="M390.521 321.303c-.116 0-.229.012-.339.029a2.733 2.733 0 0 0-2.393-1.414c-.434 0-.843.105-1.207.284a3.664 3.664 0 0 0-5.024-.424c.063-.258.1-.526.1-.802a3.378 3.378 0 0 0-6.729-.424 3.656 3.656 0 0 0-2.172-.714h-.021a2.537 2.537 0 0 0-2.438-1.844 2.537 2.537 0 0 0-2.537 2.538 4.115 4.115 0 0 0-3.434 1.846 2.51 2.51 0 0 0-1.121-.264 2.537 2.537 0 0 0-2.404 1.73 2.154 2.154 0 0 0-1.451-.562 2.165 2.165 0 1 0 1.969 3.062 2.528 2.528 0 0 0 3.007.58 4.115 4.115 0 0 0 6.909-.069 3.648 3.648 0 0 0 3.439-.212 4.117 4.117 0 0 0 3.604 2.127 4.105 4.105 0 0 0 3.094-1.406 3.66 3.66 0 0 0 5.209-.266 2.716 2.716 0 0 0 2.481-.032 2.165 2.165 0 1 0 1.458-3.763z"/><path fill="none" stroke="#353535" stroke-linecap="round" stroke-linejoin="round" d="M390.521 321.303c-.116 0-.229.012-.339.029a2.733 2.733 0 0 0-2.393-1.414c-.434 0-.843.105-1.207.284a3.664 3.664 0 0 0-5.024-.424c.063-.258.1-.526.1-.802a3.378 3.378 0 0 0-6.729-.424 3.656 3.656 0 0 0-2.172-.714h-.021a2.537 2.537 0 0 0-2.438-1.844 2.537 2.537 0 0 0-2.537 2.538 4.115 4.115 0 0 0-3.434 1.846 2.51 2.51 0 0 0-1.121-.264 2.537 2.537 0 0 0-2.404 1.73 2.154 2.154 0 0 0-1.451-.562 2.165 2.165 0 1 0 1.969 3.062 2.528 2.528 0 0 0 3.007.58 4.115 4.115 0 0 0 6.909-.069 3.648 3.648 0 0 0 3.439-.212 4.117 4.117 0 0 0 3.604 2.127 4.105 4.105 0 0 0 3.094-1.406 3.66 3.66 0 0 0 5.209-.266 2.716 2.716 0 0 0 2.481-.032 2.165 2.165 0 1 0 1.458-3.763zm103.395 50.26-7.966-7.214-6.274-.719-16.912-1.932-12.323-13.615h-8.379"/><path fill="none" stroke="#353535" stroke-linecap="round" stroke-linejoin="round" d="m479.676 363.631 1.581 7.932-4.482 3.668"/><path fill="#FFEBD5" d="M764.612 485.213V464.97H741.93v-22.682h-22.682v-22.681h-22.682v-22.682h-22.682v-22.683h-22.682v-22.681H628.52v-19.755h80.485v19.755h22.681v22.681h22.683v22.683h22.681v22.682h22.682v22.681h22.682v22.682h22.682v20.243"/><path fill="none" stroke="#353535" stroke-linecap="round" stroke-linejoin="round" d="M696.566 331.805h6.639l1.633 2.063 1.239-1.163.682 1.35-1.202 2.134 1.979 1.17-2.736 1.065 1.757 2.076-1 2.122 3.447 2.31v6.628h22.682v22.682h22.683v22.682h22.681v22.682h22.682v22.681h22.682v22.682h17.655l1.597 1.298 1.437-1.298h.879l.239 1.059.875.239-1.035 1.517 1.035 1.477v15.951M628.521 331.806h16.027"/><path fill="#F3E7D6" d="M669.162 351.561h39.843"/><path fill="none" stroke="#353535" stroke-linecap="round" stroke-linejoin="round" d="M669.162 351.561h39.843"/><path fill="#F3E7D6" d="M673.885 374.242h43.492"/><path fill="none" stroke="#353535" stroke-linecap="round" stroke-linejoin="round" d="M673.885 374.242h43.492"/><path fill="#F3E7D6" d="M713.504 396.925h41.062"/><path fill="none" stroke="#353535" stroke-linecap="round" stroke-linejoin="round" d="M713.504 396.925h41.062"/><path fill="#F3E7D6" d="M719.248 419.607h49.354"/><path fill="none" stroke="#353535" stroke-linecap="round" stroke-linejoin="round" d="M719.248 419.607h49.354"/><path fill="#F3E7D6" d="M757.951 442.289h25.424l2.715 1.195 1.596-.43 1.917 1.625 1.756-1.625 1.557.922 1.798-1.687h4.409"/><path fill="none" stroke="#353535" stroke-linecap="round" stroke-linejoin="round" d="M757.951 442.289h25.424l2.715 1.195 1.596-.43 1.917 1.625 1.756-1.625 1.557.922 1.798-1.687h4.409"/><path fill="#F3E7D6" d="M764.612 464.97h9.5l2.938 4.292 2.811-2.146h3.233l2.755-2.146 3.594 2.146 4.07-2.146h13.958"/><path fill="none" stroke="#353535" stroke-linecap="round" stroke-linejoin="round" d="M764.612 464.97h9.5l2.938 4.292 2.811-2.146h3.233l2.755-2.146 3.594 2.146 4.07-2.146h13.958"/><path fill="none" stroke="#353535" stroke-linecap="round" stroke-linejoin="round" d="M628.521 331.805v19.755h22.682v22.682h22.682v22.682h22.682v22.682h22.682v22.681h22.682v22.682h22.682v20.243"/><path fill="none" stroke="#353535" stroke-linecap="round" stroke-linejoin="round" d="M726.113 485.213v-29.022h-20.767v-22.683h-22.681v-22.682h-22.682v-22.681h-22.682v-22.682h-22.682v-33.657"/><path fill="#353535" d="m746.803 374.242 1.347 3.15-.674 3.354h4.357l1.199 2.635 1.317 1.677v-10.541l-7.546-.275z"/><path fill="#F3E7D6" d="m748.343 373.739 1.347 2.455-.673 3.355h4.356l.077 2.934 1.378 1.557 1.061-10.72-7.546.419z"/><path fill="#FFEBD5" d="M754.186 416.73c-.128 0-.253.013-.375.031a3.018 3.018 0 0 0-3.975-1.247 4.042 4.042 0 0 0-5.547-.469c.069-.285.11-.58.11-.886a3.73 3.73 0 0 0-7.43-.466 4.036 4.036 0 0 0-2.398-.791l-.023.002a2.802 2.802 0 0 0-2.693-2.036 2.802 2.802 0 0 0-2.801 2.801 4.545 4.545 0 0 0-3.792 2.04 2.78 2.78 0 0 0-1.238-.292 2.8 2.8 0 0 0-2.654 1.91 2.39 2.39 0 1 0 .573 2.76 2.79 2.79 0 0 0 3.319.64 4.543 4.543 0 0 0 7.63-.075 4.04 4.04 0 0 0 1.679.367c.777 0 1.501-.224 2.118-.602a4.544 4.544 0 0 0 3.979 2.348 4.526 4.526 0 0 0 3.416-1.553 4.042 4.042 0 0 0 5.752-.292 3 3 0 0 0 2.741-.035c.424.388.988.626 1.609.626a2.391 2.391 0 0 0 0-4.781z"/><path fill="none" stroke="#353535" stroke-linecap="round" stroke-linejoin="round" d="M754.186 416.73c-.128 0-.253.013-.375.031a3.018 3.018 0 0 0-3.975-1.247 4.042 4.042 0 0 0-5.547-.469c.069-.285.11-.58.11-.886a3.73 3.73 0 0 0-7.43-.466 4.036 4.036 0 0 0-2.398-.791l-.023.002a2.802 2.802 0 0 0-2.693-2.036 2.802 2.802 0 0 0-2.801 2.801 4.545 4.545 0 0 0-3.792 2.04 2.78 2.78 0 0 0-1.238-.292 2.8 2.8 0 0 0-2.654 1.91 2.39 2.39 0 1 0 .573 2.76 2.79 2.79 0 0 0 3.319.64 4.543 4.543 0 0 0 7.63-.075 4.04 4.04 0 0 0 1.679.367c.777 0 1.501-.224 2.118-.602a4.544 4.544 0 0 0 3.979 2.348 4.526 4.526 0 0 0 3.416-1.553 4.042 4.042 0 0 0 5.752-.292 3 3 0 0 0 2.741-.035c.424.388.988.626 1.609.626a2.391 2.391 0 0 0 0-4.781z"/><path fill="#F3E7D6" d="M665.242 351.561h-6.675"/><path fill="none" stroke="#353535" stroke-linecap="round" stroke-linejoin="round" d="M665.242 351.561h-6.675"/><path fill="#353535" d="m774.392 464.671 2.994 2.446 2.476-.449-2.811 2.595-2.659-4.592z"/><path fill="#FFEBD5" d="M803.975 428.68c2.803-3.611 7.603-4.018 8.483-3.922.519.057 1.138 5.545-1.665 9.156-2.801 3.611-8.377 4.032-8.484 3.921-.106-.109-1.137-5.544 1.666-9.155z"/><path fill="none" stroke="#353535" stroke-linecap="round" stroke-linejoin="round" d="M803.975 428.68c2.803-3.611 7.603-4.018 8.483-3.922.519.057 1.138 5.545-1.665 9.156-2.801 3.611-8.377 4.032-8.484 3.921-.106-.109-1.137-5.544 1.666-9.155z"/><path fill="#FFEBD5" d="M807.493 437.507c5.005 1.898 7.201 7.72 7.201 7.72s-3.717-.32-8.249.028c-4.145.317-6.969-4.789-6.931-4.923.039-.134 4.091-4.3 7.979-2.825z"/><path fill="none" stroke="#353535" stroke-linecap="round" stroke-linejoin="round" d="M807.493 437.507c5.005 1.898 7.201 7.72 7.201 7.72s-3.717-.32-8.249.028c-4.145.317-6.969-4.789-6.931-4.923.039-.134 4.091-4.3 7.979-2.825z"/><path fill="#FFEBD5" d="M794.401 434.345c-.512-4.543 2.645-8.184 3.341-8.729.411-.322 4.683 3.178 5.195 7.721.512 4.542-3.189 8.733-3.343 8.729-.152-.004-4.682-3.179-5.193-7.721z"/><path fill="none" stroke="#353535" stroke-linecap="round" stroke-linejoin="round" d="M794.401 434.345c-.512-4.543 2.645-8.184 3.341-8.729.411-.322 4.683 3.178 5.195 7.721.512 4.542-3.189 8.733-3.343 8.729-.152-.004-4.682-3.179-5.193-7.721z"/><path fill="#FFEBD5" d="M808.159 446.146c2.521 3.813 1.363 8.493.99 9.295-.22.474-5.616-.702-8.137-4.516-2.52-3.813-1.128-9.227-.991-9.294.138-.065 5.617.702 8.138 4.515z"/><path fill="none" stroke="#353535" stroke-linecap="round" stroke-linejoin="round" d="M808.159 446.146c2.521 3.813 1.363 8.493.99 9.295-.22.474-5.616-.702-8.137-4.516-2.52-3.813-1.128-9.227-.991-9.294.138-.065 5.617.702 8.138 4.515z"/><path fill="#F3E7D6" d="M812.614 464.97h3.165"/><path fill="none" stroke="#353535" stroke-linecap="round" stroke-linejoin="round" d="M812.614 464.97h3.165"/><path fill="#FFEBD5" d="M311.821 387.261h-164l-84 46.666"/><path fill="none" stroke="#353535" stroke-linecap="round" stroke-linejoin="round" d="M311.821 387.261h-164l-84 46.666"/><path fill="#F3E7D6" d="M.488 433.928h139"/><path fill="none" stroke="#353535" stroke-linecap="round" stroke-linejoin="round" d="M.488 433.928h139"/><path fill="#FFEBD5" d="M958.489 363.261h138.666l42.667 42"/><path fill="none" stroke="#353535" stroke-linecap="round" stroke-linejoin="round" d="M958.489 363.261h138.666l42.667 42"/><path fill="#FFEBD5" d="M1061.488 406.261h129l52 41"/><path fill="none" stroke="#353535" stroke-linecap="round" stroke-linejoin="round" d="M1061.488 406.261h129l52 41m-943.056-27h-33.888m26.525 10.296h-18.231m8.65-.489v-9.808m706 7.204h-35.944m28.134 10.919h-19.337m9.175-.518v-10.401"/></g></svg>