<svg xmlns="http://www.w3.org/2000/svg" style="width:100%;height:100%;content-visibility:visible" viewBox="0 0 559 569"><defs><clipPath id="__lottie_element__obj_2"><path d="M0 0h559v569H0z"/></clipPath></defs><g clip-path="url(#__lottie_element__obj_2)"><g display="block"><path fill="#353535" d="m274.351 196.346-2.226 4.045 1.27 1.52-3.814 1.709-3.627 7.094-1.547-3.095-2.285 1.91-2.758-.652L62.238 373.699l89.863 107.478 344.487-288.034-89.864-107.477-132.373 110.68z"/><path fill="none" stroke="#FFEBD5" stroke-linecap="round" stroke-linejoin="round" d="m274.351 196.346-2.226 4.045 1.27 1.52-3.814 1.709-3.627 7.094-1.547-3.095-2.285 1.91-2.758-.652L62.238 373.699l89.863 107.478 344.487-288.034-89.864-107.477-132.373 110.68z"/></g><g display="block"><path fill="#FFEBD5" d="M99.111 377.221a7.924 7.924 0 1 1-12.158 10.165 7.924 7.924 0 0 1 12.158-10.165z"/><path fill="none" stroke="#353535" stroke-linecap="round" stroke-linejoin="round" d="M99.111 377.221a7.924 7.924 0 1 1-12.158 10.165 7.924 7.924 0 0 1 12.158-10.165z"/><path fill="#353535" d="M97.662 378.434a6.036 6.036 0 1 1-8.501-.759 6.036 6.036 0 0 1 8.501.759z"/><path fill="#FFEBD5" d="M134.735 419.828a7.925 7.925 0 1 1-12.158 10.165 7.925 7.925 0 0 1 12.158-10.165z"/><path fill="none" stroke="#353535" stroke-linecap="round" stroke-linejoin="round" d="M134.735 419.828a7.925 7.925 0 1 1-12.158 10.165 7.925 7.925 0 0 1 12.158-10.165z"/><path fill="#353535" d="M133.286 421.04a6.035 6.035 0 1 1-9.26 7.74 6.035 6.035 0 0 1 9.26-7.74z"/><path fill="#FFEBD5" d="M152.547 441.131a7.924 7.924 0 1 1-12.158 10.165 7.924 7.924 0 0 1 12.158-10.165z"/><path fill="none" stroke="#353535" stroke-linecap="round" stroke-linejoin="round" d="M152.547 441.131a7.924 7.924 0 1 1-12.158 10.165 7.924 7.924 0 0 1 12.158-10.165z"/><path fill="#353535" d="M151.099 442.344a6.035 6.035 0 1 1-9.261 7.74 6.035 6.035 0 0 1 9.261-7.74z"/><path fill="#FFEBD5" d="M116.924 398.524a7.926 7.926 0 0 1-12.16 10.167 7.926 7.926 0 0 1 12.16-10.167z"/><path fill="none" stroke="#353535" stroke-linecap="round" stroke-linejoin="round" d="M116.924 398.524a7.926 7.926 0 0 1-12.16 10.167 7.926 7.926 0 0 1 12.16-10.167z"/><path fill="#353535" d="M115.473 399.737a6.035 6.035 0 1 1-9.26 7.74 6.035 6.035 0 0 1 9.26-7.74zm6.2-58.02-26.062 21.792"/><path fill="none" stroke="#FFEBD5" stroke-linecap="round" stroke-linejoin="round" d="m121.673 341.717-26.062 21.792"/><path fill="#353535" d="m126.01 346.904-26.062 21.792"/><path fill="none" stroke="#FFEBD5" stroke-linecap="round" stroke-linejoin="round" d="m126.01 346.904-26.062 21.792"/><path fill="#353535" d="m130.347 352.091-26.062 21.792"/><path fill="none" stroke="#FFEBD5" stroke-linecap="round" stroke-linejoin="round" d="m130.347 352.091-26.062 21.792"/><path fill="#353535" d="m134.683 357.277-26.062 21.792"/><path fill="none" stroke="#FFEBD5" stroke-linecap="round" stroke-linejoin="round" d="m134.683 357.277-26.062 21.792"/><path fill="#353535" d="m139.02 362.464-26.062 21.792"/><path fill="none" stroke="#FFEBD5" stroke-linecap="round" stroke-linejoin="round" d="m139.02 362.464-26.062 21.792"/><path fill="#353535" d="m143.357 367.65-26.062 21.792"/><path fill="none" stroke="#FFEBD5" stroke-linecap="round" stroke-linejoin="round" d="m143.357 367.65-26.062 21.792"/><path fill="#353535" d="m147.693 372.837-26.062 21.792"/><path fill="none" stroke="#FFEBD5" stroke-linecap="round" stroke-linejoin="round" d="m147.693 372.837-26.062 21.792"/><path fill="#353535" d="m152.03 378.023-26.062 21.792"/><path fill="none" stroke="#FFEBD5" stroke-linecap="round" stroke-linejoin="round" d="m152.03 378.023-26.062 21.792"/><path fill="#353535" d="m156.366 383.21-26.062 21.792"/><path fill="none" stroke="#FFEBD5" stroke-linecap="round" stroke-linejoin="round" d="m156.366 383.21-26.062 21.792"/><path fill="#353535" d="m160.703 388.396-26.062 21.792"/><path fill="none" stroke="#FFEBD5" stroke-linecap="round" stroke-linejoin="round" d="m160.703 388.396-26.062 21.792"/><path fill="#353535" d="m165.04 393.583-26.062 21.792"/><path fill="none" stroke="#FFEBD5" stroke-linecap="round" stroke-linejoin="round" d="m165.04 393.583-26.062 21.792"/><path fill="#353535" d="m169.376 398.769-26.062 21.792"/><path fill="none" stroke="#FFEBD5" stroke-linecap="round" stroke-linejoin="round" d="m169.376 398.769-26.062 21.792"/><path fill="#353535" d="m173.712 403.956-26.062 21.792"/><path fill="none" stroke="#FFEBD5" stroke-linecap="round" stroke-linejoin="round" d="m173.712 403.956-26.062 21.792"/><path fill="#353535" d="m178.05 409.142-26.062 21.792"/><path fill="none" stroke="#FFEBD5" stroke-linecap="round" stroke-linejoin="round" d="m178.05 409.142-26.062 21.792"/><path fill="#353535" d="m182.385 414.329-26.062 21.792"/><path fill="none" stroke="#FFEBD5" stroke-linecap="round" stroke-linejoin="round" d="m182.385 414.329-26.062 21.792"/><path fill="#353535" d="m186.722 419.515-26.062 21.792"/><path fill="none" stroke="#FFEBD5" stroke-linecap="round" stroke-linejoin="round" d="m186.722 419.515-26.062 21.792"/><path fill="#353535" d="m191.058 424.702-26.062 21.792"/><path fill="none" stroke="#FFEBD5" stroke-linecap="round" stroke-linejoin="round" d="m191.058 424.702-26.062 21.792"/><path fill="#353535" d="m195.395 429.888-26.062 21.792"/><path fill="none" stroke="#FFEBD5" stroke-linecap="round" stroke-linejoin="round" d="m195.395 429.888-26.062 21.792"/></g><g display="block"><path fill="#FFEBD5" d="M197.09 291.041c3.785 4.528 3.184 11.268-1.344 15.053-4.528 3.786-11.267 3.185-15.053-1.343-3.786-4.528-3.184-11.268 1.343-15.053 4.529-3.786 11.268-3.185 15.054 1.343z"/><path fill="none" stroke="#353535" stroke-linecap="round" stroke-linejoin="round" d="M197.09 291.041c3.785 4.528 3.184 11.268-1.344 15.053-4.528 3.786-11.267 3.185-15.053-1.343-3.786-4.528-3.184-11.268 1.343-15.053 4.529-3.786 11.268-3.185 15.054 1.343z"/><path fill="#FFEBD5" d="M217.591 315.561c3.786 4.528 3.184 11.268-1.345 15.053-4.527 3.786-11.267 3.185-15.052-1.344-3.787-4.527-3.184-11.267 1.343-15.053 4.529-3.785 11.268-3.184 15.054 1.344z"/><path fill="none" stroke="#353535" stroke-linecap="round" stroke-linejoin="round" d="M217.591 315.561c3.786 4.528 3.184 11.268-1.345 15.053-4.527 3.786-11.267 3.185-15.052-1.344-3.787-4.527-3.184-11.267 1.343-15.053 4.529-3.785 11.268-3.184 15.054 1.344z"/><path fill="#353535" d="M238.092 340.08c3.786 4.528 3.184 11.267-1.345 15.053-4.527 3.786-11.266 3.184-15.052-1.344-3.787-4.527-3.184-11.267 1.344-15.053 4.528-3.785 11.267-3.184 15.053 1.344z"/><path fill="none" stroke="#FFEBD5" stroke-linecap="round" stroke-linejoin="round" d="M238.092 340.08c3.786 4.528 3.184 11.267-1.345 15.053-4.527 3.786-11.266 3.184-15.052-1.344-3.787-4.527-3.184-11.267 1.344-15.053 4.528-3.785 11.267-3.184 15.053 1.344z"/><path fill="#FFEBD5" d="M258.593 364.599c3.786 4.528 3.185 11.268-1.343 15.053-4.528 3.786-11.268 3.185-15.054-1.343-3.787-4.528-3.184-11.268 1.344-15.053 4.528-3.786 11.268-3.185 15.053 1.343z"/><path fill="none" stroke="#353535" stroke-linecap="round" stroke-linejoin="round" d="M258.593 364.599c3.786 4.528 3.185 11.268-1.343 15.053-4.528 3.786-11.268 3.185-15.054-1.343-3.787-4.528-3.184-11.268 1.344-15.053 4.528-3.786 11.268-3.185 15.053 1.343z"/><path fill="#FFEBD5" d="m201 426.684 43.153-36.081-75.214-89.955-43.152 36.081L201 426.684z"/><path fill="none" stroke="#353535" stroke-linecap="round" stroke-linejoin="round" d="m201 426.684 43.153-36.081-75.214-89.955-43.152 36.081L201 426.684z"/><path fill="#353535" d="m192.874 337.551-35.006 29.268-24.772-29.628 35.006-29.268 24.772 29.628z"/><path fill="#FFEBD5" d="m147.643 338.237-6.27 5.242-5.242-6.27 6.27-5.242 5.242 6.27zm5.671 6.783-6.27 5.242-5.242-6.269 6.27-5.243 5.242 6.27zm5.672 6.784-6.271 5.242-5.241-6.27 6.27-5.242 5.242 6.27zm5.671 6.783-6.27 5.242-5.242-6.269 6.27-5.243 5.242 6.27zm-2.949-20.585-6.27 5.242-5.242-6.269 6.27-5.243 5.242 6.27zm5.672 6.784-6.27 5.242-5.242-6.27 6.27-5.242 5.242 6.27zm5.671 6.783-6.271 5.242-5.241-6.269 6.27-5.243 5.242 6.27zm16.788-14.036-6.27 5.242-5.242-6.269 6.27-5.243 5.242 6.27zm-14.066.235-6.27 5.242-5.242-6.269 6.27-5.243 5.242 6.27zm5.672 6.783-6.27 5.242-5.242-6.269 6.27-5.243 5.242 6.27zm20.525 3.88-35.005 29.268-7.275-8.7 35.005-29.268 7.275 8.7z"/><path fill="none" stroke="#353535" stroke-linecap="round" stroke-linejoin="round" d="m201.97 348.431-35.005 29.268-7.275-8.7 35.005-29.268 7.275 8.7z"/><path fill="#FFEBD5" d="m210.865 359.068-35.005 29.268-7.275-8.7 35.005-29.268 7.275 8.7z"/><path fill="none" stroke="#353535" stroke-linecap="round" stroke-linejoin="round" d="m210.865 359.068-35.005 29.268-7.275-8.7 35.005-29.268 7.275 8.7z"/><path fill="#353535" d="m219.37 369.241-35.005 29.268-7.275-8.7 35.005-29.268 7.275 8.7z"/><path fill="none" stroke="#F3E7D6" stroke-linecap="round" stroke-linejoin="round" d="m219.37 369.241-35.005 29.268-7.275-8.7 35.005-29.268 7.275 8.7z"/><path fill="#FFEBD5" d="M238.286 401.846 213.104 422.9l-16.858-20.162 25.182-21.054 16.858 20.162z"/><path fill="none" stroke="#353535" stroke-linecap="round" stroke-linejoin="round" d="M238.286 401.846 213.104 422.9l-16.858-20.162 25.182-21.054 16.858 20.162z"/><path fill="#FFEBD5" d="M208.636 401.192a3.642 3.642 0 1 1-5.587 4.67 3.642 3.642 0 0 1 5.587-4.67z"/><path fill="none" stroke="#353535" stroke-linecap="round" stroke-linejoin="round" d="M208.636 401.192a3.642 3.642 0 1 1-5.587 4.67 3.642 3.642 0 0 1 5.587-4.67z"/><path fill="#FFEBD5" d="m203.933 403.357 3.818.342"/><path fill="none" stroke="#353535" stroke-linecap="round" stroke-linejoin="round" d="m203.933 403.357 3.818.342"/><path fill="#FFEBD5" d="M229.69 398.035a3.641 3.641 0 1 1-1.024 7.21 3.641 3.641 0 0 1 1.024-7.21z"/><path fill="none" stroke="#353535" stroke-linecap="round" stroke-linejoin="round" d="M229.69 398.035a3.641 3.641 0 1 1-1.024 7.21 3.641 3.641 0 0 1 1.024-7.21z"/><path fill="#FFEBD5" d="m227.646 402.791 3.064-2.302"/><path fill="none" stroke="#353535" stroke-linecap="round" stroke-linejoin="round" d="m227.646 402.791 3.064-2.302"/></g><g display="block"><path fill="#FFEBD5" d="m479.631 190.988-59.949 50.125-3.595-4.299 59.949-50.125 3.595 4.299z"/><path fill="none" stroke="#353535" stroke-linecap="round" stroke-linejoin="round" d="m479.631 190.988-59.949 50.125-3.595-4.299 59.949-50.125 3.595 4.299z"/><path fill="#FFEBD5" d="m270.577 338.117-14.181 11.856-10.987-13.14 14.18-11.856 10.988 13.14z"/><path fill="none" stroke="#353535" stroke-linecap="round" stroke-linejoin="round" d="m270.577 338.117-14.181 11.856-10.987-13.14 14.18-11.856 10.988 13.14z"/><path fill="#FFEBD5" d="m284.122 354.317-14.18 11.856-10.986-13.14 14.18-11.856 10.986 13.14z"/><path fill="none" stroke="#353535" stroke-linecap="round" stroke-linejoin="round" d="m284.122 354.317-14.18 11.856-10.986-13.14 14.18-11.856 10.986 13.14z"/><path fill="#353535" d="m288.303 323.296-14.18 11.856-10.986-13.14 14.18-11.856 10.986 13.14z"/><path fill="none" stroke="#FFEBD5" stroke-linecap="round" stroke-linejoin="round" d="m288.303 323.296-14.18 11.856-10.986-13.14 14.18-11.856 10.986 13.14z"/><path fill="#FFEBD5" d="m301.847 339.495-14.18 11.856-10.986-13.14 14.18-11.856 10.986 13.14z"/><path fill="none" stroke="#353535" stroke-linecap="round" stroke-linejoin="round" d="m301.847 339.495-14.18 11.856-10.986-13.14 14.18-11.856 10.986 13.14z"/><path fill="#FFEBD5" d="m306.029 308.474-14.18 11.856-10.986-13.14 14.18-11.856 10.986 13.14z"/><path fill="none" stroke="#353535" stroke-linecap="round" stroke-linejoin="round" d="m306.029 308.474-14.18 11.856-10.986-13.14 14.18-11.856 10.986 13.14z"/><path fill="#FFEBD5" d="m319.574 324.674-14.18 11.856-10.986-13.14 14.18-11.856 10.986 13.14z"/><path fill="none" stroke="#353535" stroke-linecap="round" stroke-linejoin="round" d="m319.574 324.674-14.18 11.856-10.986-13.14 14.18-11.856 10.986 13.14z"/><path fill="#FFEBD5" d="m323.755 293.653-14.18 11.856-10.986-13.14 14.18-11.856 10.986 13.14z"/><path fill="none" stroke="#353535" stroke-linecap="round" stroke-linejoin="round" d="m323.755 293.653-14.18 11.856-10.986-13.14 14.18-11.856 10.986 13.14z"/><path fill="#353535" d="m337.301 309.853-14.181 11.856-10.987-13.14 14.18-11.856 10.988 13.14z"/><path fill="none" stroke="#FFEBD5" stroke-linecap="round" stroke-linejoin="round" d="m337.301 309.853-14.181 11.856-10.987-13.14 14.18-11.856 10.988 13.14z"/><path fill="#FFEBD5" d="m352.809 296.887-5.039 4.212-24.531-29.34 5.037-4.212 24.533 29.34z"/><path fill="none" stroke="#353535" stroke-linecap="round" stroke-linejoin="round" d="m352.809 296.887-5.039 4.212-24.531-29.34 5.037-4.212 24.533 29.34z"/><path fill="#FFEBD5" d="m345.819 302.731-5.038 4.212-24.532-29.34 5.039-4.212 24.531 29.34z"/><path fill="none" stroke="#353535" stroke-linecap="round" stroke-linejoin="round" d="m345.819 302.731-5.038 4.212-24.532-29.34 5.039-4.212 24.531 29.34z"/><path fill="#FFEBD5" d="m359.798 291.042-5.037 4.212-24.531-29.339 5.037-4.213 24.531 29.34z"/><path fill="none" stroke="#353535" stroke-linecap="round" stroke-linejoin="round" d="m359.798 291.042-5.037 4.212-24.531-29.339 5.037-4.213 24.531 29.34z"/><path fill="#F3E7D6" d="m466.066 198.677 7.15-5.978"/><path fill="none" stroke="#353535" stroke-linecap="round" stroke-linejoin="round" d="m466.066 198.677 7.15-5.978"/><path fill="#F3E7D6" d="m460.97 202.939 1.103-.924 1.737-1.452"/><path fill="none" stroke="#353535" stroke-linecap="round" stroke-linejoin="round" d="m460.97 202.939 1.103-.924 1.737-1.452"/><path fill="#FFEBD5" d="m407.517 236.341-51.241 42.844-17.247-20.628 51.24-42.844 17.248 20.628z"/><path fill="none" stroke="#353535" stroke-linecap="round" stroke-linejoin="round" d="m407.517 236.341-51.241 42.844-17.247-20.628 51.24-42.844 17.248 20.628z"/><path fill="#353535" d="M389.607 232.535c-8.118-.5-16.224 1.857-22.715 7.285-6.448 5.391-10.198 12.885-11.175 20.903l11.773 1.634c.364-5.332 2.618-10.288 6.753-13.746 4.177-3.492 9.519-4.828 14.886-4.196l.478-11.88z"/><path fill="none" stroke="#F3E7D6" stroke-linecap="round" stroke-linejoin="round" d="M389.607 232.535c-8.118-.5-16.224 1.857-22.715 7.285-6.448 5.391-10.198 12.885-11.175 20.903l11.773 1.634c.364-5.332 2.618-10.288 6.753-13.746 4.177-3.492 9.519-4.828 14.886-4.196l.478-11.88z"/><path fill="#353535" d="M389.515 234.827c-7.658-.3-15.094 1.926-21.035 6.893-5.898 4.931-9.398 11.789-10.487 19.313"/><path fill="none" stroke="#FFEBD5" stroke-linecap="round" stroke-linejoin="round" d="M389.515 234.827c-7.658-.3-15.094 1.926-21.035 6.893-5.898 4.931-9.398 11.789-10.487 19.313"/><path fill="#FFEBD5" d="m376.029 247.295-2.953-7.636 4.62 6.675"/><path fill="none" stroke="#FFEBD5" stroke-linecap="round" stroke-linejoin="round" d="m376.029 247.295-2.953-7.636 4.62 6.675"/><path fill="#353535" d="m366.166 243.88-1.376-.856"/><path fill="none" stroke="#FFEBD5" stroke-linecap="round" stroke-linejoin="round" d="m366.166 243.88-1.376-.856"/><path fill="#353535" d="m414.802 245.052-51.241 42.843-5.493-6.57 51.241-42.842 5.493 6.569z"/><path fill="none" stroke="#FFEBD5" stroke-linecap="round" stroke-linejoin="round" d="m414.802 245.052-51.241 42.843-5.493-6.57 51.241-42.842 5.493 6.569z"/><path fill="#FFEBD5" d="m471.703 181.507-59.95 50.125-16.674-19.941 59.95-50.125 16.674 19.941z"/><path fill="none" stroke="#353535" stroke-linecap="round" stroke-linejoin="round" d="m471.703 181.507-59.95 50.125-16.674-19.941 59.95-50.125 16.674 19.941z"/><path fill="none" stroke="#353535" stroke-linecap="round" stroke-linejoin="round" d="M420.353 211.435c-2.742 2.292-8.125-.42-11.026 2.006l-.047.038c-2.902 2.426-1.186 8.205-3.927 10.497"/><path fill="none" stroke="#353535" stroke-linecap="round" stroke-linejoin="round" d="M435.351 198.895c-2.742 2.292-8.125-.42-11.026 2.006l-.047.038c-2.902 2.426-1.185 8.205-3.927 10.497m29.999-25.083c-2.742 2.292-8.125-.42-11.026 2.006l-.047.038c-2.902 2.426-1.185 8.205-3.927 10.497"/><path fill="none" stroke="#353535" stroke-linecap="round" stroke-linejoin="round" d="M465.348 173.813c-2.741 2.292-8.125-.419-11.026 2.007l-.047.037c-2.902 2.426-1.185 8.205-3.927 10.497"/></g><g display="block"><path fill="#FFEBD5" d="m392.441 208.533-15.088 12.617-46.632-55.771 15.089-12.617 46.631 55.771z"/><path fill="none" stroke="#353535" stroke-linecap="round" stroke-linejoin="round" d="m392.441 208.533-15.088 12.617-46.632-55.771 15.089-12.617 46.631 55.771z"/><path fill="#FFEBD5" d="m377.488 221.036-15.089 12.616-46.631-55.769 15.089-12.617 46.631 55.77z"/><path fill="none" stroke="#353535" stroke-linecap="round" stroke-linejoin="round" d="m377.488 221.036-15.089 12.616-46.631-55.769 15.089-12.617 46.631 55.77z"/><path fill="#FFEBD5" d="m362.535 233.539-15.089 12.617-46.631-55.771 15.089-12.617 46.631 55.771z"/><path fill="none" stroke="#353535" stroke-linecap="round" stroke-linejoin="round" d="m362.535 233.539-15.089 12.617-46.631-55.771 15.089-12.617 46.631 55.771z"/><path fill="#FFEBD5" d="m347.581 246.042-15.088 12.617-46.632-55.771 15.089-12.617 46.631 55.771z"/><path fill="none" stroke="#353535" stroke-linecap="round" stroke-linejoin="round" d="m347.581 246.042-15.088 12.617-46.632-55.771 15.089-12.617 46.631 55.771z"/><path fill="#FFEBD5" d="m332.628 258.545-15.089 12.617-46.631-55.771 15.089-12.617 46.631 55.771z"/><path fill="none" stroke="#353535" stroke-linecap="round" stroke-linejoin="round" d="m332.628 258.545-15.089 12.617-46.631-55.771 15.089-12.617 46.631 55.771z"/><path fill="#FFEBD5" d="m317.674 271.048-15.089 12.617-46.631-55.771 15.089-12.617 46.631 55.771z"/><path fill="none" stroke="#353535" stroke-linecap="round" stroke-linejoin="round" d="m317.674 271.048-15.089 12.617-46.631-55.771 15.089-12.617 46.631 55.771z"/><path fill="#FFEBD5" d="m302.72 283.551-15.089 12.617L241 240.397l15.089-12.617 46.631 55.771z"/><path fill="none" stroke="#353535" stroke-linecap="round" stroke-linejoin="round" d="m302.72 283.551-15.089 12.617L241 240.397l15.089-12.617 46.631 55.771z"/><path fill="#FFEBD5" d="m287.767 296.054-15.089 12.617-46.631-55.771 15.089-12.617 46.631 55.771z"/><path fill="none" stroke="#353535" stroke-linecap="round" stroke-linejoin="round" d="m287.767 296.054-15.089 12.617-46.631-55.771 15.089-12.617 46.631 55.771z"/><path fill="#FFEBD5" d="m272.814 308.557-15.089 12.617-46.631-55.771 15.089-12.617 46.631 55.771z"/><path fill="none" stroke="#353535" stroke-linecap="round" stroke-linejoin="round" d="m272.814 308.557-15.089 12.617-46.631-55.771 15.089-12.617 46.631 55.771z"/><path fill="#FFEBD5" d="m257.86 321.059-15.089 12.617-46.631-55.771 15.089-12.617 46.631 55.771z"/><path fill="none" stroke="#353535" stroke-linecap="round" stroke-linejoin="round" d="m257.86 321.059-15.089 12.617-46.631-55.771 15.089-12.617 46.631 55.771z"/><path fill="#353535" d="m358.332 188.214-9.755 8.156-22.599-27.026 9.755-8.156 22.599 27.026zm-15.089 12.616-9.755 8.156-22.597-27.026 9.754-8.156 22.598 27.026zm-89.72 75.018-9.755 8.156-22.599-27.026 9.755-8.156 22.599 27.026zm-14.955 12.502-9.755 8.156-22.597-27.026 9.755-8.156 22.597 27.026zm74.904-62.627-9.755 8.156-22.599-27.026 9.755-8.156 22.599 27.026zm-14.955 12.502-9.755 8.156-22.597-27.026 9.755-8.156 22.597 27.026zm-15.02 12.56-9.755 8.156-22.599-27.026 9.755-8.156 22.599 27.026z"/><path fill="#FFEBD5" d="m452.39 158.408-15.089 12.617-46.631-55.771 15.089-12.617 46.631 55.771z"/><path fill="none" stroke="#353535" stroke-linecap="round" stroke-linejoin="round" d="m452.39 158.408-15.089 12.617-46.631-55.771 15.089-12.617 46.631 55.771z"/><path fill="#FFEBD5" d="m437.437 170.911-15.089 12.617-46.631-55.771 15.089-12.617 46.631 55.771z"/><path fill="none" stroke="#353535" stroke-linecap="round" stroke-linejoin="round" d="m437.437 170.911-15.089 12.617-46.631-55.771 15.089-12.617 46.631 55.771z"/><path fill="#FFEBD5" d="m422.484 183.414-15.089 12.617-46.631-55.771 15.089-12.617 46.631 55.771z"/><path fill="none" stroke="#353535" stroke-linecap="round" stroke-linejoin="round" d="m422.484 183.414-15.089 12.617-46.631-55.771 15.089-12.617 46.631 55.771z"/><path fill="#FFEBD5" d="m407.53 195.917-15.089 12.616-46.631-55.771 15.089-12.615 46.631 55.77z"/><path fill="none" stroke="#353535" stroke-linecap="round" stroke-linejoin="round" d="m407.53 195.917-15.089 12.616-46.631-55.771 15.089-12.615 46.631 55.77z"/><path fill="#353535" d="m418.281 138.089-9.755 8.156-22.599-27.026 9.755-8.156 22.599 27.026zm-14.954 12.503-9.755 8.156-22.597-27.026 9.755-8.156 22.597 27.026zm-15.02 12.559-9.755 8.156-22.599-27.026 9.755-8.156 22.599 27.026z"/></g></g></svg>