<svg xmlns="http://www.w3.org/2000/svg" style="width:100%;height:100%;content-visibility:visible" viewBox="0 0 602 830"><defs><clipPath id="__lottie_element__part_2"><path d="M0 0h602v830H0z"/></clipPath></defs><g clip-path="url(#__lottie_element__part_2)"><g display="block"><path fill="#FFEBD5" d="M212.118 311.144a8.634 8.634 0 1 1-8.634-8.634 8.633 8.633 0 0 1 8.634 8.634z"/><path fill="none" stroke="#353535" stroke-linecap="round" stroke-linejoin="round" d="M212.118 311.144a8.634 8.634 0 1 1-8.634-8.634 8.633 8.633 0 0 1 8.634 8.634z"/><path fill="#FFEBD5" d="M484.199 417.222c0 14.949-12.119 27.068-27.068 27.068-14.95 0-27.068-12.119-27.068-27.068 0-14.949 12.118-27.068 27.068-27.068 14.949 0 27.068 12.119 27.068 27.068z"/><path fill="none" stroke="#353535" stroke-linecap="round" stroke-linejoin="round" d="M484.199 417.222c0 14.949-12.119 27.068-27.068 27.068-14.95 0-27.068-12.119-27.068-27.068 0-14.949 12.118-27.068 27.068-27.068 14.949 0 27.068 12.119 27.068 27.068z"/><path fill="#353535" d="M279.788 554.523a7.467 7.467 0 1 1-14.934 0 7.467 7.467 0 0 1 14.934 0z"/></g><g display="block"><path fill="#FFEBD5" d="m289.424 431.483-49.858-130.986c-3.77-9.906 1.203-20.993 11.108-24.763 9.906-3.77 20.992 1.204 24.762 11.109l49.858 130.987a1.12 1.12 0 0 1-.649 1.445s-35.001 12.786-35.221 12.208z"/><path fill="none" stroke="#353535" stroke-linecap="round" stroke-linejoin="round" d="m289.424 431.483-49.858-130.986c-3.77-9.906 1.203-20.993 11.108-24.763 9.906-3.77 20.992 1.204 24.762 11.109l49.858 130.987a1.12 1.12 0 0 1-.649 1.445s-35.001 12.786-35.221 12.208z"/><path fill="#FFEBD5" d="m281.364 402.219 56.538-128.246c4.275-9.697 15.602-14.093 25.3-9.818s14.094 15.603 9.819 25.301l-56.537 128.245c-.25.566-35.369-14.917-35.12-15.482z"/><path fill="none" stroke="#353535" stroke-linecap="round" stroke-linejoin="round" d="m281.364 402.219 56.538-128.246c4.275-9.697 15.602-14.093 25.3-9.818s14.094 15.603 9.819 25.301l-56.537 128.245c-.25.566-35.369-14.917-35.12-15.482z"/><path fill="#FFEBD5" d="m342.989 407.369 6.796 139.99c.514 10.586-7.651 19.585-18.237 20.098-10.586.514-19.584-7.651-20.099-18.237l-6.795-139.99c-.031-.617 38.305-2.479 38.335-1.861z"/><path fill="none" stroke="#353535" stroke-linecap="round" stroke-linejoin="round" d="m342.989 407.369 6.796 139.99c.514 10.586-7.651 19.585-18.237 20.098-10.586.514-19.584-7.651-20.099-18.237l-6.795-139.99c-.031-.617 38.305-2.479 38.335-1.861z"/><path fill="#353535" d="m309.416 507.35.78 16.063c9.981 4.042 30.468 2.43 38.034-4.005l-.387-12.032-.001-.026h-38.426z"/><path fill="#FFEBD5" d="M296.306 394.554c-9.305 21.447-96.396 93.711-104.678 97.659-10.496 5.004-19.999 3.551-25.751-4.919-5.752-8.47-2.69-20.135 4.92-25.752 7.61-5.617 90.258-76.016 94.981-88.029 4.723-12.013 39.833-.406 30.528 21.041z"/><path fill="none" stroke="#353535" stroke-linecap="round" stroke-linejoin="round" d="M296.306 394.554c-9.305 21.447-96.396 93.711-104.678 97.659-10.496 5.004-19.999 3.551-25.751-4.919-5.752-8.47-2.69-20.135 4.92-25.752 7.61-5.617 90.258-76.016 94.981-88.029 4.723-12.013 39.833-.406 30.528 21.041z"/><path fill="#353535" d="M193.124 443.65c-.373 10.349 10.849 39.967 11.335 39.673l14.014-13.308c-5.996-11.722-15.472-16.766-25.349-26.365z"/><path fill="#FFEBD5" d="M402.532 414.449c0 59.153-47.953 107.105-107.105 107.105-59.153 0-107.105-47.952-107.105-107.105 0-59.153 47.952-107.105 107.105-107.105 59.152 0 107.105 47.952 107.105 107.105z"/><path fill="none" stroke="#353535" stroke-linecap="round" stroke-linejoin="round" d="M402.532 414.449c0 59.153-47.953 107.105-107.105 107.105-59.153 0-107.105-47.952-107.105-107.105 0-59.153 47.952-107.105 107.105-107.105 59.152 0 107.105 47.952 107.105 107.105z"/><path fill="#353535" d="M303.371 429.344c2.003 1.493-7.613 1.737-5.393 2.573 10.189 3.836 20.341 1.512 27.009-7.434 8.122-10.894 5.451-27.148-5.745-35.495 0 0-13.071-12.445-30.222 1.051"/><path fill="#FFEBD5" d="M298.99 431.783c13.801 1.403 26.126-8.647 27.53-22.448 1.403-13.802-8.647-26.127-22.448-27.53 0 0-18.997-3.054-26.791 17.776"/><path fill="none" stroke="#353535" stroke-linecap="round" stroke-linejoin="round" d="M298.99 431.783c13.801 1.403 26.126-8.647 27.53-22.448 1.403-13.802-8.647-26.127-22.448-27.53 0 0-18.997-3.054-26.791 17.776"/><path fill="#353535" d="m324.781 466.097 30.079 37.671s3.048-2.404 6.588-4.977c3.541-2.573 2.574-3.863 2.574-3.863l-38.802-29.213c-.256-.193-.594.101-.439.382zm74.984-75.943-4.797-16.708h-51.21c-.722 0-.861 1.027-.165 1.219l56.172 15.489z"/><path fill="#FFEBD5" d="m369.483 417.221 59.627 52.417c13.696 12.04 15.04 32.901 3 46.597-12.039 13.696-32.902 15.039-46.598 3l-60.525-53.202"/><path fill="none" stroke="#353535" stroke-linecap="round" stroke-linejoin="round" d="m369.483 417.221 59.627 52.417c13.696 12.04 15.04 32.901 3 46.597-12.039 13.696-32.902 15.039-46.598 3l-60.525-53.202"/><path fill="#FFEBD5" d="M295.427 307.344h111.851c18.253 0 33.051 14.797 33.051 33.052 0 18.254-14.798 33.052-33.051 33.052h-64.02"/><path fill="none" stroke="#353535" stroke-linecap="round" stroke-linejoin="round" d="M295.427 307.344h111.851c18.253 0 33.051 14.797 33.051 33.052 0 18.254-14.798 33.052-33.051 33.052h-64.02"/><path fill="#FFEBD5" d="M297.757 521.555h-73.722c-12.031 0-21.784-9.753-21.784-21.784 0-12.031 9.753-21.786 21.784-21.786h42.196"/><path fill="none" stroke="#353535" stroke-linecap="round" stroke-linejoin="round" d="M297.757 521.555h-73.722c-12.031 0-21.784-9.753-21.784-21.784 0-12.031 9.753-21.786 21.784-21.786h42.196"/><path fill="#353535" d="m189.747 431.915-.956-7.432h49.451c.337 0 .372.492.038.539l-48.533 6.893z"/><path fill="#FFEBD5" d="M238.306 424.482h-87.485c-18.236 0-33.019-14.782-33.019-33.017 0-18.236 14.783-33.019 33.019-33.019h87.485"/><path fill="none" stroke="#353535" stroke-linecap="round" stroke-linejoin="round" d="M238.306 424.482h-87.485c-18.236 0-33.019-14.782-33.019-33.017 0-18.236 14.783-33.019 33.019-33.019h87.485"/></g></g></svg>