<svg xmlns="http://www.w3.org/2000/svg" style="width:100%;height:100%;content-visibility:visible" viewBox="0 0 602 650"><defs><clipPath id="__lottie_element__path_2"><path d="M0 0h602v650H0z"/></clipPath><clipPath id="__lottie_element__path_4"><path d="M0 0h1000v650H0z"/></clipPath><clipPath id="__lottie_element__path_5"><path fill="#fff" d="M802 0H201v650h601V0"/></clipPath></defs><g clip-path="url(#__lottie_element__path_2)"><path fill="#353535" d="M301.973 582.712h-.001c-133.368 0-241.484-108.116-241.484-241.484v-37.311c0-133.369 108.116-241.485 241.484-241.485h.001c133.367 0 241.483 108.116 241.483 241.485v37.311c0 133.368-108.116 241.484-241.483 241.484z" display="block"/><g clip-path="url(#__lottie_element__path_4)" display="block" transform="translate(-199)"><g clip-path="url(#__lottie_element__path_5)"><g display="block"><path fill="#353535" d="m110.359 278.718 185.998-50.697 55.677 31.24 39.097-31.43 35.213 7.527-35.621-20.004-44.814 18.011-47.564-52.198-188.437-4.743"/><path fill="none" stroke="#FFEBD5" stroke-linecap="round" stroke-linejoin="round" d="m110.359 278.718 185.998-50.697 55.677 31.24 39.097-31.43 35.213 7.527-35.621-20.004-44.814 18.011-47.564-52.198-188.437-4.743"/><path fill="#353535" d="m801.499 125.347-98.742 46.833-54.359-33.479-40.343 29.813-34.878-8.956 34.777 21.437 45.509-16.17 45.4 54.09 102.636 12.324"/><path fill="none" stroke="#FFEBD5" stroke-linecap="round" stroke-linejoin="round" d="m801.499 125.347-98.742 46.833-54.359-33.479-40.343 29.813-34.878-8.956 34.777 21.437 45.509-16.17 45.4 54.09 102.636 12.324"/></g><g display="block"><path fill="#353535" d="m517.457 480.214 15.35 38.194-44.488 40.541L477.949 650h102.622l-52.319-89.356 26.628-47.454-26.79-33.323 6.417-30.014-17.05 30.361z"/><path fill="none" stroke="#FFEBD5" stroke-linecap="round" stroke-linejoin="round" d="m580.944 650.636-52.691-89.991 26.627-47.455-26.79-33.323 6.416-30.013-17.049 30.361 15.35 38.194-44.488 40.539-10.491 92.114"/></g><g display="block"><path fill="#FFEBD5" d="M730.534 158.943h-96.1a8.708 8.708 0 1 1 0-17.417c2.86.114 5.066-1.829 5.066-4.276 0-2.448-1.95-4.432-4.355-4.432h-14.611a8.708 8.708 0 0 1-8.708-8.709 8.707 8.707 0 0 1 8.708-8.708h36.678c2.074 0 3.756-1.712 3.756-3.823 0-1.701-1.216-3.643-2.785-3.688a7.511 7.511 0 0 1 0-15.023h86.814a7.512 7.512 0 0 1 0 15.023c-2.467-.098-4.369 1.576-4.369 3.688 0 2.111 1.681 3.823 3.756 3.823h.012-.238 44.033a8.709 8.709 0 1 1 0 17.417h-40.423c-2.404 0-4.353 1.984-4.353 4.432 0 1.971 1.409 4.224 3.227 4.276a8.71 8.71 0 0 1 7.818 4.866"/><path fill="none" stroke="#353535" stroke-linecap="round" stroke-linejoin="round" d="M730.534 158.943h-96.1a8.708 8.708 0 1 1 0-17.417c2.86.114 5.066-1.829 5.066-4.276 0-2.448-1.95-4.432-4.355-4.432h-14.611a8.708 8.708 0 0 1-8.708-8.709 8.707 8.707 0 0 1 8.708-8.708h36.678c2.074 0 3.756-1.712 3.756-3.823 0-1.701-1.216-3.643-2.785-3.688a7.511 7.511 0 0 1 0-15.023h86.814a7.512 7.512 0 0 1 0 15.023c-2.467-.098-4.369 1.576-4.369 3.688 0 2.111 1.681 3.823 3.756 3.823h.012-.238 44.033a8.709 8.709 0 1 1 0 17.417h-40.423c-2.404 0-4.353 1.984-4.353 4.432 0 1.971 1.409 4.224 3.227 4.276a8.71 8.71 0 0 1 7.818 4.866"/></g><g display="block"><path fill="#FFEBD5" d="M549.14 72.798c0-6.958-5.641-12.598-12.598-12.598h-70.559a8.074 8.074 0 0 1 0-16.148h2.283c6.958 0 12.598-5.64 12.598-12.597 0-6.958-5.64-12.598-12.598-12.598H328.008c-6.957 0-12.597 5.64-12.597 12.598 0 6.957 5.64 12.597 12.597 12.597h2.155a8.074 8.074 0 0 1 0 16.148h-70.559c-6.958 0-12.598 5.64-12.598 12.598 0 6.958 5.64 12.598 12.598 12.598h36.922a8.074 8.074 0 0 1 0 16.148h-4.406c-6.957 0-12.598 5.64-12.598 12.598 0 6.957 5.641 12.597 12.598 12.597h208.076c6.958 0 12.598-5.64 12.598-12.597 0-6.958-5.64-12.598-12.598-12.598h-.576a8.074 8.074 0 0 1 0-16.148h36.922c6.957 0 12.598-5.64 12.598-12.598z"/><path fill="none" stroke="#353535" stroke-linecap="round" stroke-linejoin="round" d="M549.14 72.798s0 0 0 0c0-6.958-5.641-12.598-12.598-12.598h-70.559a8.074 8.074 0 0 1 0-16.148h2.283c6.958 0 12.598-5.64 12.598-12.597 0-6.958-5.64-12.598-12.598-12.598H328.008c-6.957 0-12.597 5.64-12.597 12.598 0 6.957 5.64 12.597 12.597 12.597h2.155a8.074 8.074 0 0 1 0 16.148h-70.559c-6.958 0-12.598 5.64-12.598 12.598 0 6.958 5.64 12.598 12.598 12.598h36.922a8.074 8.074 0 0 1 0 16.148h-4.406c-6.957 0-12.598 5.64-12.598 12.598 0 6.957 5.641 12.597 12.598 12.597h208.076c6.958 0 12.598-5.64 12.598-12.597 0-6.958-5.64-12.598-12.598-12.598h-.576a8.074 8.074 0 0 1 0-16.148h36.922c6.957 0 12.598-5.64 12.598-12.598z"/><path fill="#353535" d="M285.907 43.574h-53.459c-6.826 0-12.358-5.532-12.358-12.358 0-6.825 5.532-12.358 12.358-12.358h53.459c6.825 0 12.357 5.533 12.357 12.358 0 6.826-5.532 12.358-12.357 12.358z"/><path fill="none" stroke="#FFEBD5" stroke-linecap="round" stroke-linejoin="round" d="M285.907 43.574h-53.459c-6.826 0-12.358-5.532-12.358-12.358 0-6.825 5.532-12.358 12.358-12.358h53.459c6.825 0 12.357 5.533 12.357 12.358 0 6.826-5.532 12.358-12.357 12.358z"/><path fill="#FFEBD5" d="M386.342 166.405h-14.37c-6.826 0-12.359-5.532-12.359-12.358 0-6.825 5.533-12.358 12.359-12.358h14.37c6.826 0 12.359 5.533 12.359 12.358 0 6.826-5.533 12.358-12.359 12.358z"/><path fill="none" stroke="#353535" stroke-linecap="round" stroke-linejoin="round" d="M386.342 166.405h-14.37c-6.826 0-12.359-5.532-12.359-12.358 0-6.825 5.533-12.358 12.359-12.358h14.37c6.826 0 12.359 5.533 12.359 12.358 0 6.826-5.533 12.358-12.359 12.358z"/></g><g display="block"><path fill="#FFEBD5" d="m238.437 500.833 6.449-47.39 35.541 23.695"/><path fill="none" stroke="#353535" stroke-linecap="round" stroke-linejoin="round" d="m238.437 500.833 6.449-47.39 35.541 23.695"/><path fill="#FFEBD5" d="m200.682 517.374 156.336-88.22 29.905-95.696 157.853-16.817-71.379 47.702 13.708 136.584-100.182 145.134"/><path fill="none" stroke="#353535" stroke-linecap="round" stroke-linejoin="round" d="m200.682 517.374 156.336-88.22 29.905-95.696 157.853-16.817-71.379 47.702 13.708 136.584-100.182 145.134"/><path fill="#FFEBD5" d="m333.174 569.967-61.58 26.298 8.867-65.108"/><path fill="none" stroke="#353535" stroke-linecap="round" stroke-linejoin="round" d="m333.174 569.967-61.58 26.298 8.867-65.108"/><path fill="#FFEBD5" d="m402.217 468.725 30.362 30.793-41.338 17.421"/><path fill="none" stroke="#353535" stroke-linecap="round" stroke-linejoin="round" d="m402.217 468.725 30.362 30.793-41.338 17.421"/><path fill="#FFEBD5" d="m461.532 421.528 30.594 5.313-16.878 27.435"/><path fill="none" stroke="#353535" stroke-linecap="round" stroke-linejoin="round" d="m461.532 421.528 30.594 5.313-16.878 27.435"/><path fill="#FFEBD5" d="m445.406 550.618 16.655 45.646-42.368-5.482"/><path fill="none" stroke="#353535" stroke-linecap="round" stroke-linejoin="round" d="m445.406 550.618 16.655 45.646-42.368-5.482"/><path fill="#FFEBD5" d="m372.482 401.408-12.375-39.634 35.942 6.389"/><path fill="none" stroke="#353535" stroke-linecap="round" stroke-linejoin="round" d="m372.482 401.408-12.375-39.634 35.942 6.389"/><path fill="#FFEBD5" d="m428.74 336.346 7.65-23.56 15.628 16.276"/><path fill="none" stroke="#353535" stroke-linecap="round" stroke-linejoin="round" d="m428.74 336.346 7.65-23.56 15.628 16.276"/></g><g display="block"><path fill="#FFEBD5" d="m492.261 172.596-19.112-3.747 10.734-13.259"/><path fill="none" stroke="#353535" stroke-linecap="round" stroke-linejoin="round" d="m492.261 172.596-19.112-3.747 10.734-13.259"/><path fill="#FFEBD5" d="m466.049 135.705 16.448-13.458-1.807 15.686"/><path fill="none" stroke="#353535" stroke-linecap="round" stroke-linejoin="round" d="m466.049 135.705 16.448-13.458-1.807 15.686"/><path fill="#F3E7D6" d="m543.881 172.997 7.824-8.904 7.824 24.74"/><path fill="none" stroke="#353535" stroke-linecap="round" stroke-linejoin="round" d="m543.881 172.997 7.824-8.904 7.824 24.74"/><path fill="#FFEBD5" d="m607.171 454.56-20.43 21.483 15.859 7.567"/><path fill="none" stroke="#353535" stroke-linecap="round" stroke-linejoin="round" d="m607.171 454.56-20.43 21.483 15.859 7.567"/><path fill="#FFEBD5" d="m697.639 405.909 46.51-15.93-7.389 63.294"/><path fill="none" stroke="#353535" stroke-linecap="round" stroke-linejoin="round" d="m697.639 405.909 46.51-15.93-7.389 63.294"/><path fill="#FFEBD5" d="m568.236 680.062 41.479-241.672-83.649-66.679-1.02-166.857-103.459-97.25 163.428 84.995 47.356 129.02 70.81 56.034 113.936 129.973"/><path fill="none" stroke="#353535" stroke-linecap="round" stroke-linejoin="round" d="m568.236 680.062 41.479-241.672-83.649-66.679-1.02-166.857-103.459-97.25 163.428 84.995 47.356 129.02 70.81 56.034 113.936 129.973"/><path fill="#FFEBD5" d="m770.866 495.079 16.576-48.526-47.378 3.284"/><path fill="none" stroke="#353535" stroke-linecap="round" stroke-linejoin="round" d="m770.866 495.079 16.576-48.526-47.378 3.284"/><path fill="#FFEBD5" d="m645.548 346.615 38.838-15.036-8.07 40.063"/><path fill="none" stroke="#353535" stroke-linecap="round" stroke-linejoin="round" d="m645.548 346.615 38.838-15.036-8.07 40.063"/><path fill="#FFEBD5" d="m553.774 383.091-3.838 49.714 47.476-20.797"/><path fill="none" stroke="#353535" stroke-linecap="round" stroke-linejoin="round" d="m553.774 383.091-3.838 49.714 47.476-20.797"/><path fill="#FFEBD5" d="m532.834 261.349-26.474 27.765 38.416 10.701"/><path fill="none" stroke="#353535" stroke-linecap="round" stroke-linejoin="round" d="m532.834 261.349-26.474 27.765 38.416 10.701"/><path fill="#FFEBD5" d="m597.885 276.747 37.376-4.258-19.626 31.874"/><path fill="none" stroke="#353535" stroke-linecap="round" stroke-linejoin="round" d="m597.885 276.747 37.376-4.258-19.626 31.874"/><path fill="#FFEBD5" d="m585.353 358.466-13.34-27.494 29.716 6.446"/><path fill="none" stroke="#353535" stroke-linecap="round" stroke-linejoin="round" d="m585.353 358.466-13.34-27.494 29.716 6.446"/><path fill="#FFEBD5" d="m553.528 232.212 21.176-22.034 4.24 30.11"/><path fill="none" stroke="#353535" stroke-linecap="round" stroke-linejoin="round" d="m553.528 232.212 21.176-22.034 4.24 30.11"/><path fill="#FFEBD5" d="m499.297 151.076 17.66-11.612-1.599 28.752"/><path fill="none" stroke="#353535" stroke-linecap="round" stroke-linejoin="round" d="m499.297 151.076 17.66-11.612-1.599 28.752"/><path fill="#FFEBD5" d="m525.996 197.379-17.87 2.341 8.431-15.766"/><path fill="none" stroke="#353535" stroke-linecap="round" stroke-linejoin="round" d="m525.996 197.379-17.87 2.341 8.431-15.766"/></g><g display="block"><path fill="#FFEBD5" d="m577.566 24.383 30.825 75.995 11.517-99.301L477.256.666l100.31 23.717z"/><path fill="none" stroke="#353535" stroke-linecap="round" stroke-linejoin="round" d="m619.91 1.077-11.518 99.301-30.826-75.994L477.256.666"/><path fill="#FFEBD5" d="m549.534 4.576-12.112 21.958-16.5-20.11"/><path fill="none" stroke="#353535" stroke-linecap="round" stroke-linejoin="round" d="m549.534 4.576-12.112 21.958-16.5-20.11"/><path fill="#FFEBD5" d="m611.961 4.576 15.71 7.182-10.316 11.348"/><path fill="none" stroke="#353535" stroke-linecap="round" stroke-linejoin="round" d="m611.961 4.576 15.71 7.182-10.316 11.348"/><path fill="#FFEBD5" d="m602.598 44.287-25.034 7.577 4.222-22.606"/><path fill="none" stroke="#353535" stroke-linecap="round" stroke-linejoin="round" d="m602.598 44.287-25.034 7.577 4.222-22.606"/></g><g display="block"><path fill="#FFEBD5" d="M569.139 350.547c0-6.957-5.641-12.598-12.598-12.598h-70.559a8.074 8.074 0 0 1 0-16.148h2.283c6.958 0 12.598-5.64 12.598-12.597 0-6.958-5.64-12.598-12.598-12.598H348.007c-6.957 0-12.597 5.64-12.597 12.598 0 6.957 5.64 12.597 12.597 12.597h2.155a8.074 8.074 0 0 1 0 16.148h-70.559c-6.958 0-12.598 5.641-12.598 12.598 0 6.958 5.64 12.598 12.598 12.598h36.922a8.074 8.074 0 0 1 0 16.148h-4.406c-6.957 0-12.598 5.64-12.598 12.598 0 6.958 5.641 12.597 12.598 12.597h208.076c6.958 0 12.598-5.639 12.598-12.597 0-6.958-5.64-12.598-12.598-12.598h-.576a8.074 8.074 0 0 1 0-16.148h36.922c6.957 0 12.598-5.64 12.598-12.598z"/><path fill="none" stroke="#353535" stroke-linecap="round" stroke-linejoin="round" d="M569.139 350.547s0 0 0 0c0-6.957-5.641-12.598-12.598-12.598h-70.559a8.074 8.074 0 0 1 0-16.148h2.283c6.958 0 12.598-5.64 12.598-12.597 0-6.958-5.64-12.598-12.598-12.598H348.007c-6.957 0-12.597 5.64-12.597 12.598 0 6.957 5.64 12.597 12.597 12.597h2.155a8.074 8.074 0 0 1 0 16.148h-70.559c-6.958 0-12.598 5.641-12.598 12.598 0 6.958 5.64 12.598 12.598 12.598h36.922a8.074 8.074 0 0 1 0 16.148h-4.406c-6.957 0-12.598 5.64-12.598 12.598 0 6.958 5.641 12.597 12.598 12.597h208.076c6.958 0 12.598-5.639 12.598-12.597 0-6.958-5.64-12.598-12.598-12.598h-.576a8.074 8.074 0 0 1 0-16.148h36.922c6.957 0 12.598-5.64 12.598-12.598z"/><path fill="#FFEBD5" d="M305.906 321.323h-53.459c-6.826 0-12.358-5.532-12.358-12.358 0-6.825 5.532-12.358 12.358-12.358h53.459c6.825 0 12.357 5.533 12.357 12.358 0 6.826-5.532 12.358-12.357 12.358z"/><path fill="none" stroke="#353535" stroke-linecap="round" stroke-linejoin="round" d="M305.906 321.323h-53.459c-6.826 0-12.358-5.532-12.358-12.358 0-6.825 5.532-12.358 12.358-12.358h53.459c6.825 0 12.357 5.533 12.357 12.358 0 6.826-5.532 12.358-12.357 12.358z"/></g><g display="block"><path fill="#FFEBD5" d="M801.263 621.964H630.265c-12.962 0-23.47-10.508-23.47-23.47s10.508-23.469 23.47-23.469c7.706.307 13.651-4.928 13.651-11.526 0-6.597-5.253-11.944-11.734-11.944h-39.377c-12.962 0-23.47-10.508-23.47-23.47s10.508-23.47 23.47-23.47h71.98c5.59 0 10.122-4.613 10.122-10.302 0-4.583-3.276-9.82-7.504-9.941-11.18 0-20.244-9.063-20.244-20.243 0-11.181 9.064-20.243 20.244-20.243h133.86"/><path fill="none" stroke="#353535" stroke-linecap="round" stroke-linejoin="round" d="M801.263 621.964H630.265c-12.962 0-23.47-10.508-23.47-23.47s10.508-23.469 23.47-23.469c7.706.307 13.651-4.928 13.651-11.526 0-6.597-5.253-11.944-11.734-11.944h-39.377c-12.962 0-23.47-10.508-23.47-23.47s10.508-23.47 23.47-23.47h71.98c5.59 0 10.122-4.613 10.122-10.302 0-4.583-3.276-9.82-7.504-9.941-11.18 0-20.244-9.063-20.244-20.243 0-11.181 9.064-20.243 20.244-20.243h133.86"/></g><g display="block"><path fill="#FFEBD5" d="M801.262 258.845h-59.404c-6.958 0-12.598 5.641-12.598 12.599s5.64 12.598 12.598 12.598h.576a8.073 8.073 0 0 1 8.073 8.074 8.073 8.073 0 0 1-8.073 8.074h-36.923c-6.957 0-12.597 5.639-12.597 12.596 0 6.958 5.64 12.599 12.597 12.599h70.56a8.072 8.072 0 0 1 8.073 8.073 8.073 8.073 0 0 1-8.073 8.074h-2.284c-6.958 0-12.597 5.641-12.597 12.598 0 6.958 5.639 12.599 12.597 12.599h27.475"/><path fill="none" stroke="#353535" stroke-linecap="round" stroke-linejoin="round" d="M801.262 258.845h-59.404c-6.958 0-12.598 5.641-12.598 12.599s5.64 12.598 12.598 12.598h.576a8.073 8.073 0 0 1 8.073 8.074 8.073 8.073 0 0 1-8.073 8.074h-36.923c-6.957 0-12.597 5.639-12.597 12.596 0 6.958 5.64 12.599 12.597 12.599h70.56a8.072 8.072 0 0 1 8.073 8.073 8.073 8.073 0 0 1-8.073 8.074h-2.284c-6.958 0-12.597 5.641-12.597 12.598 0 6.958 5.639 12.599 12.597 12.599h27.475"/><path fill="#353535" d="M682.406 258.845h14.37c6.826 0 12.358 5.533 12.358 12.359s-5.532 12.359-12.358 12.359h-14.37c-6.825 0-12.358-5.533-12.358-12.359s5.533-12.359 12.358-12.359z"/><path fill="none" stroke="#FFEBD5" stroke-linecap="round" stroke-linejoin="round" d="M682.406 258.845h14.37c6.826 0 12.358 5.533 12.358 12.359s-5.532 12.359-12.358 12.359h-14.37c-6.825 0-12.358-5.533-12.358-12.359s5.533-12.359 12.358-12.359z"/></g></g></g></g></svg>