<svg xmlns="http://www.w3.org/2000/svg" style="width:100%;height:100%;content-visibility:visible" viewBox="0 0 559 390"><defs><clipPath id="__lottie_element__vehicle_2"><path d="M0 0h559v390H0z"/></clipPath></defs><g clip-path="url(#__lottie_element__vehicle_2)"><path fill="none" stroke="#353535" stroke-linecap="round" stroke-linejoin="round" d="M512.773 343.962H44.015" display="block"/><g display="block"><path fill="#FFEBD5" d="M124.635 302.373c-11.646 0-21.086-9.44-21.086-21.086 0-11.645 9.44-21.086 21.086-21.086 11.646 0 21.086 9.441 21.086 21.086 0 11.646-9.44 21.086-21.086 21.086z"/><path fill="none" stroke="#353535" stroke-linecap="round" stroke-linejoin="round" d="M124.635 302.373c-11.646 0-21.086-9.44-21.086-21.086 0-11.645 9.44-21.086 21.086-21.086 11.646 0 21.086 9.441 21.086 21.086 0 11.646-9.44 21.086-21.086 21.086z"/><path fill="#353535" d="M124.635 210.502c-39.094 0-70.786 31.691-70.786 70.785 0 39.094 31.692 70.787 70.786 70.787s70.786-31.693 70.786-70.787c0-39.094-31.692-70.785-70.786-70.785zm0 124.37c-29.594 0-53.585-23.99-53.585-53.585 0-29.594 23.991-53.584 53.585-53.584s53.585 23.99 53.585 53.584c0 29.595-23.991 53.585-53.585 53.585z"/></g><path fill="#353535" d="M435.102 210.502c-39.095 0-70.787 31.691-70.787 70.785 0 39.094 31.692 70.787 70.787 70.787 39.094 0 70.785-31.693 70.785-70.787 0-39.094-31.691-70.785-70.785-70.785zm0 124.37c-29.595 0-53.586-23.99-53.586-53.585 0-29.594 23.991-53.584 53.586-53.584 29.594 0 53.584 23.99 53.584 53.584 0 29.595-23.99 53.585-53.584 53.585z" display="block"/><g display="block"><path fill="#FFEBD5" d="m385.483 146.675-8.923 3.465 15.66 40.329 8.922-3.464-15.659-40.33z"/><path fill="none" stroke="#353535" stroke-linecap="round" stroke-linejoin="round" d="m385.483 146.675-8.923 3.465 15.66 40.329 8.922-3.464-15.659-40.33z"/><path fill="#353535" d="m385.482 146.674-8.923 3.466 3.872 9.874 9.696-1.378-4.645-11.962z"/><path fill="#FFEBD5" d="m420.163 235.574-8.013 3.112 14.064 36.216 8.012-3.112-14.063-36.216z"/><path fill="none" stroke="#353535" stroke-linecap="round" stroke-linejoin="round" d="m420.163 235.574-8.013 3.112 14.064 36.216 8.012-3.112-14.063-36.216z"/><path fill="#353535" d="m420.163 235.574-8.013 3.112 3.288 8.178 8.418-1.471-3.693-9.819z"/><path fill="#FFEBD5" d="m401.659 180.502-13.02 5.056 21.691 55.86a6.984 6.984 0 1 0 13.018-5.056l-21.689-55.86z"/><path fill="none" stroke="#353535" stroke-linecap="round" stroke-linejoin="round" d="m401.659 180.502-13.02 5.056 21.691 55.86a6.984 6.984 0 1 0 13.018-5.056l-21.689-55.86z"/><path fill="#353535" d="m388.773 185.691 7.381 8.306-.357-9.086 6.77 6.592-.774-10.868-13.02 5.056z"/></g><g display="block"><path fill="#FFEBD5" d="m455.167 282.762.356-1.96-1.425-1.603.713-1.248-1.425-1.602.712-2.139-3.029-.89 1.426-2.495-1.426-.89.748-1.495c-3.855-5.009-9.907-8.24-16.715-8.24-11.647 0-21.087 9.441-21.087 21.086 0 11.646 9.44 21.086 21.087 21.086 11.08 0 20.157-8.547 21.013-19.407l-.948-.203z"/><path fill="none" stroke="#353535" stroke-linecap="round" stroke-linejoin="round" d="m455.167 282.762.356-1.96-1.425-1.603.713-1.248-1.425-1.602.712-2.139-3.029-.89 1.426-2.495-1.426-.89.748-1.495c-3.855-5.009-9.907-8.24-16.715-8.24-11.647 0-21.087 9.441-21.087 21.086 0 11.646 9.44 21.086 21.087 21.086 11.08 0 20.157-8.547 21.013-19.407l-.948-.203z"/><path fill="none" stroke="#353535" stroke-linecap="round" stroke-linejoin="round" d="m450.713 273.417-5.184 1.827-.801 2.138-3.101 1.55-3.848 1.923"/><path fill="none" stroke="#353535" stroke-linecap="round" stroke-linejoin="round" d="m441.627 278.932-1.176-1.684-6.146 3.074"/></g><g display="block"><path fill="#FFEBD5" d="m148.148 230.571-7.462-2.896 13.097-33.726 7.461 2.897-13.096 33.725z"/><path fill="none" stroke="#353535" stroke-linecap="round" stroke-linejoin="round" d="m148.148 230.571-7.462-2.896 13.097-33.726 7.461 2.897-13.096 33.725z"/><path fill="#353535" d="m156.358 209.427-7.462-2.896 4.886-12.582 7.462 2.897-4.886 12.581z"/><path fill="#FFEBD5" d="M122.386 285.403a6.503 6.503 0 0 1-3.701-8.434l20.306-51.839a6.503 6.503 0 1 1 12.124 4.708l-20.32 51.875a6.504 6.504 0 0 1-8.409 3.69z"/><path fill="none" stroke="#353535" stroke-linecap="round" stroke-linejoin="round" d="M122.386 285.403s0 0 0 0a6.503 6.503 0 0 1-3.701-8.434l20.306-51.839a6.503 6.503 0 1 1 12.124 4.708l-20.32 51.875a6.504 6.504 0 0 1-8.409 3.69z"/><path fill="#FFEBD5" d="m371.33 135.203-6.629 5.218c.156-.031-1.178 1.307-1.178 1.307l7.376 23.273-2.137.802.267 5.344-3.741-1.603-1.069 3.207-4.009-1.069-1.87 3.207-1.773-1.182-101.468 56.588 9.559 33.218a17.923 17.923 0 0 0 11.084-4.08l102.628-84.419a4.43 4.43 0 0 0 1.615-3.421l-1.425-32.959c0-3.734-4.337-5.793-7.23-3.431z"/><path fill="none" stroke="#353535" stroke-linecap="round" stroke-linejoin="round" d="m371.33 135.203-6.629 5.218c.156-.031-1.178 1.307-1.178 1.307l7.376 23.273-2.137.802.267 5.344-3.741-1.603-1.069 3.207-4.009-1.069-1.87 3.207-1.773-1.182-101.468 56.588 9.559 33.218a17.923 17.923 0 0 0 11.084-4.08l102.628-84.419a4.43 4.43 0 0 0 1.615-3.421l-1.425-32.959c0-3.734-4.337-5.793-7.23-3.431z"/><path fill="#FFEBD5" d="M65.234 190.47v14.268H48.228L36.5 221.158h38.498a6.656 6.656 0 0 0 6.656-6.656V190.47h-16.42z"/><path fill="none" stroke="#353535" stroke-linecap="round" stroke-linejoin="round" d="M65.234 190.47v14.268H48.228L36.5 221.158h38.498a6.656 6.656 0 0 0 6.656-6.656V190.47h-16.42z"/><path fill="#353535" d="M65.234 190.47v7.49l16.42 6.414V190.47h-16.42z"/><path fill="#FFEBD5" d="M84.446 184.141v-22.604a6.86 6.86 0 0 1 6.859-6.86l7.393-.126s7.625-4.608 16.64-4.608c8.383 0 13.941 4.734 13.941 4.734s4.97-4.839 16.421-4.729c9.403.09 13.522 4.729 13.522 4.729s1.509-1.077 5.092-2.203c.907-.285 4.38 5.401 4.291 5.401-.126 0 .761-6.667 1.855-6.857.891-.153 4.05 5.763 4.113 5.7.089-.089 1.088-6.498 2.226-6.593 1.256-.105 4.366 5.879 4.366 5.879 0 .09 1.823-6.056 3.134-6.056 10.848-.001 16.771 2.713 19.968 5.353 2.307 1.906 3.611 4.758 3.611 7.75v33.424"/><path fill="none" stroke="#353535" stroke-linecap="round" stroke-linejoin="round" d="M84.446 184.141v-22.604a6.86 6.86 0 0 1 6.859-6.86l7.393-.126s7.625-4.608 16.64-4.608c8.383 0 13.941 4.734 13.941 4.734s4.97-4.839 16.421-4.729c9.403.09 13.522 4.729 13.522 4.729s1.509-1.077 5.092-2.203c.907-.285 4.38 5.401 4.291 5.401-.126 0 .761-6.667 1.855-6.857.891-.153 4.05 5.763 4.113 5.7.089-.089 1.088-6.498 2.226-6.593 1.256-.105 4.366 5.879 4.366 5.879 0 .09 1.823-6.056 3.134-6.056 10.848-.001 16.771 2.713 19.968 5.353 2.307 1.906 3.611 4.758 3.611 7.75v33.424"/><path fill="#FFEBD5" d="M126.027 308.97h-22.968a6.939 6.939 0 1 1 0-13.878h22.968v13.878z"/><path fill="none" stroke="#353535" stroke-linecap="round" stroke-linejoin="round" d="M126.027 308.97h-22.968a6.939 6.939 0 1 1 0-13.878h22.968v13.878z"/><path fill="#FFEBD5" d="m363.919 141.195-8.055 6.575.247-.05.536 2.406-2.138.801.266 5.345-3.741-1.603-1.068 3.206-4.009-1.069-1.871 3.207-1.772-1.182-86.103 70.288h-63.92v13.53c0 16.09 13.188 29.058 29.276 28.788l34.254-.576a17.929 17.929 0 0 0 11.085-4.079l102.627-84.42a4.425 4.425 0 0 0 1.616-3.42v-34.316c0-3.734-4.337-5.793-7.23-3.431z"/><path fill="none" stroke="#353535" stroke-linecap="round" stroke-linejoin="round" d="m363.919 141.195-8.055 6.575.247-.05.536 2.406-2.138.801.266 5.345-3.741-1.603-1.068 3.206-4.009-1.069-1.871 3.207-1.772-1.182-86.103 70.288h-63.92v13.53c0 16.09 13.188 29.058 29.276 28.788l34.254-.576a17.929 17.929 0 0 0 11.085-4.079l102.627-84.42a4.425 4.425 0 0 0 1.616-3.42v-34.316c0-3.734-4.337-5.793-7.23-3.431z"/><path fill="#FFEBD5" d="M265.298 253.141v15.152c.136-.104.277-.202.41-.311l11.838-9.781v-14.474c-3.196 2.323-8.065 6.106-12.248 9.414z"/><path fill="none" stroke="#353535" stroke-linecap="round" stroke-linejoin="round" d="M265.298 253.141v15.152c.136-.104.277-.202.41-.311l11.838-9.781v-14.474c-3.196 2.323-8.065 6.106-12.248 9.414z"/><path fill="#353535" d="m292.918 234.101 40.705-33.483a9.156 9.156 0 0 0 3.338-7.069c0-7.718-8.963-11.971-14.941-7.091l-40.719 33.527a9.14 9.14 0 0 0-1.865 12.02c2.965 4.586 9.264 5.565 13.482 2.096z"/><path fill="#FFEBD5" d="m228.943 236.45-5.781-37.898a16.485 16.485 0 0 0-16.297-14H60.933v9.969l131.359 15.539v21.992"/><path fill="none" stroke="#353535" stroke-linecap="round" stroke-linejoin="round" d="m228.943 236.45-5.781-37.898a16.485 16.485 0 0 0-16.297-14H60.933v9.969l131.359 15.539v21.992"/><path fill="#FFEBD5" d="m154.847 300.296 87.553 4.312c10.404.512 19.12-7.784 19.12-18.201v-17.418l-106.673 5.254c-6.945.342-12.401 6.074-12.401 13.028 0 6.954 5.456 12.683 12.401 13.025z"/><path fill="none" stroke="#353535" stroke-linecap="round" stroke-linejoin="round" d="m154.847 300.296 87.553 4.312c10.404.512 19.12-7.784 19.12-18.201v-17.418l-106.673 5.254c-6.945.342-12.401 6.074-12.401 13.028 0 6.954 5.456 12.683 12.401 13.025z"/><path fill="#FFEBD5" d="M225.327 312.195h-103.21c-5.614 0-10.165-4.55-10.165-10.163 0-5.614 4.551-10.165 10.165-10.165h103.21c5.614 0 10.165 4.551 10.165 10.165 0 5.613-4.551 10.163-10.165 10.163z"/><path fill="none" stroke="#353535" stroke-linecap="round" stroke-linejoin="round" d="M225.327 312.195h-103.21c-5.614 0-10.165-4.55-10.165-10.163 0-5.614 4.551-10.165 10.165-10.165h103.21c5.614 0 10.165 4.551 10.165 10.165 0 5.613-4.551 10.163-10.165 10.163z"/><path fill="#FFEBD5" d="M244.799 270.189h-5.282v-46.348h5.282v46.348z"/><path fill="none" stroke="#353535" stroke-linecap="round" stroke-linejoin="round" d="M244.799 270.189h-5.282v-46.348h5.282v46.348z"/><path fill="#FFEBD5" d="M50.259 221.158h-5.867l11.923-16.42h5.867l-11.923 16.42z"/><path fill="none" stroke="#353535" stroke-linecap="round" stroke-linejoin="round" d="M50.259 221.158h-5.867l11.923-16.42h5.867l-11.923 16.42z"/><path fill="#FFEBD5" d="m369.515 105.823-8.922 3.465 15.659 40.329 8.923-3.465-15.66-40.329z"/><path fill="none" stroke="#353535" stroke-linecap="round" stroke-linejoin="round" d="m369.515 105.823-8.922 3.465 15.659 40.329 8.923-3.465-15.66-40.329z"/><path fill="#353535" d="m369.515 105.823-8.922 3.466.508 2.088 10.154-.713-1.74-4.841z"/><path fill="#FFEBD5" d="m391.031 153.065-2.316-.267.356-1.158-1.158-.802.624-.802-1.248-.979.98-1.782-.713-.891.474-1.014-.804-1.986-11.191 4.346a3.5 3.5 0 0 0-1.977 4.573l1.994 4.929a3.499 3.499 0 0 0 4.509 1.95l11.283-4.382-.737-1.822-.076.087z"/><path fill="none" stroke="#353535" stroke-linecap="round" stroke-linejoin="round" d="m391.031 153.065-2.316-.267.356-1.158-1.158-.802.624-.802-1.248-.979.98-1.782-.713-.891.474-1.014-.804-1.986-11.191 4.346a3.5 3.5 0 0 0-1.977 4.573l1.994 4.929a3.499 3.499 0 0 0 4.509 1.95l11.283-4.382-.737-1.822-.076.087z"/><path fill="#FFEBD5" d="m299.48 48.215-11.118 2.288-4.159-20.214 11.118-2.288 4.159 20.214z"/><path fill="none" stroke="#353535" stroke-linecap="round" stroke-linejoin="round" d="m299.48 48.215-11.118 2.288-4.159-20.214 11.118-2.288 4.159 20.214z"/><path fill="#FFEBD5" d="m287.703 47.296-44.125 9.079-2.841-13.801 44.125-9.079 2.841 13.801z"/><path fill="none" stroke="#353535" stroke-linecap="round" stroke-linejoin="round" d="m287.703 47.296-44.125 9.079-2.841-13.801 44.125-9.079 2.841 13.801zm9.698-9.188 12.887-2.651c7.768-1.599 15.362 3.403 16.961 11.172l10.444 50.766c1.644 7.988 9.451 13.131 17.439 11.487l10.469-2.153"/><path fill="#353535" d="m365.669 106.714-6.113 1.259c-5.639 1.16-11.151-2.472-12.311-8.111l-6.013-29.226c-1.568-7.619 3.338-15.067 10.958-16.634l2.526-.52c11.453-2.356 22.648 5.018 25.005 16.471l2.419 11.757c2.356 11.453-5.018 22.648-16.471 25.004z"/><path fill="#FFEBD5" d="m359.275 110.664 14.097-2.9a5.821 5.821 0 0 0 4.528-6.872l-9.648-46.889a5.82 5.82 0 0 0-6.873-4.527l-14.097 2.901c-5.197 1.07-8.543 6.149-7.474 11.346l8.12 39.467c1.07 5.197 6.15 8.543 11.347 7.474z"/><path fill="none" stroke="#353535" stroke-linecap="round" stroke-linejoin="round" d="m359.275 110.664 14.097-2.9a5.821 5.821 0 0 0 4.528-6.872l-9.648-46.889a5.82 5.82 0 0 0-6.873-4.527l-14.097 2.901c-5.197 1.07-8.543 6.149-7.474 11.346l8.12 39.467c1.07 5.197 6.15 8.543 11.347 7.474z"/><path fill="#353535" d="m353.751 94.719 8.213-.929-.357-2.049s1.782-.534 3.474-2.494c1.692-1.96 1.604-5.077 1.515-6.414-.089-1.336-12.845 11.886-12.845 11.886z"/><path fill="none" stroke="#353535" stroke-linecap="round" stroke-linejoin="round" d="m306.329 36.27 4.159 20.216-43.968 9.046"/><path fill="#FFEBD5" d="m359.756 91.124-2.424.499a4.133 4.133 0 0 1-4.88-3.215l-2.384-11.587a5.583 5.583 0 0 1 4.344-6.594l1.001-.207a8.394 8.394 0 0 1 9.913 6.53l.959 4.661a8.393 8.393 0 0 1-6.529 9.913z"/><path fill="none" stroke="#353535" stroke-linecap="round" stroke-linejoin="round" d="m359.756 91.124-2.424.499a4.133 4.133 0 0 1-4.88-3.215l-2.384-11.587a5.583 5.583 0 0 1 4.344-6.594l1.001-.207a8.394 8.394 0 0 1 9.913 6.53l.959 4.661a8.393 8.393 0 0 1-6.529 9.913z"/><path fill="#FFEBD5" d="m361.097 93.207-7.347 1.512-5.249-25.512 7.347-1.512 5.249 25.512z"/><path fill="none" stroke="#353535" stroke-linecap="round" stroke-linejoin="round" d="m361.097 93.207-7.347 1.512-5.249-25.512 7.347-1.512 5.249 25.512z"/><path fill="#FFEBD5" d="m277.201 66.796-10.042 2.067a3.092 3.092 0 0 1-1.246-6.055l10.042-2.067a3.092 3.092 0 0 1 1.246 6.055z"/><path fill="none" stroke="#353535" stroke-linecap="round" stroke-linejoin="round" d="m277.201 66.796-10.042 2.067a3.092 3.092 0 0 1-1.246-6.055l10.042-2.067a3.092 3.092 0 0 1 1.246 6.055z"/><path fill="#F3E7D6" d="m267.363 68.79-1.232-5.984"/><path fill="none" stroke="#353535" stroke-linecap="round" stroke-linejoin="round" d="m267.363 68.79-1.232-5.984"/><path fill="#F3E7D6" d="m270.592 68.1-1.232-5.984"/><path fill="none" stroke="#353535" stroke-linecap="round" stroke-linejoin="round" d="m270.592 68.1-1.232-5.984"/><path fill="#F3E7D6" d="m273.754 67.521-1.232-5.984"/><path fill="none" stroke="#353535" stroke-linecap="round" stroke-linejoin="round" d="m273.754 67.521-1.232-5.984"/><path fill="#F3E7D6" d="m159.222 154.677-2.198 1.862"/><path fill="none" stroke="#353535" stroke-linecap="round" stroke-linejoin="round" d="m159.222 154.677-2.198 1.862"/><path fill="#F3E7D6" d="m129.279 154.677-1.65 1.594"/><path fill="none" stroke="#353535" stroke-linecap="round" stroke-linejoin="round" d="m129.279 154.677-1.65 1.594"/><path fill="#F3E7D6" d="M98.699 172.039v7.215"/><path fill="none" stroke="#353535" stroke-linecap="round" stroke-linejoin="round" d="M98.699 172.039v7.215"/><path fill="#F3E7D6" d="M98.699 166.159v2.138"/><path fill="none" stroke="#353535" stroke-linecap="round" stroke-linejoin="round" d="M98.699 166.159v2.138"/><path fill="#F3E7D6" d="M98.699 154.551v10.005"/><path fill="none" stroke="#353535" stroke-linecap="round" stroke-linejoin="round" d="M98.699 154.551v10.005"/><path fill="#353535" d="m98.678 184.42 9.17-7.838 9.17 7.838h-18.34z"/><path fill="#353535" d="m116.807 184.42 9.17-7.838 9.17 7.838h-18.34z"/><path fill="#353535" d="m134.937 184.42 9.17-7.838 9.17 7.838h-18.34z"/><path fill="#353535" d="m153.066 184.42 9.17-7.838 9.17 7.838h-18.34z"/><path fill="#353535" d="m171.195 184.42 9.17-7.838 9.17 7.838h-18.34z"/><path fill="#353535" d="m189.324 184.42 9.17-7.838 9.17 7.838h-18.34z"/><path fill="#F3E7D6" d="m216.272 301.711 2.541 3.424 2.153-3.424"/><path fill="none" stroke="#353535" stroke-linecap="round" stroke-linejoin="round" d="m216.272 301.711 2.541 3.424 2.153-3.424"/><path fill="#F3E7D6" d="m221.022 301.711 2.541 3.424 2.153-3.424"/><path fill="none" stroke="#353535" stroke-linecap="round" stroke-linejoin="round" d="m221.022 301.711 2.541 3.424 2.153-3.424"/><path fill="#F3E7D6" d="m225.772 301.711 2.54 3.424 2.154-3.424"/><path fill="none" stroke="#353535" stroke-linecap="round" stroke-linejoin="round" d="m225.772 301.711 2.54 3.424 2.154-3.424"/><path fill="#F3E7D6" d="M213.705 301.416h19.33"/><path fill="none" stroke="#353535" stroke-linecap="round" stroke-linejoin="round" d="M213.705 301.416h19.33"/><path fill="#353535" d="m244.944 228.959 4.275 40.888-4.42-.191.145-40.697z"/><path fill="#F3E7D6" d="M269.663 261.962a1.47 1.47 0 1 1-2.94 0 1.47 1.47 0 0 1 2.94 0z"/><path fill="none" stroke="#353535" stroke-linecap="round" stroke-linejoin="round" d="M269.663 261.962a1.47 1.47 0 1 1-2.94 0 1.47 1.47 0 0 1 2.94 0z"/><path fill="#F3E7D6" d="M276.344 249.67a1.47 1.47 0 1 1-2.94 0 1.47 1.47 0 0 1 2.94 0z"/><path fill="none" stroke="#353535" stroke-linecap="round" stroke-linejoin="round" d="M276.344 249.67a1.47 1.47 0 1 1-2.94 0 1.47 1.47 0 0 1 2.94 0z"/><path fill="#353535" d="m342.314 158.831 2.308-.288 1.336-1.737 4.141-.668.936-1.47 3.474-.935v-2.806l1.87-2.138v-1.604s7.483.268 4.945 7.083c-2.539 6.814-9.755 13.361-15.099 11.624-5.345-1.737-3.911-7.061-3.911-7.061zm-115.999 82.565c3.212 6.302.709 14.014-5.592 17.227-6.302 3.212-14.014.709-17.227-5.593-3.212-6.301-.71-14.014 5.591-17.226 6.302-3.213 14.015-.709 17.228 5.592z"/><path fill="#FFEBD5" d="m202.597 252.078 5.653-6.568s.917-1.853.296-3.761c-.669-2.056-1.446-3.665-2.085-4.92-.713-1.4 1.385-3.714 3.275-1.797 1.392 1.412 2.89 4.473 3.852 4.57 0 0 4.295-2.395 6.397-.308 1.184 1.176 4.524 6.124 4.768 7.521.708 4.057-9.603 8.358-9.603 8.358l-7.165 2.918"/><path fill="none" stroke="#353535" stroke-linecap="round" stroke-linejoin="round" d="m202.597 252.078 5.653-6.568s.917-1.853.296-3.761c-.669-2.056-1.446-3.665-2.085-4.92-.713-1.4 1.385-3.714 3.275-1.797 1.392 1.412 2.89 4.473 3.852 4.57 0 0 4.295-2.395 6.397-.308 1.184 1.176 4.524 6.124 4.768 7.521.708 4.057-9.603 8.358-9.603 8.358l-7.165 2.918"/><path fill="#FFEBD5" d="M223.482 243.647c2.779 2.291 2.414 5.007.281 6.738-2.237 1.816-4.921 2.899-6.199.581-.911-1.653.76-3.063 2.724-3.874 1.902-.784 2.513-4.007 3.194-3.445z"/><path fill="none" stroke="#353535" stroke-linecap="round" stroke-linejoin="round" d="M223.482 243.647c2.779 2.291 2.414 5.007.281 6.738-2.237 1.816-4.921 2.899-6.199.581-.911-1.653.76-3.063 2.724-3.874 1.902-.784 2.513-4.007 3.194-3.445z"/><path fill="#FFEBD5" d="M219.082 251.941s-2.44.761-2.69.423c-.249-.338 1.224-2.405 1.224-2.405s.545.118 1.013.751c.468.633.453 1.231.453 1.231z"/><path fill="none" stroke="#353535" stroke-linecap="round" stroke-linejoin="round" d="M219.082 251.941s-2.44.761-2.69.423c-.249-.338 1.224-2.405 1.224-2.405s.545.118 1.013.751c.468.633.453 1.231.453 1.231z"/><path fill="#FFEBD5" d="M221.573 240.802c2.826 2.33 2.528 4.917.358 6.678-2.275 1.845-5.076 3.124-6.376.766-.926-1.681.772-3.115 2.77-3.939 1.935-.799 2.556-4.075 3.248-3.505z"/><path fill="none" stroke="#353535" stroke-linecap="round" stroke-linejoin="round" d="M221.573 240.802c2.826 2.33 2.528 4.917.358 6.678-2.275 1.845-5.076 3.124-6.376.766-.926-1.681.772-3.115 2.77-3.939 1.935-.799 2.556-4.075 3.248-3.505z"/><path fill="#FFEBD5" d="M215.14 238.928s3.945-1.494 5.355-.012c1.178 1.238 1.285 2.923-1.188 4.75-2.749 2.032-4.751 3.013-5.987 1.341-1.218-1.649-.56-3.302 1.495-3.971s2.224-1.46 2.224-1.46"/><path fill="none" stroke="#353535" stroke-linecap="round" stroke-linejoin="round" d="M215.14 238.928s3.945-1.494 5.355-.012c1.178 1.238 1.285 2.923-1.188 4.75-2.749 2.032-4.751 3.013-5.987 1.341-1.218-1.649-.56-3.302 1.495-3.971s2.224-1.46 2.224-1.46"/><path fill="#FFEBD5" d="M206.418 235.986s-.793-2.569-.487-2.795c.408-.302 2.324 1.438 2.324 1.438s-.08.532-.75 1.048c-.565.436-1.087.309-1.087.309z"/><path fill="none" stroke="#353535" stroke-linecap="round" stroke-linejoin="round" d="M206.418 235.986s-.793-2.569-.487-2.795c.408-.302 2.324 1.438 2.324 1.438s-.08.532-.75 1.048c-.565.436-1.087.309-1.087.309z"/><path fill="#FFEBD5" d="M214.693 245.244s-2.825.879-3.114.488c-.289-.39 1.417-2.784 1.417-2.784s.631.138 1.173.871c.541.733.524 1.425.524 1.425z"/><path fill="none" stroke="#353535" stroke-linecap="round" stroke-linejoin="round" d="M214.693 245.244s-2.825.879-3.114.488c-.289-.39 1.417-2.784 1.417-2.784s.631.138 1.173.871c.541.733.524 1.425.524 1.425z"/><path fill="#FFEBD5" d="M217.204 249.069s-2.825.879-3.114.488c-.289-.39 1.417-2.784 1.417-2.784s.631.138 1.173.871c.541.733.524 1.425.524 1.425z"/><path fill="none" stroke="#353535" stroke-linecap="round" stroke-linejoin="round" d="M217.204 249.069s-2.825.879-3.114.488c-.289-.39 1.417-2.784 1.417-2.784s.631.138 1.173.871c.541.733.524 1.425.524 1.425z"/><path fill="#FFEBD5" d="M211.184 253.525s.916.914 1.76.351c-.07.809-.606 1.755-.422 2.112.166.321 1.566.436 2.359.562-.387 1.478-1.689 1.127-1.689 1.127s-.272.206.08 1.65c-1.056-1.126-2.886-.038-2.886-.038s.804.987.136 2.044c-.212-.775-1.278-1.762-1.278-1.762s-.626 1.31-.626 2.225c-.141-.21-1.267-.527-1.267-.527s-.246 1.232-.879 2.569c-.563-1.301-1.514-1.125-1.514-1.125s-.386 1.936-1.16 2.147l-4.297-6.439-4.014-6.016c.492-.634 2.428-.247 2.428-.247s.492-1.092-.494-2.112a7.081 7.081 0 0 1 2.746.457s.14-1.163-.001-1.374c.845.352 2.295.277 2.295.277s.028-.91-.606-1.403c1.232-.211 1.873.558 1.873.558s.661-1.791.027-3.198a10.361 10.361 0 0 0 2.393 1.301s.528-.81.809-1.303c.705.599.133 2.163.283 2.71.106.388 1.267.07 2.042.316-.845.564-.88 1.655-.88 1.655s.951.738 1.514.211c.211.773-.352 1.759-.352 1.759s1.655-.036 2.288.456c-.598.247-.984 1.726-.984 1.726"/><path fill="none" stroke="#353535" stroke-linecap="round" stroke-linejoin="round" d="M211.184 253.525s.916.914 1.76.351c-.07.809-.606 1.755-.422 2.112.166.321 1.566.436 2.359.562-.387 1.478-1.689 1.127-1.689 1.127s-.272.206.08 1.65c-1.056-1.126-2.886-.038-2.886-.038s.804.987.136 2.044c-.212-.775-1.278-1.762-1.278-1.762s-.626 1.311-.626 2.226c-.141-.21-1.267-.528-1.267-.528s-.246 1.232-.879 2.569c-.563-1.301-1.514-1.125-1.514-1.125s-.386 1.936-1.16 2.147l-4.297-6.438-4.014-6.017c.492-.634 2.428-.246 2.428-.246s.492-1.092-.494-2.112a7.081 7.081 0 0 1 2.746.457s.14-1.164-.001-1.375c.845.352 2.295.277 2.295.277s.028-.909-.606-1.402c1.232-.211 1.873.557 1.873.557s.661-1.791.027-3.198a10.361 10.361 0 0 0 2.393 1.301s.528-.809.809-1.302c.705.599.133 2.162.283 2.709.106.388 1.267.071 2.042.317-.845.564-.88 1.655-.88 1.655s.951.738 1.514.211c.211.773-.352 1.759-.352 1.759s1.655-.037 2.288.455c-.598.247-.984 1.726-.984 1.726m45.344-25.075 1.827 5.186 2.137.801 1.55 3.1 1.924 3.849"/><path fill="none" stroke="#353535" stroke-linecap="round" stroke-linejoin="round" d="m261.726 238.205-1.684 1.176 3.074 6.146"/><path fill="#353535" d="M215.909 201.933a8.881 8.881 0 1 1-17.763 0 8.881 8.881 0 0 1 17.763 0z"/><path fill="none" stroke="#353535" stroke-linecap="round" stroke-linejoin="round" d="M217.711 201.933c0 5.9-4.783 10.683-10.683 10.683-5.9 0-10.683-4.783-10.683-10.683 0-5.9 4.783-10.683 10.683-10.683 5.9 0 10.683 4.783 10.683 10.683z"/><path fill="#F3E7D6" d="M213.922 199.758s-2.958 1.105-5.137-.128c-2.18-1.232-2.757-4.337-2.757-4.337s2.884-.974 5.063.259c2.18 1.233 2.831 4.206 2.831 4.206z"/><path fill="none" stroke="#353535" stroke-linecap="round" stroke-linejoin="round" d="M213.922 199.758s-2.958 1.105-5.137-.128c-2.18-1.232-2.757-4.337-2.757-4.337s2.884-.974 5.063.259c2.18 1.233 2.831 4.206 2.831 4.206z"/><path fill="#353535" d="M211.033 195.576s.558 1.497-.065 2.598c-.623 1.103-2.193 1.394-2.193 1.394s-.493-1.458.131-2.56c.623-1.102 2.127-1.432 2.127-1.432z"/><path fill="#F3E7D6" d="M207.255 208.874s-2.296.85-3.983-.111c-1.687-.961-2.127-3.37-2.127-3.37s2.238-.747 3.925.213c1.687.962 2.185 3.268 2.185 3.268z"/><path fill="none" stroke="#353535" stroke-linecap="round" stroke-linejoin="round" d="M207.255 208.874s-2.296.85-3.983-.111c-1.687-.961-2.127-3.37-2.127-3.37s2.238-.747 3.925.213c1.687.962 2.185 3.268 2.185 3.268z"/><path fill="#353535" d="M205.025 205.625s.43 1.161-.056 2.014c-.486.853-1.704 1.076-1.704 1.076s-.378-1.132.108-1.986c.486-.852 1.652-1.104 1.652-1.104z"/><path fill="#F3E7D6" d="M210.408 204.362s-2.569.905-4.429-.193c-1.859-1.099-2.305-3.785-2.305-3.785s2.502-.793 4.361.306 2.373 3.672 2.373 3.672z"/><path fill="none" stroke="#353535" stroke-linecap="round" stroke-linejoin="round" d="M210.408 204.362s-2.569.905-4.429-.193c-1.859-1.099-2.305-3.785-2.305-3.785s2.502-.793 4.361.306 2.373 3.672 2.373 3.672z"/><path fill="#353535" d="M207.985 200.71s.458 1.299-.098 2.238c-.555.941-1.913 1.166-1.913 1.166s-.401-1.264.155-2.205c.555-.939 1.856-1.199 1.856-1.199z"/><path fill="#FFEBD5" d="m357.832 146.299-1.897 1.422.248-.049.534 2.403-2.138.802.267 5.345-3.742-1.604-1.068 3.207-4.009-1.069-1.871 3.207-1.772-1.181-4.528 3.695-.026-.013 13.782 17.067 19.488-15.737-.035-1.107-13.233-16.388z"/><path fill="none" stroke="#353535" stroke-linecap="round" stroke-linejoin="round" d="m357.832 146.299-1.897 1.422.248-.049.534 2.403-2.138.802.267 5.345-3.742-1.604-1.068 3.207-4.009-1.069-1.871 3.207-1.772-1.181-4.528 3.695-.026-.013 13.782 17.067 19.488-15.737-.035-1.107-13.233-16.388z"/><path fill="none" stroke="#353535" stroke-miterlimit="10" d="m356.17 147.543-.236.177.248-.049.534 2.405-2.138.802.267 5.345-3.741-1.604-1.069 3.207-4.009-1.069-1.871 3.207-1.772-1.183-2.93 2.392 12.469 15.442 16.78-13.551-12.532-15.521z"/><path fill="#353535" d="M352.335 158.719c-.723-.692-1.997.858-2.126 2.038-.237 2.19 5.797 4.553 6.178 8.724.38 4.171-3.86 2.069-6.698 6.385-2.717 4.134-.717 7.63 1.525 7.92 3.078.397 9.236-3.961 8.837-11.073-.294-5.222-8.212-10.531-8.037-11.551.15-.877.981-1.811.321-2.443zm3.774-.347c-.421-.622.886-1.369 1.774-1.315 1.651.099 2.641 4.86 5.678 5.665 3.037.806 2.016-2.594 5.565-4.151 3.399-1.491 5.734.426 5.667 2.121-.093 2.327-4.091 6.335-9.302 5.146-3.825-.873-6.757-7.398-7.534-7.396-.667.001-1.463.498-1.848-.07zm6.773 29.612-14.253 11.758-1.851-2.644a1.2 1.2 0 0 1 .231-1.622l12.296-9.882a1.196 1.196 0 0 1 1.66.154l1.917 2.236zm-198.197-35.542 4.276 2.494-.357 2.94-3.919-5.434zm6.324-1.426 4.008 2.762-.445 2.94-3.563-5.702zm6.325-.98 4.898 3.029-1.067 2.939-3.831-5.968z"/><path fill="#F3E7D6" d="m168.605 157.875 2.404 5.702"/><path fill="none" stroke="#353535" stroke-linecap="round" stroke-linejoin="round" d="m168.605 157.875 2.404 5.702"/><path fill="#F3E7D6" d="m174.572 156.717 1.292 2.896"/><path fill="none" stroke="#353535" stroke-linecap="round" stroke-linejoin="round" d="m174.572 156.717 1.292 2.896"/><path fill="#F3E7D6" d="m181.165 156.005.979 2.138"/><path fill="none" stroke="#353535" stroke-linecap="round" stroke-linejoin="round" d="m181.165 156.005.979 2.138"/><path fill="#353535" d="M261.512 279.734s-10.377-2.064-11.758.534c-.661 1.244 2.94 4.811 2.94 4.811s-6.557 3.349-6.147 5.344c.354 1.717 6.681 2.138 6.681 2.138s-3.02 6.196-1.603 7.483c1.142 1.036 5.879-1.872 5.879-1.872s2.405-3.473 3.474-6.413c1.069-2.939.534-12.025.534-12.025zm-26.901-1.247c1.247-.98 2.939.979 2.939.979s1.248-.712 1.782-.177c.535.534.178 1.959.178 1.959s1.158 1.426.445 2.494c-.713 1.069-2.138-.267-2.138-.267s-2.227 1.069-2.762.713c-.534-.356-.444-2.673-.444-2.673s-1.129-2.141 0-3.028zm50.252-244.993-.13 14.332 2.97-.531-2.84-13.801zm77.189 56.643-1.604.669-4.142-21.112 5.746 20.443z"/></g></g></svg>