<svg xmlns="http://www.w3.org/2000/svg" style="content-visibility:visible" viewBox="0 0 170 167" width="170" height="167">
  <defs>
    <clipPath id="a">
      <path d="M0 0h170v167H0z"/>
    </clipPath>
  </defs>
  <g clip-path="url(#a)" display="block">
    <path fill="#EEDEC8" d="M127.903 160.807c4.096 2.847-15.594 2.847-34.83 2.847-19.236 0-37.971-.775-34.83-2.847 3.093-2.041 15.692-1.909 34.929-1.909 19.235 0 33.297.912 34.731 1.909z" class="anim-color-2"/>
    <path fill="#FFEBD5" d="M106.529 71.504c5.001 5.263 22.849 21.422 26.469 29.85 3.815 8.876-19.359 14.361-18.556 18.448.803 4.087 3.65 5.824 3.65 5.824s-8.394-2.078-8.84-5.557c-.537-4.195 3.983-9.684 4.895-16.681" class="anim-color-2"/>
    <path fill-opacity="0" stroke="#353535" stroke-linecap="round" stroke-linejoin="round" stroke-width="2" d="M106.529 71.504c5.001 5.263 22.849 21.422 26.469 29.85 3.815 8.876-19.359 14.361-18.556 18.448.803 4.087 3.65 5.824 3.65 5.824s-8.394-2.078-8.84-5.557c-.537-4.195 3.983-9.684 4.895-16.681" class="anim-color-1"/>
    <path fill="#353535" d="M117.668 91.201s2.648 9.81 2.181 14.886c-.463 5.032-8.268 9.378-8.268 9.378s2.225-10.858 3.544-14.618 2.543-9.646 2.543-9.646z" class="anim-color-1"/>
    <path fill-opacity="0" stroke="#353535" stroke-linecap="round" stroke-linejoin="round" stroke-width="2" d="M117.668 91.201s2.648 9.81 2.181 14.886c-.463 5.032-8.268 9.378-8.268 9.378s2.225-10.858 3.544-14.618 2.543-9.646 2.543-9.646zm-4.322 70.722-10.364-2.072v-36.586" class="anim-color-1"/>
    <path fill="#FFEBD5" d="M51.105 106.578c.734 2.542 1.776 5.039 3.141 7.44 9.333 16.42 30.21 22.165 46.63 12.833 16.42-9.333 22.165-30.21 12.832-46.629-3.173-5.583-7.697-9.896-12.91-12.837 4.128-6.02 4.755-14.097.906-20.869-5.374-9.454-17.394-12.761-26.848-7.388-9.454 5.373-12.762 17.393-7.389 26.847.182.321.39.616.587.922-.324.17-.655.309-.975.492-7.375 4.191-13.049 10.563-15.267 18.11" class="anim-color-2"/>
    <path fill-opacity="0" stroke="#353535" stroke-linecap="round" stroke-linejoin="round" stroke-width="2" d="M51.105 106.578c.734 2.542 1.776 5.039 3.141 7.44 9.333 16.42 30.21 22.165 46.63 12.833 16.42-9.333 22.165-30.21 12.832-46.629-3.173-5.583-7.697-9.896-12.91-12.837 4.128-6.02 4.755-14.097.906-20.869-5.374-9.454-17.394-12.761-26.848-7.388-9.454 5.373-12.762 17.393-7.389 26.847.182.321.39.616.587.922-.324.17-.655.309-.975.492-7.375 4.191-13.049 10.563-15.267 18.11" class="anim-color-1"/>
    <path fill="#353535" d="M53.161 105.741c1.167 3.931 2.9 7.587 5.34 10.056 3.372 3.412 0 4.834 0 4.834s-3.351-4.695-4.255-6.613c-.903-1.918-1.085-8.277-1.085-8.277z" class="anim-color-1"/>
    <path fill-opacity="0" stroke="#353535" stroke-linecap="round" stroke-linejoin="round" stroke-width="2" d="M53.161 105.741c1.167 3.931 2.9 7.587 5.34 10.056 3.372 3.412 0 4.834 0 4.834s-3.351-4.695-4.255-6.613c-.903-1.918-1.085-8.277-1.085-8.277z" class="anim-color-1"/>
    <path fill="#353535" d="m88.53 59.421 6.329-3.812c1.01-.608.948-2.437-.101-2.974l-6.576-3.37c-2.991-1.533-6.206 1.27-6.068 5.292.138 4.021 3.537 6.597 6.416 4.864zm-19.665 63.844 4.022 6.2-3.011-1.188-1.011-5.012z" class="anim-color-1"/>
    <path fill-opacity="0" stroke="#353535" stroke-linecap="round" stroke-linejoin="round" stroke-width="2" d="m68.865 123.265 4.022 6.2-3.011-1.188-1.011-5.012z" class="anim-color-1"/>
    <path fill="#FFEBD5" d="M60.476 72.145c-5.001 5.262-22.85 21.42-26.471 29.848-3.813 8.877 19.36 14.362 18.557 18.449-.803 4.086-3.65 5.823-3.65 5.823s8.394-2.077 8.84-5.556c.537-4.195-3.983-9.684-4.895-16.682" class="anim-color-2"/>
    <path fill-opacity="0" stroke="#353535" stroke-linecap="round" stroke-linejoin="round" stroke-width="2" d="M60.476 72.145c-5.001 5.262-22.85 21.42-26.471 29.848-3.813 8.877 19.36 14.362 18.557 18.449-.803 4.086-3.65 5.823-3.65 5.823s8.394-2.077 8.84-5.556c.537-4.195-3.983-9.684-4.895-16.682m16.008 19.239v36.586l-10.363 2.072M90.9 69.868c4.684-.397 9.899-2.483 9.899-2.483m-32.744-.488s2.821 1.525 5.884 2.18" class="anim-color-1"/>
  </g>
</svg>
