<svg  xmlns="http://www.w3.org/2000/svg" viewBox="0 0 666 979" width="666" height="979" preserveAspectRatio="xMidYMid meet" style="width:100%;height:100%;transform:translate3d(0,0,0);content-visibility:visible"><defs ><clipPath id="__character__lottie_element_642"><path  d="M0 0h666v979H0z"></path></clipPath></defs><g  clip-path="url(#__character__lottie_element_642)"><g  transform="translate(-.236 -.184)" opacity="1" style="display:block"><g  opacity="1" transform="translate(391.7 898.825)"><path  class="anim-color-1" fill="#353535" fill-opacity="1" d="M-28.344-29.237s-1.748 8.065-1.883 13.173c-.131 4.972.068 11.628.068 11.628l11.695 6.653 1.142-2.15s4.714 1.828 6.453 8.065c2.285 8.2 6.385 14.652 16.601 17.878 10.217 3.227 16.533 2.42 21.036.673 3.589-1.393 2.959-7.528.539-14.988-2.153-6.64-6.453-13.51-11.83-18.887-5.377-5.377-9.409-11.829-9.409-11.829l-1.883-8.872-32.529-1.344z"></path></g><g  opacity="1" transform="translate(391.7 898.825)"><path  stroke-linecap="round" stroke-linejoin="round" fill-opacity="0" class="anim-color-3" stroke="#F3E7D6" stroke-opacity="1" stroke-width="1" d="M-28.344-29.237s-1.748 8.065-1.883 13.173c-.131 4.972.068 11.628.068 11.628l11.695 6.653 1.142-2.15s4.714 1.828 6.453 8.065c2.285 8.2 6.385 14.652 16.601 17.878 10.217 3.227 16.533 2.42 21.036.673 3.589-1.393 2.959-7.528.539-14.988-2.153-6.64-6.453-13.51-11.83-18.887-5.377-5.377-9.409-11.829-9.409-11.829l-1.883-8.872-32.529-1.344z"></path></g><g  opacity="1" transform="translate(282.563 898.98)"><path  class="anim-color-1" fill="#353535" fill-opacity="1" d="M28.345-29.237s1.748 8.065 1.882 13.173c.131 4.973-.067 11.628-.067 11.628L18.465 2.218 17.323.067s-4.715 1.829-6.453 8.065c-2.285 8.2-6.385 14.652-16.601 17.879-10.216 3.226-16.534 2.419-21.037.672-3.589-1.393-2.958-7.528-.538-14.988 2.153-6.64 6.451-13.51 11.828-18.887 5.377-5.377 9.411-11.829 9.411-11.829l1.882-8.872 32.53-1.344z"></path></g><g  opacity="1" transform="translate(282.563 898.98)"><path  stroke-linecap="round" stroke-linejoin="round" fill-opacity="0" class="anim-color-3" stroke="#F3E7D6" stroke-opacity="1" stroke-width="1" d="M28.345-29.237s1.748 8.065 1.882 13.173c.131 4.973-.067 11.628-.067 11.628L18.465 2.218 17.323.067s-4.715 1.829-6.453 8.065c-2.285 8.2-6.385 14.652-16.601 17.879-10.216 3.226-16.534 2.419-21.037.672-3.589-1.393-2.958-7.528-.538-14.988 2.153-6.64 6.451-13.51 11.828-18.887 5.377-5.377 9.411-11.829 9.411-11.829l1.882-8.872 32.53-1.344z"></path></g><g  opacity="1" transform="translate(357.498 166.315)"><path  class="anim-color-3" fill="#F3E7D6" fill-opacity="1" d="M21.193 5.137S6.675-5.138-21.193-3.194"></path></g><g  opacity="1" transform="translate(357.498 166.315)"><path  stroke-linecap="round" stroke-linejoin="round" fill-opacity="0" class="anim-color-1" stroke="#353535" stroke-opacity="1" stroke-width="1" d="M21.193 5.137S6.675-5.138-21.193-3.194"></path></g><g  opacity="1" transform="translate(313.718 166.315)"><path  class="anim-color-3" fill="#F3E7D6" fill-opacity="1" d="M-21.193 5.137S-6.675-5.138 21.193-3.194"></path></g><g  opacity="1" transform="translate(313.718 166.315)"><path  stroke-linecap="round" stroke-linejoin="round" fill-opacity="0" class="anim-color-1" stroke="#353535" stroke-opacity="1" stroke-width="1" d="M-21.193 5.137S-6.675-5.138 21.193-3.194"></path></g><g  opacity="1" transform="translate(336.925 645.438)"><path  class="anim-color-1" fill="#353535" fill-opacity="1" d="M-4.611-138.352s-1.107 70.096-2.583 95.183c-1.475 25.087-7 77.842-7 77.842s-2.96 21.398-2.223 33.942c.738 12.543-2.213 111.416-2.213 124.328 0 17.846-7.379 36.153-7.379 36.153s-10.456 2.282-16.793 2.282c-5.562 0-16.41-2.282-16.41-2.282s-6.641-14.387-8.854-31.358c-2.213-16.971-7.7-185.791-7.378-202.17.348-17.75.737-39.106-5.903-77.474-6.641-38.367 1.107-139.123 1.107-139.123 4.796-4.058 57.92-9.184 95.181-9.922 37.261-.737 65.3 9.185 65.3 9.185s7.748 101.493 1.107 139.86c-6.641 38.368-6.647 61.108-5.903 77.474 1.747 38.482-5.237 188.594-7.379 202.17-2.668 16.905-8.854 31.358-8.854 31.358s-9.302 2.592-15.794 2.592c-5.562 0-17.409-2.592-17.409-2.592s-7.379-18.307-7.379-36.153c0-12.912-2.951-111.785-2.214-124.328.739-12.544-1.604-33.942-1.604-33.942S6.826-17.712 5.35-42.799C3.874-67.886-.553-138.721-.553-138.721"></path></g><g  opacity="1" transform="translate(336.925 645.438)"><path  stroke-linecap="round" stroke-linejoin="round" fill-opacity="0" class="anim-color-2" stroke="#FFEBD5" stroke-opacity="1" stroke-width="1" d="M-4.611-138.352s-1.107 70.096-2.583 95.183c-1.475 25.087-7 77.842-7 77.842s-2.96 21.398-2.223 33.942c.738 12.543-2.213 111.416-2.213 124.328 0 17.846-7.379 36.153-7.379 36.153s-10.456 2.282-16.793 2.282c-5.562 0-16.41-2.282-16.41-2.282s-6.641-14.387-8.854-31.358c-2.213-16.971-7.7-185.791-7.378-202.17.348-17.75.737-39.106-5.903-77.474-6.641-38.367 1.107-139.123 1.107-139.123 4.796-4.058 57.92-9.184 95.181-9.922 37.261-.737 65.3 9.185 65.3 9.185s7.748 101.493 1.107 139.86c-6.641 38.368-6.647 61.108-5.903 77.474 1.747 38.482-5.237 188.594-7.379 202.17-2.668 16.905-8.854 31.358-8.854 31.358s-9.302 2.592-15.794 2.592c-5.562 0-17.409-2.592-17.409-2.592s-7.379-18.307-7.379-36.153c0-12.912-2.951-111.785-2.214-124.328.739-12.544-1.604-33.942-1.604-33.942S6.826-17.712 5.35-42.799C3.874-67.886-.553-138.721-.553-138.721"></path></g><g  opacity="1" transform="translate(379.535 875.831)"><path  class="anim-color-1" fill="#353535" fill-opacity="1" d="M16.602-1.296S7.298 1.296.807 1.296c-5.562 0-17.409-2.592-17.409-2.592"></path></g><g  opacity="1" transform="translate(379.535 875.831)"><path  stroke-linecap="round" stroke-linejoin="round" fill-opacity="0" class="anim-color-3" stroke="#F3E7D6" stroke-opacity="1" stroke-width="1" d="M16.602-1.296S7.298 1.296.807 1.296c-5.562 0-17.409-2.592-17.409-2.592"></path></g><g  opacity="1" transform="translate(294.314 875.676)"><path  class="anim-color-1" fill="#353535" fill-opacity="1" d="M16.602-1.141S6.146 1.141-.191 1.141c-5.562 0-16.411-2.282-16.411-2.282"></path></g><g  opacity="1" transform="translate(294.314 875.676)"><path  stroke-linecap="round" stroke-linejoin="round" fill-opacity="0" class="anim-color-3" stroke="#F3E7D6" stroke-opacity="1" stroke-width="1" d="M16.602-1.141S6.146 1.141-.191 1.141c-5.562 0-16.411-2.282-16.411-2.282"></path></g><g  opacity="1" transform="translate(333.789 507.149)"><path  class="anim-color-1" fill="#353535" fill-opacity="1" d="M-9.961-.856c.013.046 9.06 2.053 19.922-.34"></path></g><g  opacity="1" transform="translate(333.789 507.149)"><path  stroke-linecap="round" stroke-linejoin="round" fill-opacity="0" class="anim-color-3" stroke="#F3E7D6" stroke-opacity="1" stroke-width="1" d="M-9.961-.856c.013.046 9.06 2.053 19.922-.34"></path></g><g  opacity="1" transform="translate(335.576 115.798)"><path  class="anim-color-2" fill="#FFEBD5" fill-opacity="1" d="M41.391-5.203h-2.768C40.874-25.969 23.612-46.108 0-45.389c-22.42 0-39.322 19.42-38.623 40.186h-2.768a5.504 5.504 0 0 0 0 11.006h2.151v1.064c0 21.672 17.568 39.241 39.24 39.241 21.671 0 39.24-17.569 39.24-39.241V5.803h2.151a5.502 5.502 0 1 0 0-11.006z"></path></g><g  opacity="1" transform="translate(335.576 115.798)"><path  stroke-linecap="round" stroke-linejoin="round" fill-opacity="0" class="anim-color-1" stroke="#353535" stroke-opacity="1" stroke-width="1" d="M41.391-5.203h-2.768C40.874-25.969 23.612-46.108 0-45.389c-22.42 0-39.322 19.42-38.623 40.186h-2.768a5.504 5.504 0 0 0 0 11.006h2.151v1.064c0 21.672 17.568 39.241 39.24 39.241 21.671 0 39.24-17.569 39.24-39.241V5.803h2.151a5.502 5.502 0 1 0 0-11.006z"></path></g><g  opacity="1" transform="translate(335.662 161.234)"><path  class="anim-color-2" fill="#FFEBD5" fill-opacity="1" d="M38.864-33.702c-.104 1.997 2.155 11.842.684 16.677-1.472 4.834-4.046 4.134-4.046 4.134s1.916 4.876.679 10.129c-1.144 4.864-6.022 10.26-17.794 8.789 0 0-15.414 27.675-20.178 25.713-4.765-1.961-17.653-19.667-17.653-19.667-11.771 1.471-13.562-9.236-15.97-13.614-2.881-5.237-.088-11.35-.088-11.35s-2.574.7-4.046-4.134c-1.471-4.835.788-14.68.683-16.677"></path></g><g  opacity="1" transform="translate(335.662 161.234)"><path  stroke-linecap="round" stroke-linejoin="round" fill-opacity="0" class="anim-color-1" stroke="#353535" stroke-opacity="1" stroke-width="1" d="M38.864-33.702c-.104 1.997 2.155 11.842.684 16.677-1.472 4.834-4.046 4.134-4.046 4.134s1.916 4.876.679 10.129c-1.144 4.864-6.022 10.26-17.794 8.789 0 0-15.414 27.675-20.178 25.713-4.765-1.961-17.653-19.667-17.653-19.667-11.771 1.471-13.562-9.236-15.97-13.614-2.881-5.237-.088-11.35-.088-11.35s-2.574.7-4.046-4.134c-1.471-4.835.788-14.68.683-16.677"></path></g><g  opacity="1"><path  class="anim-color-3" fill="#F3E7D6" fill-opacity="1" d="M374.199 110.595v3.329"></path></g><g  opacity="1"><path  stroke-linecap="round" stroke-linejoin="round" fill-opacity="0" class="anim-color-1" stroke="#353535" stroke-opacity="1" stroke-width="1" d="M374.199 110.595v3.329"></path></g><g  opacity="1" transform="translate(310.407 120.204)"><path  class="anim-color-2" fill="#FFEBD5" fill-opacity="1" d="M9.093 3.062C7.871 6.69 2.809 8.262-2.213 6.571c-5.022-1.692-8.102-6.006-6.88-9.634 1.222-3.629 6.284-5.199 11.306-3.508 5.022 1.692 8.102 6.004 6.88 9.633z"></path></g><g  opacity="1" transform="translate(310.407 120.204)"><path  stroke-linecap="round" stroke-linejoin="round" fill-opacity="0" class="anim-color-1" stroke="#353535" stroke-opacity="1" stroke-width="1" d="M9.093 3.062C7.871 6.69 2.809 8.262-2.213 6.571c-5.022-1.692-8.102-6.006-6.88-9.634 1.222-3.629 6.284-5.199 11.306-3.508 5.022 1.692 8.102 6.004 6.88 9.633z"></path></g><g  opacity="1" transform="translate(310.139 120.217)"><path  class="anim-color-1" fill="#353535" fill-opacity="1" d="M2.88.651C2.039 4.375.067 7.101-1.523 6.742-3.114 6.382-3.722 3.073-2.88-.65c.842-3.724 2.813-6.451 4.404-6.092 1.59.36 2.197 3.67 1.356 7.393z"></path></g><g  opacity="1" transform="translate(360.779 120.204)"><path  class="anim-color-2" fill="#FFEBD5" fill-opacity="1" d="M-9.093 3.062C-7.87 6.69-2.81 8.262 2.213 6.571c5.021-1.692 8.102-6.006 6.88-9.634C7.871-6.692 2.809-8.262-2.212-6.571c-5.023 1.692-8.103 6.004-6.881 9.633z"></path></g><g  opacity="1" transform="translate(360.779 120.204)"><path  stroke-linecap="round" stroke-linejoin="round" fill-opacity="0" class="anim-color-1" stroke="#353535" stroke-opacity="1" stroke-width="1" d="M-9.093 3.062C-7.87 6.69-2.81 8.262 2.213 6.571c5.021-1.692 8.102-6.006 6.88-9.634C7.871-6.692 2.809-8.262-2.212-6.571c-5.023 1.692-8.103 6.004-6.881 9.633z"></path></g><g  opacity="1" transform="translate(361.045 120.217)"><path  class="anim-color-1" fill="#353535" fill-opacity="1" d="M-2.929.367c.475 3.788 2.17 6.694 3.788 6.491 1.618-.203 2.545-3.438 2.07-7.225C2.455-4.155.758-7.061-.86-6.858c-1.618.203-2.544 3.437-2.069 7.225z"></path></g><g  opacity="1" transform="translate(335.561 95.374)"><path  class="anim-color-1" fill="#353535" fill-opacity="1" d="M.078-.216C11.407-.719 15.45-8.212 22.902-7.988c8.197.245 12.006 7.832 13.769 15.133 1.761 7.301 2.627 22.958 2.627 22.958s3.15-24.267 1.228-32.596C38.009-13.403 25.601-30.103.147-29.6h.028c-24.924-.252-38.183 16.197-40.701 27.107-1.922 8.329 1.847 32.596 1.847 32.596s.123-15.868 1.885-23.169c1.763-7.3 5.869-14.887 13.664-15.133 7.451-.235 11.724 7.48 23.053 7.983"></path></g><g  opacity="1" transform="translate(311.442 110.231)"><path  class="anim-color-3" fill="#F3E7D6" fill-opacity="1" d="M-8.433-1.762 8.433 1.762"></path></g><g  opacity="1" transform="translate(311.442 110.231)"><path  stroke-linecap="round" stroke-linejoin="round" fill-opacity="0" class="anim-color-1" stroke="#353535" stroke-opacity="1" stroke-width="4" d="M-8.433-1.762 8.433 1.762"></path></g><g  opacity="1" transform="translate(360.282 110.231)"><path  class="anim-color-3" fill="#F3E7D6" fill-opacity="1" d="M8.434-1.762-8.434 1.762"></path></g><g  opacity="1" transform="translate(360.282 110.231)"><path  stroke-linecap="round" stroke-linejoin="round" fill-opacity="0" class="anim-color-1" stroke="#353535" stroke-opacity="1" stroke-width="4" d="M8.434-1.762-8.434 1.762"></path></g><g  opacity="1" transform="translate(328.136 215.309)"><path  class="anim-color-2" fill="#FFEBD5" fill-opacity="1" d="M-2.337-44.784c-7.108-.618-17.161-12.134-24.826-9.579-8.653 2.884-7.828 11.537-7.828 11.537-5.033 10.427-22.022 81.203 20.622 90.473C28.275 56.918 57.013 28.18 55.159 5.004c-1.855-23.177-5.888-45.563-5.888-45.563s-.824-13.187-11.949-11.127"></path></g><g  opacity="1" transform="translate(328.136 215.309)"><path  stroke-linecap="round" stroke-linejoin="round" fill-opacity="0" class="anim-color-1" stroke="#353535" stroke-opacity="1" stroke-width="1" d="M-2.337-44.784c-7.108-.618-17.161-12.134-24.826-9.579-8.653 2.884-7.828 11.537-7.828 11.537-5.033 10.427-22.022 81.203 20.622 90.473C28.275 56.918 57.013 28.18 55.159 5.004c-1.855-23.177-5.888-45.563-5.888-45.563s-.824-13.187-11.949-11.127"></path></g><g  opacity="1" transform="translate(336.198 310.436)"><path  class="anim-color-1" fill="#353535" fill-opacity="1" d="M39.648-132.997s49.805 18.815 59.766 26.562c9.961 7.748-16.601 113.629-16.601 130.23 0 16.602 6.217 36.836 6.64 54.602.737 30.989-9.593 39.843-9.593 39.843S44.45 132.997.911 132.997c-44.271 0-80.773-14.757-80.773-14.757s-10.33-8.854-9.592-39.843c.423-17.766 6.642-38 6.642-54.602 0-16.601-26.564-122.482-16.603-130.23 9.961-7.747 59.767-26.562 59.767-26.562L-.201-99.634l39.849-33.363z"></path></g><g  opacity="1" transform="translate(336.198 310.436)"><path  stroke-linecap="round" stroke-linejoin="round" fill-opacity="0" class="anim-color-2" stroke="#FFEBD5" stroke-opacity="1" stroke-width="1" d="M39.648-132.997s49.805 18.815 59.766 26.562c9.961 7.748-16.601 113.629-16.601 130.23 0 16.602 6.217 36.836 6.64 54.602.737 30.989-9.593 39.843-9.593 39.843S44.45 132.997.911 132.997c-44.271 0-80.773-14.757-80.773-14.757s-10.33-8.854-9.592-39.843c.423-17.766 6.642-38 6.642-54.602 0-16.601-26.564-122.482-16.603-130.23 9.961-7.747 59.767-26.562 59.767-26.562L-.201-99.634l39.849-33.363z"></path></g><g  opacity="1" transform="translate(288.568 267.79)"><path  class="anim-color-1" fill="#353535" fill-opacity="1" d="M18.004-18.08V11.352L0 18.08l-18.004-6.728V5.205"></path></g><g  opacity="1" transform="translate(288.568 267.79)"><path  stroke-linecap="round" stroke-linejoin="round" fill-opacity="0" class="anim-color-2" stroke="#FFEBD5" stroke-opacity="1" stroke-width="1" d="M18.004-18.08V11.352L0 18.08l-18.004-6.728V5.205"></path></g><g  opacity="1" transform="translate(288.568 251.232)"><path  class="anim-color-1" fill="#353535" fill-opacity="1" d="M-19.466-5.071s9.35.849 19.193.999c9.513.145 19.739-.999 19.739-.999v8.943s-3.008.9-5.14 1.2"></path></g><g  opacity="1" transform="translate(288.568 251.232)"><path  stroke-linecap="round" stroke-linejoin="round" fill-opacity="0" class="anim-color-2" stroke="#FFEBD5" stroke-opacity="1" stroke-width="1" d="M-19.466-5.071s9.35.849 19.193.999c9.513.145 19.739-.999 19.739-.999v8.943s-3.008.9-5.14 1.2"></path></g><g  opacity="1" transform="translate(279.108 256.253)"><path  class="anim-color-1" fill="#353535" fill-opacity="1" d="M10.007.5c-6.892 0-20.014-1-20.014-1"></path></g><g  opacity="1" transform="translate(279.108 256.253)"><path  stroke-linecap="round" stroke-linejoin="round" fill-opacity="0" class="anim-color-2" stroke="#FFEBD5" stroke-opacity="1" stroke-width="1" d="M10.007.5c-6.892 0-20.014-1-20.014-1"></path></g><g  opacity="1" transform="translate(383.498 267.79)"><path  class="anim-color-1" fill="#353535" fill-opacity="1" d="M18.004-18.08V11.352L0 18.08l-18.004-6.728V-18.08"></path></g><g  opacity="1" transform="translate(383.498 267.79)"><path  stroke-linecap="round" stroke-linejoin="round" fill-opacity="0" class="anim-color-2" stroke="#FFEBD5" stroke-opacity="1" stroke-width="1" d="M18.004-18.08V11.352L0 18.08l-18.004-6.728V-18.08"></path></g><g  opacity="1" transform="translate(383.498 251.457)"><path  class="anim-color-1" fill="#353535" fill-opacity="1" d="M.547 5.296c-6.892 0-20.014-1-20.014-1v-9.592s9.351.849 19.194.999c9.512.145 19.74-.999 19.74-.999v8.943s-3.008.899-5.141 1.199"></path></g><g  opacity="1" transform="translate(383.498 251.457)"><path  stroke-linecap="round" stroke-linejoin="round" fill-opacity="0" class="anim-color-2" stroke="#FFEBD5" stroke-opacity="1" stroke-width="1" d="M.547 5.296c-6.892 0-20.014-1-20.014-1v-9.592s9.351.849 19.194.999c9.512.145 19.74-.999 19.74-.999v8.943s-3.008.899-5.141 1.199"></path></g><g  opacity="1" transform="translate(372.1 344.395)"><path  class="anim-color-2" fill="#FFEBD5" fill-opacity="1" d="M-34.709 28.819s35.396-5.092 46.826-8.398C23.545 17.115 34.709 2.358 34.709 2.358S15.69-28.82-.563-24.405"></path></g><g  opacity="1" transform="translate(372.1 344.395)"><path  stroke-linecap="round" stroke-linejoin="round" fill-opacity="0" class="anim-color-1" stroke="#353535" stroke-opacity="1" stroke-width="1" d="M-34.709 28.819s35.396-5.092 46.826-8.398C23.545 17.115 34.709 2.358 34.709 2.358S15.69-28.82-.563-24.405"></path></g><g  opacity="1" transform="translate(286.751 321.61)"><path  class="anim-color-2" fill="#FFEBD5" fill-opacity="1" d="M23.796-12.451S6.64-18.538.553-16.878c-6.088 1.66-22.591 4.96-22.591 4.96l-1.758 23.262 34.863 7.194 12.729-30.989z"></path></g><g  opacity="1" transform="translate(286.751 321.61)"><path  stroke-linecap="round" stroke-linejoin="round" fill-opacity="0" class="anim-color-1" stroke="#353535" stroke-opacity="1" stroke-width="1" d="M23.796-12.451S6.64-18.538.553-16.878c-6.088 1.66-22.591 4.96-22.591 4.96l-1.758 23.262 34.863 7.194 12.729-30.989z"></path></g><g  opacity="1" transform="translate(288.964 297.662)"><path  class="anim-color-1" fill="#353535" fill-opacity="1" d="m-18.157-52.588-6.007 82.517 95.551 16.97s1.106 13.281-1.66 23.242c-2.767 9.961-9.961 21.583-9.961 21.583S-43.718 82.315-50.358 79.549c-6.641-2.767-22.135-24.348-19.368-69.726C-66.96-35.555-53.402-91.723-53.402-91.723"></path></g><g  opacity="1" transform="translate(288.964 297.662)"><path  stroke-linecap="round" stroke-linejoin="round" fill-opacity="0" class="anim-color-2" stroke="#FFEBD5" stroke-opacity="1" stroke-width="1" d="m-18.157-52.588-6.007 82.517 95.551 16.97s1.106 13.281-1.66 23.242c-2.767 9.961-9.961 21.583-9.961 21.583S-43.718 82.315-50.358 79.549c-6.641-2.767-22.135-24.348-19.368-69.726C-66.96-35.555-53.402-91.723-53.402-91.723"></path></g><g  opacity="1" transform="translate(372.327 280.474)"><path  class="anim-color-1" fill="#353535" fill-opacity="1" d="M63.951-75.492c3.873 3.874 9.45 46.775 3.553 86.375-4.326 29.048-9.272 59.952-23.034 62.611C34.132 75.492-73.401 53.572-73.401 53.572s1.106-15.494 3.32-22.688c2.213-7.194 8.302-11.068 8.302-11.068l79.686 4.427 13.351-54.989"></path></g><g  opacity="1" transform="translate(372.327 280.474)"><path  stroke-linecap="round" stroke-linejoin="round" fill-opacity="0" class="anim-color-2" stroke="#FFEBD5" stroke-opacity="1" stroke-width="1" d="M63.951-75.492c3.873 3.874 9.45 46.775 3.553 86.375-4.326 29.048-9.272 59.952-23.034 62.611C34.132 75.492-73.401 53.572-73.401 53.572s1.106-15.494 3.32-22.688c2.213-7.194 8.302-11.068 8.302-11.068l79.686 4.427 13.351-54.989"></path></g><g  opacity="1" transform="translate(300.83 148.027)"><path  class="anim-color-3" fill="#F3E7D6" fill-opacity="1" d="m-.67.315 1.34-.63"></path></g><g  opacity="1" transform="translate(300.83 148.027)"><path  stroke-linecap="round" stroke-linejoin="round" fill-opacity="0" class="anim-color-1" stroke="#353535" stroke-opacity="1" stroke-width="1" d="m-.67.315 1.34-.63"></path></g><g  opacity="1" transform="translate(370.069 147.607)"><path  class="anim-color-3" fill="#F3E7D6" fill-opacity="1" d="m1.095.735-2.19-1.47"></path></g><g  opacity="1" transform="translate(370.069 147.607)"><path  stroke-linecap="round" stroke-linejoin="round" fill-opacity="0" class="anim-color-1" stroke="#353535" stroke-opacity="1" stroke-width="1" d="m1.095.735-2.19-1.47"></path></g><g  opacity="1" transform="translate(306.175 188.758)"><path  class="anim-color-2" fill="#FFEBD5" fill-opacity="1" d="M-13.649-17.306S-5.82-10.508 2.833-6.387C11.9-2.069 22.611-.206 22.714-.309l-7.726 17.615S2.958 15.354-7.468 9.272c-9.889-5.769-15.246-12.98-15.246-12.98l9.065-13.598z"></path></g><g  opacity="1" transform="translate(306.175 188.758)"><path  stroke-linecap="round" stroke-linejoin="round" fill-opacity="0" class="anim-color-1" stroke="#353535" stroke-opacity="1" stroke-width="1" d="M-13.649-17.306S-5.82-10.508 2.833-6.387C11.9-2.069 22.611-.206 22.714-.309l-7.726 17.615S2.958 15.354-7.468 9.272c-9.889-5.769-15.246-12.98-15.246-12.98l9.065-13.598z"></path></g><g  opacity="1" transform="translate(365.042 188.758)"><path  class="anim-color-2" fill="#FFEBD5" fill-opacity="1" d="M13.649-17.306S5.82-10.508-2.832-6.387C-11.901-2.069-22.611-.206-22.713-.309l7.725 17.615s12.029-1.952 22.455-8.034c9.889-5.769 15.246-12.98 15.246-12.98l-9.064-13.598z"></path></g><g  opacity="1" transform="translate(365.042 188.758)"><path  stroke-linecap="round" stroke-linejoin="round" fill-opacity="0" class="anim-color-1" stroke="#353535" stroke-opacity="1" stroke-width="1" d="M13.649-17.306S5.82-10.508-2.832-6.387C-11.901-2.069-22.611-.206-22.713-.309l7.725 17.615s12.029-1.952 22.455-8.034c9.889-5.769 15.246-12.98 15.246-12.98l-9.064-13.598z"></path></g><g  opacity="1" transform="translate(335.532 199.729)"><path  class="anim-color-2" fill="#FFEBD5" fill-opacity="1" d="M-6.644-11.28.464 11.28l6.18-22.56"></path></g><g  opacity="1" transform="translate(335.532 199.729)"><path  stroke-linecap="round" stroke-linejoin="round" fill-opacity="0" class="anim-color-1" stroke="#353535" stroke-opacity="1" stroke-width="1" d="M-6.644-11.28.464 11.28l6.18-22.56"></path></g><g  opacity="1"><path  class="anim-color-1" fill="#353535" fill-opacity="1" d="M335.996 211.936v84.262"></path></g><g  opacity="1"><path  stroke-linecap="round" stroke-linejoin="round" fill-opacity="0" class="anim-color-3" stroke="#F3E7D6" stroke-opacity="1" stroke-width="1" d="M335.996 211.936v84.262"></path></g><g  opacity="1" transform="translate(306.949 126.596)"><path  class="anim-color-3" fill="#F3E7D6" fill-opacity="1" d="M-5.235-1.001c5.325-.712 8.514.966 10.47 2.713"></path></g><g  opacity="1" transform="translate(306.949 126.596)"><path  stroke-linecap="round" stroke-linejoin="round" fill-opacity="0" class="anim-color-1" stroke="#353535" stroke-opacity="1" stroke-width="1" d="M-5.235-1.001c5.325-.712 8.514.966 10.47 2.713"></path></g><g  opacity="1" transform="translate(363.032 127.041)"><path  class="anim-color-3" fill="#F3E7D6" fill-opacity="1" d="M5.312-.485C.044-1.542-3.247-.074-5.312 1.542"></path></g><g  opacity="1" transform="translate(363.032 127.041)"><path  stroke-linecap="round" stroke-linejoin="round" fill-opacity="0" class="anim-color-1" stroke="#353535" stroke-opacity="1" stroke-width="1" d="M5.312-.485C.044-1.542-3.247-.074-5.312 1.542"></path></g><g  opacity="1" transform="translate(350.83 170.989)"><path  class="anim-color-3" fill="#F3E7D6" fill-opacity="1" d="M6.49-3.554S0 2.318-6.49 3.554"></path></g><g  opacity="1" transform="translate(350.83 170.989)"><path  stroke-linecap="round" stroke-linejoin="round" fill-opacity="0" class="anim-color-1" stroke="#353535" stroke-opacity="1" stroke-width="1" d="M6.49-3.554S0 2.318-6.49 3.554"></path></g><g  opacity="1" transform="translate(271.925 308.678)"><path  class="anim-color-2" fill="#FFEBD5" fill-opacity="1" d="m16.297-4.063-17.386-.425S-16.297-1.81-15.992 1.319c.309 3.169 17.976.144 17.976.144l8.418 2.642"></path></g><g  opacity="1" transform="translate(271.925 308.678)"><path  stroke-linecap="round" stroke-linejoin="round" fill-opacity="0" class="anim-color-1" stroke="#353535" stroke-opacity="1" stroke-width="1" d="m16.297-4.063-17.386-.425S-16.297-1.81-15.992 1.319c.309 3.169 17.976.144 17.976.144l8.418 2.642"></path></g><g  opacity="1" transform="translate(271.366 314.72)"><path  class="anim-color-2" fill="#FFEBD5" fill-opacity="1" d="M17.448-3.635 1.649-4.296S-17.448-2.9-17.109.277c.343 3.218 19.941 2.215 19.941 2.215l6.45 1.804"></path></g><g  opacity="1" transform="translate(271.366 314.72)"><path  stroke-linecap="round" stroke-linejoin="round" fill-opacity="0" class="anim-color-1" stroke="#353535" stroke-opacity="1" stroke-width="1" d="M17.448-3.635 1.649-4.296S-17.448-2.9-17.109.277c.343 3.218 19.941 2.215 19.941 2.215l6.45 1.804"></path></g><g  opacity="1" transform="translate(270.966 320.585)"><path  class="anim-color-3" fill="#F3E7D6" fill-opacity="1" d="m14.456-4.559-14.63.463s-14.282 2.397-13.754 5.308c.536 2.947 15.306.878 15.306.878l9.056 2.469"></path></g><g  opacity="1" transform="translate(270.966 320.585)"><path  stroke-linecap="round" stroke-linejoin="round" fill-opacity="0" class="anim-color-1" stroke="#353535" stroke-opacity="1" stroke-width="1" d="m14.456-4.559-14.63.463s-14.282 2.397-13.754 5.308c.536 2.947 15.306.878 15.306.878l9.056 2.469"></path></g><g  opacity="1" transform="translate(270.698 326.792)"><path  class="anim-color-2" fill="#FFEBD5" fill-opacity="1" d="m11.115-4.533-13.619.426s-9.435 3.104-8.374 5.756c.927 2.318 10.507-.464 10.507-.464l12.31 3.348"></path></g><g  opacity="1" transform="translate(270.698 326.792)"><path  stroke-linecap="round" stroke-linejoin="round" fill-opacity="0" class="anim-color-1" stroke="#353535" stroke-opacity="1" stroke-width="1" d="m11.115-4.533-13.619.426s-9.435 3.104-8.374 5.756c.927 2.318 10.507-.464 10.507-.464l12.31 3.348"></path></g><g  opacity="1" transform="translate(260.283 469.204)"><path  class="anim-color-1" fill="#353535" fill-opacity="1" d="M-7.416 21.478S1.854-5.099 7.416-21.478"></path></g><g  opacity="1" transform="translate(260.283 469.204)"><path  stroke-linecap="round" stroke-linejoin="round" fill-opacity="0" class="anim-color-2" stroke="#FFEBD5" stroke-opacity="1" stroke-width="1" d="M-7.416 21.478S1.854-5.099 7.416-21.478"></path></g><g  opacity="1" transform="translate(413.254 469.204)"><path  class="anim-color-1" fill="#353535" fill-opacity="1" d="M7.417 21.478S-1.855-5.099-7.417-21.478"></path></g><g  opacity="1" transform="translate(413.254 469.204)"><path  stroke-linecap="round" stroke-linejoin="round" fill-opacity="0" class="anim-color-2" stroke="#FFEBD5" stroke-opacity="1" stroke-width="1" d="M7.417 21.478S-1.855-5.099-7.417-21.478"></path></g><g  opacity="1"><path  stroke-linecap="round" stroke-linejoin="round" fill-opacity="0" class="anim-color-1" stroke="#353535" stroke-opacity="1" stroke-width="1" d="M323.236 144.872h23.267"></path></g><g  opacity="1" transform="translate(518.724 760.372)"><path  class="anim-color-1" fill="#353535" fill-opacity="1" d="M147.041-51.305c-27.38 10.475-37.458 40.133-50.534 43.946-20.876 6.089-29.139-4.783-51.61-.579C23.088-3.858 9.301 10.323-3.957 11.778c-11.887 1.305-27.079-6.09-42.766-1.74-17.251 4.784-16.641 11.941-25.079 14.351-9.134 2.611-13.843-3.317-25.66 2.175-10.293 4.784-14.67 14.519-24.644 15.367-13.627 1.16-24.935 8.989-24.935 8.989s172.52.378 294.082.385v-102.61z"></path></g><g  opacity="1" transform="translate(144.632 702.53)"><path  class="anim-color-1" fill="#353535" fill-opacity="1" d="M105.779 23.361s-187.608.412-194.47 0c-17.087-1.025 12.701-14.959 15.52-22.356 3.82-10.028 13.199-23.372 28.533-23.954 21.684-.824 30.647 17.261 35.134 18.725C.281-1.033 4.288-6.489 14.924-4.499c10.324 1.931 16.85 8.644 23.125 9.333 5.627.617 12.819-2.883 20.244-.824 8.165 2.264 7.877 5.653 11.871 6.793 4.323 1.236 6.552-1.57 12.146 1.03 4.872 2.264 6.944 6.872 11.665 7.273 6.45.55 11.804 4.255 11.804 4.255z"></path></g><g  opacity="1" transform="translate(99.164 845.086)"><path  class="anim-color-1" fill="#353535" fill-opacity="1" d="M-97.724 132.523s2.856-38.85 127.253-43.525c68.195-2.564 58.859-23.101 19.345-37.918-4.377-1.642 17.475 2.259 17.724-7.577.242-9.561-56.446-20.218-100.291-74.428-20.819-25.74-25.275-87.622-64.031-101.598v265.046z"></path></g></g></g></svg>