<svg  xmlns="http://www.w3.org/2000/svg" viewBox="0 0 602 650" width="602" height="650" preserveAspectRatio="xMidYMid meet" style="width:100%;height:100%;transform:translate3d(0,0,0);content-visibility:visible"><defs ><clipPath id="__path__lottie_element_17"><path  d="M0 0h602v650H0z"></path></clipPath><clipPath id="__path__lottie_element_19"><path  d="M0 0h1000v650H0z"></path></clipPath><mask id="__path__lottie_element_20"><path  fill="#fff" clip-rule="nonzero" d="M801 649.19H199V.81h602v648.38" fill-opacity="1"></path></mask></defs><g  clip-path="url(#__path__lottie_element_17)"><g  clip-path="url(#__path__lottie_element_19)" transform="translate(-199)" opacity="1" style="display:block"><g  mask="url(#__path__lottie_element_20)"><g  transform="translate(-3.382 -1.786)" opacity="1" style="display:block"><g  opacity="1" transform="translate(545.502 445.048)"><path  class="anim-color-2" fill="#FFEBD5" fill-opacity="1" d="M-248.322-206.738s-4.224 1.927-2.447 19.336c2.546 24.952-9.572 67.682-24.027 88.676-44.475 64.596-86.833 93.187-92.128 164.136-5.294 70.949 0 142.958 0 142.958h735.965s-3.176-371.689 0-371.689c3.177 0-617.363-43.417-617.363-43.417z"></path></g><g  opacity="1" transform="translate(545.502 445.862)"><path  stroke-linecap="round" stroke-linejoin="round" fill-opacity="0" class="anim-color-1" stroke="#353535" stroke-opacity="1" stroke-width="1" d="M-248.322-207.553s-4.224 1.927-2.447 19.336c2.546 24.952-9.572 67.682-24.027 88.676-44.475 64.596-86.833 93.187-92.128 164.136-5.294 70.949 0 142.958 0 142.958h735.965s-3.176-371.689 0-371.689c3.177 0-617.363-43.417-617.363-43.417z"></path></g><g  opacity="1" transform="translate(503.382 404.94)"><path  class="anim-color-1" fill="#353535" fill-opacity="1" d="M173.367-205.898s-197.68 8.472-266.867 15.532c-69.188 7.06-182.148 19.768-56.48 40.948 125.667 21.18 340.29 21.18 464.546 55.067 124.255 33.889 115.783 72.013-5.648 98.84C187.486 31.317 25.107 42.613-106.208 49.673-186.714 54.001-500 56.733-500 56.733v190.113H500v-493.692"></path></g><g  opacity="1" transform="translate(503.382 404.94)"><path  stroke-linecap="round" stroke-linejoin="round" fill-opacity="0" class="anim-color-1" stroke="#353535" stroke-opacity="1" stroke-width="1" d="M173.367-205.898s-197.68 8.472-266.867 15.532c-69.188 7.06-182.148 19.768-56.48 40.948 125.667 21.18 340.29 21.18 464.546 55.067 124.255 33.889 115.783 72.013-5.648 98.84C187.486 31.317 25.107 42.613-106.208 49.673-186.714 54.001-500 56.733-500 56.733v190.113H500v-493.692"></path></g><g  opacity="1" transform="translate(309.802 371.218)"><path  fill="#F8DFC5" fill-opacity="1" d="M-72.38 42.189s26.556 11.03 46.993.131C11.359 22.722 47.659 20.94 48.55 17.376c4.758-19.032 19.764-33.502 21.825-40.752 2.004-7.053-7.794-29.844-7.794-29.844s-80.397 81.585-99.4 85.148C-55.823 35.491-72.38 42.189-72.38 42.189z"></path></g><g  opacity="1" transform="translate(246.967 395.203)"><path  class="anim-color-1" fill="#353535" fill-opacity="1" d="M2.857 17.854c-7.327 1.458-11.553 1.831-11.553 1.831s-4.284-1.029-2.999-5.886c1.286-4.857-2.425-9.618-2.127-12.58.298-2.962 4.824-12.28 9.012-14.253 4.187-1.972 7.25-6.652 10.684-3.116 3.435 3.536 6.082 1.01 7.164 10.095C14.12 3.029 2.857 17.854 2.857 17.854z"></path></g><g  opacity="1" transform="translate(304.76 359.332)"><path  class="anim-color-2" fill="#FFEBD5" fill-opacity="1" d="M51.121 22.494s-1.542 3.436-8.02 4.38c-6.477.945-11.413-1.545-21.131 3.861-9.718 5.406-36.852 9.462-47.914 16.328-11.061 6.868-19.791 10.379-27.137 8.045-7.344-2.334 5.457-14.61 3.483-14.808-1.975-.199.674-6.714-2.525-6.637-3.199.078-7.229 4.46-7.267.866-.038-3.595 4.508-13.11 4.508-13.11S-63.3 33.737-65.314 33.933c-2.014.197-1.064-5.293-1.064-5.293s-4.425 4.343-3.322 9.241c1.104 4.898 3.632 3.556 3.749 6.36.117 2.805-4.347 7.542-1.387 9.834 2.961 2.292-4.174 1.841-4.408-3.768-.235-5.608 3.241-5.791 2.32-7.212-.921-1.422-4.21-5.743-1.944-9.77 2.266-4.027 5.217-6.922 6.245-9.212 1.028-2.291 12.17-12.606 16.571-22.004 4.402-9.398 4.22-15.533 8.042-24.457 3.821-8.924 4.482-21.694 31.082-28.79 13.639-3.639 24.433-6.096 35.263-6.226 6.421-.078 12.854.663 19.899 2.46 4.193 1.068 6.168 6.901 9.197 9.043 3.029 2.142 12.917 3.415 13.807 4.751.287.43-1.709 5.651-.445 8.908 1.685 4.343 3.643 9.15 4.045 11.617 1.3 7.981-3.299 16.955-10.517 25.272-7.219 8.317-10.698 17.807-10.698 17.807z"></path></g><g  opacity="1" transform="translate(284.069 358.794)"><path  fill="#F8DFC5" fill-opacity="1" d="M-34.191 21.956s-8.418 12.318-10.432 12.515c-2.014.196-1.064-5.293-1.064-5.293s-4.425 4.342-3.322 9.24c1.104 4.898 3.632 3.557 3.749 6.36.117 2.805-4.348 7.542-1.387 9.834s-4.174 1.841-4.408-3.767c-.235-5.609 3.241-5.791 2.32-7.213-.921-1.422-4.21-5.742-1.944-9.77 2.266-4.027 5.217-6.922 6.245-9.212 1.028-2.291 12.17-12.606 16.571-22.004 4.402-9.398 4.22-15.533 8.042-24.457 3.821-8.923 4.482-21.693 31.082-28.79 13.639-3.639 24.433-6.095 35.263-6.226 6.421-.077 1.926 4.451-1.86 6.455-3.386 1.793-34.742 5.122-42.313 13.808-2.564 2.94 16.629 6.83 9.576 16.925C3.373-7.397-9.391-9.753-21.033 6.417c-4.009 5.568-13.158 15.539-13.158 15.539z"></path></g><g  opacity="1" transform="translate(337.504 318.752)"><path  stroke-linecap="round" stroke-linejoin="round" fill-opacity="0" class="anim-color-1" stroke="#353535" stroke-opacity="1" stroke-width="1" d="m11.057 6.224-.711-2.199s-4.454-.634-7.278-2.991c-3.803-3.175-4.856-5.94-4.856-5.94s-2.526-1.318-4.238-.16c-1.711 1.158-3.213 2.869-5.03 2.42"></path></g><g  opacity="1" transform="translate(310.766 364.688)"><path  class="anim-color-2" fill="#FFEBD5" fill-opacity="1" d="M19.983 18.469s3.609-4.158 4.678-9.503c.754-3.772.104-6.759-.343-8.188a1.4 1.4 0 0 0-1.265-.973 4.634 4.634 0 0 0-4.74 3.476c-.361 1.393-1.058 3.293-2.315 5.878-4.19 8.622-13.922 15.49-25.914 13.088-11.992-2.401-15.499-19.109-10.86-30.877 4.639-11.766 25.163-10.902 32.059-6.752a769.357 769.357 0 0 1 7.324 4.466c2.712 1.676 5.902-1.449 4.215-4.154-.747-1.198-1.785-2.46-3.217-3.731-6.593-5.848-14.861-5.615-14.861-5.615"></path></g><g  opacity="1" transform="translate(310.766 364.688)"><path  stroke-linecap="round" stroke-linejoin="round" fill-opacity="0" class="anim-color-1" stroke="#353535" stroke-opacity="1" stroke-width="1" d="M19.983 18.469s3.609-4.158 4.678-9.503c.754-3.772.104-6.759-.343-8.188a1.4 1.4 0 0 0-1.265-.973 4.634 4.634 0 0 0-4.74 3.476c-.361 1.393-1.058 3.293-2.315 5.878-4.19 8.622-13.922 15.49-25.914 13.088-11.992-2.401-15.499-19.109-10.86-30.877 4.639-11.766 25.163-10.902 32.059-6.752a769.357 769.357 0 0 1 7.324 4.466c2.712 1.676 5.902-1.449 4.215-4.154-.747-1.198-1.785-2.46-3.217-3.731-6.593-5.848-14.861-5.615-14.861-5.615"></path></g><g  opacity="1" transform="translate(308.183 366.848)"><path  class="anim-color-1" fill="#353535" fill-opacity="1" d="M15.607 5.898C12.093 13.127 3.932 18.885-6.124 16.872-16.18 14.858-19.12.849-15.23-9.018c3.89-9.867 21.099-9.143 26.882-5.662 6.191 3.725 7.469 13.349 3.955 20.578z"></path></g><g  opacity="1" transform="translate(292.052 350.083)"><path  class="anim-color-3" fill="#F3E7D6" fill-opacity="1" d="M3.603-4.093S-.032-2.33-3.603 4.093"></path></g><g  opacity="1" transform="translate(292.052 350.083)"><path  stroke-linecap="round" stroke-linejoin="round" fill-opacity="0" class="anim-color-1" stroke="#353535" stroke-opacity="1" stroke-width="1" d="M3.603-4.093S-.032-2.33-3.603 4.093"></path></g><g  opacity="1" transform="translate(284.858 349.559)"><path  class="anim-color-3" fill="#F3E7D6" fill-opacity="1" d="M2.714-3.85c-.33.632-4.189 4.633-5.428 7.7"></path></g><g  opacity="1" transform="translate(284.858 349.559)"><path  stroke-linecap="round" stroke-linejoin="round" fill-opacity="0" class="anim-color-1" stroke="#353535" stroke-opacity="1" stroke-width="1" d="M2.714-3.85c-.33.632-4.189 4.633-5.428 7.7"></path></g><g  opacity="1" transform="translate(263.685 357.803)"><path  stroke-linecap="round" stroke-linejoin="round" fill-opacity="0" class="anim-color-1" stroke="#353535" stroke-opacity="1" stroke-width="1" d="M7.827-15.038S5.231-9.048 2.976-1.163-2.782 9.827-7.827 15.038"></path></g><g  opacity="1" transform="translate(304.548 316.366)"><path  stroke-linecap="round" stroke-linejoin="round" fill-opacity="0" class="anim-color-1" stroke="#353535" stroke-opacity="1" stroke-width="1" d="M22.023-9.422c-6.148 1.643-9.625 3.155-9.625 3.155l-3.543.84s-2.724.658-10.479 2.405C-9.379-1.274-15.185.934-22.022 9.422"></path></g><g  opacity="1" transform="translate(336.75 383.974)"><path  class="anim-color-1" fill="#353535" fill-opacity="1" d="M-23.161 10.411s7.127-4.008 11.581-6.235C-7.126 1.949-1.558-1.169 2.896-.056c4.454 1.114 9.353.223 12.248-2.895 2.895-3.118 8.017-7.46 8.017-7.46s-2.895 5.567-3.785 7.906c-.891 2.338-3.368 4.139-7.795 4.677-5.493.668-12.175.074-17.26 1.892-4.781 1.711-6.198 3.452-9.539 4.566-3.34 1.114-7.943 1.781-7.943 1.781z"></path></g><g  opacity="1" transform="translate(272.389 407.859)"><path  fill="#F8DFC5" fill-opacity="1" d="M-16.479-7.461s-4.677 6.014-3.563 8.909c1.113 2.896 4.676 5.345 13.584.891C2.451-2.115 3.34-3.229 7.349-4.564c4.009-1.337 16.926-4.009 16.926-4.009S13.14-5.456 9.577-3.451C6.014-1.447-1.977 4.665-10.021 6.57c-8.463 2.004-14.253.445-12.249-4.677 2.005-5.123 5.791-9.354 5.791-9.354z"></path></g><g  opacity="1" transform="translate(251.901 394.006)"><path  fill="#F8DFC5" fill-opacity="1" d="M-5.79.825s7.571-6.236 9.575-5.567c2.005.668-.333 9.854-.556 9.91-.974.243.334-5.623-1.448-6.237C-.325-1.792-5.79.825-5.79.825z"></path></g><g  opacity="1" transform="translate(371.009 339.601)"><path  fill="#F8DFC5" fill-opacity="1" d="M-5.233-23.755s3.859 2.821 3.859 3.711c0 .892-5.79 5.197-5.642 8.464.094 2.051 6.162 7.126 6.83 13.361.668 6.236.519 12.175.297 13.511-.223 1.337-3.861 8.463-3.861 8.463S5.381 12.694 6.272 6.235c.891-6.458-4.007-14.03-4.23-18.706-.223-4.677.444-8.909.444-8.909l-7.719-2.375z"></path></g><g  opacity="1" transform="translate(304.76 359.332)"><path  stroke-linecap="round" stroke-linejoin="round" fill-opacity="0" class="anim-color-1" stroke="#353535" stroke-opacity="1" stroke-width="1" d="M51.121 22.494s-1.542 3.436-8.02 4.38c-6.477.945-11.413-1.545-21.131 3.861-9.718 5.406-36.852 9.462-47.914 16.328-11.061 6.868-19.791 10.379-27.137 8.045-7.344-2.334 5.457-14.61 3.483-14.808-1.975-.199.674-6.714-2.525-6.637-3.199.078-7.229 4.46-7.267.866-.038-3.595 4.508-13.11 4.508-13.11S-63.3 33.737-65.314 33.933c-2.014.197-1.064-5.293-1.064-5.293s-4.425 4.343-3.322 9.241c1.104 4.898 3.632 3.556 3.749 6.36.117 2.805-4.347 7.542-1.387 9.834 2.961 2.292-4.174 1.841-4.408-3.768-.235-5.608 3.241-5.791 2.32-7.212-.921-1.422-4.21-5.743-1.944-9.77 2.266-4.027 5.217-6.922 6.245-9.212 1.028-2.291 12.17-12.606 16.571-22.004 4.402-9.398 4.22-15.533 8.042-24.457 3.821-8.924 4.482-21.694 31.082-28.79 13.639-3.639 24.433-6.096 35.263-6.226 6.421-.078 12.854.663 19.899 2.46 4.193 1.068 6.168 6.901 9.197 9.043 3.029 2.142 12.917 3.415 13.807 4.751.287.43-1.709 5.651-.445 8.908 1.685 4.343 3.643 9.15 4.045 11.617 1.3 7.981-3.299 16.955-10.517 25.272-7.219 8.317-10.698 17.807-10.698 17.807z"></path></g><g  opacity="1" transform="translate(408.461 317.777)"><path  stroke-linecap="round" stroke-linejoin="round" fill-opacity="0" class="anim-color-1" stroke="#353535" stroke-opacity="1" stroke-width="1" d="m-34.964.445 27.615 6.236L23.829-6.681l11.136 3.117"></path></g><g  opacity="1" transform="translate(435.185 307.977)"><path  stroke-linecap="round" stroke-linejoin="round" fill-opacity="0" class="anim-color-1" stroke="#353535" stroke-opacity="1" stroke-width="1" d="m-2.896 3.118 5.791-6.236"></path></g><g  opacity="1" transform="translate(410.687 331.138)"><path  stroke-linecap="round" stroke-linejoin="round" fill-opacity="0" class="anim-color-1" stroke="#353535" stroke-opacity="1" stroke-width="1" d="m-9.576-6.681 2.227 10.689L9.576 6.681"></path></g><g  opacity="1" transform="translate(358.167 394.534)"><path  stroke-linecap="round" stroke-linejoin="round" fill-opacity="0" class="anim-color-1" stroke="#353535" stroke-opacity="1" stroke-width="1" d="M-2.709-12.174 2.71.891l-4.751 11.284"></path></g><g  opacity="1" transform="translate(306.118 281.039)"><path  class="anim-color-2" fill="#FFEBD5" fill-opacity="1" d="M-7.736 9.45S-9.672-4.823 3.821-9.447c.81-.277 1.595-.483 2.36-.63C8.413-5.972 9.672-1.222 9.617 4.118a51.477 51.477 0 0 1-.046 1.665c-.273.102-.547.206-.829.309C-2.138 10.078-7.736 9.45-7.736 9.45z"></path></g><g  opacity="1" transform="translate(306.089 281.039)"><path  fill="#F8DFC5" fill-opacity="1" d="M-7.707 9.45S-9.643-4.823 3.85-9.447c.81-.277 1.595-.483 2.36-.63.18.332.348.671.515 1.011-.809.151-1.642.375-2.504.703C-4.324-5.112-2.782 5.496-2.782 5.496s4.245 1.784 11.22-.771c.406-.149.806-.302 1.204-.458A51.23 51.23 0 0 1 9.6 5.783c-.273.102-.547.206-.829.309C-2.109 10.078-7.707 9.45-7.707 9.45z"></path></g><g  opacity="1" transform="translate(306.118 281.039)"><path  stroke-linecap="round" stroke-linejoin="round" fill-opacity="0" class="anim-color-1" stroke="#353535" stroke-opacity="1" stroke-width="1" d="M-7.736 9.45S-9.672-4.823 3.821-9.447c.81-.277 1.595-.483 2.36-.63C8.413-5.972 9.672-1.222 9.617 4.118a51.477 51.477 0 0 1-.046 1.665c-.273.102-.547.206-.829.309C-2.138 10.078-7.736 9.45-7.736 9.45z"></path></g><g  opacity="1" transform="translate(296.182 293.232)"><path  stroke-linecap="round" stroke-linejoin="round" fill-opacity="0" class="anim-color-1" stroke="#353535" stroke-opacity="1" stroke-width="1" d="M2.246-2.877 1.184-.349l-2.191.974-1.239 2.252"></path></g><g  opacity="1" transform="translate(322.145 284.432)"><path  stroke-linecap="round" stroke-linejoin="round" fill-opacity="0" class="anim-color-1" stroke="#353535" stroke-opacity="1" stroke-width="1" d="m-7.123 2.777 5.712-.611 3.269-3.812 5.265-1.131"></path></g><g  opacity="1" transform="translate(324.462 281.047)"><path  class="anim-color-3" fill="#F3E7D6" fill-opacity="1" d="m-.459 1.739-.984-2.085 2.887-1.393"></path></g><g  opacity="1" transform="translate(324.462 281.047)"><path  stroke-linecap="round" stroke-linejoin="round" fill-opacity="0" class="anim-color-1" stroke="#353535" stroke-opacity="1" stroke-width="1" d="m-.459 1.739-.984-2.085 2.887-1.393"></path></g><g  opacity="1" transform="translate(206.061 432.673)"><path  class="anim-color-2" fill="#FFEBD5" fill-opacity="1" d="M-17.975 14.457s5.781-30.1 30.646-32.8c1.492-.162 2.9-.19 4.237-.109 1.066 9.494.143 19.818-3.289 30.688-.357 1.13-.731 2.255-1.118 3.377-.509.072-1.018.146-1.542.216-20.212 2.703-28.934-1.372-28.934-1.372z"></path></g><g  opacity="1" transform="translate(205.631 432.673)"><path  fill="#F8DFC5" fill-opacity="1" d="M-17.544 14.457s5.781-30.1 30.646-32.8c1.492-.162 2.9-.19 4.237-.109.086.767.145 1.545.205 2.323a20.824 20.824 0 0 0-4.517.184C-2.921-13.578-7.049 8.845-7.049 8.845s5.794 5.762 18.75 4.03a89.324 89.324 0 0 0 2.248-.335 134.679 134.679 0 0 1-1.017 3.073c-.509.072-1.019.146-1.543.216-20.212 2.703-28.933-1.372-28.933-1.372z"></path></g><g  opacity="1" transform="translate(206.061 432.673)"><path  stroke-linecap="round" stroke-linejoin="round" fill-opacity="0" class="anim-color-1" stroke="#353535" stroke-opacity="1" stroke-width="1" d="M-17.975 14.457s5.781-30.1 30.646-32.8c1.492-.162 2.9-.19 4.237-.109 1.066 9.494.143 19.818-3.289 30.688-.357 1.13-.731 2.255-1.118 3.377-.509.072-1.018.146-1.542.216-20.212 2.703-28.934-1.372-28.934-1.372z"></path></g><g  opacity="1" transform="translate(230.57 447.275)"><path  stroke-linecap="round" stroke-linejoin="round" fill-opacity="0" class="anim-color-1" stroke="#353535" stroke-opacity="1" stroke-width="1" d="m-13.336 1.47 9.683 1.604 7.709-6.148 9.28.32"></path></g><g  opacity="1" transform="translate(237.115 441.126)"><path  class="anim-color-3" fill="#F3E7D6" fill-opacity="1" d="m-2.49 3.074-.296-4.747 5.572-1.401"></path></g><g  opacity="1" transform="translate(237.115 441.126)"><path  stroke-linecap="round" stroke-linejoin="round" fill-opacity="0" class="anim-color-1" stroke="#353535" stroke-opacity="1" stroke-width="1" d="m-2.49 3.074-.296-4.747 5.572-1.401"></path></g><g  opacity="1" transform="translate(403.848 375.39)"><path  class="anim-color-2" fill="#FFEBD5" fill-opacity="1" d="M-21.749 15.919s7.063-33.069 37.444-36.035l.054-.006c2.873-.275 5.409 1.939 5.551 4.821.449 9.04-.906 18.697-4.447 28.78a133.297 133.297 0 0 1-1.367 3.711c-.62.08-1.243.16-1.884.237-24.694 2.97-35.351-1.508-35.351-1.508z"></path></g><g  opacity="1" transform="translate(403.535 375.426)"><path  fill="#F8DFC5" fill-opacity="1" d="M-21.436 15.883s7.063-33.069 37.444-36.035a33.793 33.793 0 0 1 5.176-.119c.106.842.179 1.697.252 2.551a28.424 28.424 0 0 0-5.518.202C-3.569-14.918-8.613 9.717-8.613 9.717s7.08 6.332 22.909 4.428c.922-.111 1.837-.236 2.747-.366a142.696 142.696 0 0 1-1.244 3.375c-.62.08-1.243.16-1.884.237-24.694 2.97-35.351-1.508-35.351-1.508z"></path></g><g  opacity="1" transform="translate(434.005 391.468)"><path  stroke-linecap="round" stroke-linejoin="round" fill-opacity="0" class="anim-color-1" stroke="#353535" stroke-opacity="1" stroke-width="1" d="m-16.294 1.615 11.831 1.762 9.419-6.754 11.338.351"></path></g><g  opacity="1" transform="translate(442.003 384.714)"><path  stroke-linecap="round" stroke-linejoin="round" fill-opacity="0" class="anim-color-1" stroke="#353535" stroke-opacity="1" stroke-width="1" d="m-3.042 3.378-.363-5.216 6.809-1.54"></path></g><g  opacity="1" transform="translate(403.848 375.39)"><path  stroke-linecap="round" stroke-linejoin="round" fill-opacity="0" class="anim-color-1" stroke="#353535" stroke-opacity="1" stroke-width="1" d="M-21.749 15.919s7.063-33.069 37.444-36.035l.054-.006c2.873-.275 5.409 1.939 5.551 4.821.449 9.04-.906 18.697-4.447 28.78a133.297 133.297 0 0 1-1.367 3.711c-.62.08-1.243.16-1.884.237-24.694 2.97-35.351-1.508-35.351-1.508z"></path></g><g  opacity="1" transform="translate(233.754 117.101)"><path  fill="#F8DFC5" fill-opacity="1" d="M-228.766 1.528c2.292 1.528 344.485 8.402 390.315 8.402 45.83 0 67.218-8.402 48.886-12.221C192.103-6.11-130.232-9.93-145.509-6.874c-15.277 3.055-83.257 8.402-83.257 8.402z"></path></g><g  opacity="1" transform="translate(225.387 68.564)"><path  class="anim-color-1" fill="#353535" fill-opacity="1" d="M-222.887 50.507s394.529 3.463 408.959 2.598c35.933-2.157 28.347-11.233 7.504-19.049-2.309-.865 8.043-4.984 3.752-13.564-5.484-10.967-43.868-21.358-51.949-31.459-10.909-13.635-20.283-40.047-52.527-41.271C47.251-53.97 35.7-9.618 19.545-4.906-1.235 1.155-9.46-9.668-31.827-5.483c-21.71 4.062-35.435 18.177-48.631 19.625-11.833 1.299-26.956-6.061-42.57-1.732-17.172 4.763-16.566 11.887-24.965 14.287-9.091 2.597-13.779-3.303-25.541 2.164-10.247 4.762-14.604 14.452-24.533 15.296-13.564 1.155-24.82 6.35-24.82 6.35z"></path></g><g  opacity="1" transform="translate(224.946 68.564)"><path  stroke-linecap="round" stroke-linejoin="round" fill-opacity="0" class="anim-color-2" stroke="#FFEBD5" stroke-opacity="1" stroke-width="1" d="M-222.446 50.507s394.529 3.463 408.959 2.598c35.933-2.157 28.347-11.233 7.504-19.049-2.309-.865 8.043-4.984 3.752-13.564-5.484-10.967-43.868-21.358-51.949-31.459-10.909-13.635-20.283-40.047-52.527-41.271C47.692-53.97 36.141-9.618 19.986-4.906-.794 1.155-9.019-9.668-31.386-5.483c-21.71 4.062-35.435 18.177-48.631 19.625-11.833 1.299-26.956-6.061-42.57-1.732-17.172 4.763-16.566 11.887-24.965 14.287-9.091 2.597-13.779-3.303-25.541 2.164-10.247 4.762-14.604 14.452-24.533 15.296-13.564 1.155-24.82 6.35-24.82 6.35z"></path></g><g  opacity="1" transform="translate(384.713 102.041)"><path  class="anim-color-1" fill="#353535" fill-opacity="1" d="M34.251.579c-2.309-.866 8.042-4.984 3.752-13.564-1.131-2.262-3.662-4.498-7.036-6.713 7.249 6.37 8.841 17-1.853 17.763-10.694.764-12.794.955-12.412 4.011.382 3.055 12.794 1.336 19.286 2.482 6.493 1.146.828 9.484-19.541 10.502-5.721.287-58.687 4.202-68.235 4.583-.323.014 76.195.124 78.535-.016C62.679 17.471 55.094 8.395 34.251.579z"></path></g><g  opacity="1" transform="translate(524.645 245.934)"><path  fill="#252525" fill-opacity="1" d="M-152.001-22.406c-18.841 3.564 0 3.055-41.756 7.638s15.786 17.315 76.383 21.388c30.184 2.03 96.344.2 160.913 3.056 65.06 2.877 128.497 10.436 149.709 11.203 42.265 1.527-345.249-43.285-345.249-43.285z"></path></g><g  opacity="1" transform="translate(734.391 188.389)"><path  class="anim-color-2" fill="#FFEBD5" fill-opacity="1" d="M268.991 102.805V-63.978l-478.177-38.888s-2.871 3.126-.814 9.809c1.528 4.965 4.678 6.19 4.583 8.784-.069 1.884-4.583 2.293-4.583 7.258 0 7.873-.129 10.6-1.528 15.276-3.614 12.088-8.61 22.119-21.669 41.086-18.511 26.885-20.859 36.941-35.794 73.126 0 0 364.136 39.657 484.851 45.75 92.016 4.643 53.131 4.582 53.131 4.582z"></path></g><g  opacity="1" transform="translate(513.206 212.173)"><path  fill="#F8DFC5" fill-opacity="1" d="M24.947 31.959C8.293 25.882-12.973 16.158-19.578-1.748c-4.036-10.942-1.247-23.075 2.551-33.658.411-1.144.827-2.296 1.247-3.45-15.14 22.888-18.172 33.979-32.026 67.545 0 0 38.959 4.244 95.612 10.167-7.737-1.913-15.38-4.168-22.859-6.897z"></path></g><g  opacity="1" transform="translate(816.745 276.203)"><path  class="anim-color-1" fill="#353535" fill-opacity="1" d="M37.629 3.388a920.97 920.97 0 0 0-11.25-1.394C5.081-.502-16.251-2.161-37.628-3.387c26.182 2.454 51.633 4.756 75.257 6.775z"></path></g><g  opacity="1" transform="translate(527.999 106.064)"><path  fill="#F8DFC5" fill-opacity="1" d="M-.743 6.263C1.15 2.159 4.95 3.046 5.175-1.757c.151-3.24-4.583-6.015-6.11-8.593-1.884-3.179-3.056-7.638-2.292-10.503-2.1 4.011-1.025 8.028-.381 10.121C-2.08-5.767 1.069-4.543.975-1.948.906-.064-3.608.344-3.608 5.308c0 7.873-.129 10.601-1.528 15.277-.026.09-.054.178-.082.268C-3.383 17.921-2.195 9.41-.743 6.263z"></path></g><g  opacity="1" transform="translate(753.833 188.389)"><path  stroke-linecap="round" stroke-linejoin="round" fill-opacity="0" class="anim-color-1" stroke="#353535" stroke-opacity="1" stroke-width="1" d="M249.548 102.805V-63.978l-478.177-38.888s-2.871 3.126-.814 9.809c1.528 4.965 4.679 6.19 4.584 8.784-.069 1.884-4.584 2.293-4.584 7.258 0 7.873-.129 10.6-1.528 15.276-3.614 12.088-8.609 22.119-21.668 41.086-18.511 26.885-20.86 36.941-35.795 73.126 0 0 364.136 39.657 484.851 45.75 92.016 4.643 53.131 4.582 53.131 4.582z"></path></g><g  opacity="1" transform="translate(733.191 71.659)"><path  class="anim-color-1" fill="#353535" fill-opacity="1" d="M131.997-21.309S-45.066-13.72-107.039-7.396c-61.972 6.324-163.151 17.707-50.589 36.677C-45.066 48.253 157.908 52.638 270.19 57.985v-115.97"></path></g><g  opacity="1" transform="translate(733.191 71.659)"><path  stroke-linecap="round" stroke-linejoin="round" fill-opacity="0" class="anim-color-1" stroke="#353535" stroke-opacity="1" stroke-width="1" d="M131.997-21.309S-45.066-13.72-107.039-7.396c-61.972 6.324-163.151 17.707-50.589 36.677C-45.066 48.253 157.908 52.638 270.19 57.985v-115.97"></path></g><g  opacity="1" transform="translate(888.354 47.637)"><path  class="anim-color-2" fill="#FFEBD5" fill-opacity="1" d="M-67.966-35.209c-12.937 18.789-27.13 43.568-46.989 61.9 0 0 135.28 12.246 229.91 18.446v-90.274H-61.471c-1.787 2.928-3.908 6.172-6.495 9.928z"></path></g><g  opacity="1" transform="translate(888.354 47.637)"><path  stroke-linecap="round" stroke-linejoin="round" fill-opacity="0" class="anim-color-1" stroke="#353535" stroke-opacity="1" stroke-width="1" d="M-67.966-35.209c-12.937 18.789-27.13 43.568-46.989 61.9 0 0 135.28 12.246 229.91 18.446v-90.274H-61.471c-1.787 2.928-3.908 6.172-6.495 9.928z"></path></g><g  opacity="1" transform="translate(809.461 79.84)"><path  fill="#252525" fill-opacity="1" d="M-100.479-17.479c-18.841 3.564.028 3.316-41.756 7.638-51.685 5.347 16.55 16.55 77.147 20.624 30.183 2.029 95.58.963 160.149 3.819 65.061 2.877 77.074-.208 98.287.559 42.265 1.527-293.827-32.64-293.827-32.64z"></path></g><g  opacity="1" transform="translate(413.684 103.353)"><path  class="anim-color-1" fill="#353535" fill-opacity="1" d="M4.917-1.146S1.957 1.146-4.917.382"></path></g><g  opacity="1" transform="translate(413.684 103.353)"><path  stroke-linecap="round" stroke-linejoin="round" fill-opacity="0" class="anim-color-3" stroke="#F3E7D6" stroke-opacity="1" stroke-width="1" d="M4.917-1.146S1.957 1.146-4.917.382"></path></g><g  opacity="1" transform="translate(897.108 506.613)"><path  class="anim-color-1" fill="#353535" fill-opacity="1" d="M9.7 4.327C.295-.117-7.758-3.474-9.7-4.328-3.661-1.439 2.983 1.464 9.7 4.327z"></path></g><g  opacity="1" transform="translate(524.263 207.93)"><path  class="anim-color-1" fill="#353535" fill-opacity="1" d="M192.612 59.391S99.17 48.952 69.635 45.896c-29.535-3.055-99.552-2.8-145.891-5.346-46.339-2.546-116.356-9.166-115.338-13.749 1.019-4.583 24.697-8.148 24.697-8.148s-9.675-5.092-1.018-13.24c8.657-8.147 49.649-6.874 59.579-25.969 9.929-19.096 34.372-19.86 45.829-21.387 11.457-1.528 19.35-14.259 34.118-16.295 8.357-1.153 14.768 3.055 14.768 3.055l-6.112 10.184-15.785 29.026"></path></g><g  opacity="1" transform="translate(524.263 207.93)"><path  stroke-linecap="round" stroke-linejoin="round" fill-opacity="0" class="anim-color-2" stroke="#FFEBD5" stroke-opacity="1" stroke-width="1" d="M192.612 59.391S99.17 48.952 69.635 45.896c-29.535-3.055-99.552-2.8-145.891-5.346-46.339-2.546-116.356-9.166-115.338-13.749 1.019-4.583 24.697-8.148 24.697-8.148s-9.675-5.092-1.018-13.24c8.657-8.147 49.649-6.874 59.579-25.969 9.929-19.096 34.372-19.86 45.829-21.387 11.457-1.528 19.35-14.259 34.118-16.295 8.357-1.153 14.768 3.055 14.768 3.055l-6.112 10.184-15.785 29.026"></path></g><g  opacity="1" transform="translate(590.844 214.363)"><path  class="anim-color-1" fill="#353535" fill-opacity="1" d="M3.056 39.464C32.59 42.52 126.032 52.959 126.032 52.959c2.036-1.019-37.683-11.676-51.432-17.787-13.749-6.11-12.22-19.895-29.533-29.571C30.29-2.656 13.494-.51 9.421-3.056 5.347-5.601-.25-24.643-12.475-32.59c-10.185-6.62-24.444-1.019-29.535-3.055-5.093-2.037-27.497-17.314-50.413-15.277-22.915 2.037-30.16 17.998-35.645 20.878"></path></g><g  opacity="1" transform="translate(590.844 214.363)"><path  stroke-linecap="round" stroke-linejoin="round" fill-opacity="0" class="anim-color-2" stroke="#FFEBD5" stroke-opacity="1" stroke-width="1" d="M3.056 39.464C32.59 42.52 126.032 52.959 126.032 52.959c2.036-1.019-37.683-11.676-51.432-17.787-13.749-6.11-12.22-19.895-29.533-29.571C30.29-2.656 13.494-.51 9.421-3.056 5.347-5.601-.25-24.643-12.475-32.59c-10.185-6.62-24.444-1.019-29.535-3.055-5.093-2.037-27.497-17.314-50.413-15.277-22.915 2.037-30.16 17.998-35.645 20.878"></path></g><g  opacity="1" transform="translate(834.421 51.15)"><path  class="anim-color-2" fill="#FFEBD5" fill-opacity="1" d="M168.888 43.546s-71.709-.353-98.641-3.139c-26.931-2.786-90.778-2.554-133.034-4.876-42.255-2.321-106.101-8.358-105.173-12.537.929-4.179 22.521-7.429 22.521-7.429s-8.822-4.644-.929-12.073c7.894-7.43 31.721-6.756 40.534-18.507 9.166-12.221 25.97-24.951 48.885-26.988 17.364-1.543 40.737 8.148 40.737 8.148l-9.674 22.914"></path></g><g  opacity="1" transform="translate(497.809 224.696)"><path  class="anim-color-1" fill="#353535" fill-opacity="1" d="M-40.992 3.564s15.276-13.749 25.97-13.749c10.694 0 18.332 9.167 18.332 9.167s6.62-6.621 10.694-5.603c4.073 1.019 6.11 7.129 6.11 7.129s3.565-1.526 7.638-1.017c4.074.51 8.148 10.184 13.24 10.694"></path></g><g  opacity="1" transform="translate(497.809 224.696)"><path  stroke-linecap="round" stroke-linejoin="round" fill-opacity="0" class="anim-color-2" stroke="#FFEBD5" stroke-opacity="1" stroke-width="1" d="M-40.992 3.564s15.276-13.749 25.97-13.749c10.694 0 18.332 9.167 18.332 9.167s6.62-6.621 10.694-5.603c4.073 1.019 6.11 7.129 6.11 7.129s3.565-1.526 7.638-1.017c4.074.51 8.148 10.184 13.24 10.694"></path></g><g  opacity="1" transform="translate(777.566 58.635)"><path  class="anim-color-2" fill="#FFEBD5" fill-opacity="1" d="M-22.948 1.473S-19.159-9.052-8.212-9.052C2.736-9.052 6.526 6.526 6.526 6.526s6.737-4.211 10.526-3.369c3.79.842 5.896 5.895 5.896 5.895"></path></g><g  opacity="1" transform="translate(777.566 58.635)"><path  stroke-linecap="round" stroke-linejoin="round" fill-opacity="0" class="anim-color-1" stroke="#353535" stroke-opacity="1" stroke-width="1" d="M-22.948 1.473S-19.159-9.052-8.212-9.052C2.736-9.052 6.526 6.526 6.526 6.526s6.737-4.211 10.526-3.369c3.79.842 5.896 5.895 5.896 5.895"></path></g><g  opacity="1" transform="translate(363.987 227.093)"><path  stroke-linecap="round" stroke-linejoin="round" fill-opacity="0" class="anim-color-1" stroke="#353535" stroke-opacity="1" stroke-width="1" d="M-6.62-.51s5.602 1.529 13.24-.508"></path></g><g  opacity="1" transform="translate(328.214 507.29)"><path  class="anim-color-1" fill="#353535" fill-opacity="1" d="M7.511-2.927-7.511 2.419s5.11-1.157 9.42-.765c2.801.255 4.838 1.273 4.838 1.273l.764-5.854z"></path></g><g  opacity="1" transform="translate(652.544 174.262)"><path  fill="#F8DFC5" fill-opacity="1" d="M-19.944-3.565-2.376.636l4.328 5.347h17.792c.184 0 .2-.269.018-.292l-15.772-2-5.858-6.619-14.002-3.055-4.074 2.418z"></path></g><g  opacity="1" transform="translate(624.347 154.274)"><path  class="anim-color-2" fill="#FFEBD5" fill-opacity="1" d="M-8.042-6.111c-10.331 18.08-3.35 21.774 4.073 22.406 11.967 1.018 21.005-.763 21.005-.763l-3.054-4.839 3.946-5.728-2.8-7.192s3.245-3.821 3.054-4.775c-.227-1.137-4.964-6.047-5.218-6.238-.153-.115.579-3.711-.382-3.818-2.292-.255-14.513.253-20.624 10.947z"></path></g><g  opacity="1" transform="translate(624.347 154.275)"><path  fill="#F8DFC5" fill-opacity="1" d="M15.128-2.228s3.245-3.819 3.054-4.774c-.227-1.137-4.964-6.047-5.218-6.238-.153-.114.579-3.712-.382-3.819-2.292-.254-14.514.254-20.624 10.948-10.331 18.08-3.35 21.774 4.073 22.406 11.967 1.018 21.005-.764 21.005-.764l-3.182-4.71c-.589.111-9.36 4.615-18.713 3.819-6.058-.516-10.724-5.741-2.292-20.496 4.987-8.727 17.098-11.029 18.968-10.821.785.087-.4 5.096-.275 5.19.208.155 4.074 4.163 4.26 5.091.156.779-3.094 4.868-3.094 4.868l4.287 6.425-3.267 6.051 4.2-5.984-2.8-7.192z"></path></g><g  opacity="1" transform="translate(638.771 165.599)"><path  class="anim-color-1" fill="#353535" fill-opacity="1" d="M.385.68.443.669-.409-.68l-.034.049L.385.68z"></path></g><g  opacity="1" transform="translate(624.347 154.274)"><path  stroke-linecap="round" stroke-linejoin="round" fill-opacity="0" class="anim-color-1" stroke="#353535" stroke-opacity="1" stroke-width="1" d="M-8.042-6.111c-10.331 18.08-3.35 21.774 4.073 22.406 11.967 1.018 21.005-.763 21.005-.763l-3.054-4.839 3.946-5.728-2.8-7.192s3.245-3.821 3.054-4.775c-.227-1.137-4.964-6.047-5.218-6.238-.153-.115.579-3.711-.382-3.818-2.292-.255-14.513.253-20.624 10.947z"></path></g><g  opacity="1" transform="translate(662.134 145.491)"><path  stroke-linecap="round" stroke-linejoin="round" fill-opacity="0" class="anim-color-1" stroke="#353535" stroke-opacity="1" stroke-width="1" d="m-19.605 1.782 12.73 1.91 17.824-7.384 8.656 1.528"></path></g><g  opacity="1" transform="translate(681.866 138.489)"><path  stroke-linecap="round" stroke-linejoin="round" fill-opacity="0" class="anim-color-1" stroke="#353535" stroke-opacity="1" stroke-width="1" d="M-8.783 3.31V.255L8.783-3.31"></path></g><g  opacity="1" transform="translate(656.278 151.983)"><path  stroke-linecap="round" stroke-linejoin="round" fill-opacity="0" class="anim-color-1" stroke="#353535" stroke-opacity="1" stroke-width="1" d="m-1.018-2.801 2.036 5.602"></path></g><g  opacity="1" transform="translate(656.723 174.898)"><path  stroke-linecap="round" stroke-linejoin="round" fill-opacity="0" class="anim-color-1" stroke="#353535" stroke-opacity="1" stroke-width="1" d="m-15.595-5.093 10.313 3.819 3.818 5.094 17.059 1.273"></path></g><g  opacity="1" transform="translate(645.712 158.73)"><path  class="anim-color-3" fill="#F3E7D6" fill-opacity="1" d="M-3.437.509 3.437-.509"></path></g><g  opacity="1" transform="translate(645.712 158.73)"><path  stroke-linecap="round" stroke-linejoin="round" fill-opacity="0" class="anim-color-1" stroke="#353535" stroke-opacity="1" stroke-width="1" d="M-3.437.509 3.437-.509"></path></g><g  opacity="1" transform="translate(766.223 214.731)"><path  class="anim-color-2" fill="#FFEBD5" fill-opacity="1" d="M1.57-10.414c11.84.55 16.909 9.28 18.933 14.758.896 2.426-.611 5.058-3.155 5.527-3.394.625-8.945 1.234-17.268 1.023-10.557-.267-16.925-2.023-19.825-3.068a2.093 2.093 0 0 1-1.238-2.723C-19.207.409-13.318-11.105 1.57-10.414z"></path></g><g  opacity="1" transform="translate(766.194 214.877)"><path  fill="#F8DFC5" fill-opacity="1" d="M.266-10.622C-13.74-11.272-19.371.354-21.018 4.84a1.909 1.909 0 0 0 1.131 2.449c2.657.982 8.683 2.701 19.663 3.443 7.991.54 13.662.004 17.237-.623 2.763-.484 4.368-3.364 3.345-5.975C18.169-1.46 12.784-10.041.266-10.622zM-.305 8.891c-8.127-.549-15.945-2.068-18.729-2.65a.936.936 0 0 1-.67-1.279C-18.225 1.377-12.462-10.133.197-9.122 12.14-8.168 14.091 5.745 14.091 5.745S9.406 9.547-.305 8.891z"></path></g><g  opacity="1" transform="translate(766.223 214.731)"><path  stroke-linecap="round" stroke-linejoin="round" fill-opacity="0" class="anim-color-1" stroke="#353535" stroke-opacity="1" stroke-width="1" d="M1.57-10.414c11.84.55 16.909 9.28 18.933 14.758.896 2.426-.611 5.058-3.155 5.527-3.394.625-8.945 1.234-17.268 1.023-10.557-.267-16.925-2.023-19.825-3.068a2.093 2.093 0 0 1-1.238-2.723C-19.207.409-13.318-11.105 1.57-10.414z"></path></g><g  opacity="1" transform="translate(734.624 221.306)"><path  stroke-linecap="round" stroke-linejoin="round" fill-opacity="0" class="anim-color-1" stroke="#353535" stroke-opacity="1" stroke-width="1" d="M9.98.472 2.57 1.798l-5.512-3.596-7.038.509"></path></g><g  opacity="1" transform="translate(945.644 20.232)"><path  class="anim-color-2" fill="#FFEBD5" fill-opacity="1" d="M-.458-7.442c-11.915 0-14.436 12.487-14.436 12.487s3.896 1.948 14.78 2.177c10.425.22 15.008-1.947 15.008-1.947S12.377-7.442-.458-7.442z"></path></g><g  opacity="1" transform="translate(945.644 20.232)"><path  fill="#F8DFC5" fill-opacity="1" d="M-.459-7.442c-11.915 0-14.434 12.487-14.434 12.487s3.894 1.948 14.778 2.177c10.425.22 15.008-1.947 15.008-1.947S12.377-7.442-.459-7.442zM-.23 5.962c-6.977-.146-13.175-1.718-13.175-1.718S-10.77-6.754-.459-6.411c8.223.274 10.005 9.755 10.005 9.755S6.453 6.103-.23 5.962z"></path></g><g  opacity="1" transform="translate(945.644 20.232)"><path  stroke-linecap="round" stroke-linejoin="round" fill-opacity="0" class="anim-color-1" stroke="#353535" stroke-opacity="1" stroke-width="1" d="M-.458-7.442c-11.915 0-14.436 12.487-14.436 12.487s3.896 1.948 14.78 2.177c10.425.22 15.008-1.947 15.008-1.947S12.377-7.442-.458-7.442z"></path></g><g  opacity="1" transform="translate(967.411 25.507)"><path  stroke-linecap="round" stroke-linejoin="round" fill-opacity="0" class="anim-color-1" stroke="#353535" stroke-opacity="1" stroke-width="1" d="m-6.873 0 5.041 1.146 3.895-2.292 4.81.573"></path></g><g  opacity="1" transform="translate(834.024 167.609)"><path  class="anim-color-2" fill="#FFEBD5" fill-opacity="1" d="M-.43-8.861c-6.905 0-10.655 4.194-12.588 7.72-1.589 2.901-.34 6.511 2.682 7.854C-8.005 7.748-4.672 8.668-.108 8.764c4.603.097 8.069-.848 10.507-1.934 3.017-1.344 4.209-5.011 2.577-7.882C10.941-4.632 6.971-8.861-.43-8.861z"></path></g><g  opacity="1" transform="translate(834.024 167.609)"><path  fill="#F8DFC5" fill-opacity="1" d="M12.976-1.052C10.941-4.632 6.971-8.861-.431-8.861c-6.904 0-10.654 4.194-12.587 7.721-1.589 2.9-.34 6.511 2.682 7.854 2.331 1.035 5.664 1.954 10.228 2.05 4.603.097 8.068-.848 10.507-1.934 3.016-1.343 4.209-5.01 2.577-7.882zm-7.541 6.21C3.611 6.036 1.016 6.8-2.427 6.722c-3.416-.078-5.909-.821-7.653-1.658-2.261-1.086-3.196-4.006-2.006-6.351 1.446-2.852 4.25-6.244 9.417-6.244 5.539 0 8.509 3.419 10.032 6.315 1.221 2.322.33 5.287-1.928 6.374z"></path></g><g  opacity="1" transform="translate(850.72 173.572)"><path  stroke-linecap="round" stroke-linejoin="round" fill-opacity="0" class="anim-color-1" stroke="#353535" stroke-opacity="1" stroke-width="1" d="M-11.967 2.546 1.655.7 6.81-2.546l5.157.764"></path></g><g  opacity="1" transform="translate(834.024 167.609)"><path  stroke-linecap="round" stroke-linejoin="round" fill-opacity="0" class="anim-color-1" stroke="#353535" stroke-opacity="1" stroke-width="1" d="M-.43-8.861c-6.905 0-10.655 4.194-12.588 7.72-1.589 2.901-.34 6.511 2.682 7.854C-8.005 7.748-4.672 8.668-.108 8.764c4.603.097 8.069-.848 10.507-1.934 3.017-1.344 4.209-5.011 2.577-7.882C10.941-4.632 6.971-8.861-.43-8.861z"></path></g><g  opacity="1" transform="translate(547.555 138.256)"><path  class="anim-color-2" fill="#FFEBD5" fill-opacity="1" d="M-.431-8.861c-6.904 0-10.654 4.194-12.587 7.721-1.589 2.9-.34 6.511 2.682 7.853 2.33 1.035 5.663 1.955 10.228 2.051 4.603.097 8.069-.848 10.506-1.934 3.018-1.344 4.21-5.01 2.578-7.882-2.035-3.58-6.005-7.809-13.407-7.809z"></path></g><g  opacity="1" transform="translate(547.555 138.255)"><path  fill="#F8DFC5" fill-opacity="1" d="M12.975-1.051C10.94-4.632 6.97-8.861-.432-8.861c-6.904 0-10.654 4.194-12.587 7.721-1.589 2.9-.339 6.511 2.683 7.854 2.33 1.035 5.663 1.954 10.227 2.05 4.603.097 8.069-.848 10.507-1.933 3.017-1.344 4.209-5.011 2.577-7.882zM5.436 5.158c-1.824.878-4.42 1.643-7.863 1.564-3.416-.078-5.908-.821-7.652-1.658-2.261-1.086-3.198-4.006-2.008-6.351 1.446-2.852 4.252-6.243 9.419-6.243 5.539 0 8.509 3.419 10.032 6.314 1.22 2.322.33 5.288-1.928 6.374z"></path></g><g  opacity="1" transform="translate(547.555 138.256)"><path  stroke-linecap="round" stroke-linejoin="round" fill-opacity="0" class="anim-color-1" stroke="#353535" stroke-opacity="1" stroke-width="1" d="M-.431-8.861c-6.904 0-10.654 4.194-12.587 7.721-1.589 2.9-.34 6.511 2.682 7.853 2.33 1.035 5.663 1.955 10.228 2.051 4.603.097 8.069-.848 10.506-1.934 3.018-1.344 4.21-5.01 2.578-7.882-2.035-3.58-6.005-7.809-13.407-7.809z"></path></g><g  opacity="1" transform="translate(564.252 144.219)"><path  stroke-linecap="round" stroke-linejoin="round" fill-opacity="0" class="anim-color-1" stroke="#353535" stroke-opacity="1" stroke-width="1" d="M-11.967 2.546 1.655.7 6.81-2.546l5.157.763"></path></g><g  opacity="1" transform="translate(941.003 240.265)"><path  stroke-linecap="round" stroke-linejoin="round" fill-opacity="0" class="anim-color-1" stroke="#353535" stroke-opacity="1" stroke-width="1" d="M12.042 2.18-1.642.864-6.92-2.18l-5.122.963"></path></g><g  opacity="1" transform="translate(956.064 233.396)"><path  class="anim-color-2" fill="#FFEBD5" fill-opacity="1" d="M-.906-9.34c-7.41.287-11.26 4.944-13.188 8.809-1.584 3.179-.093 7.002 3.207 8.317C-8.343 8.8-4.729 9.648.174 9.561c4.942-.088 8.624-1.246 11.195-2.512 3.183-1.568 4.309-5.553 2.438-8.567C11.474-5.276 7.036-9.648-.906-9.34z"></path></g><g  opacity="1" transform="translate(956.064 233.396)"><path  fill="#F8DFC5" fill-opacity="1" d="M13.807-1.518C11.474-5.276 7.036-9.648-.907-9.34c-7.409.287-11.259 4.944-13.186 8.809-1.585 3.178-.094 7.002 3.206 8.317C-8.343 8.8-4.729 9.647.174 9.561c4.943-.088 8.624-1.246 11.195-2.513 3.183-1.567 4.309-5.552 2.438-8.566zM5.973 5.46C4.052 6.478 1.299 7.406-2.399 7.465c-3.67.059-6.376-.635-8.282-1.461-2.472-1.07-3.598-4.166-2.419-6.732 1.433-3.121 4.303-6.877 9.848-7.092 5.944-.231 9.274 3.315 11.029 6.359C9.184.981 8.351 4.2 5.973 5.46z"></path></g><g  opacity="1" transform="translate(956.064 233.396)"><path  stroke-linecap="round" stroke-linejoin="round" fill-opacity="0" class="anim-color-1" stroke="#353535" stroke-opacity="1" stroke-width="1" d="M-.906-9.34c-7.41.287-11.26 4.944-13.188 8.809-1.584 3.179-.093 7.002 3.207 8.317C-8.343 8.8-4.729 9.648.174 9.561c4.942-.088 8.624-1.246 11.195-2.512 3.183-1.568 4.309-5.553 2.438-8.567C11.474-5.276 7.036-9.648-.906-9.34z"></path></g><g  opacity="1" transform="translate(932.799 236.988)"><path  stroke-linecap="round" stroke-linejoin="round" fill-opacity="0" class="anim-color-1" stroke="#353535" stroke-opacity="1" stroke-width="1" d="m1.284 1.096-.146-2.159-2.422-.033"></path></g><g  opacity="1" transform="translate(908.235 50.644)"><path  fill="#F8DFC5" fill-opacity="1" d="M34.045 10.034C20.571 2.504 5.256 4.462 1.541 2.14-2.174-.181-7.276-17.545-18.426-24.792c-9.286-6.036-22.288-.928-26.931-2.785-4.566-1.827-19.461-14.738-35.206-13.719 17.271 1.327 25.276 16.225 34.331 18.004 10.693 2.1 19.477-5.347 25.969-.764C-13.769-19.473-12.242-1.905.361 5.733c12.603 7.638 19.668 1.528 31.126 6.493 11.457 4.965 5.156 19.477 15.467 24.824 10.313 5.347 33.609 4.201 33.609 4.201l-.41-.459c-6.807-.928-13.076-2.168-16.904-3.869-12.537-5.572-13.416-18.066-29.204-26.889z"></path></g><g  opacity="1" transform="translate(807.389 23.489)"><path  fill="#F8DFC5" fill-opacity="1" d="M-8.02 11.501C-.764 6.918 11.839-12.94 19.478-14.086 6.189-12.821-4.936 9.215-19.478 11.883c2.579 1.733 7.365 2.203 11.458-.382z"></path></g><g  opacity="1" transform="translate(759.812 55.829)"><path  fill="#F8DFC5" fill-opacity="1" d="M-35.808 24.863c-19.605.255-52.959-1.782-51.686-7.383 1.273-5.602 22.406-2.547 22.661-5.856.254-3.31-8.912-5.093-7.129-9.93 1.782-4.838 16.295-7.384 23.424-9.675 7.128-2.292 16.803 2.036 19.095-5.602 1.932-6.438 9.109-16.132 12.078-19.782-5.687 4.21-10.339 8.978-13.86 13.671C-40.038-7.943-63.866-8.617-71.759-1.188c-7.894 7.43.929 12.073.929 12.073s-21.592 3.251-22.521 7.43c-.929 4.179 62.918 10.215 105.174 12.537 24.083 1.323 55.179 1.817 82.457 2.513-22.928-1.206-54.346-3.892-74.329-6.72-26.988-3.819-36.155-2.036-55.759-1.782z"></path></g><g  opacity="1" transform="translate(834.421 51.15)"><path  stroke-linecap="round" stroke-linejoin="round" fill-opacity="0" class="anim-color-1" stroke="#353535" stroke-opacity="1" stroke-width="1" d="M168.888 43.546s-71.709-.353-98.641-3.139c-26.931-2.786-90.778-2.554-133.034-4.876-42.255-2.321-106.101-8.358-105.173-12.537.929-4.179 22.521-7.429 22.521-7.429s-8.822-4.644-.929-12.073c7.894-7.43 31.721-6.756 40.534-18.507 9.166-12.221 25.97-24.951 48.885-26.988 17.364-1.543 40.737 8.148 40.737 8.148l-9.674 22.914"></path></g><g  opacity="1" transform="translate(801.151 23.915)"><path  fill="#F8DFC5" fill-opacity="1" d="M2.037-11.458S4.078-2.805-.636 1.909c-5.538 5.537-12.604 9.549-12.604 9.549S-5.101 9.793-.255 5.729C5.665.764 13.24-7.893 13.24-7.893L2.037-11.458z"></path></g><g  opacity="1" transform="translate(608.427 213.913)"><path  class="anim-color-1" fill="#353535" fill-opacity="1" d="M27.483 6.05C12.707-2.207-4.088-.06-8.163-2.606c-4.074-2.546-9.67-21.588-21.896-29.534-10.185-6.62-24.442-1.019-29.534-3.056-3.908-1.563-18.018-10.918-34.724-14.266 17.919 5.099 24.719 16.696 32.941 18.594 9.93 2.291 17.17-4.511 29.026 1.272 10.438 5.093 10.057 28.008 18.077 32.591 8.02 4.583 24.824 5.475 36.663 9.676 11.84 4.201 22.66 25.333 29.917 28.388 7.256 3.055 22.152 4.965 42.011 8.402l-.842-.747c-12.189-3.257-28.583-7.591-36.459-11.092-13.749-6.11-12.221-21.897-29.534-31.572z"></path></g><g  opacity="1" transform="translate(497.388 224.453)"><path  class="anim-color-1" fill="#353535" fill-opacity="1" d="M13.349-4.044c4.222.93 4.125 6.639 5.887 7.448 2.706 1.241 5.189-1.528 9.389 1.527 4.202 3.055 6.015 3.692 9.961 4.965.34.11.555.019.674-.217C35.141 7.301 31.656.168 28.172-.267 24.099-.776 20.536.751 20.536.751s-2.039-6.11-6.112-7.128C10.35-7.396 3.73-.776 3.73-.776s-7.638-9.166-18.332-9.166c-8.289 0-19.326 8.257-23.873 11.972l-.784 1.374S-27.611-8.69-16.535-8.309C-5.46-7.927-.584.659 3.611.921c4.583.286 5.983-5.792 9.738-4.965z"></path></g><g  opacity="1" transform="translate(406.433 199.852)"><path  class="anim-color-1" fill="#353535" fill-opacity="1" d="M73.774-43.605c-6.315 4.163-11.779 8.851-18.45 9.74-11.458 1.528-35.9 2.291-45.83 21.386C-.436 6.617-41.428 5.345-50.084 13.492c-8.657 8.148 1.018 13.239 1.018 13.239s-23.679 3.564-24.697 8.147c-.583 2.624 22.113 5.915 50.318 8.727.392-.043.604-.069.604-.069s-29.026-3.819-38.701-6.365c-9.675-2.546-8.147-4.838 2.292-5.857 10.439-1.019 17.822-1.272 23.933-2.8 6.111-1.527 6.111-4.838-3.055-4.075-9.167.765-18.369-3.688-7.639-10.692C-27.679 1.78-7.31 14.256 7.966 2.799c15.277-11.458 7.766-25.27 20.242-30.362 12.476-5.092 25.843-3.056 30.935-4.583 4.291-1.288 11.568-9.095 14.631-11.459z"></path></g><g  opacity="1" transform="translate(152.839 69.968)"><path  class="anim-color-1" fill="#353535" fill-opacity="1" d="M-132.994 43.796c12.548 1.342 21.662 2.796 26.007-.101 4.583-3.055.891-13.367 8.02-14.894 7.13-1.528 19.351 2.037 24.952 0 5.602-2.037 15.786-13.24 23.934-14.768 8.147-1.528 38.294 8.003 43.538 7.129C2.623 19.635 23.755-.734 40.432-4.808 50.63-7.299 78.241 9.196 95.046 5.122c13.668-3.313 18.539-37.043 37.948-50.497-20.393 12.681-29.502 35.739-40.901 39.064-20.78 6.061-29.005-4.763-51.373-.578C19.01-2.827 5.286 11.288-7.911 12.737c-11.833 1.299-26.955-6.062-42.569-1.732-17.173 4.762-16.566 11.887-24.965 14.287-9.091 2.597-13.779-3.303-25.542 2.164-10.246 4.762-14.603 14.451-24.532 15.296a72.534 72.534 0 0 0-7.475 1.044z"></path></g><g  opacity="1" transform="translate(294.611 20.155)"><path  class="anim-color-1" fill="#353535" fill-opacity="1" d="m-.037.012.075-.024-.021.003-.054.021z"></path></g><g  opacity="1" transform="translate(378.781 55.748)"><path  class="anim-color-1" fill="#353535" fill-opacity="1" d="M22.465 18.902C10.16 13.097-3.552 7.429-8.016 1.849c-4.504-5.631-8.751-13.437-14.45-20.751 5.962 9.844 5.078 21.194 11.108 27.933 6.493 7.257 22.151 3.438 32.081 9.166.771.446 1.344.67 1.742.705z"></path></g><g  opacity="1" transform="translate(201.741 99.215)"><path  fill="#252525" fill-opacity="1" d="M5.534 2.864c3.168-1.179 5.089-1.618 5.1-1.711C5.737.559-2.221 5.531-2.221 5.531s-2.074-8.524-7.43-14.396l-.983-.492C-4.141-2.61-5.773 6.649-3.505 7.702.06 9.357.06 4.901 5.534 2.864z"></path></g><g  opacity="1" transform="translate(191.212 96.438)"><path  stroke-linecap="round" stroke-linejoin="round" fill-opacity="0" class="anim-color-3" stroke="#F3E7D6" stroke-opacity="1" stroke-width="1" d="M-29.215 1.876s4.824-13.401 18.762-13.401c13.937 0 18.761 19.834 18.761 19.834s8.578-5.361 13.402-4.288c4.825 1.071 7.505 7.504 7.505 7.504"></path></g><g  opacity="1" transform="translate(895.646 51.285)"><path  class="anim-color-2" fill="#FFEBD5" fill-opacity="1" d="M8.326 40.272c26.932 2.786 99.337 3.139 99.337 3.139 1.857-.929-19.287-1.557-31.825-7.129C63.301 30.71 62.422 18.216 46.634 9.393 33.16 1.863 17.845 3.821 14.13 1.5 10.415-.822 5.312-18.186-5.837-25.433c-9.286-6.036-22.288-.928-26.932-2.785-4.643-1.858-19.97-15.193-36.01-13.665-13.688 1.303-23.679 24.442-38.957 25.97"></path></g><g  opacity="1" transform="translate(896.538 51.285)"><path  stroke-linecap="round" stroke-linejoin="round" fill-opacity="0" class="anim-color-1" stroke="#353535" stroke-opacity="1" stroke-width="1" d="M7.434 40.272c26.932 2.786 99.337 3.139 99.337 3.139 1.857-.929-19.287-1.557-31.825-7.129C62.409 30.71 61.53 18.216 45.742 9.393 32.268 1.863 16.953 3.821 13.238 1.5 9.523-.822 4.42-18.186-6.729-25.433c-9.286-6.036-22.288-.928-26.932-2.785-4.643-1.858-19.97-15.193-36.01-13.665-13.688 1.303-23.679 24.442-38.957 25.97"></path></g></g><g  transform="translate(80.923 260.998)" opacity="1" style="display:block"><g  opacity="1" transform="translate(898.245 103.069)"><path  fill="#252525" fill-opacity="1" d="M34.927 17.055C26.948.696 28.205-7.446 27.451-10.946c-3.001-13.936-2.297-17.654-2.8-24.697-1.019-14.258-27.498-13.749-59.578-19.86 0 0 9.929 28.262 11.457 33.609.961 3.367 34.267 48.199 58.397 77.397V17.055z"></path></g><g  opacity="1" transform="translate(756.89 26.688)"><path  fill="#252525" fill-opacity="1" d="M-40.483-12.476c16.295 4.074 20.878 5.602 25.461 9.675 4.583 4.074 17.823 15.277 28.008 11.203 10.183-4.074 20.368-6.11 23.932-6.11C40.483 2.292 1.783-9.42-6.875-9.93c-8.656-.509-33.608-2.546-33.608-2.546z"></path></g><g  opacity="1" transform="translate(853.017 60.21)"><path  fill="#252525" fill-opacity="1" d="M-4.212 20.201C-7.66 15.46 1.235.996-1.157-1.695c-4.074-4.583-28.537-1.444-28.007-13.75.53-12.304 55.237 4.791 57.048 18.524 1.81 13.734-26.607 24.67-32.096 17.122z"></path></g><g  opacity="1" transform="translate(704.202 325.563)"><path  fill="#252525" fill-opacity="1" d="M212.016 65.653c12.187-16.348 18.729-34.545 19.281-51.102 1.146-34.371-78.293-35.902-65.304-42.39 12.988-6.488 30.55-13.372 29.786-22.537-.764-9.166-17.568-10.695-50.412-15.278l-2.292 3.056C119.733-61.015-65.89 3.373-232.443 65.653h444.459z"></path></g><g  opacity="1" transform="translate(874.566 181.546)"><path  fill="#252525" fill-opacity="1" d="M58.606-52.228a45.91 45.91 0 0 1-1.874-5.37L-58.606 56.977c1 .033 2.014.058 3.041.074 33.305.546 80.977-7.434 114.171-15.85v-93.429z"></path></g><g  opacity="1" transform="translate(467.836 199.358)"><path  class="anim-color-2" fill="#FFEBD5" fill-opacity="1" d="M335.909 38.791c9.41-4.277 85.247-9.201 129.427-25.729v-84.655c-3.321-6.447-6.348-13.958-8.749-22.912-8.561-31.925 0-51.177-53.468-58.815-9.564-1.366-17.567-43.538-66.452-32.844-31.658 6.925-166.515-9.166-166.515-9.166s40.684 6.444 95.479 15.276c6.458 1.041 18.749 11.666 30.552 13.749 12.986 2.292 18.85-3.716 29.789-1.528 10.185 2.038 21.381 12.538 29.791 16.041 13.748 5.728 33.304 6.822 35.138 8.419 3.053 2.657-13.162 18.811-14.893 30.934-2.292 16.04 12.09 32.019 5.724 43.14-6.115 10.681-62.634-2.291-100.061 25.206-43.665 32.081-145.864-97.826-294.05-58.036C-136.113-68.903-114.345 17.022-188.847 36.873c-56.808 15.137-160.446 60.703-183.319 100.825-29.165 51.16-53.743 41.491-93.17 59.16H78.067c4.113-1.788 7.853-2.633 11.52-2.255 6.534.676 13.25 1.444 20.094 2.255h195.541c11.019-3.711 21.333-8.564 30.687-14.857 63.013-42.391-13.537-137.057 0-143.21z"></path></g><g  opacity="1" transform="translate(855.597 217.041)"><path  fill="#F8DFC5" fill-opacity="1" d="M-26.653 10.025C-39.958 9.769-77.575-3.052-77.575.859c0 0 20.556 15.954 28.859 19.287 17.297-4.105 85.37-9.458 126.291-24.767v-15.525c-9.082 5.452-19.34 10.495-28.354 13.875C37.418-1.844-.173 10.534-26.653 10.025z"></path></g><g  opacity="1" transform="translate(631.518 242.143)"><path  fill="#F8DFC5" fill-opacity="1" d="M42.765 6.317c-10.334-2.187-28.643 9.166-28.643 9.166S3.811-26.908-25.977-26.908c-5.302 0-9.976.919-14.096 2.412-.016.085-8.385 2.044-17.818 12.509 11.57-6.338 38.963-10.772 50.612 5.312C5.047 10.344 4.043 23.852 11.682 25.379c7.638 1.529 16.713-13.396 26.643-14.923 9.929-1.529 19.566 10.502 19.566 10.502S52.917 8.465 42.765 6.317z"></path></g><g  opacity="1" transform="translate(667.288 135.958)"><path  fill="#F8DFC5" fill-opacity="1" d="M60.831 31.529c10.694-1.527 22.066 1.021 31.317 3.056 12.731 2.8 17.059-4.075 5.857-7.639-11.203-3.564-7.639-10.693 3.564-14.768 7.888-2.868 21.074-8.256 31.21-10.664-16.888 2.105-35.309 6.589-50.56 17.793-35.32 25.95-108.935-54.078-214.205-64.564l-.793.8c.531.096 1.065.195 1.601.296 37.603 7.018 86.335 22.444 103.405 38.007C-10.459 9.633.234 32.548 11.437 34.585c11.204 2.036 38.338-1.477 49.394-3.056z"></path></g><g  opacity="1" transform="translate(810.708 136.426)"><path  fill="#F8DFC5" fill-opacity="1" d="M-.095-.002C.096.032.162.019.12-.033l-.282.023c.021.004.046.004.067.008z"></path></g><g  opacity="1" transform="translate(467.836 199.358)"><path  stroke-linecap="round" stroke-linejoin="round" fill-opacity="0" class="anim-color-1" stroke="#353535" stroke-opacity="1" stroke-width="1" d="M335.909 38.791c9.41-4.277 85.247-9.201 129.427-25.729v-84.655c-3.321-6.447-6.348-13.958-8.749-22.912-8.561-31.925 0-51.177-53.468-58.815-9.564-1.366-17.567-43.538-66.452-32.844-31.658 6.925-166.515-9.166-166.515-9.166s40.684 6.444 95.479 15.276c6.458 1.041 18.749 11.666 30.552 13.749 12.986 2.292 18.85-3.716 29.789-1.528 10.185 2.038 21.381 12.538 29.791 16.041 13.748 5.728 33.304 6.822 35.138 8.419 3.053 2.657-13.162 18.811-14.893 30.934-2.292 16.04 12.09 32.019 5.724 43.14-6.115 10.681-62.634-2.291-100.061 25.206-43.665 32.081-145.864-97.826-294.05-58.036C-136.113-68.903-114.345 17.022-188.847 36.873c-56.808 15.137-157.348 62.634-183.319 100.825-14.64 21.53-53.743 41.491-93.17 59.16H78.067c4.113-1.788 7.853-2.633 11.52-2.255 6.534.676 13.25 1.444 20.094 2.255h195.541c11.019-3.711 21.333-8.564 30.687-14.857 63.013-42.391-13.537-137.057 0-143.21z"></path></g><g  opacity="1" transform="translate(868.791 47.502)"><path  stroke-linecap="round" stroke-linejoin="round" fill-opacity="0" class="anim-color-1" stroke="#353535" stroke-opacity="1" stroke-width="1" d="M2.419-2.737S-2.419-.318-1.654 2.737"></path></g><g  opacity="1" transform="translate(627.882 239.867)"><path  stroke-linecap="round" stroke-linejoin="round" fill-opacity="0" class="anim-color-1" stroke="#353535" stroke-opacity="1" stroke-width="1" d="M-62.44 4.01s10.312-28.642 40.099-28.642c29.788 0 40.099 42.39 40.099 42.39S36.089 6.301 46.4 8.592c10.311 2.292 16.04 16.041 16.04 16.041"></path></g><g  opacity="1" transform="translate(853.457 128.532)"><path  fill="#F8DFC5" fill-opacity="1" d="M32.011 15.021c2.037-4.583-7.129-7.638-20.368-14.258-13.24-6.62-16.295-20.367-16.295-20.367s-.219.53-.562 1.432c2.51 7.38 4.505 14.145 1.326 19.699-2.621 4.577-14.497 4.812-30.159 5.748 7.966.846 26.882 2.769 37.542 3.164 13.749.51 26.48 9.165 28.516 4.582z"></path></g><g  opacity="1" transform="translate(306.124 222.864)"><path  class="anim-color-2" fill="#FFEBD5" fill-opacity="1" d="M-45.467 27.879s-.725-17.366 12.221-22.914C-22.552.382-11.859 6.492-11.859 6.492s3.056-19.095 19.86-26.734C24.805-27.88 37.026-6.493 46.192-8.02"></path></g><g  opacity="1" transform="translate(306.124 222.864)"><path  stroke-linecap="round" stroke-linejoin="round" fill-opacity="0" class="anim-color-1" stroke="#353535" stroke-opacity="1" stroke-width="1" d="M-45.467 27.879s-.725-17.366 12.221-22.914C-22.552.382-11.859 6.492-11.859 6.492s3.056-19.095 19.86-26.734C24.805-27.88 37.026-6.493 46.192-8.02"></path></g><g  opacity="1" transform="translate(823.811 305.726)"><path  class="anim-color-2" fill="#FFEBD5" fill-opacity="1" d="M-106.022 90.491H17.174c88.848-25.982 83.785-88.259 29.209-98.492-3.246-.609 17.646-12.408 11.899-23.904-7.347-14.692-87.266-34.024-104.7-58.585"></path></g><g  opacity="1" transform="translate(698.128 322.187)"><path  fill="#F8DFC5" fill-opacity="1" d="M-177.419 14.909c21.601 16.872 18.277 51.886 9.434 58.371-.327.239-.68.492-1.044.75h16.804c4.113-1.788 7.853-2.634 11.52-2.255 6.535.676 13.252 1.444 20.098 2.255H142.83c88.863-25.979 83.815-88.259 29.236-98.492-3.246-.608 17.646-12.408 11.899-23.903-3.374-6.748-26.873-15.981-49.589-25.664 16.109 7.611 36.16 18.404 36.16 25.246 0 11.457-33.677 15.819-32.081 26.99.764 5.347 54.232 9.93 48.885 38.191-7.502 39.657-114.203 34.245-174.153 32.081-26.58-.96-128.835 15.399-154.051-11.755-57.315-61.716-86.377-58.077-88.736-52.77-2.093 4.713 27.27 11.498 52.181 30.955z"></path></g><g  opacity="1" transform="translate(823.811 305.726)"><path  stroke-linecap="round" stroke-linejoin="round" fill-opacity="0" class="anim-color-1" stroke="#353535" stroke-opacity="1" stroke-width="1" d="M-106.022 90.491H17.174c88.848-25.982 83.785-88.259 29.209-98.492-3.246-.609 17.646-12.408 11.899-23.904-7.347-14.692-87.266-34.024-104.7-58.585"></path></g><g  opacity="1" transform="translate(857.585 297.144)"><path  class="anim-color-3" fill="#F3E7D6" fill-opacity="1" d="M12.609.58-12.609-.58"></path></g><g  opacity="1" transform="translate(857.585 297.144)"><path  stroke-linecap="round" stroke-linejoin="round" fill-opacity="0" class="anim-color-1" stroke="#353535" stroke-opacity="1" stroke-width="1" d="M12.609.58-12.609-.58"></path></g></g></g></g></g></svg>