<svg xmlns="http://www.w3.org/2000/svg" viewBox="0 0 678.218 860.947"><title>ChooseChpters_02</title><path d="M101.5,517.351s31.185,126.037,229.985,128.636c183.266,2.395,228.685-96.152,246.875-140.33S419.839,418.6,314.592,418.6,101.5,517.351,101.5,517.351Z" style="fill:#353535"/><path d="M340.012,143.444l33.434-62.689a9.543,9.543,0,0,1,17.03.374l30.647,64.079" style="fill:#353535"/><path d="M201.079,682.26s52.231-13.279,138.1-7.082S470.2,682.26,470.2,682.26,485.253,800,344.494,792.92,201.079,682.26,201.079,682.26Z" style="fill:#353535"/><rect x="247.113" y="604.356" width="173.515" height="173.515" style="fill:#f3e7d7;stroke:#353535;stroke-linecap:round;stroke-linejoin:round;stroke-width:2px"/><polygon points="420.628 662.07 247.039 629.696 247.113 611.827 420.628 611.827 420.628 662.07" style="fill:#353535"/><path d="M575.155,428.14c-2.463,109.625-46.8,204.468-242.651,204.468-182.3,0-237.416-96.383-232.49-207.239C105.649,298.6,180.18,235.99,318.955,235.99S578.18,293.554,575.155,428.14Z" style="fill:#f3e7d7;stroke:#353535;stroke-linecap:round;stroke-linejoin:round;stroke-width:2px"/><path d="M169.868,454.076c35.6-11.32,61.144-5.676,62.011-16.277,1.19-14.57-20.942-26.613-62.282-15.762C146.184,428.183,145.822,461.722,169.868,454.076Z" style="fill:#f3d1ac;opacity:0.42"/><path d="M488.775,454.076c-35.6-11.32-61.144-5.676-62.011-16.277-1.19-14.57,20.942-26.613,62.282-15.762C512.459,428.183,512.821,461.722,488.775,454.076Z" style="fill:#f3d1ac;opacity:0.42"/><path d="M337.444,110.825h-.95a298.037,298.037,0,0,0-155.3,43.6c.072.049.123.086.123.086v18.087H163.23l-1.292,19.378-24.545,1.291-3.876,14.211L120.9,203.593C77.913,249.846,51.4,310.06,51.4,376.6c0,48.113,16.8,104.385,43.107,148,6.77,11.224,23.953,3.265,20.072-9.254-10.476-33.791-17.96-70.015-15.664-97.568,5.727-68.717,95.772-134.945,238.528-134.945s231.851,66.228,237.578,134.945c2.2,26.465-4.612,60.927-14.436,93.55-3.981,13.222,14.323,21.156,21.247,9.209,24.927-43.012,40.7-97.307,40.7-143.94C622.537,228.069,490.7,110.825,337.444,110.825Z" style="fill:#353535"/><path d="M98.916,417.778S79,234.264,343.146,239.12c258.484,4.752,231.876,178.658,231.876,178.658" style="fill:none;stroke:#f3e7d7;stroke-linecap:round;stroke-linejoin:round;stroke-width:2px"/><path d="M110.792,479.873s54.771-31.409,221.1-31.409c173.674,0,232.182,36.336,232.182,36.336" style="fill:none;stroke:#353535;stroke-linecap:round;stroke-linejoin:round;stroke-width:2px"/><path d="M447.373,353.891l-7.833,74.583-9.7-.922a10.487,10.487,0,0,1-8.831-6.764l-3.416-9.121a1.046,1.046,0,0,1-.065-.4l1.915-46.906a2.736,2.736,0,0,1,.5-1.468l4.787-6.805a10.713,10.713,0,0,1,9.639-4.511l10.921.9" style="fill:#353535;stroke:#353535;stroke-linecap:round;stroke-linejoin:round;stroke-width:2px"/><path d="M435.9,351.805c37.429,3.764,66.2,9.229,87.652,14.662a7.413,7.413,0,0,1,5.593,7.5l-2.451,58.9a7.407,7.407,0,0,1-8.91,6.952c-22.035-4.627-53.771-9.047-87.214-12.163a7.414,7.414,0,0,1-6.712-7.854l3.909-61.089A7.414,7.414,0,0,1,435.9,351.805Z" style="fill:#f3e7d7;stroke:#353535;stroke-linecap:round;stroke-linejoin:round;stroke-width:2px"/><ellipse cx="446.862" cy="371.374" rx="11.512" ry="10.689" style="fill:#353535;stroke:#353535;stroke-linecap:round;stroke-linejoin:round;stroke-width:2px"/><ellipse cx="449.862" cy="370.708" rx="11.512" ry="10.689" style="fill:#f3e7d7;stroke:#353535;stroke-linecap:round;stroke-linejoin:round;stroke-width:2px"/><line x1="454.54" y1="364.224" x2="446.29" y2="375.224" style="fill:#f3e7d7;stroke:#353535;stroke-linecap:round;stroke-linejoin:round;stroke-width:2px"/><ellipse cx="505.862" cy="379.624" rx="11.512" ry="10.689" style="fill:#353535;stroke:#353535;stroke-linecap:round;stroke-linejoin:round;stroke-width:2px"/><ellipse cx="508.862" cy="378.958" rx="11.512" ry="10.689" style="fill:#f3e7d7;stroke:#353535;stroke-linecap:round;stroke-linejoin:round;stroke-width:2px"/><line x1="516.017" y1="377.058" x2="502.812" y2="380.891" style="fill:#f3e7d7;stroke:#353535;stroke-linecap:round;stroke-linejoin:round;stroke-width:2px"/><ellipse cx="475.612" cy="413.374" rx="11.512" ry="10.689" style="fill:#353535;stroke:#353535;stroke-linecap:round;stroke-linejoin:round;stroke-width:2px"/><ellipse cx="478.612" cy="412.708" rx="11.512" ry="10.689" style="fill:#f3e7d7;stroke:#353535;stroke-linecap:round;stroke-linejoin:round;stroke-width:2px"/><line x1="484.609" y1="416.923" x2="473.721" y2="408.525" style="fill:#f3e7d7;stroke:#353535;stroke-linecap:round;stroke-linejoin:round;stroke-width:2px"/><path d="M258.149,507.073l-.165-6.876a14.781,14.781,0,0,1,14.781-14.781h0A14.781,14.781,0,0,1,287.546,500.2l-.161,9.8" style="fill:#f3e7d7;stroke:#353535;stroke-linecap:round;stroke-linejoin:round;stroke-width:2px"/><path d="M400.249,504.689V500.2a14.781,14.781,0,0,0-14.78-14.781h0a14.781,14.781,0,0,0-14.78,14.781l.017,10.287" style="fill:#f3e7d7;stroke:#353535;stroke-linecap:round;stroke-linejoin:round;stroke-width:2px"/><path d="M235.813,503.892s49.885,9.238,97.923,9.238S416.878,500.2,416.878,500.2" style="fill:none;stroke:#353535;stroke-linecap:round;stroke-linejoin:round;stroke-width:2px"/><path d="M480.469,744.23s39.73,1.683,97.971,27.148c57.618,25.193,115.613,68.128,115.613,68.128S460.969,1502.661,385.425,1497.94C300.31,1492.62-4.714,819.825-4.714,819.825s52.347-34.116,90.431-49.092c64.148-25.223,97.066-26.5,97.066-26.5" style="fill:#f3e7d7;stroke:#353535;stroke-linecap:round;stroke-linejoin:round;stroke-width:2px"/><path d="M201.079,682.26s-23.374.769-35.411,21.247c-17,28.915,14.164,38.952,14.164,38.952l-21.247-7.082s-28.328,17.706-10.623,63.74,63.74,102.692,70.822,198.3-19.225,96.363,3.541,148.726c17.706,40.723,60.2,49.576,60.2,49.576s19.058,97.91,42.96,97.024c22.381-.829,41.142-58.957,44.683-115.615,2.66-42.558,2.932-61.782,25.673-101.807,22.132-38.952,21.247-77.9,21.247-77.9s45.444-50.166,56.067-104.463c6.834-34.926-2.951-61.97-2.951-61.97s33.641-28.919,31.87-67.281c-1.664-36.074-31.87-81.446-31.87-81.446s-24.407,57.1-127.48,46.035C238.26,717.081,201.079,682.26,201.079,682.26Z" style="fill:#f3e7d7;stroke:#353535;stroke-linecap:round;stroke-linejoin:round;stroke-width:2px"/><path d="M466.188,693.822s16.187-52.3,54.787-68.484,68.484,1.245,74.71,14.942-2.49,31.129-53.542,29.884-62.258,31.129-62.258,31.129" style="fill:#f3e7d7;stroke:#353535;stroke-linecap:round;stroke-linejoin:round;stroke-width:2px"/><path d="M473.659,701.293s47.316-6.226,85.916,24.9c37.112,29.928,51.052,128.252,18.678,141.949-33.434,14.145-57.278-27.394-64.749-83.426s-38.6-67.239-38.6-67.239" style="fill:#f3e7d7;stroke:#353535;stroke-linecap:round;stroke-linejoin:round;stroke-width:2px"/><path d="M470.2,830.987s-20.2,8.519-33.9,8.519" style="fill:#f3e7d7;stroke:#353535;stroke-linecap:round;stroke-linejoin:round;stroke-width:2px"/><rect x="179.975" y="369.201" width="46.745" height="44.268" rx="19.398" transform="translate(10.291 -5.178) rotate(1.497)" style="fill:#353535"/><ellipse cx="202.466" cy="391.29" rx="22.249" ry="42.273" transform="translate(-193.978 583.466) rotate(-88.503)" style="fill:none;stroke:#353535;stroke-linecap:round;stroke-linejoin:round;stroke-width:2px"/><line x1="419.98" y1="582.043" x2="503.914" y2="551.211" style="fill:#f3e7d7;stroke:#353535;stroke-linecap:round;stroke-linejoin:round;stroke-width:2px"/><line x1="429.407" y1="566.064" x2="437.509" y2="588.12" style="fill:#f3e7d7;stroke:#353535;stroke-linecap:round;stroke-linejoin:round;stroke-width:2px"/><line x1="458.202" y1="555.487" x2="466.304" y2="577.542" style="fill:#f3e7d7;stroke:#353535;stroke-linecap:round;stroke-linejoin:round;stroke-width:2px"/><line x1="486.997" y1="544.909" x2="495.099" y2="566.965" style="fill:#f3e7d7;stroke:#353535;stroke-linecap:round;stroke-linejoin:round;stroke-width:2px"/><line x1="200.457" y1="331.621" x2="304.234" y2="359.29" style="fill:none;stroke:#353535;stroke-linecap:round;stroke-linejoin:round;stroke-width:2px"/><line x1="220.149" y1="324.713" x2="214.095" y2="347.416" style="fill:none;stroke:#353535;stroke-linecap:round;stroke-linejoin:round;stroke-width:2px"/><line x1="255.751" y1="334.205" x2="249.698" y2="356.909" style="fill:none;stroke:#353535;stroke-linecap:round;stroke-linejoin:round;stroke-width:2px"/><line x1="291.353" y1="343.697" x2="285.3" y2="366.401" style="fill:none;stroke:#353535;stroke-linecap:round;stroke-linejoin:round;stroke-width:2px"/><path d="M363.153,518.28s-10.232-6.334-30.21-5.359-34.595,18.515-34.595,18.515,19.025-14.878,33.692-12.878S363.153,518.28,363.153,518.28Z" style="fill:#f3d1ac;opacity:0.42"/><path d="M298.348,531.436s14.618-17.541,34.595-18.515,30.21,5.359,30.21,5.359" style="fill:none;stroke:#353535;stroke-linecap:round;stroke-linejoin:round;stroke-width:2px"/><path d="M428.534,188.671l-63.857-111.4a17.252,17.252,0,0,0-30.75,1.615l-51.848,117.5s22.655,21.66,72.789,19.933" style="fill:#353535;stroke:#f3e7d7;stroke-linecap:round;stroke-linejoin:round;stroke-width:2px"/></svg>